G04 (created by PCBNEW (2013-08-09 BZR 4280)-product) date 8/17/2013 3:52:17 PM*
%MOIN*%
G04 Gerber Fmt 3.4, Leading zero omitted, Abs format*
%FSLAX34Y34*%
G01*
G70*
G90*
G04 APERTURE LIST*
%ADD10C,0.001000*%
%ADD11R,0.118100X0.118100*%
%ADD12C,0.118100*%
%ADD13R,0.060000X0.060000*%
%ADD14C,0.060000*%
%ADD15R,0.055000X0.035000*%
%ADD16R,0.035000X0.055000*%
%ADD17O,0.078700X0.157500*%
%ADD18O,0.157500X0.078700*%
%ADD19O,0.177200X0.078700*%
%ADD20R,0.039400X0.023600*%
%ADD21R,0.070900X0.051200*%
%ADD22R,0.070900X0.149600*%
%ADD23R,0.030000X0.020000*%
%ADD24R,0.055100X0.023600*%
%ADD25R,0.016000X0.065000*%
%ADD26R,0.078700X0.216500*%
%ADD27C,0.040000*%
%ADD28C,0.039370*%
%ADD29C,0.032000*%
%ADD30C,0.018000*%
%ADD31C,0.010000*%
%ADD32C,0.024000*%
%ADD33C,0.025000*%
%ADD34C,0.007874*%
G04 APERTURE END LIST*
G54D10*
G54D11*
X65800Y-63600D03*
G54D12*
X67800Y-63600D03*
X69800Y-63600D03*
G54D13*
X65389Y-46774D03*
G54D14*
X65389Y-47774D03*
X66389Y-46774D03*
X66389Y-47774D03*
X67389Y-46774D03*
X67389Y-47774D03*
X68389Y-46774D03*
X68389Y-47774D03*
G54D13*
X65385Y-45776D03*
G54D14*
X65385Y-44776D03*
X66385Y-45776D03*
X66385Y-44776D03*
X67385Y-45776D03*
X67385Y-44776D03*
X68385Y-45776D03*
X68385Y-44776D03*
X69385Y-45776D03*
X69385Y-44776D03*
X70385Y-45776D03*
X70385Y-44776D03*
X71385Y-45776D03*
X71385Y-44776D03*
X72385Y-45776D03*
X72385Y-44776D03*
X73385Y-45776D03*
X73385Y-44776D03*
X74385Y-45776D03*
X74385Y-44776D03*
X75385Y-45776D03*
X75385Y-44776D03*
X76385Y-45776D03*
X76385Y-44776D03*
X77385Y-45776D03*
X77385Y-44776D03*
G54D15*
X65680Y-54425D03*
X65680Y-55175D03*
X78700Y-52275D03*
X78700Y-51525D03*
X68954Y-51905D03*
X68954Y-51155D03*
X67718Y-53624D03*
X67718Y-52874D03*
X68948Y-49785D03*
X68948Y-50535D03*
X75800Y-51675D03*
X75800Y-50925D03*
G54D16*
X68445Y-58400D03*
X69195Y-58400D03*
G54D15*
X87144Y-62023D03*
X87144Y-62773D03*
X95190Y-62325D03*
X95190Y-63075D03*
X75600Y-53675D03*
X75600Y-52925D03*
X72600Y-59875D03*
X72600Y-59125D03*
X73600Y-59875D03*
X73600Y-59125D03*
X70470Y-51635D03*
X70470Y-52385D03*
G54D16*
X82145Y-52620D03*
X82895Y-52620D03*
G54D15*
X75720Y-49575D03*
X75720Y-48825D03*
X74900Y-49575D03*
X74900Y-48825D03*
G54D16*
X82185Y-51480D03*
X82935Y-51480D03*
G54D15*
X65900Y-59875D03*
X65900Y-59125D03*
X67000Y-59875D03*
X67000Y-59125D03*
X76500Y-52925D03*
X76500Y-53675D03*
X70800Y-49575D03*
X70800Y-48825D03*
G54D17*
X85147Y-61382D03*
G54D18*
X83060Y-62662D03*
G54D19*
X83060Y-60299D03*
G54D11*
X89100Y-63860D03*
G54D12*
X91100Y-63860D03*
X93100Y-63860D03*
G54D11*
X86780Y-45740D03*
G54D12*
X84780Y-45740D03*
X82780Y-45740D03*
G54D13*
X74380Y-46780D03*
G54D14*
X74380Y-47780D03*
X73380Y-46780D03*
X73380Y-47780D03*
X72380Y-46780D03*
X72380Y-47780D03*
G54D11*
X72200Y-63600D03*
G54D12*
X74200Y-63600D03*
X76200Y-63600D03*
G54D15*
X66815Y-52874D03*
X66815Y-53624D03*
X65920Y-52865D03*
X65920Y-53615D03*
X87160Y-63615D03*
X87160Y-64365D03*
X95200Y-63965D03*
X95200Y-64715D03*
X70700Y-55175D03*
X70700Y-54425D03*
X72500Y-55175D03*
X72500Y-54425D03*
X71600Y-55175D03*
X71600Y-54425D03*
X73400Y-55175D03*
X73400Y-54425D03*
X72440Y-49575D03*
X72440Y-48825D03*
X74080Y-49575D03*
X74080Y-48825D03*
X71620Y-49575D03*
X71620Y-48825D03*
X73280Y-49575D03*
X73280Y-48825D03*
G54D20*
X66384Y-54425D03*
X66384Y-55175D03*
X66384Y-54800D03*
X67216Y-55175D03*
X67216Y-54425D03*
G54D21*
X67821Y-51706D03*
X67821Y-50800D03*
X67821Y-49894D03*
G54D22*
X65459Y-50800D03*
G54D23*
X77900Y-52275D03*
X77900Y-51525D03*
X76900Y-52275D03*
X77900Y-51900D03*
X76900Y-51525D03*
G54D24*
X67770Y-57450D03*
X69870Y-57450D03*
X67770Y-56950D03*
X67770Y-56450D03*
X67770Y-55950D03*
X69870Y-56950D03*
X69870Y-56450D03*
X69870Y-55950D03*
G54D25*
X72932Y-53397D03*
X73188Y-53397D03*
X73444Y-53397D03*
X73700Y-53397D03*
X72164Y-50563D03*
X72164Y-53397D03*
X72420Y-53397D03*
X72676Y-53397D03*
X73956Y-50563D03*
X73700Y-50563D03*
X73444Y-50563D03*
X73188Y-50563D03*
X72932Y-50563D03*
X72676Y-50563D03*
X73956Y-53397D03*
X72420Y-50563D03*
X71908Y-50563D03*
X71653Y-50563D03*
X71397Y-50563D03*
X71397Y-53397D03*
X71653Y-53397D03*
X71908Y-53397D03*
X74212Y-53397D03*
X74467Y-53397D03*
X74723Y-53397D03*
X74723Y-50563D03*
X74467Y-50563D03*
X74212Y-50563D03*
G54D24*
X68250Y-60850D03*
X70350Y-60850D03*
X68250Y-60350D03*
X68250Y-59850D03*
X68250Y-59350D03*
X70350Y-60350D03*
X70350Y-59850D03*
X70350Y-59350D03*
X74550Y-60750D03*
X76650Y-60750D03*
X74550Y-60250D03*
X74550Y-59750D03*
X74550Y-59250D03*
X76650Y-60250D03*
X76650Y-59750D03*
X76650Y-59250D03*
G54D26*
X80320Y-53630D03*
X80320Y-49890D03*
G54D15*
X71670Y-62220D03*
X71670Y-61470D03*
X72401Y-62220D03*
X72401Y-61470D03*
X77865Y-62100D03*
X77865Y-61350D03*
X78720Y-62115D03*
X78720Y-61365D03*
X69230Y-62318D03*
X69230Y-61568D03*
X68467Y-62318D03*
X68467Y-61568D03*
X65457Y-62213D03*
X65457Y-61463D03*
X66325Y-62220D03*
X66325Y-61470D03*
G54D27*
X71533Y-60347D03*
X69251Y-60305D03*
X71862Y-59346D03*
X65730Y-56770D03*
X69192Y-56772D03*
X65208Y-52833D03*
X69000Y-52700D03*
X66820Y-55960D03*
X78556Y-47880D03*
X70460Y-53340D03*
G54D28*
X69360Y-47820D03*
G54D29*
X64965Y-52125D03*
X65905Y-44282D03*
X87960Y-61080D03*
X73906Y-54802D03*
X73920Y-52494D03*
X87142Y-61072D03*
X72460Y-51380D03*
X80320Y-51360D03*
X73060Y-51700D03*
X80320Y-52060D03*
X67858Y-55146D03*
X67795Y-54159D03*
X73560Y-52000D03*
X75160Y-51052D03*
X73180Y-55860D03*
X70240Y-50060D03*
G54D30*
X65457Y-62213D02*
X66318Y-62213D01*
X65800Y-62888D02*
X65800Y-63600D01*
X66311Y-62377D02*
X65800Y-62888D01*
X66311Y-62220D02*
X66311Y-62377D01*
X66318Y-62213D02*
X66311Y-62220D01*
X65457Y-61463D02*
X66318Y-61463D01*
X66328Y-61453D02*
X67800Y-61453D01*
X66318Y-61463D02*
X66328Y-61453D01*
G54D31*
X76900Y-52275D02*
X76675Y-52275D01*
X76000Y-52200D02*
X75800Y-52000D01*
X76600Y-52200D02*
X76000Y-52200D01*
X76675Y-52275D02*
X76600Y-52200D01*
X75800Y-51675D02*
X75800Y-52000D01*
X73188Y-52812D02*
X73188Y-53397D01*
X75800Y-52000D02*
X75600Y-52200D01*
X75600Y-52200D02*
X73800Y-52200D01*
X73800Y-52200D02*
X73188Y-52812D01*
X76500Y-52925D02*
X76500Y-52500D01*
X76875Y-52300D02*
X76900Y-52275D01*
X76700Y-52300D02*
X76875Y-52300D01*
X76500Y-52500D02*
X76700Y-52300D01*
G54D30*
X66840Y-49898D02*
X66345Y-49898D01*
X66345Y-49898D02*
X64782Y-48335D01*
X68948Y-49785D02*
X67930Y-49785D01*
X67930Y-49785D02*
X67821Y-49894D01*
X67821Y-49894D02*
X67266Y-49894D01*
X67266Y-49894D02*
X66840Y-49898D01*
X66840Y-49898D02*
X66740Y-49900D01*
G54D31*
X67930Y-49785D02*
X67821Y-49894D01*
G54D32*
X68740Y-59875D02*
X68821Y-59875D01*
X73725Y-59750D02*
X74550Y-59750D01*
X73485Y-59990D02*
X73725Y-59750D01*
X71890Y-59990D02*
X73485Y-59990D01*
X71533Y-60347D02*
X71890Y-59990D01*
X68821Y-59875D02*
X69251Y-60305D01*
X67216Y-54425D02*
X67216Y-54133D01*
X66815Y-53886D02*
X66815Y-53624D01*
X66920Y-53991D02*
X66815Y-53886D01*
X67074Y-53991D02*
X66920Y-53991D01*
X67216Y-54133D02*
X67074Y-53991D01*
G54D30*
X69010Y-56450D02*
X69010Y-56350D01*
X68740Y-56080D02*
X68740Y-55380D01*
X69010Y-56350D02*
X68740Y-56080D01*
X68740Y-55380D02*
X67880Y-54520D01*
X67880Y-54520D02*
X67640Y-54520D01*
X67640Y-54520D02*
X67545Y-54425D01*
X67545Y-54425D02*
X67216Y-54425D01*
X69870Y-56450D02*
X69010Y-56450D01*
X69010Y-56450D02*
X68956Y-56450D01*
X68795Y-59875D02*
X68740Y-59875D01*
X68740Y-59875D02*
X65900Y-59875D01*
X68820Y-59850D02*
X68795Y-59875D01*
X68820Y-56586D02*
X68820Y-59850D01*
X68956Y-56450D02*
X68820Y-56586D01*
G54D31*
X67510Y-54390D02*
X67550Y-54390D01*
X68740Y-56100D02*
X69090Y-56450D01*
X68740Y-55380D02*
X68740Y-56100D01*
X67880Y-54520D02*
X68740Y-55380D01*
X67680Y-54520D02*
X67880Y-54520D01*
X67550Y-54390D02*
X67680Y-54520D01*
X69870Y-56450D02*
X69090Y-56450D01*
X69090Y-56450D02*
X69070Y-56450D01*
X69070Y-56450D02*
X68820Y-56700D01*
X68820Y-56700D02*
X68820Y-59840D01*
X67510Y-54390D02*
X67500Y-54400D01*
X67500Y-54400D02*
X67241Y-54400D01*
X67241Y-54400D02*
X67216Y-54425D01*
X68150Y-59850D02*
X65725Y-59850D01*
X65725Y-59850D02*
X65700Y-59875D01*
G54D30*
X68467Y-62318D02*
X69230Y-62318D01*
X69230Y-62318D02*
X69190Y-62358D01*
X69190Y-62358D02*
X69190Y-62830D01*
X69190Y-62830D02*
X68780Y-63240D01*
X68780Y-63240D02*
X68780Y-64140D01*
X68780Y-64140D02*
X68110Y-64810D01*
X68110Y-64810D02*
X66290Y-64810D01*
X66290Y-64810D02*
X65800Y-64320D01*
X65800Y-64320D02*
X65800Y-63600D01*
X71670Y-62220D02*
X72401Y-62220D01*
X77865Y-62100D02*
X78705Y-62100D01*
X78705Y-62100D02*
X78720Y-62115D01*
X72200Y-63600D02*
X72200Y-62800D01*
X72401Y-62599D02*
X72401Y-62220D01*
X72200Y-62800D02*
X72401Y-62599D01*
X72200Y-63600D02*
X72200Y-63680D01*
X77865Y-63870D02*
X77865Y-62100D01*
X76890Y-64845D02*
X77865Y-63870D01*
X73365Y-64845D02*
X76890Y-64845D01*
X72200Y-63680D02*
X73365Y-64845D01*
G54D32*
X65208Y-52833D02*
X65208Y-52618D01*
X65208Y-52618D02*
X65492Y-52333D01*
G54D30*
X74091Y-59130D02*
X74091Y-59193D01*
X72765Y-59125D02*
X72665Y-59124D01*
X72665Y-59124D02*
X74091Y-59130D01*
X72600Y-59125D02*
X72765Y-59125D01*
X74148Y-59250D02*
X74550Y-59250D01*
X74091Y-59193D02*
X74148Y-59250D01*
G54D32*
X72600Y-59125D02*
X72083Y-59125D01*
X72083Y-59125D02*
X71862Y-59346D01*
X65900Y-59125D02*
X65900Y-56940D01*
X65900Y-56940D02*
X65730Y-56770D01*
G54D30*
X75600Y-52925D02*
X75600Y-53200D01*
X75600Y-53200D02*
X75700Y-53300D01*
X75700Y-53300D02*
X77100Y-53300D01*
X77100Y-53300D02*
X77420Y-52980D01*
X77420Y-52980D02*
X77420Y-51990D01*
X77420Y-51990D02*
X77555Y-51855D01*
X75600Y-52925D02*
X75600Y-52700D01*
X75600Y-52700D02*
X75500Y-52600D01*
X75500Y-52600D02*
X74300Y-52600D01*
X74300Y-52600D02*
X73956Y-52944D01*
X73956Y-52944D02*
X73956Y-53397D01*
X65900Y-59125D02*
X67000Y-59125D01*
X67000Y-59125D02*
X67802Y-59356D01*
X67802Y-59356D02*
X68250Y-59350D01*
G54D33*
X87160Y-64365D02*
X88105Y-64365D01*
X88610Y-63860D02*
X89100Y-63860D01*
X88105Y-64365D02*
X88610Y-63860D01*
X95200Y-64715D02*
X94645Y-64715D01*
X90460Y-65220D02*
X89100Y-63860D01*
X94140Y-65220D02*
X90460Y-65220D01*
X94645Y-64715D02*
X94140Y-65220D01*
G54D31*
X75600Y-52925D02*
X75600Y-53200D01*
X75600Y-53200D02*
X75700Y-53300D01*
G54D33*
X75720Y-48500D02*
X75720Y-48825D01*
X75880Y-48340D02*
X75720Y-48500D01*
X76240Y-48340D02*
X75880Y-48340D01*
X76460Y-48560D02*
X76240Y-48340D01*
X76460Y-49920D02*
X76460Y-48560D01*
X76240Y-50140D02*
X76460Y-49920D01*
X75720Y-48825D02*
X74900Y-48825D01*
G54D31*
X72525Y-59250D02*
X72400Y-59125D01*
X65700Y-59125D02*
X66900Y-59125D01*
X66900Y-59125D02*
X66925Y-59100D01*
X73956Y-53397D02*
X73956Y-52944D01*
X75600Y-52700D02*
X75600Y-52925D01*
X75500Y-52600D02*
X75600Y-52700D01*
X74300Y-52600D02*
X75500Y-52600D01*
X73956Y-52944D02*
X74300Y-52600D01*
X75700Y-53300D02*
X77100Y-53300D01*
G54D33*
X75840Y-50140D02*
X76240Y-50140D01*
G54D32*
X75840Y-50160D02*
X75840Y-50500D01*
G54D31*
X75840Y-50140D02*
X75840Y-50160D01*
X77100Y-53300D02*
X77420Y-52980D01*
G54D33*
X74820Y-50563D02*
X75057Y-50563D01*
X75480Y-50140D02*
X75840Y-50140D01*
X75057Y-50563D02*
X75480Y-50140D01*
G54D32*
X75840Y-50500D02*
X76800Y-50500D01*
X76800Y-50500D02*
X77400Y-51100D01*
X77400Y-51100D02*
X77400Y-51700D01*
X77400Y-51700D02*
X77555Y-51855D01*
X77555Y-51855D02*
X77600Y-51900D01*
X77600Y-51900D02*
X78180Y-51900D01*
G54D31*
X77420Y-52080D02*
X77600Y-51900D01*
X77420Y-52980D02*
X77420Y-52080D01*
X77400Y-51700D02*
X77600Y-51900D01*
X77400Y-51100D02*
X77400Y-51700D01*
X76800Y-50500D02*
X77400Y-51100D01*
X75900Y-50500D02*
X76800Y-50500D01*
X75800Y-50600D02*
X75900Y-50500D01*
G54D30*
X69192Y-56772D02*
X69370Y-56950D01*
G54D32*
X65188Y-52853D02*
X65208Y-52833D01*
G54D30*
X65230Y-52855D02*
X65208Y-52833D01*
X65230Y-52855D02*
X65259Y-52884D01*
X65214Y-52854D02*
X65188Y-52853D01*
X65188Y-52853D02*
X65208Y-52833D01*
G54D32*
X65097Y-52944D02*
X65208Y-52833D01*
G54D30*
X65208Y-52833D02*
X65188Y-52853D01*
X65188Y-52853D02*
X65214Y-52854D01*
G54D32*
X65459Y-50800D02*
X65459Y-52239D01*
X65097Y-55131D02*
X65097Y-52944D01*
X65141Y-55175D02*
X65097Y-55131D01*
G54D30*
X65492Y-52333D02*
X65553Y-52333D01*
G54D32*
X65459Y-52239D02*
X65553Y-52333D01*
G54D30*
X68954Y-51905D02*
X68545Y-51905D01*
X68346Y-51706D02*
X67821Y-51706D01*
X68545Y-51905D02*
X68346Y-51706D01*
G54D32*
X78700Y-52275D02*
X78700Y-57380D01*
X80960Y-60562D02*
X83060Y-62662D01*
X80960Y-59640D02*
X80960Y-60562D01*
X78700Y-57380D02*
X80960Y-59640D01*
X68954Y-52654D02*
X68954Y-51905D01*
X69000Y-52700D02*
X68954Y-52654D01*
X66384Y-54425D02*
X66745Y-54425D01*
X66820Y-54500D02*
X66820Y-55960D01*
X66745Y-54425D02*
X66820Y-54500D01*
X66384Y-54425D02*
X65680Y-54425D01*
G54D31*
X78700Y-52275D02*
X77900Y-52275D01*
G54D32*
X79140Y-48136D02*
X78812Y-48136D01*
X78812Y-48136D02*
X78556Y-47880D01*
X70470Y-52385D02*
X70470Y-53330D01*
X70470Y-53330D02*
X70460Y-53340D01*
G54D30*
X71397Y-50563D02*
X71397Y-51458D01*
X71397Y-51458D02*
X70470Y-52385D01*
G54D32*
X77385Y-45776D02*
X77385Y-46431D01*
X79090Y-48136D02*
X79140Y-48136D01*
X77385Y-45776D02*
X77385Y-46545D01*
X74409Y-46750D02*
X74380Y-46780D01*
X77180Y-46750D02*
X74409Y-46750D01*
X77385Y-46545D02*
X77180Y-46750D01*
X74380Y-46780D02*
X74380Y-47780D01*
G54D31*
X74380Y-47780D02*
X74380Y-46780D01*
G54D33*
X82895Y-52620D02*
X82895Y-51520D01*
X82895Y-51520D02*
X82935Y-51480D01*
G54D32*
X79140Y-48136D02*
X82280Y-48136D01*
X82280Y-48136D02*
X82920Y-48776D01*
X82920Y-48776D02*
X82920Y-54660D01*
X82920Y-54660D02*
X85147Y-56887D01*
X70800Y-48825D02*
X70800Y-48660D01*
X69960Y-47820D02*
X69360Y-47820D01*
X70800Y-48660D02*
X69960Y-47820D01*
X72380Y-47780D02*
X72380Y-46780D01*
X65553Y-52333D02*
X65897Y-52677D01*
G54D30*
X67357Y-52332D02*
X66800Y-51775D01*
X67613Y-52332D02*
X67357Y-52332D01*
G54D32*
X66800Y-51020D02*
X66800Y-51775D01*
X67020Y-50800D02*
X66800Y-51020D01*
X66800Y-51775D02*
X65897Y-52677D01*
X65897Y-52677D02*
X65900Y-52680D01*
G54D30*
X67718Y-52437D02*
X67613Y-52332D01*
G54D32*
X65680Y-55175D02*
X65141Y-55175D01*
G54D30*
X67718Y-52874D02*
X67718Y-52437D01*
G54D32*
X67821Y-50800D02*
X67020Y-50800D01*
X85147Y-56887D02*
X85147Y-61382D01*
X78700Y-51525D02*
X79275Y-51525D01*
X79275Y-51525D02*
X79460Y-51710D01*
X79460Y-51710D02*
X79460Y-55160D01*
X79460Y-55160D02*
X85147Y-60847D01*
X85147Y-60847D02*
X85147Y-61382D01*
G54D30*
X69370Y-56950D02*
X69870Y-56950D01*
X68954Y-51155D02*
X68455Y-51155D01*
X68455Y-51155D02*
X68100Y-50800D01*
X68100Y-50800D02*
X67821Y-50800D01*
X68948Y-50535D02*
X68465Y-50535D01*
X68465Y-50535D02*
X68200Y-50800D01*
X68200Y-50800D02*
X67821Y-50800D01*
X69870Y-56950D02*
X69470Y-56950D01*
X69470Y-56950D02*
X69195Y-57225D01*
X69195Y-57225D02*
X69195Y-58400D01*
G54D32*
X65680Y-55175D02*
X65675Y-55175D01*
X66384Y-54800D02*
X66080Y-54800D01*
X65705Y-55175D02*
X65680Y-55175D01*
X66080Y-54800D02*
X65705Y-55175D01*
X78555Y-51525D02*
X78180Y-51900D01*
X78555Y-51525D02*
X78700Y-51525D01*
X75840Y-50500D02*
X75840Y-50885D01*
X75840Y-50885D02*
X75800Y-50925D01*
G54D31*
X75840Y-50885D02*
X75800Y-50925D01*
X69195Y-58600D02*
X69195Y-57225D01*
X69195Y-57225D02*
X69470Y-56950D01*
X68100Y-50800D02*
X67821Y-50800D01*
X68455Y-51155D02*
X68100Y-50800D01*
X67821Y-50800D02*
X68200Y-50800D01*
X68200Y-50800D02*
X68465Y-50535D01*
X75800Y-50925D02*
X75800Y-50600D01*
X77600Y-51900D02*
X77900Y-51900D01*
X64833Y-55433D02*
X64833Y-52256D01*
X65000Y-55600D02*
X66200Y-55600D01*
X66200Y-55600D02*
X66384Y-55416D01*
X66384Y-55175D02*
X66384Y-55416D01*
X64833Y-55433D02*
X65000Y-55600D01*
X64833Y-52256D02*
X64965Y-52125D01*
X68880Y-44380D02*
X68880Y-44319D01*
X68880Y-44319D02*
X68843Y-44282D01*
X68843Y-44282D02*
X65905Y-44282D01*
X68867Y-45264D02*
X68183Y-45780D01*
X68183Y-45738D02*
X68880Y-45240D01*
X68880Y-45240D02*
X68880Y-44380D01*
X68183Y-45780D02*
X68183Y-45738D01*
X75159Y-45260D02*
X68867Y-45264D01*
X64965Y-52125D02*
X64950Y-52139D01*
X77900Y-46260D02*
X77900Y-45340D01*
X75159Y-45260D02*
X77720Y-45260D01*
X77720Y-45260D02*
X77900Y-45340D01*
X77900Y-46220D02*
X77900Y-46260D01*
X77900Y-46260D02*
X77900Y-51525D01*
X77900Y-45340D02*
X77920Y-45360D01*
X77900Y-51525D02*
X77900Y-49200D01*
X75160Y-45260D02*
X75159Y-45260D01*
X67385Y-45776D02*
X67385Y-45985D01*
X71620Y-48600D02*
X71620Y-48825D01*
X70300Y-47280D02*
X71620Y-48600D01*
X68040Y-47280D02*
X70300Y-47280D01*
X67900Y-47140D02*
X68040Y-47280D01*
X67900Y-46500D02*
X67900Y-47140D01*
X67385Y-45985D02*
X67900Y-46500D01*
X72440Y-48825D02*
X72440Y-48460D01*
X66901Y-45260D02*
X66385Y-45776D01*
X67620Y-45260D02*
X66901Y-45260D01*
X67880Y-45520D02*
X67620Y-45260D01*
X67880Y-46080D02*
X67880Y-45520D01*
X68080Y-46280D02*
X67880Y-46080D01*
X69880Y-46280D02*
X68080Y-46280D01*
X71920Y-48320D02*
X69880Y-46280D01*
X72300Y-48320D02*
X71920Y-48320D01*
X72440Y-48460D02*
X72300Y-48320D01*
X66385Y-45776D02*
X66385Y-45785D01*
G54D30*
X95190Y-61620D02*
X95190Y-62325D01*
X95010Y-61440D02*
X95190Y-61620D01*
X88320Y-61440D02*
X95010Y-61440D01*
X87960Y-61080D02*
X88320Y-61440D01*
X73900Y-54012D02*
X73906Y-54802D01*
X73444Y-53008D02*
X73444Y-53397D01*
X73920Y-52494D02*
X73444Y-53008D01*
X73700Y-53862D02*
X73900Y-54012D01*
X87144Y-61074D02*
X87142Y-61072D01*
X70350Y-59350D02*
X70730Y-59350D01*
X74212Y-55868D02*
X74212Y-53397D01*
X70730Y-59350D02*
X74212Y-55868D01*
G54D31*
X70250Y-59350D02*
X70750Y-59350D01*
X74200Y-55900D02*
X74200Y-53197D01*
X70750Y-59350D02*
X74200Y-55900D01*
X71600Y-54425D02*
X71600Y-54200D01*
X72164Y-53836D02*
X72164Y-53397D01*
X71900Y-54100D02*
X72164Y-53836D01*
X71700Y-54100D02*
X71900Y-54100D01*
X71600Y-54200D02*
X71700Y-54100D01*
G54D34*
X74080Y-49575D02*
X74080Y-49880D01*
X73188Y-50232D02*
X73188Y-50563D01*
X73440Y-49980D02*
X73188Y-50232D01*
X73980Y-49980D02*
X73440Y-49980D01*
X74080Y-49880D02*
X73980Y-49980D01*
X73280Y-49575D02*
X73280Y-49700D01*
X72932Y-50048D02*
X72932Y-50563D01*
X73280Y-49700D02*
X72932Y-50048D01*
G54D31*
X73400Y-54425D02*
X73325Y-54425D01*
X72676Y-53776D02*
X72676Y-53397D01*
X73325Y-54425D02*
X72676Y-53776D01*
G54D30*
X68467Y-61568D02*
X69230Y-61568D01*
X69230Y-61568D02*
X69268Y-61530D01*
X69268Y-61530D02*
X69800Y-61530D01*
G54D32*
X68250Y-60350D02*
X68250Y-60850D01*
X67945Y-61155D02*
X68250Y-60850D01*
X69800Y-63600D02*
X69800Y-61860D01*
X69800Y-61860D02*
X69800Y-61530D01*
X69800Y-61530D02*
X69800Y-60980D01*
X69800Y-60980D02*
X69930Y-60850D01*
X67800Y-61300D02*
X67945Y-61155D01*
G54D30*
X67770Y-57450D02*
X68270Y-57450D01*
X68270Y-57450D02*
X68445Y-57625D01*
X68445Y-57625D02*
X68445Y-58400D01*
G54D31*
X68445Y-57625D02*
X68445Y-58600D01*
X68270Y-57450D02*
X68445Y-57625D01*
G54D30*
X64782Y-48335D02*
X64782Y-47777D01*
X64782Y-45116D02*
X64782Y-47777D01*
G54D32*
X66385Y-44776D02*
X65385Y-44776D01*
G54D30*
X65283Y-44713D02*
X65191Y-44713D01*
X65191Y-44713D02*
X64782Y-45123D01*
X73900Y-61035D02*
X72465Y-61035D01*
X72401Y-61099D02*
X72401Y-61470D01*
X72465Y-61035D02*
X72401Y-61099D01*
X72401Y-61470D02*
X71670Y-61470D01*
X77000Y-61190D02*
X77705Y-61190D01*
X77880Y-61365D02*
X78720Y-61365D01*
X77705Y-61190D02*
X77880Y-61365D01*
G54D32*
X76650Y-60250D02*
X76650Y-60750D01*
X76650Y-60750D02*
X76950Y-60750D01*
X77000Y-60800D02*
X77000Y-61190D01*
X77000Y-61190D02*
X77000Y-62800D01*
X76950Y-60750D02*
X77000Y-60800D01*
X73900Y-63300D02*
X74200Y-63600D01*
X73900Y-60900D02*
X73900Y-61035D01*
X73900Y-61035D02*
X73900Y-63300D01*
X74050Y-60750D02*
X73900Y-60900D01*
G54D31*
X73280Y-48825D02*
X73280Y-48420D01*
X73380Y-46880D02*
X73380Y-46780D01*
X72900Y-47360D02*
X73380Y-46880D01*
X72900Y-48040D02*
X72900Y-47360D01*
X73280Y-48420D02*
X72900Y-48040D01*
G54D32*
X77000Y-62800D02*
X76200Y-63600D01*
X74550Y-60750D02*
X74050Y-60750D01*
X74550Y-60750D02*
X74550Y-60250D01*
G54D30*
X82185Y-51480D02*
X81460Y-51480D01*
X81460Y-51480D02*
X80320Y-50340D01*
X80320Y-50340D02*
X80320Y-49890D01*
G54D34*
X80320Y-49890D02*
X80320Y-51360D01*
X72164Y-51084D02*
X72164Y-50563D01*
X72460Y-51380D02*
X72164Y-51084D01*
G54D30*
X82145Y-52620D02*
X81330Y-52620D01*
X81330Y-52620D02*
X80320Y-53630D01*
G54D34*
X80320Y-53630D02*
X80320Y-52060D01*
X71908Y-51348D02*
X71908Y-50563D01*
X72280Y-51720D02*
X71908Y-51348D01*
X73040Y-51720D02*
X72280Y-51720D01*
X73060Y-51700D02*
X73040Y-51720D01*
G54D30*
X67718Y-53624D02*
X67718Y-54082D01*
X67829Y-55175D02*
X67216Y-55175D01*
X67858Y-55146D02*
X67829Y-55175D01*
X67718Y-54082D02*
X67795Y-54159D01*
X66815Y-52874D02*
X66815Y-52990D01*
X67718Y-53375D02*
X67718Y-53624D01*
X67599Y-53256D02*
X67718Y-53375D01*
X67081Y-53256D02*
X67599Y-53256D01*
X66815Y-52990D02*
X67081Y-53256D01*
X65920Y-53615D02*
X65920Y-53332D01*
X66815Y-53004D02*
X66815Y-52874D01*
X66570Y-53249D02*
X66815Y-53004D01*
X66003Y-53249D02*
X66570Y-53249D01*
X65920Y-53332D02*
X66003Y-53249D01*
X70800Y-49575D02*
X70800Y-50650D01*
X70470Y-50980D02*
X70470Y-51635D01*
X70800Y-50650D02*
X70470Y-50980D01*
X71653Y-52547D02*
X71397Y-52803D01*
X70800Y-49575D02*
X70800Y-50020D01*
X70800Y-50020D02*
X70860Y-50080D01*
X70860Y-50080D02*
X71580Y-50080D01*
X71580Y-50080D02*
X71653Y-50153D01*
X71653Y-50153D02*
X71653Y-50563D01*
X71653Y-50563D02*
X71653Y-52547D01*
X71397Y-52803D02*
X71397Y-53397D01*
G54D34*
X71653Y-50153D02*
X71653Y-50563D01*
X71580Y-50080D02*
X71653Y-50153D01*
X70860Y-50080D02*
X71580Y-50080D01*
X70800Y-50020D02*
X70860Y-50080D01*
G54D31*
X71397Y-53397D02*
X71397Y-52803D01*
G54D30*
X70350Y-60350D02*
X70350Y-60850D01*
G54D32*
X69930Y-60850D02*
X70350Y-60850D01*
X67800Y-63600D02*
X67800Y-61453D01*
X67800Y-61453D02*
X67800Y-61300D01*
X87160Y-63615D02*
X87160Y-62789D01*
X87160Y-62789D02*
X87144Y-62773D01*
G54D34*
X87144Y-62773D02*
X90013Y-62773D01*
G54D32*
X89923Y-62773D02*
X87144Y-62773D01*
X93205Y-63965D02*
X93100Y-63860D01*
X93205Y-63965D02*
X93100Y-63860D01*
X95190Y-63532D02*
X93428Y-63532D01*
X93428Y-63532D02*
X93100Y-63860D01*
X95200Y-63542D02*
X95190Y-63532D01*
G54D30*
X74080Y-48825D02*
X74080Y-48460D01*
X74080Y-48460D02*
X73400Y-47780D01*
X73400Y-47780D02*
X73380Y-47780D01*
G54D31*
X73400Y-47780D02*
X73380Y-47780D01*
X74080Y-48460D02*
X73400Y-47780D01*
G54D32*
X95200Y-63965D02*
X95200Y-63542D01*
G54D34*
X90013Y-62773D02*
X91100Y-63860D01*
G54D32*
X91100Y-63860D02*
X91010Y-63860D01*
X91010Y-63860D02*
X89923Y-62773D01*
X95190Y-63075D02*
X95190Y-63532D01*
X95190Y-63955D02*
X95200Y-63965D01*
G54D34*
X95190Y-63955D02*
X95095Y-63860D01*
X72500Y-49575D02*
X72500Y-49840D01*
X72676Y-50016D02*
X72676Y-50563D01*
X72500Y-49840D02*
X72676Y-50016D01*
X71700Y-49575D02*
X71700Y-49720D01*
X72420Y-50140D02*
X72420Y-50563D01*
X72200Y-49920D02*
X72420Y-50140D01*
X71900Y-49920D02*
X72200Y-49920D01*
X71700Y-49720D02*
X71900Y-49920D01*
G54D30*
X74900Y-49575D02*
X74900Y-49660D01*
X74900Y-49660D02*
X74467Y-50093D01*
X74467Y-50093D02*
X74467Y-50563D01*
X75720Y-49575D02*
X74900Y-49575D01*
G54D31*
X74900Y-49660D02*
X74467Y-50093D01*
X74467Y-50093D02*
X74467Y-50563D01*
G54D34*
X74467Y-50093D02*
X74467Y-50563D01*
X74900Y-49660D02*
X74467Y-50093D01*
G54D31*
X76500Y-53675D02*
X75600Y-53675D01*
X75600Y-53675D02*
X75600Y-54000D01*
X75600Y-54000D02*
X75500Y-54100D01*
X75500Y-54100D02*
X74800Y-54100D01*
X74800Y-54100D02*
X74723Y-54023D01*
X74723Y-54023D02*
X74723Y-53397D01*
X72420Y-53397D02*
X72420Y-52920D01*
X72932Y-53032D02*
X72932Y-53397D01*
X72800Y-52900D02*
X72932Y-53032D01*
X72440Y-52900D02*
X72800Y-52900D01*
X72420Y-52920D02*
X72440Y-52900D01*
X72500Y-54425D02*
X72500Y-53900D01*
X72400Y-53417D02*
X72420Y-53397D01*
X72400Y-53800D02*
X72400Y-53417D01*
X72500Y-53900D02*
X72400Y-53800D01*
X71908Y-53397D02*
X71908Y-53792D01*
X70700Y-54100D02*
X70700Y-54425D01*
X70800Y-54000D02*
X70700Y-54100D01*
X70900Y-53900D02*
X70800Y-54000D01*
X71800Y-53900D02*
X70900Y-53900D01*
X71908Y-53792D02*
X71800Y-53900D01*
X73444Y-50563D02*
X73444Y-51884D01*
X73444Y-51884D02*
X73560Y-52000D01*
X75062Y-51150D02*
X73858Y-51150D01*
X75160Y-51052D02*
X75062Y-51150D01*
X73858Y-51150D02*
X73700Y-50992D01*
X73700Y-50992D02*
X73700Y-50563D01*
X66389Y-46774D02*
X66394Y-46774D01*
X69875Y-55175D02*
X70700Y-55175D01*
X69700Y-55000D02*
X69875Y-55175D01*
X69700Y-49200D02*
X69700Y-55000D01*
X69500Y-49000D02*
X69700Y-49200D01*
X67380Y-49000D02*
X69500Y-49000D01*
X66880Y-48500D02*
X67380Y-49000D01*
X66880Y-47260D02*
X66880Y-48500D01*
X66394Y-46774D02*
X66880Y-47260D01*
X67389Y-46774D02*
X67389Y-46989D01*
X73400Y-55640D02*
X73400Y-55175D01*
X73180Y-55860D02*
X73400Y-55640D01*
X70240Y-48900D02*
X70240Y-50060D01*
X69760Y-48420D02*
X70240Y-48900D01*
X68060Y-48420D02*
X69760Y-48420D01*
X67900Y-48260D02*
X68060Y-48420D01*
X67900Y-47500D02*
X67900Y-48260D01*
X67389Y-46989D02*
X67900Y-47500D01*
X71600Y-55175D02*
X71600Y-54900D01*
X67389Y-48549D02*
X67389Y-47774D01*
X67580Y-48740D02*
X67389Y-48549D01*
X69620Y-48740D02*
X67580Y-48740D01*
X69920Y-49040D02*
X69620Y-48740D01*
X69920Y-54580D02*
X69920Y-49040D01*
X70140Y-54800D02*
X69920Y-54580D01*
X71500Y-54800D02*
X70140Y-54800D01*
X71600Y-54900D02*
X71500Y-54800D01*
X66389Y-47774D02*
X66389Y-48509D01*
X72500Y-55480D02*
X72500Y-55175D01*
X72380Y-55600D02*
X72500Y-55480D01*
X69920Y-55600D02*
X72380Y-55600D01*
X69480Y-55200D02*
X69920Y-55600D01*
X69480Y-49380D02*
X69480Y-55200D01*
X69400Y-49260D02*
X69480Y-49380D01*
X67140Y-49260D02*
X69400Y-49260D01*
X66389Y-48509D02*
X67140Y-49260D01*
G54D30*
X73700Y-53397D02*
X73700Y-53862D01*
X87144Y-62023D02*
X87144Y-61074D01*
X74467Y-53397D02*
X74467Y-57767D01*
X74467Y-57767D02*
X75950Y-59250D01*
X75950Y-59250D02*
X76650Y-59250D01*
G54D31*
X76650Y-59250D02*
X75950Y-59250D01*
X75950Y-59250D02*
X74467Y-57767D01*
G54D30*
X76650Y-59750D02*
X75878Y-59750D01*
X70805Y-59850D02*
X70350Y-59850D01*
X72128Y-58527D02*
X70805Y-59850D01*
X74655Y-58527D02*
X72128Y-58527D01*
X75878Y-59750D02*
X74655Y-58527D01*
G54D31*
X69870Y-57450D02*
X69870Y-59030D01*
X69650Y-59850D02*
X70250Y-59850D01*
X69600Y-59800D02*
X69600Y-59300D01*
X69650Y-59850D02*
X69600Y-59800D01*
X69870Y-59030D02*
X69600Y-59300D01*
X76600Y-59700D02*
X76650Y-59750D01*
M02*
