M48
INCH,TZ
T1C0.024
T2C0.039
T3C0.040
T4C0.049
%
G90
G05
T1
X064965Y-052125
X065208Y-052833
X065730Y-056770
X065905Y-044282
X066820Y-055960
X067795Y-054159
X067858Y-055146
X069000Y-052700
X069192Y-056772
X069251Y-060305
X069360Y-047820
X070240Y-050060
X070460Y-053340
X071533Y-060347
X071862Y-059346
X072460Y-051380
X073060Y-051700
X073180Y-055860
X073560Y-052000
X073906Y-054802
X073920Y-052494
X075160Y-051052
X078556Y-047880
X080320Y-051360
X080320Y-052060
X087142Y-061072
X087960Y-061080
T3
X065385Y-044776
X065385Y-045776
X065389Y-046774
X065389Y-047774
X066385Y-044776
X066385Y-045776
X066389Y-046774
X066389Y-047774
X067385Y-044776
X067385Y-045776
X067389Y-046774
X067389Y-047774
X068385Y-044776
X068385Y-045776
X068389Y-046774
X068389Y-047774
X069385Y-044776
X069385Y-045776
X070385Y-044776
X070385Y-045776
X071385Y-044776
X071385Y-045776
X072380Y-046780
X072380Y-047780
X072385Y-044776
X072385Y-045776
X073380Y-046780
X073380Y-047780
X073385Y-044776
X073385Y-045776
X074380Y-046780
X074380Y-047780
X074385Y-044776
X074385Y-045776
X075385Y-044776
X075385Y-045776
X076385Y-044776
X076385Y-045776
X077385Y-044776
X077385Y-045776
T4
X065800Y-063600
X067800Y-063600
X069800Y-063600
X072200Y-063600
X074200Y-063600
X076200Y-063600
X082780Y-045740
X084780Y-045740
X086780Y-045740
X089100Y-063860
X091100Y-063860
X093100Y-063860
T2
X082568Y-060299G85X083552Y-060299
G05
X082667Y-062662G85X083453Y-062662
G05
X085147Y-060989G85X085147Y-061776
G05
T0
M30
