G04 (created by PCBNEW (2013-08-20 BZR 4294)-product) date 9/16/2013 9:24:49 PM*
%MOIN*%
G04 Gerber Fmt 3.4, Leading zero omitted, Abs format*
%FSLAX34Y34*%
G01*
G70*
G90*
G04 APERTURE LIST*
%ADD10C,0.001000*%
%ADD11R,0.055118X0.114173*%
%ADD12R,0.110236X0.070866*%
%ADD13R,0.065000X0.016000*%
%ADD14R,0.060000X0.060000*%
%ADD15C,0.060000*%
%ADD16R,0.039400X0.023600*%
%ADD17R,0.078700X0.216500*%
%ADD18R,0.055000X0.035000*%
%ADD19R,0.035000X0.055000*%
%ADD20R,0.070900X0.051200*%
%ADD21R,0.070900X0.149600*%
%ADD22R,0.051200X0.059000*%
%ADD23R,0.059000X0.051200*%
%ADD24R,0.086600X0.060000*%
%ADD25O,0.086600X0.060000*%
%ADD26R,0.040000X0.070000*%
%ADD27R,0.050000X0.025000*%
%ADD28R,0.023600X0.039400*%
%ADD29R,0.112205X0.078740*%
%ADD30R,0.070700X0.106200*%
%ADD31R,0.106200X0.070700*%
%ADD32O,0.157500X0.078700*%
%ADD33O,0.078700X0.157500*%
%ADD34O,0.078700X0.177200*%
%ADD35C,0.040000*%
%ADD36C,0.032000*%
%ADD37C,0.018000*%
%ADD38C,0.010000*%
%ADD39C,0.024000*%
G04 APERTURE END LIST*
G54D10*
G54D11*
X83031Y-62696D03*
G54D12*
X81555Y-64153D03*
G54D11*
X80078Y-62696D03*
X75440Y-62673D03*
G54D12*
X73964Y-64129D03*
G54D11*
X72488Y-62673D03*
G54D13*
X71992Y-51581D03*
X71992Y-51837D03*
X71992Y-52093D03*
X71992Y-52349D03*
X74826Y-50813D03*
X71992Y-50813D03*
X71992Y-51069D03*
X71992Y-51325D03*
X74826Y-52605D03*
X74826Y-52349D03*
X74826Y-52093D03*
X74826Y-51837D03*
X74826Y-51581D03*
X74826Y-51325D03*
X71992Y-52605D03*
X74826Y-51069D03*
X74826Y-50557D03*
X74826Y-50302D03*
X74826Y-50046D03*
X71992Y-50046D03*
X71992Y-50302D03*
X71992Y-50557D03*
X71992Y-52861D03*
X71992Y-53116D03*
X71992Y-53372D03*
X74826Y-53372D03*
X74826Y-53116D03*
X74826Y-52861D03*
G54D14*
X65385Y-45776D03*
G54D15*
X65385Y-44776D03*
X66385Y-45776D03*
X66385Y-44776D03*
X67385Y-45776D03*
X67385Y-44776D03*
X68385Y-45776D03*
X68385Y-44776D03*
X69385Y-45776D03*
X69385Y-44776D03*
X70385Y-45776D03*
X70385Y-44776D03*
X71385Y-45776D03*
X71385Y-44776D03*
X72385Y-45776D03*
X72385Y-44776D03*
X73385Y-45776D03*
X73385Y-44776D03*
X74385Y-45776D03*
X74385Y-44776D03*
X75385Y-45776D03*
X75385Y-44776D03*
X76385Y-45776D03*
X76385Y-44776D03*
X77385Y-45776D03*
X77385Y-44776D03*
G54D16*
X77772Y-57215D03*
X77772Y-57965D03*
X77772Y-57590D03*
X78604Y-57965D03*
X78604Y-57215D03*
G54D17*
X78275Y-50027D03*
X78275Y-53767D03*
G54D18*
X80084Y-61371D03*
X80084Y-60621D03*
X80940Y-61361D03*
X80940Y-60611D03*
X84783Y-61723D03*
X84783Y-60973D03*
G54D19*
X83245Y-61340D03*
X82495Y-61340D03*
G54D18*
X79208Y-61361D03*
X79208Y-60611D03*
G54D19*
X77644Y-61281D03*
X76894Y-61281D03*
G54D18*
X73608Y-61351D03*
X73608Y-60601D03*
X72801Y-61351D03*
X72801Y-60601D03*
G54D20*
X67627Y-51657D03*
X67627Y-50751D03*
X67627Y-49845D03*
G54D21*
X65265Y-50751D03*
G54D22*
X89028Y-51220D03*
X88278Y-51220D03*
X89024Y-55350D03*
X88274Y-55350D03*
X72514Y-58090D03*
X73264Y-58090D03*
X89028Y-57468D03*
X88278Y-57468D03*
X89075Y-53300D03*
X88325Y-53300D03*
G54D23*
X76594Y-57894D03*
X76594Y-57144D03*
G54D22*
X74140Y-56622D03*
X74890Y-56622D03*
G54D23*
X68582Y-51772D03*
X68582Y-51022D03*
X78592Y-56499D03*
X78592Y-55749D03*
X68592Y-49575D03*
X68592Y-50325D03*
G54D22*
X73975Y-54342D03*
X74725Y-54342D03*
G54D23*
X79448Y-57914D03*
X79448Y-57164D03*
G54D22*
X73256Y-54338D03*
X72506Y-54338D03*
G54D23*
X80074Y-59943D03*
X80074Y-59193D03*
X80950Y-59924D03*
X80950Y-59174D03*
G54D22*
X73034Y-49110D03*
X73784Y-49110D03*
G54D23*
X79838Y-50735D03*
X79838Y-51485D03*
G54D22*
X76556Y-54425D03*
X75806Y-54425D03*
X76556Y-53614D03*
X75806Y-53614D03*
G54D23*
X79850Y-53004D03*
X79850Y-52254D03*
X74474Y-59882D03*
X74474Y-60632D03*
X75301Y-59892D03*
X75301Y-60642D03*
G54D24*
X85118Y-57181D03*
G54D25*
X85118Y-56181D03*
X85118Y-55181D03*
X85118Y-54181D03*
X85118Y-53181D03*
X85118Y-52181D03*
X85118Y-51181D03*
X85118Y-50181D03*
G54D26*
X73243Y-55169D03*
X72543Y-55169D03*
X75839Y-49449D03*
X76539Y-49449D03*
G54D23*
X77696Y-55749D03*
X77696Y-56499D03*
X76791Y-55749D03*
X76791Y-56499D03*
G54D22*
X70215Y-49783D03*
X70965Y-49783D03*
X70215Y-51358D03*
X70965Y-51358D03*
X70219Y-50555D03*
X70969Y-50555D03*
X70215Y-52165D03*
X70965Y-52165D03*
X75817Y-51086D03*
X76567Y-51086D03*
X75810Y-52724D03*
X76560Y-52724D03*
X75817Y-50271D03*
X76567Y-50271D03*
X75817Y-51921D03*
X76567Y-51921D03*
G54D27*
X82727Y-57819D03*
X82727Y-57319D03*
X82727Y-56819D03*
X82727Y-56319D03*
X80527Y-56319D03*
X80527Y-56819D03*
X80527Y-57319D03*
X80527Y-57819D03*
X78340Y-60604D03*
X78340Y-60104D03*
X78340Y-59604D03*
X78340Y-59104D03*
X76140Y-59104D03*
X76140Y-59604D03*
X76140Y-60104D03*
X76140Y-60604D03*
X83963Y-60636D03*
X83963Y-60136D03*
X83963Y-59636D03*
X83963Y-59136D03*
X81763Y-59136D03*
X81763Y-59636D03*
X81763Y-60136D03*
X81763Y-60636D03*
G54D28*
X74117Y-55868D03*
X74867Y-55868D03*
X74492Y-55868D03*
X74867Y-55036D03*
X74117Y-55036D03*
G54D14*
X74380Y-46780D03*
G54D15*
X74380Y-47780D03*
X73380Y-46780D03*
X73380Y-47780D03*
X72380Y-46780D03*
X72380Y-47780D03*
G54D14*
X67388Y-46781D03*
G54D15*
X67388Y-47781D03*
X68388Y-46781D03*
X68388Y-47781D03*
X69388Y-46781D03*
X69388Y-47781D03*
X70388Y-46781D03*
X70388Y-47781D03*
G54D14*
X66385Y-46775D03*
G54D15*
X66385Y-47775D03*
X65385Y-46775D03*
X65385Y-47775D03*
G54D29*
X86244Y-63992D03*
X86244Y-61354D03*
X86244Y-62732D03*
X88881Y-62732D03*
X88881Y-61354D03*
X88881Y-63992D03*
G54D30*
X86996Y-50204D03*
X88176Y-50204D03*
X86996Y-56413D03*
X88176Y-56413D03*
X86992Y-54291D03*
X88172Y-54291D03*
G54D31*
X72913Y-56059D03*
X72913Y-57239D03*
G54D30*
X87000Y-52240D03*
X88180Y-52240D03*
G54D14*
X77000Y-64799D03*
G54D15*
X77000Y-63799D03*
X77000Y-62799D03*
G54D14*
X84555Y-64795D03*
G54D15*
X84555Y-63795D03*
X84555Y-62795D03*
G54D32*
X68968Y-58413D03*
G54D33*
X67688Y-56326D03*
G54D34*
X70051Y-56326D03*
G54D35*
X82864Y-60561D03*
X75748Y-58543D03*
X84720Y-60011D03*
X73578Y-59921D03*
X79169Y-59940D03*
X78622Y-57586D03*
G54D36*
X75059Y-57342D03*
G54D35*
X87618Y-62933D03*
X88622Y-58228D03*
X71850Y-54318D03*
X88818Y-59566D03*
X68803Y-54901D03*
X74803Y-49507D03*
X78444Y-51614D03*
X76500Y-48523D03*
G54D36*
X77216Y-57940D03*
X75342Y-56003D03*
X73740Y-52460D03*
X84480Y-57988D03*
X87618Y-64448D03*
X74074Y-53031D03*
X77188Y-58661D03*
X71318Y-53110D03*
X86240Y-62047D03*
X87854Y-62322D03*
X77165Y-51988D03*
X73405Y-49744D03*
X72224Y-49488D03*
X77165Y-52500D03*
X73897Y-50433D03*
X77590Y-50940D03*
X73917Y-50826D03*
X77547Y-51476D03*
X70610Y-48937D03*
X69586Y-52244D03*
X82244Y-52834D03*
X69724Y-50610D03*
X69665Y-51409D03*
X73137Y-53192D03*
X82889Y-58669D03*
G54D37*
X75826Y-58602D02*
X75807Y-58602D01*
X75807Y-58602D02*
X75748Y-58543D01*
X71992Y-51837D02*
X72349Y-51837D01*
X72349Y-51837D02*
X73975Y-53463D01*
X73975Y-53463D02*
X73975Y-54342D01*
X73243Y-55169D02*
X73243Y-55729D01*
X73243Y-55729D02*
X72913Y-56059D01*
X73243Y-55220D02*
X73602Y-55220D01*
X73786Y-55036D02*
X74117Y-55036D01*
X73602Y-55220D02*
X73786Y-55036D01*
X74117Y-55036D02*
X74117Y-54484D01*
X74117Y-54484D02*
X73975Y-54342D01*
G54D38*
X66385Y-44776D02*
X66385Y-44520D01*
X66385Y-44520D02*
X66948Y-43956D01*
G54D39*
X65385Y-44776D02*
X66385Y-44776D01*
X65172Y-44776D02*
X65385Y-44776D01*
X64818Y-45129D02*
X65172Y-44776D01*
X64818Y-46519D02*
X64818Y-45129D01*
X65385Y-48826D02*
X65385Y-47775D01*
X65074Y-46775D02*
X64818Y-46519D01*
X66404Y-49845D02*
X65385Y-48826D01*
G54D38*
X66948Y-43956D02*
X79232Y-43956D01*
X79232Y-43956D02*
X79527Y-44251D01*
X79527Y-44251D02*
X79527Y-49232D01*
X79527Y-49232D02*
X79803Y-49507D01*
X79803Y-49507D02*
X85807Y-49507D01*
X85807Y-49507D02*
X86200Y-49901D01*
X86200Y-49901D02*
X86200Y-50767D01*
X86200Y-50767D02*
X86870Y-51437D01*
X86870Y-51437D02*
X87460Y-51437D01*
X87460Y-51437D02*
X87578Y-51555D01*
X87578Y-51555D02*
X87578Y-52854D01*
X87578Y-52854D02*
X87047Y-53385D01*
G54D37*
X83059Y-56819D02*
X83709Y-56819D01*
X86996Y-56456D02*
X86996Y-56413D01*
X85791Y-57661D02*
X86996Y-56456D01*
X84551Y-57661D02*
X85791Y-57661D01*
X83709Y-56819D02*
X84551Y-57661D01*
X82727Y-56819D02*
X83059Y-56819D01*
X83059Y-56819D02*
X83150Y-56819D01*
X84901Y-59830D02*
X84720Y-60011D01*
X84901Y-58673D02*
X84901Y-59830D01*
X84578Y-58350D02*
X84901Y-58673D01*
X84330Y-58350D02*
X84578Y-58350D01*
X83389Y-57409D02*
X84330Y-58350D01*
X83389Y-57059D02*
X83389Y-57409D01*
X83150Y-56819D02*
X83389Y-57059D01*
X73617Y-59882D02*
X74474Y-59882D01*
X73578Y-59921D02*
X73617Y-59882D01*
X78604Y-57215D02*
X78604Y-57569D01*
X79172Y-59943D02*
X80074Y-59943D01*
X79169Y-59940D02*
X79172Y-59943D01*
X78604Y-57569D02*
X78622Y-57586D01*
X74474Y-59882D02*
X75291Y-59882D01*
X75291Y-59882D02*
X75569Y-59604D01*
X75569Y-59604D02*
X76140Y-59604D01*
X80074Y-59943D02*
X80931Y-59943D01*
X80931Y-59943D02*
X81238Y-59636D01*
X81238Y-59636D02*
X81763Y-59636D01*
X78604Y-57215D02*
X78463Y-57215D01*
X77747Y-56499D02*
X77696Y-56499D01*
X78463Y-57215D02*
X77747Y-56499D01*
X75059Y-57342D02*
X75078Y-57322D01*
X74890Y-56622D02*
X74890Y-57146D01*
X75059Y-57314D02*
X75059Y-57342D01*
X74890Y-57146D02*
X75059Y-57314D01*
X87066Y-61102D02*
X87834Y-60334D01*
X87618Y-62933D02*
X87618Y-62874D01*
X87618Y-62874D02*
X87066Y-62322D01*
X87066Y-62322D02*
X87066Y-61102D01*
X87834Y-59015D02*
X88622Y-58228D01*
X87834Y-60334D02*
X87834Y-59015D01*
X88677Y-63992D02*
X88881Y-63992D01*
X87618Y-62933D02*
X88677Y-63992D01*
G54D39*
X65354Y-51870D02*
X65492Y-51870D01*
X65492Y-51870D02*
X65688Y-51673D01*
X64921Y-51870D02*
X65354Y-51870D01*
X65354Y-51870D02*
X65472Y-51870D01*
X65688Y-52086D02*
X65688Y-52106D01*
X65472Y-51870D02*
X65688Y-52086D01*
X64724Y-52106D02*
X65688Y-52106D01*
X65688Y-52106D02*
X65807Y-52106D01*
X65807Y-52106D02*
X65826Y-52125D01*
X64724Y-52283D02*
X65708Y-52283D01*
X65708Y-52283D02*
X65787Y-52362D01*
X65393Y-52500D02*
X65393Y-53366D01*
X65393Y-53366D02*
X65413Y-53385D01*
X65265Y-50751D02*
X65265Y-51407D01*
X65265Y-51407D02*
X65039Y-51633D01*
X65354Y-52007D02*
X65354Y-50839D01*
X65354Y-50839D02*
X65265Y-50751D01*
X64921Y-51633D02*
X65039Y-51633D01*
X65039Y-51633D02*
X65492Y-51633D01*
X65492Y-51633D02*
X65688Y-51437D01*
X64724Y-49881D02*
X65905Y-49881D01*
X64724Y-52480D02*
X64744Y-52500D01*
X64744Y-52500D02*
X65393Y-52500D01*
X65393Y-52500D02*
X65964Y-52500D01*
X65964Y-52500D02*
X65964Y-49960D01*
X65964Y-49960D02*
X65866Y-49862D01*
X65866Y-49862D02*
X65925Y-49862D01*
X64724Y-49881D02*
X64724Y-52106D01*
X64724Y-52106D02*
X64724Y-52283D01*
X64724Y-52283D02*
X64724Y-52480D01*
X65905Y-49881D02*
X65925Y-49862D01*
X65265Y-50751D02*
X65265Y-50246D01*
X65472Y-50039D02*
X65472Y-49862D01*
X65265Y-50246D02*
X65472Y-50039D01*
X64921Y-49862D02*
X64921Y-51633D01*
X64921Y-51633D02*
X64921Y-51870D01*
X64921Y-51870D02*
X64921Y-51968D01*
X64921Y-51968D02*
X64980Y-52027D01*
X65925Y-49862D02*
X65925Y-51889D01*
X65925Y-51889D02*
X65826Y-51988D01*
X65688Y-50000D02*
X65688Y-51437D01*
X65688Y-51437D02*
X65688Y-51673D01*
X65688Y-51673D02*
X65688Y-52185D01*
X65688Y-52185D02*
X65748Y-52244D01*
X65925Y-49862D02*
X65472Y-49862D01*
X65472Y-49862D02*
X64921Y-49862D01*
X64921Y-49862D02*
X64862Y-49862D01*
X89028Y-57468D02*
X89028Y-57821D01*
X89028Y-57821D02*
X88622Y-58228D01*
X74474Y-60632D02*
X72832Y-60632D01*
X72832Y-60632D02*
X72801Y-60601D01*
X72801Y-60601D02*
X71745Y-60601D01*
X71745Y-60601D02*
X71625Y-60720D01*
X71625Y-60720D02*
X71625Y-63405D01*
X71625Y-63405D02*
X72350Y-64129D01*
X72350Y-64129D02*
X73964Y-64129D01*
G54D37*
X71992Y-52605D02*
X71370Y-52605D01*
X71370Y-52605D02*
X71220Y-52755D01*
X71220Y-52755D02*
X71023Y-52755D01*
X71023Y-52755D02*
X70964Y-52814D01*
X70964Y-52814D02*
X70964Y-53433D01*
X70964Y-53433D02*
X71850Y-54318D01*
X89028Y-51220D02*
X89480Y-51220D01*
X89543Y-55350D02*
X89024Y-55350D01*
X89582Y-55311D02*
X89543Y-55350D01*
X89582Y-51322D02*
X89582Y-55311D01*
X89480Y-51220D02*
X89582Y-51322D01*
X89028Y-57468D02*
X89028Y-55354D01*
X89028Y-55354D02*
X89024Y-55350D01*
X72514Y-58090D02*
X69291Y-58090D01*
X69291Y-58090D02*
X68968Y-58413D01*
X76894Y-61281D02*
X76894Y-59375D01*
X76624Y-59104D02*
X76140Y-59104D01*
X76894Y-59375D02*
X76624Y-59104D01*
X82495Y-61340D02*
X82495Y-59376D01*
X82254Y-59136D02*
X81763Y-59136D01*
X82495Y-59376D02*
X82254Y-59136D01*
X79208Y-61361D02*
X79208Y-63775D01*
X79208Y-63775D02*
X79586Y-64153D01*
X79208Y-61361D02*
X80940Y-61361D01*
X72801Y-60601D02*
X71745Y-60601D01*
X71745Y-60601D02*
X71625Y-60720D01*
X71625Y-60720D02*
X71625Y-63405D01*
X71625Y-63405D02*
X72350Y-64129D01*
X72350Y-64129D02*
X73964Y-64129D01*
X72801Y-60601D02*
X75259Y-60601D01*
X75259Y-60601D02*
X75301Y-60642D01*
G54D39*
X68968Y-58413D02*
X68968Y-56011D01*
X66460Y-53503D02*
X66460Y-50751D01*
X68968Y-56011D02*
X66460Y-53503D01*
G54D37*
X86244Y-63992D02*
X85720Y-63992D01*
X84917Y-64795D02*
X84555Y-64795D01*
X85720Y-63992D02*
X84917Y-64795D01*
X77000Y-64799D02*
X74633Y-64799D01*
X74633Y-64799D02*
X73964Y-64129D01*
X81555Y-64153D02*
X83913Y-64153D01*
X83913Y-64153D02*
X84555Y-64795D01*
X81555Y-64153D02*
X79586Y-64153D01*
X79586Y-64153D02*
X77645Y-64153D01*
X77645Y-64153D02*
X77000Y-64799D01*
X81763Y-59136D02*
X80132Y-59136D01*
X80132Y-59136D02*
X80074Y-59193D01*
X82727Y-57319D02*
X82044Y-57319D01*
X80870Y-55803D02*
X79153Y-55803D01*
X81275Y-56208D02*
X80870Y-55803D01*
X81275Y-56551D02*
X81275Y-56208D01*
X82044Y-57319D02*
X81275Y-56551D01*
X79448Y-57164D02*
X79448Y-56098D01*
X78646Y-55803D02*
X78592Y-55749D01*
X79153Y-55803D02*
X78646Y-55803D01*
X79448Y-56098D02*
X79153Y-55803D01*
X78592Y-55749D02*
X78592Y-55454D01*
X76791Y-55472D02*
X76791Y-55749D01*
X76960Y-55303D02*
X76791Y-55472D01*
X78440Y-55303D02*
X76960Y-55303D01*
X78592Y-55454D02*
X78440Y-55303D01*
X76791Y-57166D02*
X76504Y-57166D01*
X76224Y-56901D02*
X75685Y-56362D01*
X76240Y-56901D02*
X76224Y-56901D01*
X76504Y-57166D02*
X76240Y-56901D01*
X77772Y-57590D02*
X77374Y-57590D01*
X77166Y-57166D02*
X76791Y-57166D01*
X77236Y-57236D02*
X77166Y-57166D01*
X77236Y-57452D02*
X77236Y-57236D01*
X77374Y-57590D02*
X77236Y-57452D01*
X74826Y-53372D02*
X74324Y-53372D01*
X74725Y-53993D02*
X74725Y-54342D01*
X74255Y-53523D02*
X74725Y-53993D01*
X74255Y-53440D02*
X74255Y-53523D01*
X74324Y-53372D02*
X74255Y-53440D01*
X72506Y-54338D02*
X71870Y-54338D01*
X71870Y-54338D02*
X71850Y-54318D01*
X76791Y-55749D02*
X76006Y-55749D01*
X76006Y-55749D02*
X75806Y-55949D01*
X74890Y-56622D02*
X75425Y-56622D01*
X75425Y-56622D02*
X75685Y-56362D01*
X75806Y-56241D02*
X75806Y-55949D01*
X75685Y-56362D02*
X75806Y-56241D01*
X75806Y-55949D02*
X75806Y-54425D01*
X75806Y-54425D02*
X75806Y-53614D01*
X74725Y-54342D02*
X75723Y-54342D01*
X75723Y-54342D02*
X75806Y-54425D01*
X74492Y-55868D02*
X74492Y-56118D01*
X74890Y-56516D02*
X74890Y-56622D01*
X74492Y-56118D02*
X74890Y-56516D01*
G54D39*
X65265Y-50751D02*
X66460Y-50751D01*
X66460Y-50751D02*
X67627Y-50751D01*
X68592Y-50325D02*
X68592Y-51012D01*
X68592Y-51012D02*
X68582Y-51022D01*
X67627Y-50751D02*
X68003Y-50751D01*
X68274Y-51022D02*
X68582Y-51022D01*
X68003Y-50751D02*
X68274Y-51022D01*
G54D37*
X86244Y-63992D02*
X86374Y-63992D01*
X88062Y-64811D02*
X88881Y-63992D01*
X87192Y-64811D02*
X88062Y-64811D01*
X86374Y-63992D02*
X87192Y-64811D01*
G54D38*
X86996Y-50204D02*
X86996Y-49755D01*
X88818Y-58622D02*
X88818Y-59566D01*
X89803Y-57637D02*
X88818Y-58622D01*
X89803Y-50019D02*
X89803Y-57637D01*
X89251Y-49468D02*
X89803Y-50019D01*
X87283Y-49468D02*
X89251Y-49468D01*
X86996Y-49755D02*
X87283Y-49468D01*
G54D39*
X74140Y-56622D02*
X74140Y-56995D01*
X75040Y-57894D02*
X76594Y-57894D01*
X74140Y-56995D02*
X75040Y-57894D01*
G54D37*
X72448Y-56622D02*
X72165Y-56622D01*
X68803Y-54901D02*
X70728Y-54901D01*
X72448Y-56622D02*
X74140Y-56622D01*
X70728Y-55185D02*
X70728Y-54901D01*
X72165Y-56622D02*
X70728Y-55185D01*
X76594Y-57894D02*
X76682Y-57894D01*
X76682Y-57894D02*
X77122Y-58334D01*
X77122Y-58334D02*
X78082Y-58334D01*
X78082Y-58334D02*
X78173Y-58244D01*
X78173Y-58244D02*
X78173Y-57405D01*
X78173Y-57405D02*
X77983Y-57215D01*
X77983Y-57215D02*
X77772Y-57215D01*
X74140Y-56622D02*
X74140Y-55892D01*
X74140Y-55892D02*
X74117Y-55868D01*
G54D39*
X67627Y-51657D02*
X68467Y-51657D01*
X68467Y-51657D02*
X68582Y-51772D01*
X68582Y-54681D02*
X68582Y-51772D01*
X68803Y-54901D02*
X68582Y-54681D01*
G54D37*
X79850Y-52254D02*
X82373Y-52254D01*
X86003Y-55216D02*
X86279Y-55492D01*
X86003Y-54192D02*
X86003Y-55216D01*
X85511Y-53700D02*
X86003Y-54192D01*
X83818Y-53700D02*
X85511Y-53700D01*
X82373Y-52254D02*
X83818Y-53700D01*
X79850Y-52254D02*
X79380Y-52254D01*
X79380Y-52254D02*
X78976Y-51850D01*
X78681Y-51850D02*
X78976Y-51850D01*
X78444Y-51614D02*
X78681Y-51850D01*
X78976Y-51850D02*
X79055Y-51850D01*
X79055Y-51850D02*
X79420Y-51485D01*
X79420Y-51485D02*
X79838Y-51485D01*
G54D39*
X74803Y-49507D02*
X74803Y-49921D01*
X74803Y-49921D02*
X74822Y-49940D01*
X74826Y-49531D02*
X74803Y-49507D01*
G54D38*
X88325Y-53300D02*
X87800Y-53300D01*
X85618Y-57181D02*
X85118Y-57181D01*
X86300Y-56500D02*
X85618Y-57181D01*
X86300Y-55600D02*
X86300Y-56500D01*
X86400Y-55500D02*
X86300Y-55600D01*
X87300Y-55500D02*
X86400Y-55500D01*
X87600Y-55200D02*
X87300Y-55500D01*
X87600Y-53500D02*
X87600Y-55200D01*
X87800Y-53300D02*
X87600Y-53500D01*
G54D37*
X74826Y-50046D02*
X74393Y-50046D01*
X73885Y-49211D02*
X73784Y-49110D01*
X73885Y-49539D02*
X73885Y-49211D01*
X74393Y-50046D02*
X73885Y-49539D01*
G54D39*
X73784Y-49110D02*
X74303Y-49110D01*
X74303Y-49110D02*
X74380Y-49033D01*
X74380Y-49033D02*
X74380Y-47780D01*
X79850Y-52254D02*
X79850Y-51850D01*
X79850Y-51850D02*
X79850Y-51497D01*
X79850Y-51497D02*
X79838Y-51485D01*
G54D38*
X79850Y-51497D02*
X79838Y-51485D01*
G54D39*
X67388Y-47781D02*
X67388Y-47778D01*
X67388Y-47778D02*
X66385Y-46775D01*
G54D37*
X76539Y-48563D02*
X76500Y-48523D01*
X76500Y-48523D02*
X76539Y-48563D01*
G54D38*
X85118Y-52181D02*
X86051Y-52181D01*
X86051Y-52181D02*
X86385Y-52515D01*
X86385Y-52515D02*
X86992Y-52515D01*
X77772Y-57965D02*
X77241Y-57965D01*
X77241Y-57965D02*
X77216Y-57940D01*
X74867Y-55868D02*
X75207Y-55868D01*
X75207Y-55868D02*
X75342Y-56003D01*
X73858Y-47165D02*
X73858Y-46515D01*
X70708Y-46228D02*
X70181Y-46228D01*
X70181Y-46228D02*
X69881Y-45929D01*
X69881Y-45929D02*
X69881Y-45633D01*
X69881Y-45633D02*
X69531Y-45283D01*
X69531Y-45283D02*
X67878Y-45283D01*
X67385Y-45776D02*
X67878Y-45283D01*
X76716Y-50271D02*
X76952Y-50035D01*
X76952Y-50035D02*
X76952Y-48452D01*
X76952Y-48452D02*
X75779Y-47279D01*
X75779Y-47279D02*
X73972Y-47279D01*
X76716Y-50271D02*
X76567Y-50271D01*
X73570Y-46228D02*
X73799Y-46456D01*
X73858Y-47165D02*
X73972Y-47279D01*
X70708Y-46228D02*
X73570Y-46228D01*
X73858Y-46515D02*
X73799Y-46456D01*
X85118Y-51181D02*
X85110Y-51181D01*
X76279Y-50271D02*
X76567Y-50271D01*
X76177Y-50374D02*
X76279Y-50271D01*
X76177Y-51440D02*
X76177Y-50374D01*
X76251Y-51515D02*
X76177Y-51440D01*
X76948Y-51515D02*
X76251Y-51515D01*
X77318Y-51145D02*
X76948Y-51515D01*
X77318Y-49086D02*
X77318Y-51145D01*
X77791Y-48614D02*
X77318Y-49086D01*
X78838Y-48614D02*
X77791Y-48614D01*
X78980Y-48755D02*
X78838Y-48614D01*
X78980Y-49188D02*
X78980Y-48755D01*
X79803Y-50011D02*
X78980Y-49188D01*
X84334Y-50011D02*
X79803Y-50011D01*
X84433Y-50110D02*
X84334Y-50011D01*
X84433Y-50503D02*
X84433Y-50110D01*
X85110Y-51181D02*
X84433Y-50503D01*
X73614Y-44212D02*
X79035Y-44212D01*
X84677Y-49740D02*
X85118Y-50181D01*
X79783Y-49740D02*
X84677Y-49740D01*
X79228Y-49185D02*
X79783Y-49740D01*
X79228Y-44405D02*
X79228Y-49185D01*
X79035Y-44212D02*
X79228Y-44405D01*
X66385Y-45776D02*
X66385Y-45598D01*
X76952Y-51086D02*
X76567Y-51086D01*
X77161Y-50877D02*
X76952Y-51086D01*
X77161Y-48334D02*
X77161Y-50877D01*
X74925Y-46098D02*
X77161Y-48334D01*
X74925Y-45673D02*
X74925Y-46098D01*
X74507Y-45255D02*
X74925Y-45673D01*
X74129Y-45255D02*
X74507Y-45255D01*
X73889Y-45015D02*
X74129Y-45255D01*
X73889Y-44488D02*
X73889Y-45015D01*
X73606Y-44204D02*
X73614Y-44212D01*
X73614Y-44212D02*
X73889Y-44488D01*
X70685Y-44204D02*
X73606Y-44204D01*
X70669Y-44220D02*
X70685Y-44204D01*
X67228Y-44220D02*
X70669Y-44220D01*
X66870Y-44578D02*
X67228Y-44220D01*
X66870Y-45114D02*
X66870Y-44578D01*
X66385Y-45598D02*
X66870Y-45114D01*
X73740Y-52460D02*
X74074Y-52125D01*
X74794Y-52125D02*
X74826Y-52093D01*
X74074Y-52125D02*
X74794Y-52125D01*
X84480Y-57988D02*
X84826Y-57988D01*
X73774Y-52487D02*
X73740Y-52460D01*
X85366Y-58874D02*
X85366Y-63122D01*
X85366Y-63122D02*
X85614Y-63370D01*
X85614Y-63370D02*
X86960Y-63370D01*
X86960Y-63370D02*
X87090Y-63500D01*
X87090Y-63500D02*
X87090Y-64141D01*
X87090Y-64141D02*
X87397Y-64448D01*
X87397Y-64448D02*
X87618Y-64448D01*
X85366Y-58527D02*
X85366Y-58874D01*
X84826Y-57988D02*
X85366Y-58527D01*
X74074Y-53031D02*
X74074Y-52421D01*
X74146Y-52349D02*
X74826Y-52349D01*
X74094Y-52401D02*
X74146Y-52349D01*
X74074Y-52421D02*
X74094Y-52401D01*
X74074Y-53031D02*
X74091Y-53014D01*
G54D37*
X71318Y-53110D02*
X71318Y-53090D01*
X78340Y-59104D02*
X77631Y-59104D01*
X77188Y-58661D02*
X77631Y-59104D01*
X71547Y-52861D02*
X71992Y-52861D01*
X71318Y-53090D02*
X71547Y-52861D01*
X79448Y-57914D02*
X79912Y-57914D01*
X80007Y-57819D02*
X80527Y-57819D01*
X79912Y-57914D02*
X80007Y-57819D01*
G54D38*
X75817Y-51921D02*
X75645Y-51921D01*
X75306Y-51581D02*
X74826Y-51581D01*
X75645Y-51921D02*
X75306Y-51581D01*
X86244Y-61354D02*
X86244Y-62043D01*
X86244Y-62043D02*
X86240Y-62047D01*
G54D37*
X87854Y-62322D02*
X87893Y-62342D01*
X88283Y-62732D02*
X88881Y-62732D01*
X87893Y-62342D02*
X88283Y-62732D01*
X87830Y-62346D02*
X87854Y-62322D01*
G54D38*
X73380Y-46780D02*
X73380Y-47041D01*
X77098Y-51921D02*
X76567Y-51921D01*
X77165Y-51988D02*
X77098Y-51921D01*
X73405Y-48759D02*
X73405Y-49744D01*
X73543Y-48622D02*
X73405Y-48759D01*
X73877Y-48287D02*
X73543Y-48622D01*
X73877Y-47539D02*
X73877Y-48287D01*
X73380Y-47041D02*
X73877Y-47539D01*
G54D37*
X88176Y-56413D02*
X88176Y-57366D01*
X88176Y-57366D02*
X88278Y-57468D01*
X88172Y-54291D02*
X88172Y-55248D01*
X88172Y-55248D02*
X88274Y-55350D01*
X72913Y-57239D02*
X72913Y-57244D01*
X73264Y-57595D02*
X73264Y-58090D01*
X72913Y-57244D02*
X73264Y-57595D01*
G54D39*
X76539Y-49449D02*
X76539Y-48563D01*
X88176Y-50204D02*
X88176Y-51118D01*
X88176Y-51118D02*
X88278Y-51220D01*
G54D38*
X88180Y-52240D02*
X88840Y-52240D01*
X89075Y-52475D02*
X89075Y-53300D01*
X88840Y-52240D02*
X89075Y-52475D01*
G54D37*
X78604Y-57965D02*
X78754Y-57965D01*
X78976Y-56882D02*
X78592Y-56499D01*
X78976Y-57744D02*
X78976Y-56882D01*
X78754Y-57965D02*
X78976Y-57744D01*
X77696Y-55749D02*
X77776Y-55749D01*
X78526Y-56499D02*
X78592Y-56499D01*
X77776Y-55749D02*
X78526Y-56499D01*
X76791Y-56499D02*
X76882Y-56499D01*
X77632Y-55749D02*
X77696Y-55749D01*
X76882Y-56499D02*
X77632Y-55749D01*
G54D38*
X76560Y-52724D02*
X76940Y-52724D01*
X72440Y-48719D02*
X73380Y-47780D01*
X72440Y-49271D02*
X72440Y-48719D01*
X72224Y-49488D02*
X72440Y-49271D01*
X76940Y-52724D02*
X77165Y-52500D01*
X86417Y-54291D02*
X86992Y-54291D01*
X86318Y-54192D02*
X86417Y-54291D01*
X86318Y-53562D02*
X86318Y-54192D01*
X86496Y-53385D02*
X86318Y-53562D01*
X87047Y-53385D02*
X86496Y-53385D01*
G54D39*
X65385Y-46775D02*
X65074Y-46775D01*
X67627Y-49845D02*
X66404Y-49845D01*
X68592Y-49575D02*
X68592Y-49246D01*
X67627Y-49356D02*
X67627Y-49845D01*
X67905Y-49078D02*
X67627Y-49356D01*
X68425Y-49078D02*
X67905Y-49078D01*
X68592Y-49246D02*
X68425Y-49078D01*
G54D37*
X72801Y-61351D02*
X72801Y-62360D01*
X72801Y-62360D02*
X72488Y-62673D01*
X72801Y-61351D02*
X73608Y-61351D01*
X77000Y-63799D02*
X75141Y-63799D01*
X74015Y-62673D02*
X72488Y-62673D01*
X75141Y-63799D02*
X74015Y-62673D01*
X76140Y-60104D02*
X76140Y-60604D01*
X76140Y-60604D02*
X76240Y-60704D01*
X76240Y-60704D02*
X76240Y-63039D01*
X76240Y-63039D02*
X77000Y-63799D01*
X74826Y-53116D02*
X75321Y-53116D01*
X76556Y-53524D02*
X76556Y-53614D01*
X76200Y-53169D02*
X76556Y-53524D01*
X75374Y-53169D02*
X76200Y-53169D01*
X75321Y-53116D02*
X75374Y-53169D01*
X73256Y-54338D02*
X73256Y-53890D01*
X72738Y-53372D02*
X71992Y-53372D01*
X73256Y-53890D02*
X72738Y-53372D01*
X72543Y-55220D02*
X72543Y-55117D01*
X73256Y-54404D02*
X73256Y-54338D01*
X72543Y-55117D02*
X73256Y-54404D01*
G54D38*
X70969Y-49712D02*
X71271Y-49712D01*
X71636Y-50557D02*
X71992Y-50557D01*
X71464Y-50385D02*
X71636Y-50557D01*
X71464Y-49905D02*
X71464Y-50385D01*
X71271Y-49712D02*
X71464Y-49905D01*
G54D37*
X77644Y-61281D02*
X78187Y-61281D01*
X78187Y-61281D02*
X78340Y-61128D01*
X78340Y-60604D02*
X78340Y-61128D01*
X78340Y-61128D02*
X78340Y-61459D01*
X78340Y-61459D02*
X77000Y-62799D01*
X78340Y-60104D02*
X78340Y-60604D01*
X78340Y-60604D02*
X78347Y-60611D01*
X78347Y-60611D02*
X79208Y-60611D01*
G54D38*
X75817Y-50271D02*
X75598Y-50271D01*
X75221Y-51069D02*
X74826Y-51069D01*
X75354Y-50937D02*
X75221Y-51069D01*
X75354Y-50515D02*
X75354Y-50937D01*
X75598Y-50271D02*
X75354Y-50515D01*
X73897Y-50433D02*
X74015Y-50433D01*
X74140Y-50557D02*
X74826Y-50557D01*
X74015Y-50433D02*
X74140Y-50557D01*
X78275Y-50027D02*
X78275Y-50255D01*
X73897Y-50433D02*
X73899Y-50431D01*
X78275Y-50255D02*
X77590Y-50940D01*
X79838Y-50735D02*
X78983Y-50735D01*
X78983Y-50735D02*
X78275Y-50027D01*
X74826Y-50302D02*
X74204Y-50302D01*
X73948Y-50046D02*
X71992Y-50046D01*
X74204Y-50302D02*
X73948Y-50046D01*
X74826Y-50302D02*
X75177Y-50302D01*
X75609Y-49449D02*
X75839Y-49449D01*
X75346Y-49712D02*
X75609Y-49449D01*
X75346Y-50133D02*
X75346Y-49712D01*
X75177Y-50302D02*
X75346Y-50133D01*
X71992Y-50046D02*
X72591Y-50046D01*
X72591Y-50046D02*
X73062Y-49575D01*
X73062Y-49575D02*
X73062Y-49181D01*
X75810Y-52724D02*
X75539Y-52724D01*
X75188Y-51837D02*
X74826Y-51837D01*
X75303Y-51952D02*
X75188Y-51837D01*
X75303Y-52488D02*
X75303Y-51952D01*
X75539Y-52724D02*
X75303Y-52488D01*
X75817Y-51086D02*
X75559Y-51086D01*
X75320Y-51325D02*
X74826Y-51325D01*
X75559Y-51086D02*
X75320Y-51325D01*
X70969Y-52248D02*
X71208Y-52248D01*
X71967Y-51350D02*
X71992Y-51325D01*
X71625Y-51350D02*
X71967Y-51350D01*
X71472Y-51503D02*
X71625Y-51350D01*
X71472Y-51984D02*
X71472Y-51503D01*
X71208Y-52248D02*
X71472Y-51984D01*
X71992Y-51069D02*
X72360Y-51069D01*
X72394Y-51581D02*
X71992Y-51581D01*
X72476Y-51500D02*
X72394Y-51581D01*
X72476Y-51185D02*
X72476Y-51500D01*
X72360Y-51069D02*
X72476Y-51185D01*
X70969Y-51409D02*
X71110Y-51409D01*
X71450Y-51069D02*
X71992Y-51069D01*
X71110Y-51409D02*
X71450Y-51069D01*
X73917Y-50826D02*
X74813Y-50826D01*
X74813Y-50826D02*
X74826Y-50813D01*
X73917Y-50826D02*
X74074Y-50826D01*
X78275Y-52452D02*
X77547Y-51724D01*
X78275Y-53767D02*
X78275Y-52452D01*
X77547Y-51724D02*
X77547Y-51476D01*
X78275Y-53767D02*
X78523Y-53767D01*
X79286Y-53004D02*
X79850Y-53004D01*
X78523Y-53767D02*
X79286Y-53004D01*
G54D37*
X83245Y-61340D02*
X83809Y-61340D01*
X83809Y-61340D02*
X83963Y-61495D01*
X83963Y-60636D02*
X83963Y-61495D01*
X83963Y-61495D02*
X83963Y-62203D01*
X83963Y-62203D02*
X84555Y-62795D01*
X83963Y-60136D02*
X83963Y-60636D01*
X83963Y-60636D02*
X84300Y-60973D01*
X84300Y-60973D02*
X84783Y-60973D01*
X80940Y-60611D02*
X80094Y-60611D01*
X80094Y-60611D02*
X80084Y-60621D01*
X81763Y-60636D02*
X80965Y-60636D01*
X80965Y-60636D02*
X80940Y-60611D01*
X84555Y-63795D02*
X82692Y-63795D01*
X81669Y-62771D02*
X81669Y-62488D01*
X82692Y-63795D02*
X81669Y-62771D01*
X81763Y-60136D02*
X81763Y-60636D01*
X81763Y-60636D02*
X81850Y-60723D01*
X81850Y-60723D02*
X81850Y-62307D01*
X81850Y-62307D02*
X81669Y-62488D01*
X81669Y-62488D02*
X81460Y-62696D01*
X81460Y-62696D02*
X80078Y-62696D01*
G54D38*
X70969Y-50555D02*
X71185Y-50555D01*
X71443Y-50813D02*
X71992Y-50813D01*
X71185Y-50555D02*
X71443Y-50813D01*
X70219Y-49712D02*
X70219Y-49327D01*
X70219Y-49327D02*
X70610Y-48937D01*
X68388Y-46781D02*
X68458Y-46781D01*
X70219Y-49321D02*
X70219Y-49712D01*
X69889Y-48992D02*
X70219Y-49321D01*
X69889Y-46507D02*
X69889Y-48992D01*
X69661Y-46279D02*
X69889Y-46507D01*
X68960Y-46279D02*
X69661Y-46279D01*
X68458Y-46781D02*
X68960Y-46279D01*
X69291Y-51830D02*
X69114Y-51653D01*
X69114Y-49133D02*
X68681Y-48700D01*
X69114Y-51653D02*
X69114Y-49133D01*
X70219Y-52248D02*
X69590Y-52248D01*
X69590Y-52248D02*
X69586Y-52244D01*
X69388Y-46781D02*
X69360Y-46781D01*
X68590Y-48610D02*
X68681Y-48700D01*
X68401Y-48610D02*
X68590Y-48610D01*
X67901Y-48110D02*
X68401Y-48610D01*
X67901Y-47488D02*
X67901Y-48110D01*
X68129Y-47259D02*
X67901Y-47488D01*
X68881Y-47259D02*
X68129Y-47259D01*
X69360Y-46781D02*
X68881Y-47259D01*
X69708Y-52248D02*
X70219Y-52248D01*
X69283Y-51822D02*
X69291Y-51830D01*
X69291Y-51830D02*
X69708Y-52248D01*
X82244Y-52834D02*
X82263Y-52854D01*
X85118Y-54181D02*
X83590Y-54181D01*
X83590Y-54181D02*
X82263Y-52854D01*
X69779Y-50555D02*
X70219Y-50555D01*
X69724Y-50610D02*
X69779Y-50555D01*
X70219Y-50555D02*
X69893Y-50555D01*
X69388Y-48325D02*
X69388Y-47781D01*
X69685Y-48622D02*
X69388Y-48325D01*
X69685Y-50346D02*
X69685Y-48622D01*
X69893Y-50555D02*
X69685Y-50346D01*
X69665Y-51409D02*
X69665Y-51358D01*
X69370Y-48889D02*
X69291Y-48811D01*
X69370Y-51062D02*
X69370Y-48897D01*
X68388Y-47908D02*
X68388Y-47781D01*
X68388Y-47908D02*
X69291Y-48811D01*
X69370Y-48897D02*
X69370Y-48889D01*
X69665Y-51358D02*
X69370Y-51062D01*
X70219Y-51409D02*
X69665Y-51409D01*
X69665Y-51409D02*
X69653Y-51409D01*
X69653Y-51409D02*
X69645Y-51417D01*
X69708Y-51409D02*
X70219Y-51409D01*
G54D37*
X83963Y-59136D02*
X83356Y-59136D01*
X73061Y-53116D02*
X71992Y-53116D01*
X73137Y-53192D02*
X73061Y-53116D01*
X83356Y-59136D02*
X82889Y-58669D01*
X78340Y-59604D02*
X78643Y-59604D01*
X82101Y-57819D02*
X82727Y-57819D01*
X81381Y-58539D02*
X82101Y-57819D01*
X79708Y-58539D02*
X81381Y-58539D01*
X78643Y-59604D02*
X79708Y-58539D01*
X82727Y-57819D02*
X83154Y-57819D01*
X84351Y-59636D02*
X83963Y-59636D01*
X84511Y-59476D02*
X84351Y-59636D01*
X84511Y-58858D02*
X84511Y-59476D01*
X84370Y-58716D02*
X84511Y-58858D01*
X84051Y-58716D02*
X84370Y-58716D01*
X83154Y-57819D02*
X84051Y-58716D01*
G54D10*
G36*
X72678Y-53793D02*
X72619Y-53793D01*
X72556Y-53856D01*
X72556Y-54288D01*
X72564Y-54288D01*
X72564Y-54388D01*
X72556Y-54388D01*
X72556Y-54396D01*
X72456Y-54396D01*
X72456Y-54388D01*
X72456Y-54288D01*
X72456Y-53856D01*
X72394Y-53793D01*
X72201Y-53793D01*
X72109Y-53831D01*
X72038Y-53901D01*
X72000Y-53993D01*
X72000Y-54093D01*
X72000Y-54226D01*
X72063Y-54288D01*
X72456Y-54288D01*
X72456Y-54388D01*
X72063Y-54388D01*
X72000Y-54451D01*
X72000Y-54583D01*
X72000Y-54683D01*
X72038Y-54775D01*
X72093Y-54829D01*
X72093Y-54869D01*
X72093Y-55569D01*
X72131Y-55660D01*
X72132Y-55661D01*
X72132Y-55755D01*
X72132Y-56108D01*
X71068Y-55044D01*
X71068Y-54901D01*
X71042Y-54771D01*
X70968Y-54661D01*
X70858Y-54587D01*
X70728Y-54561D01*
X69099Y-54561D01*
X69058Y-54520D01*
X68952Y-54476D01*
X68952Y-53101D01*
X70908Y-53101D01*
X70908Y-53191D01*
X70971Y-53342D01*
X71086Y-53457D01*
X71236Y-53520D01*
X71400Y-53520D01*
X71421Y-53511D01*
X71455Y-53594D01*
X71526Y-53664D01*
X71618Y-53702D01*
X71717Y-53702D01*
X71942Y-53702D01*
X71992Y-53712D01*
X72597Y-53712D01*
X72678Y-53793D01*
X72678Y-53793D01*
G37*
G54D38*
X72678Y-53793D02*
X72619Y-53793D01*
X72556Y-53856D01*
X72556Y-54288D01*
X72564Y-54288D01*
X72564Y-54388D01*
X72556Y-54388D01*
X72556Y-54396D01*
X72456Y-54396D01*
X72456Y-54388D01*
X72456Y-54288D01*
X72456Y-53856D01*
X72394Y-53793D01*
X72201Y-53793D01*
X72109Y-53831D01*
X72038Y-53901D01*
X72000Y-53993D01*
X72000Y-54093D01*
X72000Y-54226D01*
X72063Y-54288D01*
X72456Y-54288D01*
X72456Y-54388D01*
X72063Y-54388D01*
X72000Y-54451D01*
X72000Y-54583D01*
X72000Y-54683D01*
X72038Y-54775D01*
X72093Y-54829D01*
X72093Y-54869D01*
X72093Y-55569D01*
X72131Y-55660D01*
X72132Y-55661D01*
X72132Y-55755D01*
X72132Y-56108D01*
X71068Y-55044D01*
X71068Y-54901D01*
X71042Y-54771D01*
X70968Y-54661D01*
X70858Y-54587D01*
X70728Y-54561D01*
X69099Y-54561D01*
X69058Y-54520D01*
X68952Y-54476D01*
X68952Y-53101D01*
X70908Y-53101D01*
X70908Y-53191D01*
X70971Y-53342D01*
X71086Y-53457D01*
X71236Y-53520D01*
X71400Y-53520D01*
X71421Y-53511D01*
X71455Y-53594D01*
X71526Y-53664D01*
X71618Y-53702D01*
X71717Y-53702D01*
X71942Y-53702D01*
X71992Y-53712D01*
X72597Y-53712D01*
X72678Y-53793D01*
G54D10*
G36*
X74594Y-55432D02*
X74542Y-55484D01*
X74542Y-55525D01*
X74537Y-55530D01*
X74499Y-55622D01*
X74499Y-55721D01*
X74499Y-55926D01*
X74485Y-55926D01*
X74485Y-55622D01*
X74447Y-55530D01*
X74442Y-55525D01*
X74442Y-55484D01*
X74390Y-55432D01*
X74447Y-55375D01*
X74485Y-55283D01*
X74485Y-55184D01*
X74485Y-54887D01*
X74499Y-54887D01*
X74499Y-54889D01*
X74499Y-55283D01*
X74537Y-55375D01*
X74594Y-55432D01*
X74594Y-55432D01*
G37*
G54D38*
X74594Y-55432D02*
X74542Y-55484D01*
X74542Y-55525D01*
X74537Y-55530D01*
X74499Y-55622D01*
X74499Y-55721D01*
X74499Y-55926D01*
X74485Y-55926D01*
X74485Y-55622D01*
X74447Y-55530D01*
X74442Y-55525D01*
X74442Y-55484D01*
X74390Y-55432D01*
X74447Y-55375D01*
X74485Y-55283D01*
X74485Y-55184D01*
X74485Y-54887D01*
X74499Y-54887D01*
X74499Y-54889D01*
X74499Y-55283D01*
X74537Y-55375D01*
X74594Y-55432D01*
G54D10*
G36*
X75900Y-61932D02*
X75858Y-61890D01*
X75766Y-61852D01*
X75666Y-61852D01*
X75251Y-61852D01*
X75251Y-61086D01*
X75251Y-60692D01*
X74966Y-60692D01*
X74956Y-60682D01*
X74524Y-60682D01*
X74524Y-61076D01*
X74586Y-61138D01*
X74719Y-61138D01*
X74819Y-61138D01*
X74875Y-61115D01*
X74956Y-61148D01*
X75055Y-61148D01*
X75188Y-61148D01*
X75251Y-61086D01*
X75251Y-61852D01*
X75115Y-61852D01*
X75023Y-61890D01*
X74953Y-61960D01*
X74915Y-62052D01*
X74915Y-62152D01*
X74915Y-63092D01*
X74256Y-62432D01*
X74145Y-62359D01*
X74015Y-62333D01*
X73141Y-62333D01*
X73141Y-61770D01*
X73204Y-61743D01*
X73283Y-61776D01*
X73382Y-61776D01*
X73932Y-61776D01*
X74024Y-61738D01*
X74095Y-61667D01*
X74133Y-61576D01*
X74133Y-61476D01*
X74133Y-61138D01*
X74229Y-61138D01*
X74361Y-61138D01*
X74424Y-61076D01*
X74424Y-60682D01*
X74416Y-60682D01*
X74416Y-60582D01*
X74424Y-60582D01*
X74424Y-60575D01*
X74524Y-60575D01*
X74524Y-60582D01*
X74808Y-60582D01*
X74818Y-60592D01*
X75251Y-60592D01*
X75251Y-60584D01*
X75351Y-60584D01*
X75351Y-60592D01*
X75359Y-60592D01*
X75359Y-60692D01*
X75351Y-60692D01*
X75351Y-61086D01*
X75413Y-61148D01*
X75546Y-61148D01*
X75645Y-61148D01*
X75737Y-61110D01*
X75808Y-61040D01*
X75834Y-60976D01*
X75840Y-60979D01*
X75900Y-60979D01*
X75900Y-61932D01*
X75900Y-61932D01*
G37*
G54D38*
X75900Y-61932D02*
X75858Y-61890D01*
X75766Y-61852D01*
X75666Y-61852D01*
X75251Y-61852D01*
X75251Y-61086D01*
X75251Y-60692D01*
X74966Y-60692D01*
X74956Y-60682D01*
X74524Y-60682D01*
X74524Y-61076D01*
X74586Y-61138D01*
X74719Y-61138D01*
X74819Y-61138D01*
X74875Y-61115D01*
X74956Y-61148D01*
X75055Y-61148D01*
X75188Y-61148D01*
X75251Y-61086D01*
X75251Y-61852D01*
X75115Y-61852D01*
X75023Y-61890D01*
X74953Y-61960D01*
X74915Y-62052D01*
X74915Y-62152D01*
X74915Y-63092D01*
X74256Y-62432D01*
X74145Y-62359D01*
X74015Y-62333D01*
X73141Y-62333D01*
X73141Y-61770D01*
X73204Y-61743D01*
X73283Y-61776D01*
X73382Y-61776D01*
X73932Y-61776D01*
X74024Y-61738D01*
X74095Y-61667D01*
X74133Y-61576D01*
X74133Y-61476D01*
X74133Y-61138D01*
X74229Y-61138D01*
X74361Y-61138D01*
X74424Y-61076D01*
X74424Y-60682D01*
X74416Y-60682D01*
X74416Y-60582D01*
X74424Y-60582D01*
X74424Y-60575D01*
X74524Y-60575D01*
X74524Y-60582D01*
X74808Y-60582D01*
X74818Y-60592D01*
X75251Y-60592D01*
X75251Y-60584D01*
X75351Y-60584D01*
X75351Y-60592D01*
X75359Y-60592D01*
X75359Y-60692D01*
X75351Y-60692D01*
X75351Y-61086D01*
X75413Y-61148D01*
X75546Y-61148D01*
X75645Y-61148D01*
X75737Y-61110D01*
X75808Y-61040D01*
X75834Y-60976D01*
X75840Y-60979D01*
X75900Y-60979D01*
X75900Y-61932D01*
G54D10*
G36*
X77830Y-57597D02*
X77715Y-57597D01*
X77715Y-57583D01*
X77830Y-57583D01*
X77830Y-57597D01*
X77830Y-57597D01*
G37*
G54D38*
X77830Y-57597D02*
X77715Y-57597D01*
X77715Y-57583D01*
X77830Y-57583D01*
X77830Y-57597D01*
G54D10*
G36*
X77871Y-60354D02*
X77840Y-60429D01*
X77840Y-60529D01*
X77840Y-60756D01*
X77769Y-60756D01*
X77419Y-60756D01*
X77328Y-60794D01*
X77269Y-60852D01*
X77211Y-60794D01*
X77119Y-60756D01*
X77019Y-60756D01*
X76669Y-60756D01*
X76640Y-60768D01*
X76640Y-60679D01*
X76640Y-60429D01*
X76608Y-60354D01*
X76640Y-60279D01*
X76640Y-60179D01*
X76640Y-59929D01*
X76608Y-59854D01*
X76640Y-59779D01*
X76640Y-59679D01*
X76640Y-59429D01*
X76608Y-59354D01*
X76640Y-59279D01*
X76640Y-59216D01*
X76577Y-59154D01*
X76190Y-59154D01*
X76190Y-59162D01*
X76090Y-59162D01*
X76090Y-59154D01*
X75702Y-59154D01*
X75640Y-59216D01*
X75640Y-59264D01*
X75569Y-59264D01*
X75461Y-59285D01*
X75439Y-59290D01*
X75329Y-59363D01*
X75306Y-59386D01*
X74956Y-59386D01*
X74899Y-59410D01*
X74889Y-59406D01*
X74899Y-59404D01*
X75175Y-59220D01*
X75359Y-58944D01*
X75384Y-58816D01*
X75492Y-58924D01*
X75640Y-58985D01*
X75640Y-58991D01*
X75702Y-59054D01*
X76090Y-59054D01*
X76090Y-59046D01*
X76190Y-59046D01*
X76190Y-59054D01*
X76577Y-59054D01*
X76640Y-58991D01*
X76640Y-58929D01*
X76602Y-58837D01*
X76531Y-58767D01*
X76439Y-58729D01*
X76340Y-58729D01*
X76252Y-58729D01*
X76190Y-58791D01*
X76190Y-58729D01*
X76158Y-58729D01*
X76197Y-58633D01*
X76198Y-58454D01*
X76160Y-58363D01*
X76249Y-58400D01*
X76349Y-58400D01*
X76707Y-58400D01*
X76810Y-58503D01*
X76779Y-58579D01*
X76778Y-58742D01*
X76841Y-58893D01*
X76956Y-59008D01*
X77107Y-59071D01*
X77118Y-59071D01*
X77391Y-59344D01*
X77391Y-59344D01*
X77501Y-59418D01*
X77501Y-59418D01*
X77523Y-59422D01*
X77631Y-59444D01*
X77840Y-59444D01*
X77840Y-59529D01*
X77840Y-59779D01*
X77871Y-59854D01*
X77840Y-59929D01*
X77840Y-60029D01*
X77840Y-60279D01*
X77871Y-60354D01*
X77871Y-60354D01*
G37*
G54D38*
X77871Y-60354D02*
X77840Y-60429D01*
X77840Y-60529D01*
X77840Y-60756D01*
X77769Y-60756D01*
X77419Y-60756D01*
X77328Y-60794D01*
X77269Y-60852D01*
X77211Y-60794D01*
X77119Y-60756D01*
X77019Y-60756D01*
X76669Y-60756D01*
X76640Y-60768D01*
X76640Y-60679D01*
X76640Y-60429D01*
X76608Y-60354D01*
X76640Y-60279D01*
X76640Y-60179D01*
X76640Y-59929D01*
X76608Y-59854D01*
X76640Y-59779D01*
X76640Y-59679D01*
X76640Y-59429D01*
X76608Y-59354D01*
X76640Y-59279D01*
X76640Y-59216D01*
X76577Y-59154D01*
X76190Y-59154D01*
X76190Y-59162D01*
X76090Y-59162D01*
X76090Y-59154D01*
X75702Y-59154D01*
X75640Y-59216D01*
X75640Y-59264D01*
X75569Y-59264D01*
X75461Y-59285D01*
X75439Y-59290D01*
X75329Y-59363D01*
X75306Y-59386D01*
X74956Y-59386D01*
X74899Y-59410D01*
X74889Y-59406D01*
X74899Y-59404D01*
X75175Y-59220D01*
X75359Y-58944D01*
X75384Y-58816D01*
X75492Y-58924D01*
X75640Y-58985D01*
X75640Y-58991D01*
X75702Y-59054D01*
X76090Y-59054D01*
X76090Y-59046D01*
X76190Y-59046D01*
X76190Y-59054D01*
X76577Y-59054D01*
X76640Y-58991D01*
X76640Y-58929D01*
X76602Y-58837D01*
X76531Y-58767D01*
X76439Y-58729D01*
X76340Y-58729D01*
X76252Y-58729D01*
X76190Y-58791D01*
X76190Y-58729D01*
X76158Y-58729D01*
X76197Y-58633D01*
X76198Y-58454D01*
X76160Y-58363D01*
X76249Y-58400D01*
X76349Y-58400D01*
X76707Y-58400D01*
X76810Y-58503D01*
X76779Y-58579D01*
X76778Y-58742D01*
X76841Y-58893D01*
X76956Y-59008D01*
X77107Y-59071D01*
X77118Y-59071D01*
X77391Y-59344D01*
X77391Y-59344D01*
X77501Y-59418D01*
X77501Y-59418D01*
X77523Y-59422D01*
X77631Y-59444D01*
X77840Y-59444D01*
X77840Y-59529D01*
X77840Y-59779D01*
X77871Y-59854D01*
X77840Y-59929D01*
X77840Y-60029D01*
X77840Y-60279D01*
X77871Y-60354D01*
G54D10*
G36*
X83629Y-58775D02*
X83579Y-58796D01*
X83497Y-58796D01*
X83299Y-58598D01*
X83299Y-58588D01*
X83237Y-58437D01*
X83122Y-58321D01*
X82971Y-58259D01*
X82808Y-58259D01*
X82657Y-58321D01*
X82542Y-58436D01*
X82479Y-58587D01*
X82479Y-58750D01*
X82541Y-58901D01*
X82657Y-59016D01*
X82807Y-59079D01*
X82818Y-59079D01*
X83116Y-59376D01*
X83116Y-59376D01*
X83226Y-59450D01*
X83226Y-59450D01*
X83248Y-59454D01*
X83356Y-59476D01*
X83463Y-59476D01*
X83463Y-59560D01*
X83463Y-59810D01*
X83494Y-59886D01*
X83463Y-59961D01*
X83463Y-60060D01*
X83463Y-60310D01*
X83494Y-60386D01*
X83463Y-60461D01*
X83463Y-60560D01*
X83463Y-60810D01*
X83465Y-60815D01*
X83370Y-60815D01*
X83245Y-60815D01*
X83314Y-60650D01*
X83314Y-60471D01*
X83245Y-60306D01*
X83119Y-60179D01*
X82954Y-60111D01*
X82775Y-60110D01*
X82609Y-60179D01*
X82482Y-60305D01*
X82414Y-60471D01*
X82414Y-60650D01*
X82482Y-60815D01*
X82270Y-60815D01*
X82259Y-60819D01*
X82263Y-60810D01*
X82263Y-60711D01*
X82263Y-60461D01*
X82232Y-60386D01*
X82263Y-60310D01*
X82263Y-60211D01*
X82263Y-59961D01*
X82232Y-59886D01*
X82263Y-59810D01*
X82263Y-59711D01*
X82263Y-59461D01*
X82232Y-59386D01*
X82263Y-59310D01*
X82263Y-59248D01*
X82263Y-59023D01*
X82263Y-58961D01*
X82225Y-58869D01*
X82155Y-58799D01*
X82063Y-58761D01*
X81963Y-58761D01*
X81876Y-58761D01*
X81813Y-58823D01*
X81813Y-59086D01*
X82201Y-59086D01*
X82263Y-59023D01*
X82263Y-59248D01*
X82201Y-59186D01*
X81813Y-59186D01*
X81813Y-59194D01*
X81713Y-59194D01*
X81713Y-59186D01*
X81326Y-59186D01*
X81288Y-59224D01*
X81000Y-59224D01*
X81000Y-59232D01*
X80900Y-59232D01*
X80900Y-59224D01*
X80468Y-59224D01*
X80448Y-59243D01*
X80124Y-59243D01*
X80124Y-59251D01*
X80024Y-59251D01*
X80024Y-59243D01*
X80016Y-59243D01*
X80016Y-59143D01*
X80024Y-59143D01*
X80024Y-59136D01*
X80124Y-59136D01*
X80124Y-59143D01*
X80557Y-59143D01*
X80576Y-59124D01*
X80900Y-59124D01*
X80900Y-59116D01*
X81000Y-59116D01*
X81000Y-59124D01*
X81433Y-59124D01*
X81471Y-59086D01*
X81713Y-59086D01*
X81713Y-58823D01*
X81651Y-58761D01*
X81640Y-58761D01*
X82242Y-58159D01*
X82342Y-58159D01*
X82427Y-58194D01*
X82526Y-58194D01*
X83026Y-58194D01*
X83042Y-58188D01*
X83629Y-58775D01*
X83629Y-58775D01*
G37*
G54D38*
X83629Y-58775D02*
X83579Y-58796D01*
X83497Y-58796D01*
X83299Y-58598D01*
X83299Y-58588D01*
X83237Y-58437D01*
X83122Y-58321D01*
X82971Y-58259D01*
X82808Y-58259D01*
X82657Y-58321D01*
X82542Y-58436D01*
X82479Y-58587D01*
X82479Y-58750D01*
X82541Y-58901D01*
X82657Y-59016D01*
X82807Y-59079D01*
X82818Y-59079D01*
X83116Y-59376D01*
X83116Y-59376D01*
X83226Y-59450D01*
X83226Y-59450D01*
X83248Y-59454D01*
X83356Y-59476D01*
X83463Y-59476D01*
X83463Y-59560D01*
X83463Y-59810D01*
X83494Y-59886D01*
X83463Y-59961D01*
X83463Y-60060D01*
X83463Y-60310D01*
X83494Y-60386D01*
X83463Y-60461D01*
X83463Y-60560D01*
X83463Y-60810D01*
X83465Y-60815D01*
X83370Y-60815D01*
X83245Y-60815D01*
X83314Y-60650D01*
X83314Y-60471D01*
X83245Y-60306D01*
X83119Y-60179D01*
X82954Y-60111D01*
X82775Y-60110D01*
X82609Y-60179D01*
X82482Y-60305D01*
X82414Y-60471D01*
X82414Y-60650D01*
X82482Y-60815D01*
X82270Y-60815D01*
X82259Y-60819D01*
X82263Y-60810D01*
X82263Y-60711D01*
X82263Y-60461D01*
X82232Y-60386D01*
X82263Y-60310D01*
X82263Y-60211D01*
X82263Y-59961D01*
X82232Y-59886D01*
X82263Y-59810D01*
X82263Y-59711D01*
X82263Y-59461D01*
X82232Y-59386D01*
X82263Y-59310D01*
X82263Y-59248D01*
X82263Y-59023D01*
X82263Y-58961D01*
X82225Y-58869D01*
X82155Y-58799D01*
X82063Y-58761D01*
X81963Y-58761D01*
X81876Y-58761D01*
X81813Y-58823D01*
X81813Y-59086D01*
X82201Y-59086D01*
X82263Y-59023D01*
X82263Y-59248D01*
X82201Y-59186D01*
X81813Y-59186D01*
X81813Y-59194D01*
X81713Y-59194D01*
X81713Y-59186D01*
X81326Y-59186D01*
X81288Y-59224D01*
X81000Y-59224D01*
X81000Y-59232D01*
X80900Y-59232D01*
X80900Y-59224D01*
X80468Y-59224D01*
X80448Y-59243D01*
X80124Y-59243D01*
X80124Y-59251D01*
X80024Y-59251D01*
X80024Y-59243D01*
X80016Y-59243D01*
X80016Y-59143D01*
X80024Y-59143D01*
X80024Y-59136D01*
X80124Y-59136D01*
X80124Y-59143D01*
X80557Y-59143D01*
X80576Y-59124D01*
X80900Y-59124D01*
X80900Y-59116D01*
X81000Y-59116D01*
X81000Y-59124D01*
X81433Y-59124D01*
X81471Y-59086D01*
X81713Y-59086D01*
X81713Y-58823D01*
X81651Y-58761D01*
X81640Y-58761D01*
X82242Y-58159D01*
X82342Y-58159D01*
X82427Y-58194D01*
X82526Y-58194D01*
X83026Y-58194D01*
X83042Y-58188D01*
X83629Y-58775D01*
G54D10*
G36*
X84749Y-55681D02*
X84582Y-55792D01*
X84463Y-55970D01*
X84421Y-56181D01*
X84463Y-56391D01*
X84582Y-56570D01*
X84674Y-56631D01*
X84635Y-56631D01*
X84543Y-56669D01*
X84473Y-56739D01*
X84435Y-56831D01*
X84435Y-56930D01*
X84435Y-57064D01*
X83949Y-56579D01*
X83839Y-56505D01*
X83709Y-56479D01*
X83227Y-56479D01*
X83227Y-56394D01*
X83227Y-56144D01*
X83188Y-56053D01*
X83118Y-55982D01*
X83026Y-55944D01*
X82927Y-55944D01*
X82427Y-55944D01*
X82335Y-55982D01*
X82265Y-56053D01*
X82227Y-56144D01*
X82227Y-56244D01*
X82227Y-56494D01*
X82258Y-56569D01*
X82227Y-56644D01*
X82227Y-56744D01*
X82227Y-56994D01*
X82258Y-57069D01*
X82227Y-57144D01*
X82227Y-57207D01*
X82289Y-57269D01*
X82677Y-57269D01*
X82677Y-57261D01*
X82777Y-57261D01*
X82777Y-57269D01*
X82784Y-57269D01*
X82784Y-57369D01*
X82777Y-57369D01*
X82777Y-57377D01*
X82677Y-57377D01*
X82677Y-57369D01*
X82289Y-57369D01*
X82227Y-57432D01*
X82227Y-57479D01*
X82101Y-57479D01*
X81993Y-57501D01*
X81971Y-57505D01*
X81861Y-57579D01*
X81241Y-58199D01*
X80086Y-58199D01*
X80144Y-58160D01*
X80227Y-58194D01*
X80326Y-58194D01*
X80826Y-58194D01*
X80918Y-58156D01*
X80988Y-58086D01*
X81027Y-57994D01*
X81027Y-57894D01*
X81027Y-57644D01*
X80995Y-57569D01*
X81027Y-57494D01*
X81027Y-57394D01*
X81027Y-57144D01*
X80995Y-57069D01*
X81027Y-56994D01*
X81027Y-56894D01*
X81027Y-56644D01*
X80995Y-56569D01*
X81027Y-56494D01*
X81027Y-56394D01*
X81027Y-56144D01*
X80988Y-56053D01*
X80918Y-55982D01*
X80826Y-55944D01*
X80727Y-55944D01*
X80227Y-55944D01*
X80135Y-55982D01*
X80065Y-56053D01*
X80027Y-56144D01*
X80027Y-56244D01*
X80027Y-56494D01*
X80058Y-56569D01*
X80027Y-56644D01*
X80027Y-56744D01*
X80027Y-56994D01*
X80058Y-57069D01*
X80027Y-57144D01*
X80027Y-57244D01*
X80027Y-57479D01*
X80007Y-57479D01*
X79988Y-57483D01*
X79993Y-57470D01*
X79993Y-57276D01*
X79993Y-57051D01*
X79993Y-56858D01*
X79955Y-56766D01*
X79885Y-56696D01*
X79793Y-56658D01*
X79694Y-56658D01*
X79561Y-56658D01*
X79498Y-56720D01*
X79498Y-57114D01*
X79931Y-57114D01*
X79993Y-57051D01*
X79993Y-57276D01*
X79931Y-57214D01*
X79498Y-57214D01*
X79498Y-57222D01*
X79398Y-57222D01*
X79398Y-57214D01*
X79390Y-57214D01*
X79390Y-57114D01*
X79398Y-57114D01*
X79398Y-56720D01*
X79336Y-56658D01*
X79227Y-56658D01*
X79216Y-56642D01*
X79216Y-56642D01*
X79137Y-56563D01*
X79137Y-56193D01*
X79108Y-56124D01*
X79137Y-56054D01*
X79137Y-55861D01*
X79137Y-55636D01*
X79137Y-55443D01*
X79099Y-55351D01*
X79029Y-55281D01*
X78937Y-55243D01*
X78837Y-55243D01*
X78705Y-55243D01*
X78642Y-55305D01*
X78642Y-55699D01*
X79075Y-55699D01*
X79137Y-55636D01*
X79137Y-55861D01*
X79075Y-55799D01*
X78642Y-55799D01*
X78642Y-55806D01*
X78542Y-55806D01*
X78542Y-55799D01*
X78534Y-55799D01*
X78534Y-55699D01*
X78542Y-55699D01*
X78542Y-55305D01*
X78480Y-55243D01*
X78347Y-55243D01*
X78247Y-55243D01*
X78155Y-55281D01*
X78144Y-55292D01*
X78133Y-55281D01*
X78041Y-55243D01*
X77942Y-55243D01*
X77352Y-55243D01*
X77260Y-55281D01*
X77244Y-55297D01*
X77227Y-55281D01*
X77136Y-55243D01*
X77036Y-55243D01*
X76903Y-55243D01*
X76841Y-55305D01*
X76841Y-55699D01*
X76849Y-55699D01*
X76849Y-55799D01*
X76841Y-55799D01*
X76841Y-55806D01*
X76741Y-55806D01*
X76741Y-55799D01*
X76741Y-55699D01*
X76741Y-55305D01*
X76678Y-55243D01*
X76546Y-55243D01*
X76446Y-55243D01*
X76354Y-55281D01*
X76284Y-55351D01*
X76246Y-55443D01*
X76246Y-55636D01*
X76308Y-55699D01*
X76741Y-55699D01*
X76741Y-55799D01*
X76308Y-55799D01*
X76246Y-55861D01*
X76246Y-56054D01*
X76275Y-56124D01*
X76246Y-56193D01*
X76246Y-56292D01*
X76246Y-56640D01*
X76157Y-56676D01*
X76087Y-56747D01*
X76049Y-56838D01*
X76049Y-57032D01*
X76111Y-57094D01*
X76544Y-57094D01*
X76544Y-57086D01*
X76644Y-57086D01*
X76644Y-57094D01*
X77076Y-57094D01*
X77139Y-57032D01*
X77139Y-57003D01*
X77227Y-56966D01*
X77244Y-56950D01*
X77260Y-56966D01*
X77344Y-57002D01*
X77325Y-57047D01*
X77325Y-57147D01*
X77325Y-57383D01*
X77334Y-57403D01*
X77325Y-57422D01*
X77325Y-57478D01*
X77388Y-57540D01*
X77325Y-57540D01*
X77325Y-57542D01*
X77298Y-57531D01*
X77135Y-57530D01*
X77118Y-57537D01*
X77110Y-57519D01*
X77139Y-57450D01*
X77139Y-57257D01*
X77076Y-57194D01*
X76644Y-57194D01*
X76644Y-57202D01*
X76544Y-57202D01*
X76544Y-57194D01*
X76111Y-57194D01*
X76049Y-57257D01*
X76049Y-57450D01*
X76078Y-57519D01*
X76076Y-57524D01*
X75756Y-57524D01*
X75756Y-54907D01*
X75756Y-54475D01*
X75362Y-54475D01*
X75300Y-54537D01*
X75300Y-54670D01*
X75300Y-54769D01*
X75338Y-54861D01*
X75408Y-54932D01*
X75500Y-54970D01*
X75693Y-54970D01*
X75756Y-54907D01*
X75756Y-57524D01*
X75396Y-57524D01*
X75396Y-56966D01*
X75396Y-56867D01*
X75396Y-56734D01*
X75334Y-56672D01*
X74940Y-56672D01*
X74940Y-57104D01*
X75003Y-57167D01*
X75196Y-57167D01*
X75288Y-57128D01*
X75358Y-57058D01*
X75396Y-56966D01*
X75396Y-57524D01*
X75193Y-57524D01*
X74807Y-57138D01*
X74840Y-57104D01*
X74840Y-56672D01*
X74832Y-56672D01*
X74832Y-56572D01*
X74840Y-56572D01*
X74840Y-56564D01*
X74940Y-56564D01*
X74940Y-56572D01*
X75334Y-56572D01*
X75396Y-56509D01*
X75396Y-56413D01*
X75423Y-56414D01*
X75574Y-56351D01*
X75689Y-56236D01*
X75752Y-56085D01*
X75752Y-55922D01*
X75690Y-55771D01*
X75575Y-55656D01*
X75424Y-55594D01*
X75325Y-55593D01*
X75325Y-55593D01*
X75322Y-55591D01*
X75213Y-55569D01*
X75197Y-55530D01*
X75126Y-55459D01*
X75109Y-55452D01*
X75126Y-55445D01*
X75197Y-55375D01*
X75235Y-55283D01*
X75235Y-55184D01*
X75235Y-54790D01*
X75211Y-54734D01*
X75231Y-54687D01*
X75231Y-54587D01*
X75231Y-54455D01*
X75231Y-54230D01*
X75231Y-54097D01*
X75231Y-53997D01*
X75193Y-53905D01*
X75123Y-53835D01*
X75031Y-53797D01*
X74837Y-53797D01*
X74775Y-53860D01*
X74775Y-54292D01*
X75168Y-54292D01*
X75231Y-54230D01*
X75231Y-54455D01*
X75168Y-54392D01*
X74775Y-54392D01*
X74775Y-54400D01*
X74675Y-54400D01*
X74675Y-54392D01*
X74667Y-54392D01*
X74667Y-54292D01*
X74675Y-54292D01*
X74675Y-53860D01*
X74612Y-53797D01*
X74419Y-53797D01*
X74350Y-53826D01*
X74315Y-53811D01*
X74315Y-53619D01*
X74360Y-53664D01*
X74452Y-53702D01*
X74551Y-53702D01*
X74714Y-53702D01*
X74776Y-53640D01*
X74776Y-53446D01*
X74826Y-53456D01*
X74876Y-53456D01*
X74876Y-53640D01*
X74939Y-53702D01*
X75102Y-53702D01*
X75201Y-53702D01*
X75293Y-53664D01*
X75300Y-53657D01*
X75300Y-53664D01*
X75362Y-53664D01*
X75300Y-53726D01*
X75300Y-53859D01*
X75300Y-53958D01*
X75325Y-54019D01*
X75300Y-54080D01*
X75300Y-54179D01*
X75300Y-54312D01*
X75362Y-54375D01*
X75756Y-54375D01*
X75756Y-54096D01*
X75756Y-53942D01*
X75756Y-53664D01*
X75748Y-53664D01*
X75748Y-53564D01*
X75756Y-53564D01*
X75756Y-53556D01*
X75856Y-53556D01*
X75856Y-53564D01*
X75863Y-53564D01*
X75863Y-53664D01*
X75856Y-53664D01*
X75856Y-53942D01*
X75856Y-54096D01*
X75856Y-54375D01*
X75863Y-54375D01*
X75863Y-54475D01*
X75856Y-54475D01*
X75856Y-54907D01*
X75918Y-54970D01*
X76111Y-54970D01*
X76181Y-54941D01*
X76250Y-54970D01*
X76349Y-54970D01*
X76861Y-54970D01*
X76953Y-54932D01*
X77024Y-54861D01*
X77062Y-54769D01*
X77062Y-54670D01*
X77062Y-54080D01*
X77036Y-54019D01*
X77062Y-53958D01*
X77062Y-53859D01*
X77062Y-53269D01*
X77024Y-53177D01*
X77017Y-53171D01*
X77027Y-53161D01*
X77052Y-53101D01*
X77632Y-53101D01*
X77632Y-54899D01*
X77670Y-54991D01*
X77740Y-55062D01*
X77832Y-55100D01*
X77931Y-55100D01*
X78718Y-55100D01*
X78810Y-55062D01*
X78881Y-54991D01*
X78919Y-54899D01*
X78919Y-54800D01*
X78919Y-53796D01*
X79334Y-53381D01*
X79343Y-53402D01*
X79413Y-53472D01*
X79505Y-53510D01*
X79605Y-53510D01*
X80195Y-53510D01*
X80287Y-53472D01*
X80357Y-53402D01*
X80395Y-53310D01*
X80395Y-53211D01*
X80395Y-53101D01*
X81930Y-53101D01*
X82011Y-53182D01*
X82162Y-53244D01*
X82229Y-53244D01*
X83378Y-54393D01*
X83436Y-54432D01*
X83475Y-54458D01*
X83475Y-54458D01*
X83590Y-54481D01*
X84523Y-54481D01*
X84582Y-54570D01*
X84749Y-54681D01*
X84582Y-54792D01*
X84463Y-54970D01*
X84421Y-55181D01*
X84463Y-55391D01*
X84582Y-55570D01*
X84749Y-55681D01*
X84749Y-55681D01*
G37*
G54D38*
X84749Y-55681D02*
X84582Y-55792D01*
X84463Y-55970D01*
X84421Y-56181D01*
X84463Y-56391D01*
X84582Y-56570D01*
X84674Y-56631D01*
X84635Y-56631D01*
X84543Y-56669D01*
X84473Y-56739D01*
X84435Y-56831D01*
X84435Y-56930D01*
X84435Y-57064D01*
X83949Y-56579D01*
X83839Y-56505D01*
X83709Y-56479D01*
X83227Y-56479D01*
X83227Y-56394D01*
X83227Y-56144D01*
X83188Y-56053D01*
X83118Y-55982D01*
X83026Y-55944D01*
X82927Y-55944D01*
X82427Y-55944D01*
X82335Y-55982D01*
X82265Y-56053D01*
X82227Y-56144D01*
X82227Y-56244D01*
X82227Y-56494D01*
X82258Y-56569D01*
X82227Y-56644D01*
X82227Y-56744D01*
X82227Y-56994D01*
X82258Y-57069D01*
X82227Y-57144D01*
X82227Y-57207D01*
X82289Y-57269D01*
X82677Y-57269D01*
X82677Y-57261D01*
X82777Y-57261D01*
X82777Y-57269D01*
X82784Y-57269D01*
X82784Y-57369D01*
X82777Y-57369D01*
X82777Y-57377D01*
X82677Y-57377D01*
X82677Y-57369D01*
X82289Y-57369D01*
X82227Y-57432D01*
X82227Y-57479D01*
X82101Y-57479D01*
X81993Y-57501D01*
X81971Y-57505D01*
X81861Y-57579D01*
X81241Y-58199D01*
X80086Y-58199D01*
X80144Y-58160D01*
X80227Y-58194D01*
X80326Y-58194D01*
X80826Y-58194D01*
X80918Y-58156D01*
X80988Y-58086D01*
X81027Y-57994D01*
X81027Y-57894D01*
X81027Y-57644D01*
X80995Y-57569D01*
X81027Y-57494D01*
X81027Y-57394D01*
X81027Y-57144D01*
X80995Y-57069D01*
X81027Y-56994D01*
X81027Y-56894D01*
X81027Y-56644D01*
X80995Y-56569D01*
X81027Y-56494D01*
X81027Y-56394D01*
X81027Y-56144D01*
X80988Y-56053D01*
X80918Y-55982D01*
X80826Y-55944D01*
X80727Y-55944D01*
X80227Y-55944D01*
X80135Y-55982D01*
X80065Y-56053D01*
X80027Y-56144D01*
X80027Y-56244D01*
X80027Y-56494D01*
X80058Y-56569D01*
X80027Y-56644D01*
X80027Y-56744D01*
X80027Y-56994D01*
X80058Y-57069D01*
X80027Y-57144D01*
X80027Y-57244D01*
X80027Y-57479D01*
X80007Y-57479D01*
X79988Y-57483D01*
X79993Y-57470D01*
X79993Y-57276D01*
X79993Y-57051D01*
X79993Y-56858D01*
X79955Y-56766D01*
X79885Y-56696D01*
X79793Y-56658D01*
X79694Y-56658D01*
X79561Y-56658D01*
X79498Y-56720D01*
X79498Y-57114D01*
X79931Y-57114D01*
X79993Y-57051D01*
X79993Y-57276D01*
X79931Y-57214D01*
X79498Y-57214D01*
X79498Y-57222D01*
X79398Y-57222D01*
X79398Y-57214D01*
X79390Y-57214D01*
X79390Y-57114D01*
X79398Y-57114D01*
X79398Y-56720D01*
X79336Y-56658D01*
X79227Y-56658D01*
X79216Y-56642D01*
X79216Y-56642D01*
X79137Y-56563D01*
X79137Y-56193D01*
X79108Y-56124D01*
X79137Y-56054D01*
X79137Y-55861D01*
X79137Y-55636D01*
X79137Y-55443D01*
X79099Y-55351D01*
X79029Y-55281D01*
X78937Y-55243D01*
X78837Y-55243D01*
X78705Y-55243D01*
X78642Y-55305D01*
X78642Y-55699D01*
X79075Y-55699D01*
X79137Y-55636D01*
X79137Y-55861D01*
X79075Y-55799D01*
X78642Y-55799D01*
X78642Y-55806D01*
X78542Y-55806D01*
X78542Y-55799D01*
X78534Y-55799D01*
X78534Y-55699D01*
X78542Y-55699D01*
X78542Y-55305D01*
X78480Y-55243D01*
X78347Y-55243D01*
X78247Y-55243D01*
X78155Y-55281D01*
X78144Y-55292D01*
X78133Y-55281D01*
X78041Y-55243D01*
X77942Y-55243D01*
X77352Y-55243D01*
X77260Y-55281D01*
X77244Y-55297D01*
X77227Y-55281D01*
X77136Y-55243D01*
X77036Y-55243D01*
X76903Y-55243D01*
X76841Y-55305D01*
X76841Y-55699D01*
X76849Y-55699D01*
X76849Y-55799D01*
X76841Y-55799D01*
X76841Y-55806D01*
X76741Y-55806D01*
X76741Y-55799D01*
X76741Y-55699D01*
X76741Y-55305D01*
X76678Y-55243D01*
X76546Y-55243D01*
X76446Y-55243D01*
X76354Y-55281D01*
X76284Y-55351D01*
X76246Y-55443D01*
X76246Y-55636D01*
X76308Y-55699D01*
X76741Y-55699D01*
X76741Y-55799D01*
X76308Y-55799D01*
X76246Y-55861D01*
X76246Y-56054D01*
X76275Y-56124D01*
X76246Y-56193D01*
X76246Y-56292D01*
X76246Y-56640D01*
X76157Y-56676D01*
X76087Y-56747D01*
X76049Y-56838D01*
X76049Y-57032D01*
X76111Y-57094D01*
X76544Y-57094D01*
X76544Y-57086D01*
X76644Y-57086D01*
X76644Y-57094D01*
X77076Y-57094D01*
X77139Y-57032D01*
X77139Y-57003D01*
X77227Y-56966D01*
X77244Y-56950D01*
X77260Y-56966D01*
X77344Y-57002D01*
X77325Y-57047D01*
X77325Y-57147D01*
X77325Y-57383D01*
X77334Y-57403D01*
X77325Y-57422D01*
X77325Y-57478D01*
X77388Y-57540D01*
X77325Y-57540D01*
X77325Y-57542D01*
X77298Y-57531D01*
X77135Y-57530D01*
X77118Y-57537D01*
X77110Y-57519D01*
X77139Y-57450D01*
X77139Y-57257D01*
X77076Y-57194D01*
X76644Y-57194D01*
X76644Y-57202D01*
X76544Y-57202D01*
X76544Y-57194D01*
X76111Y-57194D01*
X76049Y-57257D01*
X76049Y-57450D01*
X76078Y-57519D01*
X76076Y-57524D01*
X75756Y-57524D01*
X75756Y-54907D01*
X75756Y-54475D01*
X75362Y-54475D01*
X75300Y-54537D01*
X75300Y-54670D01*
X75300Y-54769D01*
X75338Y-54861D01*
X75408Y-54932D01*
X75500Y-54970D01*
X75693Y-54970D01*
X75756Y-54907D01*
X75756Y-57524D01*
X75396Y-57524D01*
X75396Y-56966D01*
X75396Y-56867D01*
X75396Y-56734D01*
X75334Y-56672D01*
X74940Y-56672D01*
X74940Y-57104D01*
X75003Y-57167D01*
X75196Y-57167D01*
X75288Y-57128D01*
X75358Y-57058D01*
X75396Y-56966D01*
X75396Y-57524D01*
X75193Y-57524D01*
X74807Y-57138D01*
X74840Y-57104D01*
X74840Y-56672D01*
X74832Y-56672D01*
X74832Y-56572D01*
X74840Y-56572D01*
X74840Y-56564D01*
X74940Y-56564D01*
X74940Y-56572D01*
X75334Y-56572D01*
X75396Y-56509D01*
X75396Y-56413D01*
X75423Y-56414D01*
X75574Y-56351D01*
X75689Y-56236D01*
X75752Y-56085D01*
X75752Y-55922D01*
X75690Y-55771D01*
X75575Y-55656D01*
X75424Y-55594D01*
X75325Y-55593D01*
X75325Y-55593D01*
X75322Y-55591D01*
X75213Y-55569D01*
X75197Y-55530D01*
X75126Y-55459D01*
X75109Y-55452D01*
X75126Y-55445D01*
X75197Y-55375D01*
X75235Y-55283D01*
X75235Y-55184D01*
X75235Y-54790D01*
X75211Y-54734D01*
X75231Y-54687D01*
X75231Y-54587D01*
X75231Y-54455D01*
X75231Y-54230D01*
X75231Y-54097D01*
X75231Y-53997D01*
X75193Y-53905D01*
X75123Y-53835D01*
X75031Y-53797D01*
X74837Y-53797D01*
X74775Y-53860D01*
X74775Y-54292D01*
X75168Y-54292D01*
X75231Y-54230D01*
X75231Y-54455D01*
X75168Y-54392D01*
X74775Y-54392D01*
X74775Y-54400D01*
X74675Y-54400D01*
X74675Y-54392D01*
X74667Y-54392D01*
X74667Y-54292D01*
X74675Y-54292D01*
X74675Y-53860D01*
X74612Y-53797D01*
X74419Y-53797D01*
X74350Y-53826D01*
X74315Y-53811D01*
X74315Y-53619D01*
X74360Y-53664D01*
X74452Y-53702D01*
X74551Y-53702D01*
X74714Y-53702D01*
X74776Y-53640D01*
X74776Y-53446D01*
X74826Y-53456D01*
X74876Y-53456D01*
X74876Y-53640D01*
X74939Y-53702D01*
X75102Y-53702D01*
X75201Y-53702D01*
X75293Y-53664D01*
X75300Y-53657D01*
X75300Y-53664D01*
X75362Y-53664D01*
X75300Y-53726D01*
X75300Y-53859D01*
X75300Y-53958D01*
X75325Y-54019D01*
X75300Y-54080D01*
X75300Y-54179D01*
X75300Y-54312D01*
X75362Y-54375D01*
X75756Y-54375D01*
X75756Y-54096D01*
X75756Y-53942D01*
X75756Y-53664D01*
X75748Y-53664D01*
X75748Y-53564D01*
X75756Y-53564D01*
X75756Y-53556D01*
X75856Y-53556D01*
X75856Y-53564D01*
X75863Y-53564D01*
X75863Y-53664D01*
X75856Y-53664D01*
X75856Y-53942D01*
X75856Y-54096D01*
X75856Y-54375D01*
X75863Y-54375D01*
X75863Y-54475D01*
X75856Y-54475D01*
X75856Y-54907D01*
X75918Y-54970D01*
X76111Y-54970D01*
X76181Y-54941D01*
X76250Y-54970D01*
X76349Y-54970D01*
X76861Y-54970D01*
X76953Y-54932D01*
X77024Y-54861D01*
X77062Y-54769D01*
X77062Y-54670D01*
X77062Y-54080D01*
X77036Y-54019D01*
X77062Y-53958D01*
X77062Y-53859D01*
X77062Y-53269D01*
X77024Y-53177D01*
X77017Y-53171D01*
X77027Y-53161D01*
X77052Y-53101D01*
X77632Y-53101D01*
X77632Y-54899D01*
X77670Y-54991D01*
X77740Y-55062D01*
X77832Y-55100D01*
X77931Y-55100D01*
X78718Y-55100D01*
X78810Y-55062D01*
X78881Y-54991D01*
X78919Y-54899D01*
X78919Y-54800D01*
X78919Y-53796D01*
X79334Y-53381D01*
X79343Y-53402D01*
X79413Y-53472D01*
X79505Y-53510D01*
X79605Y-53510D01*
X80195Y-53510D01*
X80287Y-53472D01*
X80357Y-53402D01*
X80395Y-53310D01*
X80395Y-53211D01*
X80395Y-53101D01*
X81930Y-53101D01*
X82011Y-53182D01*
X82162Y-53244D01*
X82229Y-53244D01*
X83378Y-54393D01*
X83436Y-54432D01*
X83475Y-54458D01*
X83475Y-54458D01*
X83590Y-54481D01*
X84523Y-54481D01*
X84582Y-54570D01*
X84749Y-54681D01*
X84582Y-54792D01*
X84463Y-54970D01*
X84421Y-55181D01*
X84463Y-55391D01*
X84582Y-55570D01*
X84749Y-55681D01*
G54D10*
G36*
X88101Y-63248D02*
X88087Y-63227D01*
X87862Y-63078D01*
X87598Y-63025D01*
X87333Y-63078D01*
X87189Y-63174D01*
X87172Y-63157D01*
X87075Y-63092D01*
X87055Y-63088D01*
X87055Y-63076D01*
X87055Y-62288D01*
X87017Y-62196D01*
X86946Y-62126D01*
X86854Y-62088D01*
X86755Y-62088D01*
X86650Y-62088D01*
X86650Y-61998D01*
X86854Y-61998D01*
X86946Y-61959D01*
X87017Y-61889D01*
X87055Y-61797D01*
X87055Y-61742D01*
X87129Y-61854D01*
X87359Y-62007D01*
X87551Y-62046D01*
X87506Y-62090D01*
X87444Y-62240D01*
X87444Y-62404D01*
X87506Y-62554D01*
X87621Y-62670D01*
X87772Y-62732D01*
X87803Y-62732D01*
X88043Y-62972D01*
X88043Y-62972D01*
X88070Y-62991D01*
X88070Y-63175D01*
X88101Y-63248D01*
X88101Y-63248D01*
G37*
G54D38*
X88101Y-63248D02*
X88087Y-63227D01*
X87862Y-63078D01*
X87598Y-63025D01*
X87333Y-63078D01*
X87189Y-63174D01*
X87172Y-63157D01*
X87075Y-63092D01*
X87055Y-63088D01*
X87055Y-63076D01*
X87055Y-62288D01*
X87017Y-62196D01*
X86946Y-62126D01*
X86854Y-62088D01*
X86755Y-62088D01*
X86650Y-62088D01*
X86650Y-61998D01*
X86854Y-61998D01*
X86946Y-61959D01*
X87017Y-61889D01*
X87055Y-61797D01*
X87055Y-61742D01*
X87129Y-61854D01*
X87359Y-62007D01*
X87551Y-62046D01*
X87506Y-62090D01*
X87444Y-62240D01*
X87444Y-62404D01*
X87506Y-62554D01*
X87621Y-62670D01*
X87772Y-62732D01*
X87803Y-62732D01*
X88043Y-62972D01*
X88043Y-62972D01*
X88070Y-62991D01*
X88070Y-63175D01*
X88101Y-63248D01*
G54D10*
G36*
X89340Y-60710D02*
X88271Y-60710D01*
X88179Y-60748D01*
X88108Y-60819D01*
X88102Y-60835D01*
X87900Y-60700D01*
X87629Y-60646D01*
X87359Y-60700D01*
X87129Y-60854D01*
X87055Y-60965D01*
X87055Y-60910D01*
X87017Y-60819D01*
X86946Y-60748D01*
X86854Y-60710D01*
X86755Y-60710D01*
X85666Y-60710D01*
X85666Y-58874D01*
X85666Y-58527D01*
X85643Y-58412D01*
X85643Y-58412D01*
X85578Y-58315D01*
X85264Y-58001D01*
X85791Y-58001D01*
X85791Y-58001D01*
X85921Y-57975D01*
X86031Y-57901D01*
X86739Y-57194D01*
X87399Y-57194D01*
X87491Y-57156D01*
X87562Y-57085D01*
X87586Y-57026D01*
X87611Y-57085D01*
X87681Y-57156D01*
X87772Y-57194D01*
X87772Y-57223D01*
X87772Y-57813D01*
X87810Y-57905D01*
X87880Y-57975D01*
X87972Y-58013D01*
X88072Y-58013D01*
X88584Y-58013D01*
X88653Y-57984D01*
X88722Y-58013D01*
X88916Y-58013D01*
X88978Y-57951D01*
X88978Y-58013D01*
X89003Y-58013D01*
X88606Y-58409D01*
X88541Y-58507D01*
X88518Y-58622D01*
X88518Y-59230D01*
X88437Y-59311D01*
X88368Y-59477D01*
X88368Y-59656D01*
X88437Y-59821D01*
X88563Y-59948D01*
X88728Y-60016D01*
X88908Y-60017D01*
X89073Y-59948D01*
X89200Y-59822D01*
X89268Y-59656D01*
X89268Y-59477D01*
X89200Y-59312D01*
X89118Y-59230D01*
X89118Y-58746D01*
X89340Y-58524D01*
X89340Y-60710D01*
X89340Y-60710D01*
G37*
G54D38*
X89340Y-60710D02*
X88271Y-60710D01*
X88179Y-60748D01*
X88108Y-60819D01*
X88102Y-60835D01*
X87900Y-60700D01*
X87629Y-60646D01*
X87359Y-60700D01*
X87129Y-60854D01*
X87055Y-60965D01*
X87055Y-60910D01*
X87017Y-60819D01*
X86946Y-60748D01*
X86854Y-60710D01*
X86755Y-60710D01*
X85666Y-60710D01*
X85666Y-58874D01*
X85666Y-58527D01*
X85643Y-58412D01*
X85643Y-58412D01*
X85578Y-58315D01*
X85264Y-58001D01*
X85791Y-58001D01*
X85791Y-58001D01*
X85921Y-57975D01*
X86031Y-57901D01*
X86739Y-57194D01*
X87399Y-57194D01*
X87491Y-57156D01*
X87562Y-57085D01*
X87586Y-57026D01*
X87611Y-57085D01*
X87681Y-57156D01*
X87772Y-57194D01*
X87772Y-57223D01*
X87772Y-57813D01*
X87810Y-57905D01*
X87880Y-57975D01*
X87972Y-58013D01*
X88072Y-58013D01*
X88584Y-58013D01*
X88653Y-57984D01*
X88722Y-58013D01*
X88916Y-58013D01*
X88978Y-57951D01*
X88978Y-58013D01*
X89003Y-58013D01*
X88606Y-58409D01*
X88541Y-58507D01*
X88518Y-58622D01*
X88518Y-59230D01*
X88437Y-59311D01*
X88368Y-59477D01*
X88368Y-59656D01*
X88437Y-59821D01*
X88563Y-59948D01*
X88728Y-60016D01*
X88908Y-60017D01*
X89073Y-59948D01*
X89200Y-59822D01*
X89268Y-59656D01*
X89268Y-59477D01*
X89200Y-59312D01*
X89118Y-59230D01*
X89118Y-58746D01*
X89340Y-58524D01*
X89340Y-60710D01*
G54D10*
G36*
X89340Y-65485D02*
X86194Y-65485D01*
X86194Y-64573D01*
X86194Y-64042D01*
X85495Y-64042D01*
X85433Y-64104D01*
X85433Y-64435D01*
X85471Y-64527D01*
X85541Y-64597D01*
X85633Y-64635D01*
X85732Y-64635D01*
X86131Y-64635D01*
X86194Y-64573D01*
X86194Y-65485D01*
X85105Y-65485D01*
X85105Y-65145D01*
X85105Y-64907D01*
X85042Y-64845D01*
X84605Y-64845D01*
X84605Y-65282D01*
X84667Y-65345D01*
X84805Y-65345D01*
X84904Y-65345D01*
X84996Y-65307D01*
X85067Y-65236D01*
X85105Y-65145D01*
X85105Y-65485D01*
X84505Y-65485D01*
X84505Y-65282D01*
X84505Y-64845D01*
X84067Y-64845D01*
X84005Y-64907D01*
X84005Y-65145D01*
X84043Y-65236D01*
X84113Y-65307D01*
X84205Y-65345D01*
X84304Y-65345D01*
X84442Y-65345D01*
X84505Y-65282D01*
X84505Y-65485D01*
X82356Y-65485D01*
X82356Y-64557D01*
X82356Y-64458D01*
X82356Y-64266D01*
X82293Y-64203D01*
X81605Y-64203D01*
X81605Y-64695D01*
X81667Y-64757D01*
X82156Y-64757D01*
X82247Y-64719D01*
X82318Y-64649D01*
X82356Y-64557D01*
X82356Y-65485D01*
X81505Y-65485D01*
X81505Y-64695D01*
X81505Y-64203D01*
X81505Y-64103D01*
X81505Y-63611D01*
X81442Y-63549D01*
X80954Y-63549D01*
X80862Y-63587D01*
X80791Y-63657D01*
X80753Y-63749D01*
X80753Y-63848D01*
X80753Y-64041D01*
X80816Y-64103D01*
X81505Y-64103D01*
X81505Y-64203D01*
X80816Y-64203D01*
X80753Y-64266D01*
X80753Y-64458D01*
X80753Y-64557D01*
X80791Y-64649D01*
X80862Y-64719D01*
X80954Y-64757D01*
X81442Y-64757D01*
X81505Y-64695D01*
X81505Y-65485D01*
X77550Y-65485D01*
X77550Y-65148D01*
X77550Y-64911D01*
X77487Y-64849D01*
X77050Y-64849D01*
X77050Y-65286D01*
X77112Y-65349D01*
X77250Y-65349D01*
X77349Y-65349D01*
X77441Y-65311D01*
X77511Y-65240D01*
X77550Y-65148D01*
X77550Y-65485D01*
X76950Y-65485D01*
X76950Y-65286D01*
X76950Y-64849D01*
X76512Y-64849D01*
X76450Y-64911D01*
X76450Y-65148D01*
X76488Y-65240D01*
X76558Y-65311D01*
X76650Y-65349D01*
X76749Y-65349D01*
X76887Y-65349D01*
X76950Y-65286D01*
X76950Y-65485D01*
X74765Y-65485D01*
X74765Y-64533D01*
X74765Y-64434D01*
X74765Y-64242D01*
X74703Y-64179D01*
X74014Y-64179D01*
X74014Y-64671D01*
X74077Y-64734D01*
X74565Y-64734D01*
X74657Y-64696D01*
X74727Y-64625D01*
X74765Y-64533D01*
X74765Y-65485D01*
X73914Y-65485D01*
X73914Y-64671D01*
X73914Y-64179D01*
X73914Y-64079D01*
X73914Y-63588D01*
X73852Y-63525D01*
X73363Y-63525D01*
X73271Y-63563D01*
X73201Y-63633D01*
X73163Y-63725D01*
X73163Y-63825D01*
X73163Y-64017D01*
X73225Y-64079D01*
X73914Y-64079D01*
X73914Y-64179D01*
X73225Y-64179D01*
X73163Y-64242D01*
X73163Y-64434D01*
X73163Y-64533D01*
X73201Y-64625D01*
X73271Y-64696D01*
X73363Y-64734D01*
X73852Y-64734D01*
X73914Y-64671D01*
X73914Y-65485D01*
X69988Y-65485D01*
X69988Y-58563D01*
X69988Y-58264D01*
X69976Y-58213D01*
X69852Y-57994D01*
X69655Y-57838D01*
X69412Y-57770D01*
X69018Y-57770D01*
X69018Y-58363D01*
X69941Y-58363D01*
X69988Y-58264D01*
X69988Y-58563D01*
X69941Y-58463D01*
X69018Y-58463D01*
X69018Y-59057D01*
X69412Y-59057D01*
X69655Y-58989D01*
X69852Y-58833D01*
X69976Y-58613D01*
X69988Y-58563D01*
X69988Y-65485D01*
X68918Y-65485D01*
X68918Y-59057D01*
X68918Y-58463D01*
X68918Y-58363D01*
X68918Y-57770D01*
X68524Y-57770D01*
X68332Y-57824D01*
X68332Y-56741D01*
X68332Y-55912D01*
X68283Y-55666D01*
X68143Y-55457D01*
X67934Y-55317D01*
X67688Y-55268D01*
X67442Y-55317D01*
X67233Y-55457D01*
X67094Y-55666D01*
X67045Y-55912D01*
X67045Y-56741D01*
X67094Y-56987D01*
X67233Y-57196D01*
X67442Y-57335D01*
X67688Y-57384D01*
X67934Y-57335D01*
X68143Y-57196D01*
X68283Y-56987D01*
X68332Y-56741D01*
X68332Y-57824D01*
X68282Y-57838D01*
X68084Y-57994D01*
X67960Y-58213D01*
X67948Y-58264D01*
X67995Y-58363D01*
X68918Y-58363D01*
X68918Y-58463D01*
X67995Y-58463D01*
X67948Y-58563D01*
X67960Y-58613D01*
X68084Y-58833D01*
X68282Y-58989D01*
X68524Y-59057D01*
X68918Y-59057D01*
X68918Y-65485D01*
X65328Y-65485D01*
X65112Y-65431D01*
X64932Y-65299D01*
X64817Y-65108D01*
X64779Y-64854D01*
X64779Y-53101D01*
X68212Y-53101D01*
X68212Y-54681D01*
X68240Y-54822D01*
X68321Y-54942D01*
X68353Y-54974D01*
X68353Y-54990D01*
X68421Y-55156D01*
X68547Y-55282D01*
X68713Y-55351D01*
X68892Y-55351D01*
X69057Y-55283D01*
X69099Y-55241D01*
X69769Y-55241D01*
X69596Y-55356D01*
X69457Y-55565D01*
X69408Y-55812D01*
X69408Y-56841D01*
X69457Y-57087D01*
X69596Y-57296D01*
X69805Y-57436D01*
X70051Y-57485D01*
X70297Y-57436D01*
X70506Y-57296D01*
X70646Y-57087D01*
X70695Y-56841D01*
X70695Y-55812D01*
X70650Y-55588D01*
X71924Y-56862D01*
X72035Y-56936D01*
X72132Y-56955D01*
X72132Y-57577D01*
X72117Y-57583D01*
X72046Y-57653D01*
X72008Y-57745D01*
X72008Y-57845D01*
X72008Y-57978D01*
X72071Y-58040D01*
X72464Y-58040D01*
X72464Y-58032D01*
X72564Y-58032D01*
X72564Y-58040D01*
X72572Y-58040D01*
X72572Y-58140D01*
X72564Y-58140D01*
X72564Y-58573D01*
X72627Y-58635D01*
X72820Y-58635D01*
X72889Y-58606D01*
X72959Y-58635D01*
X73058Y-58635D01*
X73570Y-58635D01*
X73662Y-58597D01*
X73732Y-58527D01*
X73750Y-58483D01*
X73723Y-58619D01*
X73788Y-58944D01*
X73972Y-59220D01*
X74207Y-59376D01*
X74129Y-59376D01*
X74037Y-59414D01*
X73967Y-59485D01*
X73943Y-59542D01*
X73836Y-59542D01*
X73833Y-59539D01*
X73668Y-59471D01*
X73489Y-59471D01*
X73324Y-59539D01*
X73197Y-59666D01*
X73128Y-59831D01*
X73128Y-60010D01*
X73197Y-60175D01*
X73222Y-60201D01*
X73204Y-60209D01*
X73125Y-60176D01*
X73026Y-60176D01*
X72476Y-60176D01*
X72464Y-60181D01*
X72464Y-58573D01*
X72464Y-58140D01*
X72071Y-58140D01*
X72008Y-58203D01*
X72008Y-58335D01*
X72008Y-58435D01*
X72046Y-58527D01*
X72117Y-58597D01*
X72209Y-58635D01*
X72402Y-58635D01*
X72464Y-58573D01*
X72464Y-60181D01*
X72384Y-60214D01*
X72314Y-60284D01*
X72276Y-60376D01*
X72276Y-60476D01*
X72276Y-60826D01*
X72314Y-60917D01*
X72372Y-60976D01*
X72314Y-61034D01*
X72276Y-61126D01*
X72276Y-61226D01*
X72276Y-61576D01*
X72314Y-61667D01*
X72384Y-61738D01*
X72461Y-61770D01*
X72461Y-61852D01*
X72162Y-61852D01*
X72070Y-61890D01*
X72000Y-61960D01*
X71962Y-62052D01*
X71962Y-62152D01*
X71962Y-63293D01*
X72000Y-63385D01*
X72070Y-63456D01*
X72162Y-63494D01*
X72262Y-63494D01*
X72813Y-63494D01*
X72905Y-63456D01*
X72975Y-63385D01*
X73013Y-63293D01*
X73013Y-63194D01*
X73013Y-63013D01*
X73874Y-63013D01*
X74387Y-63525D01*
X74077Y-63525D01*
X74014Y-63588D01*
X74014Y-64079D01*
X74703Y-64079D01*
X74765Y-64017D01*
X74765Y-63904D01*
X74901Y-64039D01*
X75011Y-64113D01*
X75141Y-64139D01*
X76562Y-64139D01*
X76672Y-64249D01*
X76650Y-64249D01*
X76558Y-64287D01*
X76488Y-64357D01*
X76450Y-64449D01*
X76450Y-64686D01*
X76512Y-64749D01*
X76950Y-64749D01*
X76950Y-64741D01*
X77050Y-64741D01*
X77050Y-64749D01*
X77487Y-64749D01*
X77550Y-64686D01*
X77550Y-64449D01*
X77511Y-64357D01*
X77441Y-64287D01*
X77349Y-64249D01*
X77327Y-64249D01*
X77465Y-64111D01*
X77549Y-63909D01*
X77550Y-63690D01*
X77466Y-63488D01*
X77311Y-63333D01*
X77230Y-63299D01*
X77311Y-63265D01*
X77465Y-63111D01*
X77549Y-62909D01*
X77550Y-62729D01*
X78580Y-61699D01*
X78654Y-61589D01*
X78680Y-61459D01*
X78680Y-61459D01*
X78680Y-61128D01*
X78680Y-60962D01*
X78707Y-60951D01*
X78745Y-60951D01*
X78780Y-60986D01*
X78721Y-61044D01*
X78683Y-61136D01*
X78683Y-61235D01*
X78683Y-61585D01*
X78721Y-61677D01*
X78792Y-61748D01*
X78883Y-61786D01*
X78983Y-61786D01*
X79533Y-61786D01*
X79625Y-61748D01*
X79641Y-61731D01*
X79668Y-61758D01*
X79759Y-61796D01*
X79859Y-61796D01*
X80409Y-61796D01*
X80501Y-61758D01*
X80517Y-61741D01*
X80524Y-61748D01*
X80616Y-61786D01*
X80715Y-61786D01*
X81265Y-61786D01*
X81357Y-61748D01*
X81427Y-61677D01*
X81465Y-61585D01*
X81465Y-61486D01*
X81465Y-61136D01*
X81427Y-61044D01*
X81369Y-60986D01*
X81379Y-60976D01*
X81463Y-61011D01*
X81510Y-61011D01*
X81510Y-62166D01*
X81428Y-62247D01*
X81428Y-62247D01*
X81319Y-62356D01*
X80604Y-62356D01*
X80604Y-62076D01*
X80566Y-61984D01*
X80495Y-61914D01*
X80404Y-61875D01*
X80304Y-61875D01*
X79753Y-61875D01*
X79661Y-61914D01*
X79591Y-61984D01*
X79553Y-62076D01*
X79553Y-62175D01*
X79553Y-63317D01*
X79591Y-63409D01*
X79661Y-63479D01*
X79753Y-63517D01*
X79852Y-63517D01*
X80404Y-63517D01*
X80495Y-63479D01*
X80566Y-63409D01*
X80604Y-63317D01*
X80604Y-63217D01*
X80604Y-63036D01*
X81453Y-63036D01*
X81966Y-63549D01*
X81667Y-63549D01*
X81605Y-63611D01*
X81605Y-64103D01*
X82293Y-64103D01*
X82356Y-64041D01*
X82356Y-63939D01*
X82452Y-64035D01*
X82452Y-64035D01*
X82562Y-64109D01*
X82562Y-64109D01*
X82584Y-64113D01*
X82692Y-64135D01*
X84117Y-64135D01*
X84227Y-64245D01*
X84205Y-64245D01*
X84113Y-64283D01*
X84043Y-64353D01*
X84005Y-64445D01*
X84005Y-64682D01*
X84067Y-64745D01*
X84505Y-64745D01*
X84505Y-64737D01*
X84605Y-64737D01*
X84605Y-64745D01*
X85042Y-64745D01*
X85105Y-64682D01*
X85105Y-64445D01*
X85067Y-64353D01*
X84996Y-64283D01*
X84904Y-64245D01*
X84882Y-64245D01*
X85021Y-64107D01*
X85105Y-63905D01*
X85105Y-63686D01*
X85021Y-63484D01*
X84867Y-63329D01*
X84785Y-63295D01*
X84866Y-63261D01*
X85021Y-63107D01*
X85066Y-62998D01*
X85066Y-63122D01*
X85088Y-63236D01*
X85154Y-63334D01*
X85402Y-63582D01*
X85433Y-63602D01*
X85433Y-63879D01*
X85495Y-63942D01*
X86194Y-63942D01*
X86194Y-63934D01*
X86294Y-63934D01*
X86294Y-63942D01*
X86301Y-63942D01*
X86301Y-64042D01*
X86294Y-64042D01*
X86294Y-64573D01*
X86356Y-64635D01*
X86755Y-64635D01*
X86854Y-64635D01*
X86946Y-64597D01*
X87017Y-64527D01*
X87027Y-64502D01*
X87185Y-64660D01*
X87282Y-64725D01*
X87282Y-64725D01*
X87323Y-64734D01*
X87385Y-64796D01*
X87536Y-64858D01*
X87699Y-64858D01*
X87850Y-64796D01*
X87965Y-64681D01*
X88028Y-64530D01*
X88028Y-64367D01*
X87988Y-64271D01*
X88070Y-64216D01*
X88070Y-64435D01*
X88108Y-64527D01*
X88179Y-64597D01*
X88271Y-64635D01*
X88370Y-64635D01*
X88769Y-64635D01*
X88831Y-64573D01*
X88831Y-64042D01*
X88824Y-64042D01*
X88824Y-63942D01*
X88831Y-63942D01*
X88831Y-63934D01*
X88931Y-63934D01*
X88931Y-63942D01*
X88939Y-63942D01*
X88939Y-64042D01*
X88931Y-64042D01*
X88931Y-64573D01*
X88994Y-64635D01*
X89340Y-64635D01*
X89340Y-65485D01*
X89340Y-65485D01*
G37*
G54D38*
X89340Y-65485D02*
X86194Y-65485D01*
X86194Y-64573D01*
X86194Y-64042D01*
X85495Y-64042D01*
X85433Y-64104D01*
X85433Y-64435D01*
X85471Y-64527D01*
X85541Y-64597D01*
X85633Y-64635D01*
X85732Y-64635D01*
X86131Y-64635D01*
X86194Y-64573D01*
X86194Y-65485D01*
X85105Y-65485D01*
X85105Y-65145D01*
X85105Y-64907D01*
X85042Y-64845D01*
X84605Y-64845D01*
X84605Y-65282D01*
X84667Y-65345D01*
X84805Y-65345D01*
X84904Y-65345D01*
X84996Y-65307D01*
X85067Y-65236D01*
X85105Y-65145D01*
X85105Y-65485D01*
X84505Y-65485D01*
X84505Y-65282D01*
X84505Y-64845D01*
X84067Y-64845D01*
X84005Y-64907D01*
X84005Y-65145D01*
X84043Y-65236D01*
X84113Y-65307D01*
X84205Y-65345D01*
X84304Y-65345D01*
X84442Y-65345D01*
X84505Y-65282D01*
X84505Y-65485D01*
X82356Y-65485D01*
X82356Y-64557D01*
X82356Y-64458D01*
X82356Y-64266D01*
X82293Y-64203D01*
X81605Y-64203D01*
X81605Y-64695D01*
X81667Y-64757D01*
X82156Y-64757D01*
X82247Y-64719D01*
X82318Y-64649D01*
X82356Y-64557D01*
X82356Y-65485D01*
X81505Y-65485D01*
X81505Y-64695D01*
X81505Y-64203D01*
X81505Y-64103D01*
X81505Y-63611D01*
X81442Y-63549D01*
X80954Y-63549D01*
X80862Y-63587D01*
X80791Y-63657D01*
X80753Y-63749D01*
X80753Y-63848D01*
X80753Y-64041D01*
X80816Y-64103D01*
X81505Y-64103D01*
X81505Y-64203D01*
X80816Y-64203D01*
X80753Y-64266D01*
X80753Y-64458D01*
X80753Y-64557D01*
X80791Y-64649D01*
X80862Y-64719D01*
X80954Y-64757D01*
X81442Y-64757D01*
X81505Y-64695D01*
X81505Y-65485D01*
X77550Y-65485D01*
X77550Y-65148D01*
X77550Y-64911D01*
X77487Y-64849D01*
X77050Y-64849D01*
X77050Y-65286D01*
X77112Y-65349D01*
X77250Y-65349D01*
X77349Y-65349D01*
X77441Y-65311D01*
X77511Y-65240D01*
X77550Y-65148D01*
X77550Y-65485D01*
X76950Y-65485D01*
X76950Y-65286D01*
X76950Y-64849D01*
X76512Y-64849D01*
X76450Y-64911D01*
X76450Y-65148D01*
X76488Y-65240D01*
X76558Y-65311D01*
X76650Y-65349D01*
X76749Y-65349D01*
X76887Y-65349D01*
X76950Y-65286D01*
X76950Y-65485D01*
X74765Y-65485D01*
X74765Y-64533D01*
X74765Y-64434D01*
X74765Y-64242D01*
X74703Y-64179D01*
X74014Y-64179D01*
X74014Y-64671D01*
X74077Y-64734D01*
X74565Y-64734D01*
X74657Y-64696D01*
X74727Y-64625D01*
X74765Y-64533D01*
X74765Y-65485D01*
X73914Y-65485D01*
X73914Y-64671D01*
X73914Y-64179D01*
X73914Y-64079D01*
X73914Y-63588D01*
X73852Y-63525D01*
X73363Y-63525D01*
X73271Y-63563D01*
X73201Y-63633D01*
X73163Y-63725D01*
X73163Y-63825D01*
X73163Y-64017D01*
X73225Y-64079D01*
X73914Y-64079D01*
X73914Y-64179D01*
X73225Y-64179D01*
X73163Y-64242D01*
X73163Y-64434D01*
X73163Y-64533D01*
X73201Y-64625D01*
X73271Y-64696D01*
X73363Y-64734D01*
X73852Y-64734D01*
X73914Y-64671D01*
X73914Y-65485D01*
X69988Y-65485D01*
X69988Y-58563D01*
X69988Y-58264D01*
X69976Y-58213D01*
X69852Y-57994D01*
X69655Y-57838D01*
X69412Y-57770D01*
X69018Y-57770D01*
X69018Y-58363D01*
X69941Y-58363D01*
X69988Y-58264D01*
X69988Y-58563D01*
X69941Y-58463D01*
X69018Y-58463D01*
X69018Y-59057D01*
X69412Y-59057D01*
X69655Y-58989D01*
X69852Y-58833D01*
X69976Y-58613D01*
X69988Y-58563D01*
X69988Y-65485D01*
X68918Y-65485D01*
X68918Y-59057D01*
X68918Y-58463D01*
X68918Y-58363D01*
X68918Y-57770D01*
X68524Y-57770D01*
X68332Y-57824D01*
X68332Y-56741D01*
X68332Y-55912D01*
X68283Y-55666D01*
X68143Y-55457D01*
X67934Y-55317D01*
X67688Y-55268D01*
X67442Y-55317D01*
X67233Y-55457D01*
X67094Y-55666D01*
X67045Y-55912D01*
X67045Y-56741D01*
X67094Y-56987D01*
X67233Y-57196D01*
X67442Y-57335D01*
X67688Y-57384D01*
X67934Y-57335D01*
X68143Y-57196D01*
X68283Y-56987D01*
X68332Y-56741D01*
X68332Y-57824D01*
X68282Y-57838D01*
X68084Y-57994D01*
X67960Y-58213D01*
X67948Y-58264D01*
X67995Y-58363D01*
X68918Y-58363D01*
X68918Y-58463D01*
X67995Y-58463D01*
X67948Y-58563D01*
X67960Y-58613D01*
X68084Y-58833D01*
X68282Y-58989D01*
X68524Y-59057D01*
X68918Y-59057D01*
X68918Y-65485D01*
X65328Y-65485D01*
X65112Y-65431D01*
X64932Y-65299D01*
X64817Y-65108D01*
X64779Y-64854D01*
X64779Y-53101D01*
X68212Y-53101D01*
X68212Y-54681D01*
X68240Y-54822D01*
X68321Y-54942D01*
X68353Y-54974D01*
X68353Y-54990D01*
X68421Y-55156D01*
X68547Y-55282D01*
X68713Y-55351D01*
X68892Y-55351D01*
X69057Y-55283D01*
X69099Y-55241D01*
X69769Y-55241D01*
X69596Y-55356D01*
X69457Y-55565D01*
X69408Y-55812D01*
X69408Y-56841D01*
X69457Y-57087D01*
X69596Y-57296D01*
X69805Y-57436D01*
X70051Y-57485D01*
X70297Y-57436D01*
X70506Y-57296D01*
X70646Y-57087D01*
X70695Y-56841D01*
X70695Y-55812D01*
X70650Y-55588D01*
X71924Y-56862D01*
X72035Y-56936D01*
X72132Y-56955D01*
X72132Y-57577D01*
X72117Y-57583D01*
X72046Y-57653D01*
X72008Y-57745D01*
X72008Y-57845D01*
X72008Y-57978D01*
X72071Y-58040D01*
X72464Y-58040D01*
X72464Y-58032D01*
X72564Y-58032D01*
X72564Y-58040D01*
X72572Y-58040D01*
X72572Y-58140D01*
X72564Y-58140D01*
X72564Y-58573D01*
X72627Y-58635D01*
X72820Y-58635D01*
X72889Y-58606D01*
X72959Y-58635D01*
X73058Y-58635D01*
X73570Y-58635D01*
X73662Y-58597D01*
X73732Y-58527D01*
X73750Y-58483D01*
X73723Y-58619D01*
X73788Y-58944D01*
X73972Y-59220D01*
X74207Y-59376D01*
X74129Y-59376D01*
X74037Y-59414D01*
X73967Y-59485D01*
X73943Y-59542D01*
X73836Y-59542D01*
X73833Y-59539D01*
X73668Y-59471D01*
X73489Y-59471D01*
X73324Y-59539D01*
X73197Y-59666D01*
X73128Y-59831D01*
X73128Y-60010D01*
X73197Y-60175D01*
X73222Y-60201D01*
X73204Y-60209D01*
X73125Y-60176D01*
X73026Y-60176D01*
X72476Y-60176D01*
X72464Y-60181D01*
X72464Y-58573D01*
X72464Y-58140D01*
X72071Y-58140D01*
X72008Y-58203D01*
X72008Y-58335D01*
X72008Y-58435D01*
X72046Y-58527D01*
X72117Y-58597D01*
X72209Y-58635D01*
X72402Y-58635D01*
X72464Y-58573D01*
X72464Y-60181D01*
X72384Y-60214D01*
X72314Y-60284D01*
X72276Y-60376D01*
X72276Y-60476D01*
X72276Y-60826D01*
X72314Y-60917D01*
X72372Y-60976D01*
X72314Y-61034D01*
X72276Y-61126D01*
X72276Y-61226D01*
X72276Y-61576D01*
X72314Y-61667D01*
X72384Y-61738D01*
X72461Y-61770D01*
X72461Y-61852D01*
X72162Y-61852D01*
X72070Y-61890D01*
X72000Y-61960D01*
X71962Y-62052D01*
X71962Y-62152D01*
X71962Y-63293D01*
X72000Y-63385D01*
X72070Y-63456D01*
X72162Y-63494D01*
X72262Y-63494D01*
X72813Y-63494D01*
X72905Y-63456D01*
X72975Y-63385D01*
X73013Y-63293D01*
X73013Y-63194D01*
X73013Y-63013D01*
X73874Y-63013D01*
X74387Y-63525D01*
X74077Y-63525D01*
X74014Y-63588D01*
X74014Y-64079D01*
X74703Y-64079D01*
X74765Y-64017D01*
X74765Y-63904D01*
X74901Y-64039D01*
X75011Y-64113D01*
X75141Y-64139D01*
X76562Y-64139D01*
X76672Y-64249D01*
X76650Y-64249D01*
X76558Y-64287D01*
X76488Y-64357D01*
X76450Y-64449D01*
X76450Y-64686D01*
X76512Y-64749D01*
X76950Y-64749D01*
X76950Y-64741D01*
X77050Y-64741D01*
X77050Y-64749D01*
X77487Y-64749D01*
X77550Y-64686D01*
X77550Y-64449D01*
X77511Y-64357D01*
X77441Y-64287D01*
X77349Y-64249D01*
X77327Y-64249D01*
X77465Y-64111D01*
X77549Y-63909D01*
X77550Y-63690D01*
X77466Y-63488D01*
X77311Y-63333D01*
X77230Y-63299D01*
X77311Y-63265D01*
X77465Y-63111D01*
X77549Y-62909D01*
X77550Y-62729D01*
X78580Y-61699D01*
X78654Y-61589D01*
X78680Y-61459D01*
X78680Y-61459D01*
X78680Y-61128D01*
X78680Y-60962D01*
X78707Y-60951D01*
X78745Y-60951D01*
X78780Y-60986D01*
X78721Y-61044D01*
X78683Y-61136D01*
X78683Y-61235D01*
X78683Y-61585D01*
X78721Y-61677D01*
X78792Y-61748D01*
X78883Y-61786D01*
X78983Y-61786D01*
X79533Y-61786D01*
X79625Y-61748D01*
X79641Y-61731D01*
X79668Y-61758D01*
X79759Y-61796D01*
X79859Y-61796D01*
X80409Y-61796D01*
X80501Y-61758D01*
X80517Y-61741D01*
X80524Y-61748D01*
X80616Y-61786D01*
X80715Y-61786D01*
X81265Y-61786D01*
X81357Y-61748D01*
X81427Y-61677D01*
X81465Y-61585D01*
X81465Y-61486D01*
X81465Y-61136D01*
X81427Y-61044D01*
X81369Y-60986D01*
X81379Y-60976D01*
X81463Y-61011D01*
X81510Y-61011D01*
X81510Y-62166D01*
X81428Y-62247D01*
X81428Y-62247D01*
X81319Y-62356D01*
X80604Y-62356D01*
X80604Y-62076D01*
X80566Y-61984D01*
X80495Y-61914D01*
X80404Y-61875D01*
X80304Y-61875D01*
X79753Y-61875D01*
X79661Y-61914D01*
X79591Y-61984D01*
X79553Y-62076D01*
X79553Y-62175D01*
X79553Y-63317D01*
X79591Y-63409D01*
X79661Y-63479D01*
X79753Y-63517D01*
X79852Y-63517D01*
X80404Y-63517D01*
X80495Y-63479D01*
X80566Y-63409D01*
X80604Y-63317D01*
X80604Y-63217D01*
X80604Y-63036D01*
X81453Y-63036D01*
X81966Y-63549D01*
X81667Y-63549D01*
X81605Y-63611D01*
X81605Y-64103D01*
X82293Y-64103D01*
X82356Y-64041D01*
X82356Y-63939D01*
X82452Y-64035D01*
X82452Y-64035D01*
X82562Y-64109D01*
X82562Y-64109D01*
X82584Y-64113D01*
X82692Y-64135D01*
X84117Y-64135D01*
X84227Y-64245D01*
X84205Y-64245D01*
X84113Y-64283D01*
X84043Y-64353D01*
X84005Y-64445D01*
X84005Y-64682D01*
X84067Y-64745D01*
X84505Y-64745D01*
X84505Y-64737D01*
X84605Y-64737D01*
X84605Y-64745D01*
X85042Y-64745D01*
X85105Y-64682D01*
X85105Y-64445D01*
X85067Y-64353D01*
X84996Y-64283D01*
X84904Y-64245D01*
X84882Y-64245D01*
X85021Y-64107D01*
X85105Y-63905D01*
X85105Y-63686D01*
X85021Y-63484D01*
X84867Y-63329D01*
X84785Y-63295D01*
X84866Y-63261D01*
X85021Y-63107D01*
X85066Y-62998D01*
X85066Y-63122D01*
X85088Y-63236D01*
X85154Y-63334D01*
X85402Y-63582D01*
X85433Y-63602D01*
X85433Y-63879D01*
X85495Y-63942D01*
X86194Y-63942D01*
X86194Y-63934D01*
X86294Y-63934D01*
X86294Y-63942D01*
X86301Y-63942D01*
X86301Y-64042D01*
X86294Y-64042D01*
X86294Y-64573D01*
X86356Y-64635D01*
X86755Y-64635D01*
X86854Y-64635D01*
X86946Y-64597D01*
X87017Y-64527D01*
X87027Y-64502D01*
X87185Y-64660D01*
X87282Y-64725D01*
X87282Y-64725D01*
X87323Y-64734D01*
X87385Y-64796D01*
X87536Y-64858D01*
X87699Y-64858D01*
X87850Y-64796D01*
X87965Y-64681D01*
X88028Y-64530D01*
X88028Y-64367D01*
X87988Y-64271D01*
X88070Y-64216D01*
X88070Y-64435D01*
X88108Y-64527D01*
X88179Y-64597D01*
X88271Y-64635D01*
X88370Y-64635D01*
X88769Y-64635D01*
X88831Y-64573D01*
X88831Y-64042D01*
X88824Y-64042D01*
X88824Y-63942D01*
X88831Y-63942D01*
X88831Y-63934D01*
X88931Y-63934D01*
X88931Y-63942D01*
X88939Y-63942D01*
X88939Y-64042D01*
X88931Y-64042D01*
X88931Y-64573D01*
X88994Y-64635D01*
X89340Y-64635D01*
X89340Y-65485D01*
G54D10*
G36*
X89503Y-57047D02*
X89496Y-57031D01*
X89426Y-56961D01*
X89334Y-56923D01*
X89141Y-56923D01*
X89078Y-56986D01*
X89078Y-57418D01*
X89086Y-57418D01*
X89086Y-57518D01*
X89078Y-57518D01*
X89078Y-57526D01*
X88978Y-57526D01*
X88978Y-57518D01*
X88970Y-57518D01*
X88970Y-57418D01*
X88978Y-57418D01*
X88978Y-56986D01*
X88916Y-56923D01*
X88780Y-56923D01*
X88780Y-56894D01*
X88780Y-55895D01*
X88912Y-55895D01*
X88974Y-55832D01*
X88974Y-55400D01*
X88966Y-55400D01*
X88966Y-55300D01*
X88974Y-55300D01*
X88974Y-54867D01*
X88912Y-54805D01*
X88776Y-54805D01*
X88776Y-54772D01*
X88776Y-53845D01*
X88868Y-53845D01*
X89380Y-53845D01*
X89472Y-53806D01*
X89503Y-53776D01*
X89503Y-54939D01*
X89492Y-54913D01*
X89422Y-54843D01*
X89330Y-54805D01*
X89137Y-54805D01*
X89074Y-54867D01*
X89074Y-55300D01*
X89082Y-55300D01*
X89082Y-55400D01*
X89074Y-55400D01*
X89074Y-55832D01*
X89137Y-55895D01*
X89330Y-55895D01*
X89422Y-55857D01*
X89492Y-55787D01*
X89503Y-55761D01*
X89503Y-57047D01*
X89503Y-57047D01*
G37*
G54D38*
X89503Y-57047D02*
X89496Y-57031D01*
X89426Y-56961D01*
X89334Y-56923D01*
X89141Y-56923D01*
X89078Y-56986D01*
X89078Y-57418D01*
X89086Y-57418D01*
X89086Y-57518D01*
X89078Y-57518D01*
X89078Y-57526D01*
X88978Y-57526D01*
X88978Y-57518D01*
X88970Y-57518D01*
X88970Y-57418D01*
X88978Y-57418D01*
X88978Y-56986D01*
X88916Y-56923D01*
X88780Y-56923D01*
X88780Y-56894D01*
X88780Y-55895D01*
X88912Y-55895D01*
X88974Y-55832D01*
X88974Y-55400D01*
X88966Y-55400D01*
X88966Y-55300D01*
X88974Y-55300D01*
X88974Y-54867D01*
X88912Y-54805D01*
X88776Y-54805D01*
X88776Y-54772D01*
X88776Y-53845D01*
X88868Y-53845D01*
X89380Y-53845D01*
X89472Y-53806D01*
X89503Y-53776D01*
X89503Y-54939D01*
X89492Y-54913D01*
X89422Y-54843D01*
X89330Y-54805D01*
X89137Y-54805D01*
X89074Y-54867D01*
X89074Y-55300D01*
X89082Y-55300D01*
X89082Y-55400D01*
X89074Y-55400D01*
X89074Y-55832D01*
X89137Y-55895D01*
X89330Y-55895D01*
X89422Y-55857D01*
X89492Y-55787D01*
X89503Y-55761D01*
X89503Y-57047D01*
M02*
