G04 (created by PCBNEW (2013-08-09 BZR 4280)-product) date 8/17/2013 3:52:17 PM*
%MOIN*%
G04 Gerber Fmt 3.4, Leading zero omitted, Abs format*
%FSLAX34Y34*%
G01*
G70*
G90*
G04 APERTURE LIST*
%ADD10C,0.001000*%
%ADD11R,0.118300X0.118300*%
%ADD12C,0.118300*%
%ADD13R,0.060200X0.060200*%
%ADD14C,0.060200*%
%ADD15R,0.055200X0.035200*%
%ADD16R,0.035200X0.055200*%
%ADD17O,0.078900X0.157700*%
%ADD18O,0.157700X0.078900*%
%ADD19O,0.177400X0.078900*%
%ADD20R,0.039600X0.023800*%
%ADD21R,0.071100X0.051400*%
%ADD22R,0.071100X0.149800*%
%ADD23R,0.030200X0.020200*%
%ADD24R,0.055300X0.023800*%
%ADD25R,0.016200X0.065200*%
%ADD26R,0.078900X0.216700*%
G04 APERTURE END LIST*
G54D10*
G54D11*
X65800Y-63600D03*
G54D12*
X67800Y-63600D03*
X69800Y-63600D03*
G54D13*
X65389Y-46774D03*
G54D14*
X65389Y-47774D03*
X66389Y-46774D03*
X66389Y-47774D03*
X67389Y-46774D03*
X67389Y-47774D03*
X68389Y-46774D03*
X68389Y-47774D03*
G54D13*
X65385Y-45776D03*
G54D14*
X65385Y-44776D03*
X66385Y-45776D03*
X66385Y-44776D03*
X67385Y-45776D03*
X67385Y-44776D03*
X68385Y-45776D03*
X68385Y-44776D03*
X69385Y-45776D03*
X69385Y-44776D03*
X70385Y-45776D03*
X70385Y-44776D03*
X71385Y-45776D03*
X71385Y-44776D03*
X72385Y-45776D03*
X72385Y-44776D03*
X73385Y-45776D03*
X73385Y-44776D03*
X74385Y-45776D03*
X74385Y-44776D03*
X75385Y-45776D03*
X75385Y-44776D03*
X76385Y-45776D03*
X76385Y-44776D03*
X77385Y-45776D03*
X77385Y-44776D03*
G54D15*
X65680Y-54425D03*
X65680Y-55175D03*
X78700Y-52275D03*
X78700Y-51525D03*
X68954Y-51905D03*
X68954Y-51155D03*
X67718Y-53624D03*
X67718Y-52874D03*
X68948Y-49785D03*
X68948Y-50535D03*
X75800Y-51675D03*
X75800Y-50925D03*
G54D16*
X68445Y-58400D03*
X69195Y-58400D03*
G54D15*
X87144Y-62023D03*
X87144Y-62773D03*
X95190Y-62325D03*
X95190Y-63075D03*
X75600Y-53675D03*
X75600Y-52925D03*
X72600Y-59875D03*
X72600Y-59125D03*
X73600Y-59875D03*
X73600Y-59125D03*
X70470Y-51635D03*
X70470Y-52385D03*
G54D16*
X82145Y-52620D03*
X82895Y-52620D03*
G54D15*
X75720Y-49575D03*
X75720Y-48825D03*
X74900Y-49575D03*
X74900Y-48825D03*
G54D16*
X82185Y-51480D03*
X82935Y-51480D03*
G54D15*
X65900Y-59875D03*
X65900Y-59125D03*
X67000Y-59875D03*
X67000Y-59125D03*
X76500Y-52925D03*
X76500Y-53675D03*
X70800Y-49575D03*
X70800Y-48825D03*
G54D17*
X85147Y-61382D03*
G54D18*
X83060Y-62662D03*
G54D19*
X83060Y-60299D03*
G54D11*
X89100Y-63860D03*
G54D12*
X91100Y-63860D03*
X93100Y-63860D03*
G54D11*
X86780Y-45740D03*
G54D12*
X84780Y-45740D03*
X82780Y-45740D03*
G54D13*
X74380Y-46780D03*
G54D14*
X74380Y-47780D03*
X73380Y-46780D03*
X73380Y-47780D03*
X72380Y-46780D03*
X72380Y-47780D03*
G54D11*
X72200Y-63600D03*
G54D12*
X74200Y-63600D03*
X76200Y-63600D03*
G54D15*
X66815Y-52874D03*
X66815Y-53624D03*
X65920Y-52865D03*
X65920Y-53615D03*
X87160Y-63615D03*
X87160Y-64365D03*
X95200Y-63965D03*
X95200Y-64715D03*
X70700Y-55175D03*
X70700Y-54425D03*
X72500Y-55175D03*
X72500Y-54425D03*
X71600Y-55175D03*
X71600Y-54425D03*
X73400Y-55175D03*
X73400Y-54425D03*
X72440Y-49575D03*
X72440Y-48825D03*
X74080Y-49575D03*
X74080Y-48825D03*
X71620Y-49575D03*
X71620Y-48825D03*
X73280Y-49575D03*
X73280Y-48825D03*
G54D20*
X66384Y-54425D03*
X66384Y-55175D03*
X66384Y-54800D03*
X67216Y-55175D03*
X67216Y-54425D03*
G54D21*
X67821Y-51706D03*
X67821Y-50800D03*
X67821Y-49894D03*
G54D22*
X65459Y-50800D03*
G54D23*
X77900Y-52275D03*
X77900Y-51525D03*
X76900Y-52275D03*
X77900Y-51900D03*
X76900Y-51525D03*
G54D24*
X67770Y-57450D03*
X69870Y-57450D03*
X67770Y-56950D03*
X67770Y-56450D03*
X67770Y-55950D03*
X69870Y-56950D03*
X69870Y-56450D03*
X69870Y-55950D03*
G54D25*
X72932Y-53397D03*
X73188Y-53397D03*
X73444Y-53397D03*
X73700Y-53397D03*
X72164Y-50563D03*
X72164Y-53397D03*
X72420Y-53397D03*
X72676Y-53397D03*
X73956Y-50563D03*
X73700Y-50563D03*
X73444Y-50563D03*
X73188Y-50563D03*
X72932Y-50563D03*
X72676Y-50563D03*
X73956Y-53397D03*
X72420Y-50563D03*
X71908Y-50563D03*
X71653Y-50563D03*
X71397Y-50563D03*
X71397Y-53397D03*
X71653Y-53397D03*
X71908Y-53397D03*
X74212Y-53397D03*
X74467Y-53397D03*
X74723Y-53397D03*
X74723Y-50563D03*
X74467Y-50563D03*
X74212Y-50563D03*
G54D24*
X68250Y-60850D03*
X70350Y-60850D03*
X68250Y-60350D03*
X68250Y-59850D03*
X68250Y-59350D03*
X70350Y-60350D03*
X70350Y-59850D03*
X70350Y-59350D03*
X74550Y-60750D03*
X76650Y-60750D03*
X74550Y-60250D03*
X74550Y-59750D03*
X74550Y-59250D03*
X76650Y-60250D03*
X76650Y-59750D03*
X76650Y-59250D03*
G54D26*
X80320Y-53630D03*
X80320Y-49890D03*
G54D15*
X71670Y-62220D03*
X71670Y-61470D03*
X72401Y-62220D03*
X72401Y-61470D03*
X77865Y-62100D03*
X77865Y-61350D03*
X78720Y-62115D03*
X78720Y-61365D03*
X69230Y-62318D03*
X69230Y-61568D03*
X68467Y-62318D03*
X68467Y-61568D03*
X65457Y-62213D03*
X65457Y-61463D03*
X66325Y-62220D03*
X66325Y-61470D03*
M02*
