M48
INCH,TZ
T1C0.024
T2C0.039
T3C0.039
T4C0.040
T5C0.051
%
G90
G05
T1
X068803Y-054902
X069587Y-052244
X069665Y-051409
X069724Y-050610
X070610Y-048937
X071319Y-053110
X071850Y-054319
X072224Y-049488
X073138Y-053193
X073406Y-049744
X073579Y-059921
X073740Y-052461
X073898Y-050433
X073917Y-050827
X074075Y-053031
X074803Y-049508
X075059Y-057343
X075343Y-056004
X075748Y-058543
X076500Y-048524
X077165Y-051988
X077165Y-052500
X077189Y-058661
X077217Y-057941
X077547Y-051476
X077591Y-050941
X078445Y-051614
X078622Y-057587
X079169Y-059941
X082244Y-052835
X082864Y-060561
X082890Y-058669
X084480Y-057988
X084720Y-060012
X086240Y-062047
X087618Y-062933
X087618Y-064449
X087854Y-062323
X088622Y-058228
X088819Y-059567
T3
X085118Y-050181
X085118Y-051181
X085118Y-052181
X085118Y-053181
X085118Y-054181
X085118Y-055181
X085118Y-056181
X085118Y-057181
T4
X065385Y-044776
X065385Y-045776
X065386Y-046776
X065386Y-047776
X066385Y-044776
X066385Y-045776
X066386Y-046776
X066386Y-047776
X067385Y-044776
X067385Y-045776
X067389Y-046782
X067389Y-047782
X068385Y-044776
X068385Y-045776
X068389Y-046782
X068389Y-047782
X069385Y-044776
X069385Y-045776
X069389Y-046782
X069389Y-047782
X070385Y-044776
X070385Y-045776
X070389Y-046782
X070389Y-047782
X071385Y-044776
X071385Y-045776
X072380Y-046780
X072380Y-047780
X072385Y-044776
X072385Y-045776
X073380Y-046780
X073380Y-047780
X073385Y-044776
X073385Y-045776
X074380Y-046780
X074380Y-047780
X074385Y-044776
X074385Y-045776
X075385Y-044776
X075385Y-045776
X076385Y-044776
X076385Y-045776
X077000Y-062799
X077000Y-063799
X077000Y-064799
X077385Y-044776
X077385Y-045776
X084555Y-062795
X084555Y-063795
X084555Y-064795
T2
X072488Y-062378G85X072488Y-062969
G05
X075441Y-062378G85X075441Y-062969
G05
X080079Y-062402G85X080079Y-062992
G05
X083031Y-062402G85X083031Y-062992
G05
T3
X067689Y-055933G85X067689Y-056720
G05
X069362Y-058414G85X068575Y-058414
G05
X070052Y-055835G85X070052Y-056819
G05
T5
X073728Y-064130G85X074201Y-064130
G05
X081319Y-064154G85X081791Y-064154
G05
T0
M30
