G04 (created by PCBNEW (2013-08-20 BZR 4294)-product) date 9/16/2013 9:24:49 PM*
%MOIN*%
G04 Gerber Fmt 3.4, Leading zero omitted, Abs format*
%FSLAX34Y34*%
G01*
G70*
G90*
G04 APERTURE LIST*
%ADD10C,0.001000*%
%ADD11R,0.055118X0.114173*%
%ADD12R,0.110236X0.070866*%
%ADD13R,0.060000X0.060000*%
%ADD14C,0.060000*%
%ADD15R,0.086600X0.060000*%
%ADD16O,0.086600X0.060000*%
%ADD17R,0.051200X0.059000*%
%ADD18R,0.082700X0.066900*%
%ADD19R,0.106000X0.063000*%
%ADD20O,0.157500X0.078700*%
%ADD21O,0.078700X0.157500*%
%ADD22O,0.078700X0.177200*%
%ADD23C,0.040000*%
%ADD24C,0.032000*%
%ADD25C,0.018000*%
%ADD26C,0.024000*%
%ADD27C,0.010000*%
G04 APERTURE END LIST*
G54D10*
G54D11*
X83031Y-62696D03*
G54D12*
X81555Y-64153D03*
G54D11*
X80078Y-62696D03*
X75440Y-62673D03*
G54D12*
X73964Y-64129D03*
G54D11*
X72488Y-62673D03*
G54D13*
X65385Y-45776D03*
G54D14*
X65385Y-44776D03*
X66385Y-45776D03*
X66385Y-44776D03*
X67385Y-45776D03*
X67385Y-44776D03*
X68385Y-45776D03*
X68385Y-44776D03*
X69385Y-45776D03*
X69385Y-44776D03*
X70385Y-45776D03*
X70385Y-44776D03*
X71385Y-45776D03*
X71385Y-44776D03*
X72385Y-45776D03*
X72385Y-44776D03*
X73385Y-45776D03*
X73385Y-44776D03*
X74385Y-45776D03*
X74385Y-44776D03*
X75385Y-45776D03*
X75385Y-44776D03*
X76385Y-45776D03*
X76385Y-44776D03*
X77385Y-45776D03*
X77385Y-44776D03*
G54D15*
X85118Y-57181D03*
G54D16*
X85118Y-56181D03*
X85118Y-55181D03*
X85118Y-54181D03*
X85118Y-53181D03*
X85118Y-52181D03*
X85118Y-51181D03*
X85118Y-50181D03*
G54D17*
X85760Y-60584D03*
X86510Y-60584D03*
X88412Y-62000D03*
X89162Y-62000D03*
G54D13*
X74380Y-46780D03*
G54D14*
X74380Y-47780D03*
X73380Y-46780D03*
X73380Y-47780D03*
X72380Y-46780D03*
X72380Y-47780D03*
G54D17*
X86502Y-58352D03*
X85752Y-58352D03*
X89154Y-62763D03*
X88404Y-62763D03*
X85764Y-59805D03*
X86514Y-59805D03*
X88412Y-64303D03*
X89162Y-64303D03*
G54D18*
X65917Y-58870D03*
X67279Y-58870D03*
G54D19*
X65850Y-56450D03*
X65850Y-57550D03*
G54D13*
X67388Y-46781D03*
G54D14*
X67388Y-47781D03*
X68388Y-46781D03*
X68388Y-47781D03*
X69388Y-46781D03*
X69388Y-47781D03*
X70388Y-46781D03*
X70388Y-47781D03*
G54D13*
X66385Y-46775D03*
G54D14*
X66385Y-47775D03*
X65385Y-46775D03*
X65385Y-47775D03*
G54D13*
X77000Y-64799D03*
G54D14*
X77000Y-63799D03*
X77000Y-62799D03*
G54D13*
X84555Y-64795D03*
G54D14*
X84555Y-63795D03*
X84555Y-62795D03*
G54D17*
X86502Y-59104D03*
X85752Y-59104D03*
X89162Y-63531D03*
X88412Y-63531D03*
G54D20*
X68968Y-58413D03*
G54D21*
X67688Y-56326D03*
G54D22*
X70051Y-56326D03*
G54D23*
X82864Y-60561D03*
X75748Y-58543D03*
X84720Y-60011D03*
X73578Y-59921D03*
X79169Y-59940D03*
X78622Y-57586D03*
G54D24*
X75059Y-57342D03*
G54D23*
X87618Y-62933D03*
X88622Y-58228D03*
X71850Y-54318D03*
X88818Y-59566D03*
X68803Y-54901D03*
X74803Y-49507D03*
X78444Y-51614D03*
X76500Y-48523D03*
G54D24*
X77216Y-57940D03*
X75342Y-56003D03*
X73740Y-52460D03*
X84480Y-57988D03*
X87618Y-64448D03*
X74074Y-53031D03*
X77188Y-58661D03*
X71318Y-53110D03*
X86240Y-62047D03*
X87854Y-62322D03*
X77165Y-51988D03*
X73405Y-49744D03*
X72224Y-49488D03*
X77165Y-52500D03*
X73897Y-50433D03*
X77590Y-50940D03*
X73917Y-50826D03*
X77547Y-51476D03*
X70610Y-48937D03*
X69586Y-52244D03*
X82244Y-52834D03*
X69724Y-50610D03*
X69665Y-51409D03*
X73137Y-53192D03*
X82889Y-58669D03*
G54D25*
X82903Y-60541D02*
X82883Y-60541D01*
X82883Y-60541D02*
X82864Y-60561D01*
X75767Y-58523D02*
X75787Y-58523D01*
X75748Y-58543D02*
X75767Y-58523D01*
X84649Y-59940D02*
X79169Y-59940D01*
X84720Y-60011D02*
X84649Y-59940D01*
X79169Y-59940D02*
X73598Y-59940D01*
X73598Y-59940D02*
X73578Y-59921D01*
X79169Y-58133D02*
X79169Y-59940D01*
X78622Y-57586D02*
X79169Y-58133D01*
X75078Y-57322D02*
X75059Y-57342D01*
X87598Y-62913D02*
X87618Y-62933D01*
G54D26*
X88622Y-58228D02*
X88602Y-58248D01*
X68968Y-58413D02*
X68968Y-60169D01*
X71925Y-64129D02*
X73964Y-64129D01*
X71299Y-63503D02*
X71925Y-64129D01*
X71299Y-62500D02*
X71299Y-63503D01*
X68968Y-60169D02*
X71299Y-62500D01*
G54D25*
X71850Y-54318D02*
X71850Y-56637D01*
X70074Y-58413D02*
X68968Y-58413D01*
X71830Y-54299D02*
X71818Y-54299D01*
X71850Y-54318D02*
X71830Y-54299D01*
X85752Y-59104D02*
X85752Y-58352D01*
X88412Y-63531D02*
X88412Y-62771D01*
X88412Y-62771D02*
X88404Y-62763D01*
G54D26*
X67165Y-52775D02*
X68129Y-52775D01*
X70680Y-58413D02*
X68968Y-58413D01*
X70964Y-58129D02*
X70680Y-58413D01*
X70964Y-54606D02*
X70964Y-58129D01*
X70610Y-54251D02*
X70964Y-54606D01*
X69606Y-54251D02*
X70610Y-54251D01*
X68129Y-52775D02*
X69606Y-54251D01*
G54D27*
X88818Y-59566D02*
X88562Y-59566D01*
X65917Y-65011D02*
X65917Y-58870D01*
X66358Y-65452D02*
X65917Y-65011D01*
X86476Y-65452D02*
X66358Y-65452D01*
X86948Y-64980D02*
X86476Y-65452D01*
X86948Y-61181D02*
X86948Y-64980D01*
X88562Y-59566D02*
X86948Y-61181D01*
X88818Y-59566D02*
X88818Y-59586D01*
G54D26*
X65850Y-57550D02*
X68477Y-57550D01*
X68477Y-57550D02*
X68803Y-57224D01*
X65850Y-57550D02*
X65850Y-58803D01*
X65850Y-58803D02*
X65917Y-58870D01*
X68803Y-57224D02*
X68803Y-54901D01*
G54D25*
X74803Y-49507D02*
X75393Y-50098D01*
X75393Y-50098D02*
X77696Y-50098D01*
X77696Y-50098D02*
X78444Y-50846D01*
X78444Y-50846D02*
X78444Y-51614D01*
G54D26*
X74385Y-44776D02*
X74385Y-44582D01*
X71968Y-44192D02*
X71385Y-44776D01*
X73996Y-44192D02*
X71968Y-44192D01*
X74385Y-44582D02*
X73996Y-44192D01*
X67385Y-44776D02*
X67385Y-44622D01*
X70723Y-44114D02*
X71385Y-44776D01*
X67893Y-44114D02*
X70723Y-44114D01*
X67385Y-44622D02*
X67893Y-44114D01*
X70388Y-46781D02*
X70388Y-46779D01*
X70388Y-46779D02*
X69385Y-45776D01*
X70388Y-46781D02*
X70388Y-47781D01*
G54D25*
X74380Y-46780D02*
X74380Y-47780D01*
X74380Y-46780D02*
X74432Y-46780D01*
X76791Y-46370D02*
X77385Y-45776D01*
G54D26*
X76500Y-48523D02*
X72074Y-48523D01*
G54D25*
X72074Y-48523D02*
X72000Y-48448D01*
G54D26*
X72380Y-46780D02*
X72380Y-47780D01*
X72380Y-48068D02*
X72380Y-47780D01*
X72000Y-48448D02*
X72380Y-48068D01*
X66712Y-48523D02*
X72074Y-48523D01*
X66385Y-48196D02*
X66712Y-48523D01*
G54D27*
X71942Y-52604D02*
X71096Y-52604D01*
X66220Y-49881D02*
X66220Y-48818D01*
X69271Y-52933D02*
X66220Y-49881D01*
X70767Y-52933D02*
X69271Y-52933D01*
X71096Y-52604D02*
X70767Y-52933D01*
X68385Y-45776D02*
X68534Y-45776D01*
X85732Y-52181D02*
X85118Y-52181D01*
X86043Y-51870D02*
X85732Y-52181D01*
X86043Y-49881D02*
X86043Y-51870D01*
X85807Y-49645D02*
X86043Y-49881D01*
X79901Y-49645D02*
X85807Y-49645D01*
X79350Y-49094D02*
X79901Y-49645D01*
X79350Y-45688D02*
X79350Y-49094D01*
X78956Y-45295D02*
X79350Y-45688D01*
X69015Y-45295D02*
X78956Y-45295D01*
X68534Y-45776D02*
X69015Y-45295D01*
X75342Y-56066D02*
X75342Y-56003D01*
X77216Y-57940D02*
X75342Y-56066D01*
X67909Y-46251D02*
X68385Y-45776D01*
X65976Y-46251D02*
X67909Y-46251D01*
X65870Y-46358D02*
X65976Y-46251D01*
X65870Y-48468D02*
X65870Y-46358D01*
X66220Y-48818D02*
X65870Y-48468D01*
X75342Y-56003D02*
X71942Y-52604D01*
X77768Y-55776D02*
X77391Y-55776D01*
X74074Y-52460D02*
X73740Y-52460D01*
X77391Y-55776D02*
X74074Y-52460D01*
X77768Y-55776D02*
X77795Y-55799D01*
X77795Y-55799D02*
X82291Y-55799D01*
X82291Y-55799D02*
X84480Y-57988D01*
X87618Y-64448D02*
X87763Y-64303D01*
X88412Y-64303D02*
X87763Y-64303D01*
X77204Y-56279D02*
X77086Y-56279D01*
X74074Y-53267D02*
X74074Y-53031D01*
X77086Y-56279D02*
X74074Y-53267D01*
X85764Y-59805D02*
X85407Y-59805D01*
X81881Y-56279D02*
X77204Y-56279D01*
X85407Y-59805D02*
X81881Y-56279D01*
G54D25*
X76901Y-58661D02*
X77188Y-58661D01*
X71318Y-53110D02*
X76901Y-58661D01*
X86502Y-58352D02*
X86502Y-60576D01*
X86502Y-60576D02*
X86510Y-60584D01*
G54D27*
X85760Y-61567D02*
X85760Y-60584D01*
X86240Y-62047D02*
X85760Y-61567D01*
G54D25*
X87854Y-62322D02*
X87984Y-62000D01*
X87984Y-62000D02*
X88412Y-62000D01*
X89162Y-62000D02*
X89162Y-62755D01*
X89162Y-62755D02*
X89154Y-62763D01*
X89162Y-62771D02*
X89162Y-63531D01*
X89162Y-63531D02*
X89162Y-64303D01*
G54D27*
X73651Y-51072D02*
X76250Y-51072D01*
X76250Y-51072D02*
X76377Y-51200D01*
X76377Y-51200D02*
X77165Y-51988D01*
X73543Y-50964D02*
X73651Y-51072D01*
X73543Y-49881D02*
X73543Y-50964D01*
X73405Y-49744D02*
X73543Y-49881D01*
G54D26*
X66385Y-47775D02*
X66385Y-48196D01*
X67688Y-56326D02*
X65973Y-56326D01*
X65973Y-56326D02*
X65850Y-56450D01*
G54D27*
X72224Y-50019D02*
X72224Y-49488D01*
X73562Y-51338D02*
X72224Y-50019D01*
X75059Y-51338D02*
X73562Y-51338D01*
X76181Y-52460D02*
X75059Y-51338D01*
X77125Y-52460D02*
X76181Y-52460D01*
X77165Y-52500D02*
X77125Y-52460D01*
X73897Y-50433D02*
X74251Y-50433D01*
X74377Y-50559D02*
X77208Y-50559D01*
X74251Y-50433D02*
X74377Y-50559D01*
X77590Y-50940D02*
X77208Y-50559D01*
X76988Y-50905D02*
X76988Y-50917D01*
X74311Y-50826D02*
X76909Y-50826D01*
X76909Y-50826D02*
X76988Y-50905D01*
X73917Y-50826D02*
X74311Y-50826D01*
X76988Y-50917D02*
X77547Y-51476D01*
X77547Y-51476D02*
X77519Y-51476D01*
X77547Y-51476D02*
X77515Y-51444D01*
X85472Y-56181D02*
X85118Y-56181D01*
X85846Y-55807D02*
X85472Y-56181D01*
X85846Y-52913D02*
X85846Y-55807D01*
X85629Y-52696D02*
X85846Y-52913D01*
X84685Y-52696D02*
X85629Y-52696D01*
X84350Y-52362D02*
X84685Y-52696D01*
X84350Y-51751D02*
X84350Y-52362D01*
X83287Y-50688D02*
X84350Y-51751D01*
X80374Y-50688D02*
X83287Y-50688D01*
X78838Y-49153D02*
X80374Y-50688D01*
X70826Y-49153D02*
X78838Y-49153D01*
X70610Y-48937D02*
X70826Y-49153D01*
X74576Y-52135D02*
X72785Y-52135D01*
X72755Y-52165D02*
X72755Y-52185D01*
X72785Y-52135D02*
X72755Y-52165D01*
X72755Y-52185D02*
X72696Y-52244D01*
X78370Y-55181D02*
X85118Y-55181D01*
X77303Y-54114D02*
X78370Y-55181D01*
X76555Y-54114D02*
X77303Y-54114D01*
X74576Y-52135D02*
X76555Y-54114D01*
X69586Y-52244D02*
X72696Y-52244D01*
X74940Y-51614D02*
X71062Y-51614D01*
X71062Y-51614D02*
X70944Y-51496D01*
X69724Y-50610D02*
X70019Y-50610D01*
X76161Y-52834D02*
X82244Y-52834D01*
X74940Y-51614D02*
X76161Y-52834D01*
X70019Y-50610D02*
X70944Y-51496D01*
X74872Y-51879D02*
X70679Y-51879D01*
X70679Y-51879D02*
X70590Y-51791D01*
X70590Y-51791D02*
X70452Y-51653D01*
X69665Y-51409D02*
X70208Y-51409D01*
X70208Y-51409D02*
X70452Y-51653D01*
X76173Y-53181D02*
X85118Y-53181D01*
X74872Y-51879D02*
X76173Y-53181D01*
G54D25*
X76704Y-56759D02*
X73137Y-53192D01*
X80980Y-56759D02*
X76704Y-56759D01*
X82889Y-58669D02*
X80980Y-56759D01*
G54D10*
G36*
X86648Y-64856D02*
X86352Y-65152D01*
X85105Y-65152D01*
X85105Y-63686D01*
X85021Y-63484D01*
X84867Y-63329D01*
X84785Y-63295D01*
X84866Y-63261D01*
X85021Y-63107D01*
X85105Y-62905D01*
X85105Y-62686D01*
X85021Y-62484D01*
X84867Y-62329D01*
X84665Y-62245D01*
X84446Y-62245D01*
X84243Y-62328D01*
X84089Y-62483D01*
X84005Y-62685D01*
X84005Y-62904D01*
X84088Y-63106D01*
X84243Y-63261D01*
X84325Y-63295D01*
X84243Y-63328D01*
X84089Y-63483D01*
X84005Y-63685D01*
X84005Y-63904D01*
X84088Y-64106D01*
X84227Y-64245D01*
X84205Y-64245D01*
X84113Y-64283D01*
X84043Y-64353D01*
X84005Y-64445D01*
X84005Y-64682D01*
X84067Y-64745D01*
X84505Y-64745D01*
X84505Y-64737D01*
X84605Y-64737D01*
X84605Y-64745D01*
X85042Y-64745D01*
X85105Y-64682D01*
X85105Y-64445D01*
X85067Y-64353D01*
X84996Y-64283D01*
X84904Y-64245D01*
X84882Y-64245D01*
X85021Y-64107D01*
X85105Y-63905D01*
X85105Y-63686D01*
X85105Y-65152D01*
X85101Y-65152D01*
X85105Y-65145D01*
X85105Y-64907D01*
X85042Y-64845D01*
X84605Y-64845D01*
X84605Y-64853D01*
X84505Y-64853D01*
X84505Y-64845D01*
X84067Y-64845D01*
X84005Y-64907D01*
X84005Y-65145D01*
X84008Y-65152D01*
X83557Y-65152D01*
X83557Y-63317D01*
X83557Y-63217D01*
X83557Y-62076D01*
X83519Y-61984D01*
X83448Y-61914D01*
X83356Y-61875D01*
X83257Y-61875D01*
X82706Y-61875D01*
X82614Y-61914D01*
X82543Y-61984D01*
X82505Y-62076D01*
X82505Y-62175D01*
X82505Y-63317D01*
X82543Y-63409D01*
X82614Y-63479D01*
X82706Y-63517D01*
X82805Y-63517D01*
X83356Y-63517D01*
X83448Y-63479D01*
X83519Y-63409D01*
X83557Y-63317D01*
X83557Y-65152D01*
X82356Y-65152D01*
X82356Y-64557D01*
X82356Y-64458D01*
X82356Y-64266D01*
X82356Y-64041D01*
X82356Y-63848D01*
X82356Y-63749D01*
X82318Y-63657D01*
X82247Y-63587D01*
X82156Y-63549D01*
X81667Y-63549D01*
X81605Y-63611D01*
X81605Y-64103D01*
X82293Y-64103D01*
X82356Y-64041D01*
X82356Y-64266D01*
X82293Y-64203D01*
X81605Y-64203D01*
X81605Y-64695D01*
X81667Y-64757D01*
X82156Y-64757D01*
X82247Y-64719D01*
X82318Y-64649D01*
X82356Y-64557D01*
X82356Y-65152D01*
X81505Y-65152D01*
X81505Y-64695D01*
X81505Y-64203D01*
X81505Y-64103D01*
X81505Y-63611D01*
X81442Y-63549D01*
X80954Y-63549D01*
X80862Y-63587D01*
X80791Y-63657D01*
X80753Y-63749D01*
X80753Y-63848D01*
X80753Y-64041D01*
X80816Y-64103D01*
X81505Y-64103D01*
X81505Y-64203D01*
X80816Y-64203D01*
X80753Y-64266D01*
X80753Y-64458D01*
X80753Y-64557D01*
X80791Y-64649D01*
X80862Y-64719D01*
X80954Y-64757D01*
X81442Y-64757D01*
X81505Y-64695D01*
X81505Y-65152D01*
X80604Y-65152D01*
X80604Y-63317D01*
X80604Y-63217D01*
X80604Y-62076D01*
X80566Y-61984D01*
X80495Y-61914D01*
X80404Y-61875D01*
X80304Y-61875D01*
X79753Y-61875D01*
X79661Y-61914D01*
X79591Y-61984D01*
X79553Y-62076D01*
X79553Y-62175D01*
X79553Y-63317D01*
X79591Y-63409D01*
X79661Y-63479D01*
X79753Y-63517D01*
X79852Y-63517D01*
X80404Y-63517D01*
X80495Y-63479D01*
X80566Y-63409D01*
X80604Y-63317D01*
X80604Y-65152D01*
X77550Y-65152D01*
X77550Y-63690D01*
X77466Y-63488D01*
X77311Y-63333D01*
X77230Y-63299D01*
X77311Y-63265D01*
X77465Y-63111D01*
X77549Y-62909D01*
X77550Y-62690D01*
X77466Y-62488D01*
X77311Y-62333D01*
X77109Y-62249D01*
X76891Y-62249D01*
X76688Y-62332D01*
X76534Y-62487D01*
X76450Y-62689D01*
X76449Y-62908D01*
X76533Y-63110D01*
X76688Y-63265D01*
X76769Y-63299D01*
X76688Y-63332D01*
X76534Y-63487D01*
X76450Y-63689D01*
X76449Y-63908D01*
X76533Y-64110D01*
X76672Y-64249D01*
X76650Y-64249D01*
X76558Y-64287D01*
X76488Y-64357D01*
X76450Y-64449D01*
X76450Y-64686D01*
X76512Y-64749D01*
X76950Y-64749D01*
X76950Y-64741D01*
X77050Y-64741D01*
X77050Y-64749D01*
X77487Y-64749D01*
X77550Y-64686D01*
X77550Y-64449D01*
X77511Y-64357D01*
X77441Y-64287D01*
X77349Y-64249D01*
X77327Y-64249D01*
X77465Y-64111D01*
X77549Y-63909D01*
X77550Y-63690D01*
X77550Y-65152D01*
X77548Y-65152D01*
X77550Y-65148D01*
X77550Y-64911D01*
X77487Y-64849D01*
X77050Y-64849D01*
X77050Y-64857D01*
X76950Y-64857D01*
X76950Y-64849D01*
X76512Y-64849D01*
X76450Y-64911D01*
X76450Y-65148D01*
X76451Y-65152D01*
X75966Y-65152D01*
X75966Y-63293D01*
X75966Y-63194D01*
X75966Y-62052D01*
X75928Y-61960D01*
X75858Y-61890D01*
X75766Y-61852D01*
X75666Y-61852D01*
X75115Y-61852D01*
X75023Y-61890D01*
X74953Y-61960D01*
X74915Y-62052D01*
X74915Y-62152D01*
X74915Y-63293D01*
X74953Y-63385D01*
X75023Y-63456D01*
X75115Y-63494D01*
X75215Y-63494D01*
X75766Y-63494D01*
X75858Y-63456D01*
X75928Y-63385D01*
X75966Y-63293D01*
X75966Y-65152D01*
X74765Y-65152D01*
X74765Y-64533D01*
X74765Y-64434D01*
X74765Y-64242D01*
X74765Y-64017D01*
X74765Y-63825D01*
X74765Y-63725D01*
X74727Y-63633D01*
X74657Y-63563D01*
X74565Y-63525D01*
X74077Y-63525D01*
X74014Y-63588D01*
X74014Y-64079D01*
X74703Y-64079D01*
X74765Y-64017D01*
X74765Y-64242D01*
X74703Y-64179D01*
X74014Y-64179D01*
X74014Y-64671D01*
X74077Y-64734D01*
X74565Y-64734D01*
X74657Y-64696D01*
X74727Y-64625D01*
X74765Y-64533D01*
X74765Y-65152D01*
X73914Y-65152D01*
X73914Y-64671D01*
X73914Y-64179D01*
X73914Y-64079D01*
X73914Y-63588D01*
X73852Y-63525D01*
X73363Y-63525D01*
X73271Y-63563D01*
X73201Y-63633D01*
X73163Y-63725D01*
X73163Y-63825D01*
X73163Y-64017D01*
X73225Y-64079D01*
X73914Y-64079D01*
X73914Y-64179D01*
X73225Y-64179D01*
X73163Y-64242D01*
X73163Y-64434D01*
X73163Y-64533D01*
X73201Y-64625D01*
X73271Y-64696D01*
X73363Y-64734D01*
X73852Y-64734D01*
X73914Y-64671D01*
X73914Y-65152D01*
X73013Y-65152D01*
X73013Y-63293D01*
X73013Y-63194D01*
X73013Y-62052D01*
X72975Y-61960D01*
X72905Y-61890D01*
X72813Y-61852D01*
X72714Y-61852D01*
X72162Y-61852D01*
X72070Y-61890D01*
X72000Y-61960D01*
X71962Y-62052D01*
X71962Y-62152D01*
X71962Y-63293D01*
X72000Y-63385D01*
X72070Y-63456D01*
X72162Y-63494D01*
X72262Y-63494D01*
X72813Y-63494D01*
X72905Y-63456D01*
X72975Y-63385D01*
X73013Y-63293D01*
X73013Y-65152D01*
X70695Y-65152D01*
X70695Y-56841D01*
X70695Y-55812D01*
X70646Y-55565D01*
X70506Y-55356D01*
X70297Y-55217D01*
X70051Y-55168D01*
X69805Y-55217D01*
X69596Y-55356D01*
X69457Y-55565D01*
X69408Y-55812D01*
X69408Y-56841D01*
X69457Y-57087D01*
X69596Y-57296D01*
X69805Y-57436D01*
X70051Y-57485D01*
X70297Y-57436D01*
X70506Y-57296D01*
X70646Y-57087D01*
X70695Y-56841D01*
X70695Y-65152D01*
X69988Y-65152D01*
X69988Y-58563D01*
X69988Y-58264D01*
X69976Y-58213D01*
X69852Y-57994D01*
X69655Y-57838D01*
X69412Y-57770D01*
X69018Y-57770D01*
X69018Y-58363D01*
X69941Y-58363D01*
X69988Y-58264D01*
X69988Y-58563D01*
X69941Y-58463D01*
X69018Y-58463D01*
X69018Y-59057D01*
X69412Y-59057D01*
X69655Y-58989D01*
X69852Y-58833D01*
X69976Y-58613D01*
X69988Y-58563D01*
X69988Y-65152D01*
X68918Y-65152D01*
X68918Y-59057D01*
X68918Y-58463D01*
X67995Y-58463D01*
X67948Y-58563D01*
X67960Y-58613D01*
X68084Y-58833D01*
X68282Y-58989D01*
X68524Y-59057D01*
X68918Y-59057D01*
X68918Y-65152D01*
X67942Y-65152D01*
X67942Y-59254D01*
X67942Y-59154D01*
X67942Y-58982D01*
X67942Y-58757D01*
X67942Y-58585D01*
X67942Y-58485D01*
X67904Y-58393D01*
X67834Y-58323D01*
X67742Y-58285D01*
X67391Y-58285D01*
X67329Y-58348D01*
X67329Y-58820D01*
X67880Y-58820D01*
X67942Y-58757D01*
X67942Y-58982D01*
X67880Y-58920D01*
X67329Y-58920D01*
X67329Y-59392D01*
X67391Y-59454D01*
X67742Y-59454D01*
X67834Y-59416D01*
X67904Y-59346D01*
X67942Y-59254D01*
X67942Y-65152D01*
X67229Y-65152D01*
X67229Y-59392D01*
X67229Y-58920D01*
X67229Y-58820D01*
X67229Y-58348D01*
X67166Y-58285D01*
X66816Y-58285D01*
X66724Y-58323D01*
X66653Y-58393D01*
X66615Y-58485D01*
X66615Y-58585D01*
X66615Y-58757D01*
X66678Y-58820D01*
X67229Y-58820D01*
X67229Y-58920D01*
X66678Y-58920D01*
X66615Y-58982D01*
X66615Y-59154D01*
X66615Y-59254D01*
X66653Y-59346D01*
X66724Y-59416D01*
X66816Y-59454D01*
X67166Y-59454D01*
X67229Y-59392D01*
X67229Y-65152D01*
X66482Y-65152D01*
X66217Y-64887D01*
X66217Y-59454D01*
X66380Y-59454D01*
X66472Y-59416D01*
X66542Y-59346D01*
X66580Y-59254D01*
X66580Y-59154D01*
X66580Y-58485D01*
X66542Y-58393D01*
X66472Y-58323D01*
X66380Y-58285D01*
X66281Y-58285D01*
X66220Y-58285D01*
X66220Y-58115D01*
X66430Y-58115D01*
X66522Y-58076D01*
X66592Y-58006D01*
X66628Y-57920D01*
X68178Y-57920D01*
X68084Y-57994D01*
X67960Y-58213D01*
X67948Y-58264D01*
X67995Y-58363D01*
X68918Y-58363D01*
X68918Y-57770D01*
X68780Y-57770D01*
X69064Y-57486D01*
X69144Y-57366D01*
X69173Y-57224D01*
X69173Y-55168D01*
X69184Y-55156D01*
X69253Y-54991D01*
X69253Y-54812D01*
X69184Y-54647D01*
X69058Y-54520D01*
X68893Y-54451D01*
X68714Y-54451D01*
X68548Y-54519D01*
X68421Y-54646D01*
X68353Y-54811D01*
X68353Y-54990D01*
X68421Y-55156D01*
X68433Y-55167D01*
X68433Y-57071D01*
X68324Y-57180D01*
X68154Y-57180D01*
X68283Y-56987D01*
X68332Y-56741D01*
X68332Y-55912D01*
X68283Y-55666D01*
X68143Y-55457D01*
X67934Y-55317D01*
X67688Y-55268D01*
X67442Y-55317D01*
X67233Y-55457D01*
X67094Y-55666D01*
X67045Y-55912D01*
X67045Y-55956D01*
X66555Y-55956D01*
X66522Y-55923D01*
X66430Y-55885D01*
X66330Y-55885D01*
X65270Y-55885D01*
X65178Y-55923D01*
X65108Y-55993D01*
X65070Y-56085D01*
X65070Y-56184D01*
X65070Y-56814D01*
X65108Y-56906D01*
X65178Y-56976D01*
X65234Y-57000D01*
X65178Y-57023D01*
X65108Y-57093D01*
X65070Y-57185D01*
X65070Y-57284D01*
X65070Y-57914D01*
X65108Y-58006D01*
X65178Y-58076D01*
X65270Y-58115D01*
X65370Y-58115D01*
X65480Y-58115D01*
X65480Y-58285D01*
X65454Y-58285D01*
X65362Y-58323D01*
X65291Y-58393D01*
X65253Y-58485D01*
X65253Y-58585D01*
X65253Y-59254D01*
X65291Y-59346D01*
X65362Y-59416D01*
X65454Y-59454D01*
X65553Y-59454D01*
X65617Y-59454D01*
X65617Y-65011D01*
X65640Y-65126D01*
X65705Y-65224D01*
X65966Y-65485D01*
X65328Y-65485D01*
X65112Y-65431D01*
X64932Y-65299D01*
X64817Y-65108D01*
X64779Y-64854D01*
X64779Y-53101D01*
X69015Y-53101D01*
X69059Y-53145D01*
X69156Y-53210D01*
X69271Y-53233D01*
X70767Y-53233D01*
X70767Y-53233D01*
X70882Y-53210D01*
X70882Y-53210D01*
X70909Y-53192D01*
X70909Y-53192D01*
X70971Y-53342D01*
X71086Y-53457D01*
X71236Y-53520D01*
X71248Y-53520D01*
X75855Y-58100D01*
X75837Y-58093D01*
X75658Y-58093D01*
X75493Y-58161D01*
X75366Y-58288D01*
X75361Y-58301D01*
X75359Y-58293D01*
X75175Y-58017D01*
X74899Y-57833D01*
X74574Y-57768D01*
X74248Y-57833D01*
X73972Y-58017D01*
X73788Y-58293D01*
X73723Y-58619D01*
X73788Y-58944D01*
X73972Y-59220D01*
X74248Y-59404D01*
X74574Y-59469D01*
X74899Y-59404D01*
X75175Y-59220D01*
X75359Y-58944D01*
X75384Y-58816D01*
X75492Y-58924D01*
X75658Y-58993D01*
X75837Y-58993D01*
X76002Y-58925D01*
X76129Y-58798D01*
X76197Y-58633D01*
X76198Y-58454D01*
X76189Y-58432D01*
X76661Y-58902D01*
X76716Y-58938D01*
X76771Y-58975D01*
X76771Y-58975D01*
X76772Y-58975D01*
X76836Y-58988D01*
X76901Y-59001D01*
X76949Y-59001D01*
X76956Y-59008D01*
X77107Y-59071D01*
X77270Y-59071D01*
X77420Y-59009D01*
X77536Y-58893D01*
X77598Y-58743D01*
X77599Y-58580D01*
X77536Y-58429D01*
X77421Y-58314D01*
X77404Y-58306D01*
X77448Y-58288D01*
X77563Y-58173D01*
X77626Y-58022D01*
X77626Y-57859D01*
X77564Y-57709D01*
X77449Y-57593D01*
X77298Y-57531D01*
X77230Y-57530D01*
X76799Y-57099D01*
X80839Y-57099D01*
X82479Y-58740D01*
X82479Y-58750D01*
X82541Y-58901D01*
X82657Y-59016D01*
X82807Y-59079D01*
X82970Y-59079D01*
X83121Y-59017D01*
X83237Y-58901D01*
X83299Y-58751D01*
X83299Y-58588D01*
X83237Y-58437D01*
X83122Y-58321D01*
X82971Y-58259D01*
X82960Y-58259D01*
X81280Y-56579D01*
X81757Y-56579D01*
X84739Y-59561D01*
X84631Y-59561D01*
X84536Y-59600D01*
X79509Y-59600D01*
X79509Y-58133D01*
X79483Y-58003D01*
X79409Y-57893D01*
X79072Y-57555D01*
X79072Y-57497D01*
X79003Y-57332D01*
X78877Y-57205D01*
X78711Y-57136D01*
X78532Y-57136D01*
X78367Y-57204D01*
X78240Y-57331D01*
X78172Y-57496D01*
X78171Y-57675D01*
X78240Y-57841D01*
X78366Y-57967D01*
X78532Y-58036D01*
X78591Y-58036D01*
X78829Y-58274D01*
X78829Y-59600D01*
X73894Y-59600D01*
X73833Y-59539D01*
X73668Y-59471D01*
X73489Y-59471D01*
X73324Y-59539D01*
X73197Y-59666D01*
X73128Y-59831D01*
X73128Y-60010D01*
X73197Y-60175D01*
X73323Y-60302D01*
X73488Y-60371D01*
X73667Y-60371D01*
X73833Y-60302D01*
X73855Y-60280D01*
X78872Y-60280D01*
X78914Y-60322D01*
X79079Y-60390D01*
X79258Y-60391D01*
X79423Y-60322D01*
X79465Y-60280D01*
X82507Y-60280D01*
X82482Y-60305D01*
X82414Y-60471D01*
X82414Y-60650D01*
X82482Y-60815D01*
X82608Y-60942D01*
X82774Y-61010D01*
X82953Y-61011D01*
X83118Y-60942D01*
X83245Y-60816D01*
X83314Y-60650D01*
X83314Y-60471D01*
X83245Y-60306D01*
X83220Y-60280D01*
X84353Y-60280D01*
X84465Y-60393D01*
X84630Y-60461D01*
X84809Y-60461D01*
X84975Y-60393D01*
X85101Y-60267D01*
X85170Y-60101D01*
X85170Y-59992D01*
X85195Y-60017D01*
X85195Y-60017D01*
X85258Y-60059D01*
X85258Y-60149D01*
X85275Y-60190D01*
X85254Y-60239D01*
X85254Y-60339D01*
X85254Y-60929D01*
X85292Y-61021D01*
X85363Y-61091D01*
X85455Y-61129D01*
X85460Y-61129D01*
X85460Y-61567D01*
X85483Y-61682D01*
X85548Y-61780D01*
X85830Y-62061D01*
X85830Y-62128D01*
X85892Y-62279D01*
X86007Y-62394D01*
X86158Y-62457D01*
X86321Y-62457D01*
X86472Y-62395D01*
X86587Y-62279D01*
X86648Y-62132D01*
X86648Y-64856D01*
X86648Y-64856D01*
G37*
G54D27*
X86648Y-64856D02*
X86352Y-65152D01*
X85105Y-65152D01*
X85105Y-63686D01*
X85021Y-63484D01*
X84867Y-63329D01*
X84785Y-63295D01*
X84866Y-63261D01*
X85021Y-63107D01*
X85105Y-62905D01*
X85105Y-62686D01*
X85021Y-62484D01*
X84867Y-62329D01*
X84665Y-62245D01*
X84446Y-62245D01*
X84243Y-62328D01*
X84089Y-62483D01*
X84005Y-62685D01*
X84005Y-62904D01*
X84088Y-63106D01*
X84243Y-63261D01*
X84325Y-63295D01*
X84243Y-63328D01*
X84089Y-63483D01*
X84005Y-63685D01*
X84005Y-63904D01*
X84088Y-64106D01*
X84227Y-64245D01*
X84205Y-64245D01*
X84113Y-64283D01*
X84043Y-64353D01*
X84005Y-64445D01*
X84005Y-64682D01*
X84067Y-64745D01*
X84505Y-64745D01*
X84505Y-64737D01*
X84605Y-64737D01*
X84605Y-64745D01*
X85042Y-64745D01*
X85105Y-64682D01*
X85105Y-64445D01*
X85067Y-64353D01*
X84996Y-64283D01*
X84904Y-64245D01*
X84882Y-64245D01*
X85021Y-64107D01*
X85105Y-63905D01*
X85105Y-63686D01*
X85105Y-65152D01*
X85101Y-65152D01*
X85105Y-65145D01*
X85105Y-64907D01*
X85042Y-64845D01*
X84605Y-64845D01*
X84605Y-64853D01*
X84505Y-64853D01*
X84505Y-64845D01*
X84067Y-64845D01*
X84005Y-64907D01*
X84005Y-65145D01*
X84008Y-65152D01*
X83557Y-65152D01*
X83557Y-63317D01*
X83557Y-63217D01*
X83557Y-62076D01*
X83519Y-61984D01*
X83448Y-61914D01*
X83356Y-61875D01*
X83257Y-61875D01*
X82706Y-61875D01*
X82614Y-61914D01*
X82543Y-61984D01*
X82505Y-62076D01*
X82505Y-62175D01*
X82505Y-63317D01*
X82543Y-63409D01*
X82614Y-63479D01*
X82706Y-63517D01*
X82805Y-63517D01*
X83356Y-63517D01*
X83448Y-63479D01*
X83519Y-63409D01*
X83557Y-63317D01*
X83557Y-65152D01*
X82356Y-65152D01*
X82356Y-64557D01*
X82356Y-64458D01*
X82356Y-64266D01*
X82356Y-64041D01*
X82356Y-63848D01*
X82356Y-63749D01*
X82318Y-63657D01*
X82247Y-63587D01*
X82156Y-63549D01*
X81667Y-63549D01*
X81605Y-63611D01*
X81605Y-64103D01*
X82293Y-64103D01*
X82356Y-64041D01*
X82356Y-64266D01*
X82293Y-64203D01*
X81605Y-64203D01*
X81605Y-64695D01*
X81667Y-64757D01*
X82156Y-64757D01*
X82247Y-64719D01*
X82318Y-64649D01*
X82356Y-64557D01*
X82356Y-65152D01*
X81505Y-65152D01*
X81505Y-64695D01*
X81505Y-64203D01*
X81505Y-64103D01*
X81505Y-63611D01*
X81442Y-63549D01*
X80954Y-63549D01*
X80862Y-63587D01*
X80791Y-63657D01*
X80753Y-63749D01*
X80753Y-63848D01*
X80753Y-64041D01*
X80816Y-64103D01*
X81505Y-64103D01*
X81505Y-64203D01*
X80816Y-64203D01*
X80753Y-64266D01*
X80753Y-64458D01*
X80753Y-64557D01*
X80791Y-64649D01*
X80862Y-64719D01*
X80954Y-64757D01*
X81442Y-64757D01*
X81505Y-64695D01*
X81505Y-65152D01*
X80604Y-65152D01*
X80604Y-63317D01*
X80604Y-63217D01*
X80604Y-62076D01*
X80566Y-61984D01*
X80495Y-61914D01*
X80404Y-61875D01*
X80304Y-61875D01*
X79753Y-61875D01*
X79661Y-61914D01*
X79591Y-61984D01*
X79553Y-62076D01*
X79553Y-62175D01*
X79553Y-63317D01*
X79591Y-63409D01*
X79661Y-63479D01*
X79753Y-63517D01*
X79852Y-63517D01*
X80404Y-63517D01*
X80495Y-63479D01*
X80566Y-63409D01*
X80604Y-63317D01*
X80604Y-65152D01*
X77550Y-65152D01*
X77550Y-63690D01*
X77466Y-63488D01*
X77311Y-63333D01*
X77230Y-63299D01*
X77311Y-63265D01*
X77465Y-63111D01*
X77549Y-62909D01*
X77550Y-62690D01*
X77466Y-62488D01*
X77311Y-62333D01*
X77109Y-62249D01*
X76891Y-62249D01*
X76688Y-62332D01*
X76534Y-62487D01*
X76450Y-62689D01*
X76449Y-62908D01*
X76533Y-63110D01*
X76688Y-63265D01*
X76769Y-63299D01*
X76688Y-63332D01*
X76534Y-63487D01*
X76450Y-63689D01*
X76449Y-63908D01*
X76533Y-64110D01*
X76672Y-64249D01*
X76650Y-64249D01*
X76558Y-64287D01*
X76488Y-64357D01*
X76450Y-64449D01*
X76450Y-64686D01*
X76512Y-64749D01*
X76950Y-64749D01*
X76950Y-64741D01*
X77050Y-64741D01*
X77050Y-64749D01*
X77487Y-64749D01*
X77550Y-64686D01*
X77550Y-64449D01*
X77511Y-64357D01*
X77441Y-64287D01*
X77349Y-64249D01*
X77327Y-64249D01*
X77465Y-64111D01*
X77549Y-63909D01*
X77550Y-63690D01*
X77550Y-65152D01*
X77548Y-65152D01*
X77550Y-65148D01*
X77550Y-64911D01*
X77487Y-64849D01*
X77050Y-64849D01*
X77050Y-64857D01*
X76950Y-64857D01*
X76950Y-64849D01*
X76512Y-64849D01*
X76450Y-64911D01*
X76450Y-65148D01*
X76451Y-65152D01*
X75966Y-65152D01*
X75966Y-63293D01*
X75966Y-63194D01*
X75966Y-62052D01*
X75928Y-61960D01*
X75858Y-61890D01*
X75766Y-61852D01*
X75666Y-61852D01*
X75115Y-61852D01*
X75023Y-61890D01*
X74953Y-61960D01*
X74915Y-62052D01*
X74915Y-62152D01*
X74915Y-63293D01*
X74953Y-63385D01*
X75023Y-63456D01*
X75115Y-63494D01*
X75215Y-63494D01*
X75766Y-63494D01*
X75858Y-63456D01*
X75928Y-63385D01*
X75966Y-63293D01*
X75966Y-65152D01*
X74765Y-65152D01*
X74765Y-64533D01*
X74765Y-64434D01*
X74765Y-64242D01*
X74765Y-64017D01*
X74765Y-63825D01*
X74765Y-63725D01*
X74727Y-63633D01*
X74657Y-63563D01*
X74565Y-63525D01*
X74077Y-63525D01*
X74014Y-63588D01*
X74014Y-64079D01*
X74703Y-64079D01*
X74765Y-64017D01*
X74765Y-64242D01*
X74703Y-64179D01*
X74014Y-64179D01*
X74014Y-64671D01*
X74077Y-64734D01*
X74565Y-64734D01*
X74657Y-64696D01*
X74727Y-64625D01*
X74765Y-64533D01*
X74765Y-65152D01*
X73914Y-65152D01*
X73914Y-64671D01*
X73914Y-64179D01*
X73914Y-64079D01*
X73914Y-63588D01*
X73852Y-63525D01*
X73363Y-63525D01*
X73271Y-63563D01*
X73201Y-63633D01*
X73163Y-63725D01*
X73163Y-63825D01*
X73163Y-64017D01*
X73225Y-64079D01*
X73914Y-64079D01*
X73914Y-64179D01*
X73225Y-64179D01*
X73163Y-64242D01*
X73163Y-64434D01*
X73163Y-64533D01*
X73201Y-64625D01*
X73271Y-64696D01*
X73363Y-64734D01*
X73852Y-64734D01*
X73914Y-64671D01*
X73914Y-65152D01*
X73013Y-65152D01*
X73013Y-63293D01*
X73013Y-63194D01*
X73013Y-62052D01*
X72975Y-61960D01*
X72905Y-61890D01*
X72813Y-61852D01*
X72714Y-61852D01*
X72162Y-61852D01*
X72070Y-61890D01*
X72000Y-61960D01*
X71962Y-62052D01*
X71962Y-62152D01*
X71962Y-63293D01*
X72000Y-63385D01*
X72070Y-63456D01*
X72162Y-63494D01*
X72262Y-63494D01*
X72813Y-63494D01*
X72905Y-63456D01*
X72975Y-63385D01*
X73013Y-63293D01*
X73013Y-65152D01*
X70695Y-65152D01*
X70695Y-56841D01*
X70695Y-55812D01*
X70646Y-55565D01*
X70506Y-55356D01*
X70297Y-55217D01*
X70051Y-55168D01*
X69805Y-55217D01*
X69596Y-55356D01*
X69457Y-55565D01*
X69408Y-55812D01*
X69408Y-56841D01*
X69457Y-57087D01*
X69596Y-57296D01*
X69805Y-57436D01*
X70051Y-57485D01*
X70297Y-57436D01*
X70506Y-57296D01*
X70646Y-57087D01*
X70695Y-56841D01*
X70695Y-65152D01*
X69988Y-65152D01*
X69988Y-58563D01*
X69988Y-58264D01*
X69976Y-58213D01*
X69852Y-57994D01*
X69655Y-57838D01*
X69412Y-57770D01*
X69018Y-57770D01*
X69018Y-58363D01*
X69941Y-58363D01*
X69988Y-58264D01*
X69988Y-58563D01*
X69941Y-58463D01*
X69018Y-58463D01*
X69018Y-59057D01*
X69412Y-59057D01*
X69655Y-58989D01*
X69852Y-58833D01*
X69976Y-58613D01*
X69988Y-58563D01*
X69988Y-65152D01*
X68918Y-65152D01*
X68918Y-59057D01*
X68918Y-58463D01*
X67995Y-58463D01*
X67948Y-58563D01*
X67960Y-58613D01*
X68084Y-58833D01*
X68282Y-58989D01*
X68524Y-59057D01*
X68918Y-59057D01*
X68918Y-65152D01*
X67942Y-65152D01*
X67942Y-59254D01*
X67942Y-59154D01*
X67942Y-58982D01*
X67942Y-58757D01*
X67942Y-58585D01*
X67942Y-58485D01*
X67904Y-58393D01*
X67834Y-58323D01*
X67742Y-58285D01*
X67391Y-58285D01*
X67329Y-58348D01*
X67329Y-58820D01*
X67880Y-58820D01*
X67942Y-58757D01*
X67942Y-58982D01*
X67880Y-58920D01*
X67329Y-58920D01*
X67329Y-59392D01*
X67391Y-59454D01*
X67742Y-59454D01*
X67834Y-59416D01*
X67904Y-59346D01*
X67942Y-59254D01*
X67942Y-65152D01*
X67229Y-65152D01*
X67229Y-59392D01*
X67229Y-58920D01*
X67229Y-58820D01*
X67229Y-58348D01*
X67166Y-58285D01*
X66816Y-58285D01*
X66724Y-58323D01*
X66653Y-58393D01*
X66615Y-58485D01*
X66615Y-58585D01*
X66615Y-58757D01*
X66678Y-58820D01*
X67229Y-58820D01*
X67229Y-58920D01*
X66678Y-58920D01*
X66615Y-58982D01*
X66615Y-59154D01*
X66615Y-59254D01*
X66653Y-59346D01*
X66724Y-59416D01*
X66816Y-59454D01*
X67166Y-59454D01*
X67229Y-59392D01*
X67229Y-65152D01*
X66482Y-65152D01*
X66217Y-64887D01*
X66217Y-59454D01*
X66380Y-59454D01*
X66472Y-59416D01*
X66542Y-59346D01*
X66580Y-59254D01*
X66580Y-59154D01*
X66580Y-58485D01*
X66542Y-58393D01*
X66472Y-58323D01*
X66380Y-58285D01*
X66281Y-58285D01*
X66220Y-58285D01*
X66220Y-58115D01*
X66430Y-58115D01*
X66522Y-58076D01*
X66592Y-58006D01*
X66628Y-57920D01*
X68178Y-57920D01*
X68084Y-57994D01*
X67960Y-58213D01*
X67948Y-58264D01*
X67995Y-58363D01*
X68918Y-58363D01*
X68918Y-57770D01*
X68780Y-57770D01*
X69064Y-57486D01*
X69144Y-57366D01*
X69173Y-57224D01*
X69173Y-55168D01*
X69184Y-55156D01*
X69253Y-54991D01*
X69253Y-54812D01*
X69184Y-54647D01*
X69058Y-54520D01*
X68893Y-54451D01*
X68714Y-54451D01*
X68548Y-54519D01*
X68421Y-54646D01*
X68353Y-54811D01*
X68353Y-54990D01*
X68421Y-55156D01*
X68433Y-55167D01*
X68433Y-57071D01*
X68324Y-57180D01*
X68154Y-57180D01*
X68283Y-56987D01*
X68332Y-56741D01*
X68332Y-55912D01*
X68283Y-55666D01*
X68143Y-55457D01*
X67934Y-55317D01*
X67688Y-55268D01*
X67442Y-55317D01*
X67233Y-55457D01*
X67094Y-55666D01*
X67045Y-55912D01*
X67045Y-55956D01*
X66555Y-55956D01*
X66522Y-55923D01*
X66430Y-55885D01*
X66330Y-55885D01*
X65270Y-55885D01*
X65178Y-55923D01*
X65108Y-55993D01*
X65070Y-56085D01*
X65070Y-56184D01*
X65070Y-56814D01*
X65108Y-56906D01*
X65178Y-56976D01*
X65234Y-57000D01*
X65178Y-57023D01*
X65108Y-57093D01*
X65070Y-57185D01*
X65070Y-57284D01*
X65070Y-57914D01*
X65108Y-58006D01*
X65178Y-58076D01*
X65270Y-58115D01*
X65370Y-58115D01*
X65480Y-58115D01*
X65480Y-58285D01*
X65454Y-58285D01*
X65362Y-58323D01*
X65291Y-58393D01*
X65253Y-58485D01*
X65253Y-58585D01*
X65253Y-59254D01*
X65291Y-59346D01*
X65362Y-59416D01*
X65454Y-59454D01*
X65553Y-59454D01*
X65617Y-59454D01*
X65617Y-65011D01*
X65640Y-65126D01*
X65705Y-65224D01*
X65966Y-65485D01*
X65328Y-65485D01*
X65112Y-65431D01*
X64932Y-65299D01*
X64817Y-65108D01*
X64779Y-64854D01*
X64779Y-53101D01*
X69015Y-53101D01*
X69059Y-53145D01*
X69156Y-53210D01*
X69271Y-53233D01*
X70767Y-53233D01*
X70767Y-53233D01*
X70882Y-53210D01*
X70882Y-53210D01*
X70909Y-53192D01*
X70909Y-53192D01*
X70971Y-53342D01*
X71086Y-53457D01*
X71236Y-53520D01*
X71248Y-53520D01*
X75855Y-58100D01*
X75837Y-58093D01*
X75658Y-58093D01*
X75493Y-58161D01*
X75366Y-58288D01*
X75361Y-58301D01*
X75359Y-58293D01*
X75175Y-58017D01*
X74899Y-57833D01*
X74574Y-57768D01*
X74248Y-57833D01*
X73972Y-58017D01*
X73788Y-58293D01*
X73723Y-58619D01*
X73788Y-58944D01*
X73972Y-59220D01*
X74248Y-59404D01*
X74574Y-59469D01*
X74899Y-59404D01*
X75175Y-59220D01*
X75359Y-58944D01*
X75384Y-58816D01*
X75492Y-58924D01*
X75658Y-58993D01*
X75837Y-58993D01*
X76002Y-58925D01*
X76129Y-58798D01*
X76197Y-58633D01*
X76198Y-58454D01*
X76189Y-58432D01*
X76661Y-58902D01*
X76716Y-58938D01*
X76771Y-58975D01*
X76771Y-58975D01*
X76772Y-58975D01*
X76836Y-58988D01*
X76901Y-59001D01*
X76949Y-59001D01*
X76956Y-59008D01*
X77107Y-59071D01*
X77270Y-59071D01*
X77420Y-59009D01*
X77536Y-58893D01*
X77598Y-58743D01*
X77599Y-58580D01*
X77536Y-58429D01*
X77421Y-58314D01*
X77404Y-58306D01*
X77448Y-58288D01*
X77563Y-58173D01*
X77626Y-58022D01*
X77626Y-57859D01*
X77564Y-57709D01*
X77449Y-57593D01*
X77298Y-57531D01*
X77230Y-57530D01*
X76799Y-57099D01*
X80839Y-57099D01*
X82479Y-58740D01*
X82479Y-58750D01*
X82541Y-58901D01*
X82657Y-59016D01*
X82807Y-59079D01*
X82970Y-59079D01*
X83121Y-59017D01*
X83237Y-58901D01*
X83299Y-58751D01*
X83299Y-58588D01*
X83237Y-58437D01*
X83122Y-58321D01*
X82971Y-58259D01*
X82960Y-58259D01*
X81280Y-56579D01*
X81757Y-56579D01*
X84739Y-59561D01*
X84631Y-59561D01*
X84536Y-59600D01*
X79509Y-59600D01*
X79509Y-58133D01*
X79483Y-58003D01*
X79409Y-57893D01*
X79072Y-57555D01*
X79072Y-57497D01*
X79003Y-57332D01*
X78877Y-57205D01*
X78711Y-57136D01*
X78532Y-57136D01*
X78367Y-57204D01*
X78240Y-57331D01*
X78172Y-57496D01*
X78171Y-57675D01*
X78240Y-57841D01*
X78366Y-57967D01*
X78532Y-58036D01*
X78591Y-58036D01*
X78829Y-58274D01*
X78829Y-59600D01*
X73894Y-59600D01*
X73833Y-59539D01*
X73668Y-59471D01*
X73489Y-59471D01*
X73324Y-59539D01*
X73197Y-59666D01*
X73128Y-59831D01*
X73128Y-60010D01*
X73197Y-60175D01*
X73323Y-60302D01*
X73488Y-60371D01*
X73667Y-60371D01*
X73833Y-60302D01*
X73855Y-60280D01*
X78872Y-60280D01*
X78914Y-60322D01*
X79079Y-60390D01*
X79258Y-60391D01*
X79423Y-60322D01*
X79465Y-60280D01*
X82507Y-60280D01*
X82482Y-60305D01*
X82414Y-60471D01*
X82414Y-60650D01*
X82482Y-60815D01*
X82608Y-60942D01*
X82774Y-61010D01*
X82953Y-61011D01*
X83118Y-60942D01*
X83245Y-60816D01*
X83314Y-60650D01*
X83314Y-60471D01*
X83245Y-60306D01*
X83220Y-60280D01*
X84353Y-60280D01*
X84465Y-60393D01*
X84630Y-60461D01*
X84809Y-60461D01*
X84975Y-60393D01*
X85101Y-60267D01*
X85170Y-60101D01*
X85170Y-59992D01*
X85195Y-60017D01*
X85195Y-60017D01*
X85258Y-60059D01*
X85258Y-60149D01*
X85275Y-60190D01*
X85254Y-60239D01*
X85254Y-60339D01*
X85254Y-60929D01*
X85292Y-61021D01*
X85363Y-61091D01*
X85455Y-61129D01*
X85460Y-61129D01*
X85460Y-61567D01*
X85483Y-61682D01*
X85548Y-61780D01*
X85830Y-62061D01*
X85830Y-62128D01*
X85892Y-62279D01*
X86007Y-62394D01*
X86158Y-62457D01*
X86321Y-62457D01*
X86472Y-62395D01*
X86587Y-62279D01*
X86648Y-62132D01*
X86648Y-64856D01*
G54D10*
G36*
X88470Y-63581D02*
X88462Y-63581D01*
X88462Y-63589D01*
X88362Y-63589D01*
X88362Y-63581D01*
X88354Y-63581D01*
X88354Y-63481D01*
X88362Y-63481D01*
X88362Y-63048D01*
X88354Y-63041D01*
X88354Y-62813D01*
X87961Y-62813D01*
X87898Y-62876D01*
X87898Y-63009D01*
X87898Y-63101D01*
X87862Y-63078D01*
X87598Y-63025D01*
X87333Y-63078D01*
X87248Y-63134D01*
X87248Y-61934D01*
X87359Y-62007D01*
X87551Y-62046D01*
X87506Y-62090D01*
X87444Y-62240D01*
X87444Y-62404D01*
X87506Y-62554D01*
X87621Y-62670D01*
X87772Y-62732D01*
X87935Y-62732D01*
X87981Y-62713D01*
X88354Y-62713D01*
X88354Y-62705D01*
X88454Y-62705D01*
X88454Y-62713D01*
X88462Y-62713D01*
X88462Y-62813D01*
X88454Y-62813D01*
X88454Y-63246D01*
X88462Y-63254D01*
X88462Y-63481D01*
X88470Y-63481D01*
X88470Y-63581D01*
X88470Y-63581D01*
G37*
G54D27*
X88470Y-63581D02*
X88462Y-63581D01*
X88462Y-63589D01*
X88362Y-63589D01*
X88362Y-63581D01*
X88354Y-63581D01*
X88354Y-63481D01*
X88362Y-63481D01*
X88362Y-63048D01*
X88354Y-63041D01*
X88354Y-62813D01*
X87961Y-62813D01*
X87898Y-62876D01*
X87898Y-63009D01*
X87898Y-63101D01*
X87862Y-63078D01*
X87598Y-63025D01*
X87333Y-63078D01*
X87248Y-63134D01*
X87248Y-61934D01*
X87359Y-62007D01*
X87551Y-62046D01*
X87506Y-62090D01*
X87444Y-62240D01*
X87444Y-62404D01*
X87506Y-62554D01*
X87621Y-62670D01*
X87772Y-62732D01*
X87935Y-62732D01*
X87981Y-62713D01*
X88354Y-62713D01*
X88354Y-62705D01*
X88454Y-62705D01*
X88454Y-62713D01*
X88462Y-62713D01*
X88462Y-62813D01*
X88454Y-62813D01*
X88454Y-63246D01*
X88462Y-63254D01*
X88462Y-63481D01*
X88470Y-63481D01*
X88470Y-63581D01*
G54D10*
G36*
X93295Y-56618D02*
X93216Y-57127D01*
X92967Y-57537D01*
X92579Y-57821D01*
X92091Y-57940D01*
X89720Y-57940D01*
X89620Y-57920D01*
X89513Y-57941D01*
X89422Y-58002D01*
X89361Y-58093D01*
X89340Y-58200D01*
X89340Y-58220D01*
X89340Y-61455D01*
X88856Y-61455D01*
X88787Y-61483D01*
X88718Y-61455D01*
X88618Y-61455D01*
X88317Y-61455D01*
X88337Y-61354D01*
X88283Y-61083D01*
X88130Y-60854D01*
X87900Y-60700D01*
X87861Y-60692D01*
X88593Y-59960D01*
X88728Y-60016D01*
X88908Y-60017D01*
X89073Y-59948D01*
X89200Y-59822D01*
X89268Y-59656D01*
X89268Y-59477D01*
X89200Y-59312D01*
X89074Y-59185D01*
X88908Y-59117D01*
X88729Y-59116D01*
X88564Y-59185D01*
X88462Y-59286D01*
X88448Y-59289D01*
X88409Y-59315D01*
X88350Y-59354D01*
X87016Y-60688D01*
X87016Y-60239D01*
X87000Y-60199D01*
X87020Y-60149D01*
X87020Y-60050D01*
X87020Y-59460D01*
X87008Y-59431D01*
X87008Y-59349D01*
X87008Y-58759D01*
X86996Y-58728D01*
X87008Y-58697D01*
X87008Y-58597D01*
X87008Y-58007D01*
X86970Y-57915D01*
X86900Y-57845D01*
X86808Y-57807D01*
X86709Y-57807D01*
X86197Y-57807D01*
X86127Y-57836D01*
X86058Y-57807D01*
X85865Y-57807D01*
X85802Y-57869D01*
X85802Y-58302D01*
X85810Y-58302D01*
X85810Y-58402D01*
X85802Y-58402D01*
X85802Y-58621D01*
X85802Y-58834D01*
X85802Y-59054D01*
X85810Y-59054D01*
X85810Y-59154D01*
X85802Y-59154D01*
X85802Y-59162D01*
X85702Y-59162D01*
X85702Y-59154D01*
X85702Y-59054D01*
X85702Y-58834D01*
X85702Y-58621D01*
X85702Y-58402D01*
X85702Y-58302D01*
X85702Y-57869D01*
X85640Y-57807D01*
X85447Y-57807D01*
X85355Y-57845D01*
X85285Y-57915D01*
X85246Y-58007D01*
X85246Y-58107D01*
X85246Y-58239D01*
X85309Y-58302D01*
X85702Y-58302D01*
X85702Y-58402D01*
X85309Y-58402D01*
X85246Y-58464D01*
X85246Y-58597D01*
X85246Y-58697D01*
X85259Y-58728D01*
X85246Y-58759D01*
X85246Y-58859D01*
X85246Y-58991D01*
X85309Y-59054D01*
X85702Y-59054D01*
X85702Y-59154D01*
X85309Y-59154D01*
X85246Y-59216D01*
X85246Y-59220D01*
X84424Y-58398D01*
X84561Y-58398D01*
X84712Y-58335D01*
X84827Y-58220D01*
X84890Y-58070D01*
X84890Y-57906D01*
X84828Y-57756D01*
X84802Y-57731D01*
X85600Y-57731D01*
X85692Y-57693D01*
X85763Y-57622D01*
X85801Y-57530D01*
X85801Y-57431D01*
X85801Y-56831D01*
X85763Y-56739D01*
X85692Y-56669D01*
X85600Y-56631D01*
X85561Y-56631D01*
X85653Y-56570D01*
X85772Y-56391D01*
X85794Y-56283D01*
X86058Y-56019D01*
X86123Y-55921D01*
X86123Y-55921D01*
X86146Y-55807D01*
X86146Y-53101D01*
X93295Y-53101D01*
X93295Y-56618D01*
X93295Y-56618D01*
G37*
G54D27*
X93295Y-56618D02*
X93216Y-57127D01*
X92967Y-57537D01*
X92579Y-57821D01*
X92091Y-57940D01*
X89720Y-57940D01*
X89620Y-57920D01*
X89513Y-57941D01*
X89422Y-58002D01*
X89361Y-58093D01*
X89340Y-58200D01*
X89340Y-58220D01*
X89340Y-61455D01*
X88856Y-61455D01*
X88787Y-61483D01*
X88718Y-61455D01*
X88618Y-61455D01*
X88317Y-61455D01*
X88337Y-61354D01*
X88283Y-61083D01*
X88130Y-60854D01*
X87900Y-60700D01*
X87861Y-60692D01*
X88593Y-59960D01*
X88728Y-60016D01*
X88908Y-60017D01*
X89073Y-59948D01*
X89200Y-59822D01*
X89268Y-59656D01*
X89268Y-59477D01*
X89200Y-59312D01*
X89074Y-59185D01*
X88908Y-59117D01*
X88729Y-59116D01*
X88564Y-59185D01*
X88462Y-59286D01*
X88448Y-59289D01*
X88409Y-59315D01*
X88350Y-59354D01*
X87016Y-60688D01*
X87016Y-60239D01*
X87000Y-60199D01*
X87020Y-60149D01*
X87020Y-60050D01*
X87020Y-59460D01*
X87008Y-59431D01*
X87008Y-59349D01*
X87008Y-58759D01*
X86996Y-58728D01*
X87008Y-58697D01*
X87008Y-58597D01*
X87008Y-58007D01*
X86970Y-57915D01*
X86900Y-57845D01*
X86808Y-57807D01*
X86709Y-57807D01*
X86197Y-57807D01*
X86127Y-57836D01*
X86058Y-57807D01*
X85865Y-57807D01*
X85802Y-57869D01*
X85802Y-58302D01*
X85810Y-58302D01*
X85810Y-58402D01*
X85802Y-58402D01*
X85802Y-58621D01*
X85802Y-58834D01*
X85802Y-59054D01*
X85810Y-59054D01*
X85810Y-59154D01*
X85802Y-59154D01*
X85802Y-59162D01*
X85702Y-59162D01*
X85702Y-59154D01*
X85702Y-59054D01*
X85702Y-58834D01*
X85702Y-58621D01*
X85702Y-58402D01*
X85702Y-58302D01*
X85702Y-57869D01*
X85640Y-57807D01*
X85447Y-57807D01*
X85355Y-57845D01*
X85285Y-57915D01*
X85246Y-58007D01*
X85246Y-58107D01*
X85246Y-58239D01*
X85309Y-58302D01*
X85702Y-58302D01*
X85702Y-58402D01*
X85309Y-58402D01*
X85246Y-58464D01*
X85246Y-58597D01*
X85246Y-58697D01*
X85259Y-58728D01*
X85246Y-58759D01*
X85246Y-58859D01*
X85246Y-58991D01*
X85309Y-59054D01*
X85702Y-59054D01*
X85702Y-59154D01*
X85309Y-59154D01*
X85246Y-59216D01*
X85246Y-59220D01*
X84424Y-58398D01*
X84561Y-58398D01*
X84712Y-58335D01*
X84827Y-58220D01*
X84890Y-58070D01*
X84890Y-57906D01*
X84828Y-57756D01*
X84802Y-57731D01*
X85600Y-57731D01*
X85692Y-57693D01*
X85763Y-57622D01*
X85801Y-57530D01*
X85801Y-57431D01*
X85801Y-56831D01*
X85763Y-56739D01*
X85692Y-56669D01*
X85600Y-56631D01*
X85561Y-56631D01*
X85653Y-56570D01*
X85772Y-56391D01*
X85794Y-56283D01*
X86058Y-56019D01*
X86123Y-55921D01*
X86123Y-55921D01*
X86146Y-55807D01*
X86146Y-53101D01*
X93295Y-53101D01*
X93295Y-56618D01*
G54D10*
G36*
X72156Y-46277D02*
X72068Y-46313D01*
X71914Y-46468D01*
X71830Y-46670D01*
X71829Y-46888D01*
X71913Y-47091D01*
X72010Y-47187D01*
X72010Y-47372D01*
X71914Y-47468D01*
X71830Y-47670D01*
X71829Y-47888D01*
X71890Y-48035D01*
X71771Y-48153D01*
X70943Y-48153D01*
X70808Y-48153D01*
X70820Y-48142D01*
X70774Y-48096D01*
X70870Y-48069D01*
X70943Y-47863D01*
X70943Y-46863D01*
X70932Y-46644D01*
X70870Y-46493D01*
X70774Y-46466D01*
X70459Y-46781D01*
X70774Y-47096D01*
X70870Y-47069D01*
X70943Y-46863D01*
X70943Y-47863D01*
X70932Y-47644D01*
X70870Y-47493D01*
X70774Y-47466D01*
X70704Y-47537D01*
X70704Y-47395D01*
X70676Y-47300D01*
X70628Y-47282D01*
X70676Y-47262D01*
X70704Y-47167D01*
X70388Y-46852D01*
X70073Y-47167D01*
X70101Y-47262D01*
X70149Y-47280D01*
X70101Y-47300D01*
X70073Y-47395D01*
X70388Y-47710D01*
X70704Y-47395D01*
X70704Y-47537D01*
X70459Y-47781D01*
X70465Y-47787D01*
X70394Y-47857D01*
X70388Y-47852D01*
X70383Y-47857D01*
X70312Y-47787D01*
X70318Y-47781D01*
X70002Y-47466D01*
X69907Y-47493D01*
X69887Y-47549D01*
X69855Y-47470D01*
X69700Y-47315D01*
X69619Y-47281D01*
X69700Y-47248D01*
X69854Y-47093D01*
X69886Y-47017D01*
X69907Y-47069D01*
X70002Y-47096D01*
X70318Y-46781D01*
X70002Y-46466D01*
X69907Y-46493D01*
X69887Y-46549D01*
X69855Y-46470D01*
X69700Y-46315D01*
X69617Y-46280D01*
X69673Y-46257D01*
X69700Y-46162D01*
X69385Y-45847D01*
X69070Y-46162D01*
X69097Y-46257D01*
X69161Y-46280D01*
X69077Y-46315D01*
X68922Y-46469D01*
X68888Y-46551D01*
X68855Y-46470D01*
X68700Y-46315D01*
X68611Y-46278D01*
X68696Y-46242D01*
X68851Y-46088D01*
X68882Y-46012D01*
X68904Y-46064D01*
X68999Y-46091D01*
X69314Y-45776D01*
X69309Y-45770D01*
X69379Y-45700D01*
X69385Y-45705D01*
X69391Y-45700D01*
X69461Y-45770D01*
X69456Y-45776D01*
X69771Y-46091D01*
X69866Y-46064D01*
X69886Y-46008D01*
X69918Y-46087D01*
X70073Y-46242D01*
X70157Y-46277D01*
X70101Y-46300D01*
X70073Y-46395D01*
X70388Y-46710D01*
X70704Y-46395D01*
X70676Y-46300D01*
X70612Y-46277D01*
X70696Y-46242D01*
X70851Y-46088D01*
X70885Y-46006D01*
X70918Y-46087D01*
X71073Y-46242D01*
X71275Y-46326D01*
X71494Y-46326D01*
X71696Y-46242D01*
X71851Y-46088D01*
X71885Y-46006D01*
X71918Y-46087D01*
X72073Y-46242D01*
X72156Y-46277D01*
X72156Y-46277D01*
G37*
G54D27*
X72156Y-46277D02*
X72068Y-46313D01*
X71914Y-46468D01*
X71830Y-46670D01*
X71829Y-46888D01*
X71913Y-47091D01*
X72010Y-47187D01*
X72010Y-47372D01*
X71914Y-47468D01*
X71830Y-47670D01*
X71829Y-47888D01*
X71890Y-48035D01*
X71771Y-48153D01*
X70943Y-48153D01*
X70808Y-48153D01*
X70820Y-48142D01*
X70774Y-48096D01*
X70870Y-48069D01*
X70943Y-47863D01*
X70943Y-46863D01*
X70932Y-46644D01*
X70870Y-46493D01*
X70774Y-46466D01*
X70459Y-46781D01*
X70774Y-47096D01*
X70870Y-47069D01*
X70943Y-46863D01*
X70943Y-47863D01*
X70932Y-47644D01*
X70870Y-47493D01*
X70774Y-47466D01*
X70704Y-47537D01*
X70704Y-47395D01*
X70676Y-47300D01*
X70628Y-47282D01*
X70676Y-47262D01*
X70704Y-47167D01*
X70388Y-46852D01*
X70073Y-47167D01*
X70101Y-47262D01*
X70149Y-47280D01*
X70101Y-47300D01*
X70073Y-47395D01*
X70388Y-47710D01*
X70704Y-47395D01*
X70704Y-47537D01*
X70459Y-47781D01*
X70465Y-47787D01*
X70394Y-47857D01*
X70388Y-47852D01*
X70383Y-47857D01*
X70312Y-47787D01*
X70318Y-47781D01*
X70002Y-47466D01*
X69907Y-47493D01*
X69887Y-47549D01*
X69855Y-47470D01*
X69700Y-47315D01*
X69619Y-47281D01*
X69700Y-47248D01*
X69854Y-47093D01*
X69886Y-47017D01*
X69907Y-47069D01*
X70002Y-47096D01*
X70318Y-46781D01*
X70002Y-46466D01*
X69907Y-46493D01*
X69887Y-46549D01*
X69855Y-46470D01*
X69700Y-46315D01*
X69617Y-46280D01*
X69673Y-46257D01*
X69700Y-46162D01*
X69385Y-45847D01*
X69070Y-46162D01*
X69097Y-46257D01*
X69161Y-46280D01*
X69077Y-46315D01*
X68922Y-46469D01*
X68888Y-46551D01*
X68855Y-46470D01*
X68700Y-46315D01*
X68611Y-46278D01*
X68696Y-46242D01*
X68851Y-46088D01*
X68882Y-46012D01*
X68904Y-46064D01*
X68999Y-46091D01*
X69314Y-45776D01*
X69309Y-45770D01*
X69379Y-45700D01*
X69385Y-45705D01*
X69391Y-45700D01*
X69461Y-45770D01*
X69456Y-45776D01*
X69771Y-46091D01*
X69866Y-46064D01*
X69886Y-46008D01*
X69918Y-46087D01*
X70073Y-46242D01*
X70157Y-46277D01*
X70101Y-46300D01*
X70073Y-46395D01*
X70388Y-46710D01*
X70704Y-46395D01*
X70676Y-46300D01*
X70612Y-46277D01*
X70696Y-46242D01*
X70851Y-46088D01*
X70885Y-46006D01*
X70918Y-46087D01*
X71073Y-46242D01*
X71275Y-46326D01*
X71494Y-46326D01*
X71696Y-46242D01*
X71851Y-46088D01*
X71885Y-46006D01*
X71918Y-46087D01*
X72073Y-46242D01*
X72156Y-46277D01*
G54D10*
G36*
X79050Y-48941D02*
X78953Y-48876D01*
X78838Y-48853D01*
X77700Y-48853D01*
X77700Y-46162D01*
X77385Y-45847D01*
X77070Y-46162D01*
X77097Y-46257D01*
X77303Y-46331D01*
X77522Y-46320D01*
X77673Y-46257D01*
X77700Y-46162D01*
X77700Y-48853D01*
X76806Y-48853D01*
X76881Y-48778D01*
X76949Y-48613D01*
X76950Y-48434D01*
X76881Y-48269D01*
X76755Y-48142D01*
X76589Y-48073D01*
X76410Y-48073D01*
X76245Y-48141D01*
X76233Y-48153D01*
X74934Y-48153D01*
X74798Y-48153D01*
X74811Y-48140D01*
X74765Y-48095D01*
X74861Y-48067D01*
X74934Y-47861D01*
X74923Y-47643D01*
X74861Y-47492D01*
X74765Y-47464D01*
X74450Y-47780D01*
X74456Y-47785D01*
X74385Y-47856D01*
X74380Y-47850D01*
X74374Y-47856D01*
X74303Y-47785D01*
X74309Y-47780D01*
X73994Y-47464D01*
X73898Y-47492D01*
X73879Y-47547D01*
X73846Y-47468D01*
X73691Y-47314D01*
X73610Y-47280D01*
X73691Y-47246D01*
X73830Y-47107D01*
X73830Y-47129D01*
X73868Y-47221D01*
X73938Y-47291D01*
X74030Y-47330D01*
X74083Y-47330D01*
X74064Y-47394D01*
X74380Y-47709D01*
X74695Y-47394D01*
X74676Y-47330D01*
X74729Y-47330D01*
X74821Y-47291D01*
X74891Y-47221D01*
X74930Y-47129D01*
X74930Y-47030D01*
X74930Y-46892D01*
X74867Y-46830D01*
X74430Y-46830D01*
X74430Y-46837D01*
X74330Y-46837D01*
X74330Y-46830D01*
X74322Y-46830D01*
X74322Y-46730D01*
X74330Y-46730D01*
X74330Y-46722D01*
X74430Y-46722D01*
X74430Y-46730D01*
X74867Y-46730D01*
X74930Y-46667D01*
X74930Y-46529D01*
X74930Y-46430D01*
X74891Y-46338D01*
X74821Y-46268D01*
X74729Y-46230D01*
X74709Y-46230D01*
X74851Y-46088D01*
X74885Y-46006D01*
X74918Y-46087D01*
X75073Y-46242D01*
X75275Y-46326D01*
X75494Y-46326D01*
X75696Y-46242D01*
X75851Y-46088D01*
X75885Y-46006D01*
X75918Y-46087D01*
X76073Y-46242D01*
X76275Y-46326D01*
X76494Y-46326D01*
X76696Y-46242D01*
X76851Y-46088D01*
X76882Y-46012D01*
X76904Y-46064D01*
X76999Y-46091D01*
X77314Y-45776D01*
X77309Y-45770D01*
X77379Y-45700D01*
X77385Y-45705D01*
X77391Y-45700D01*
X77461Y-45770D01*
X77456Y-45776D01*
X77771Y-46091D01*
X77866Y-46064D01*
X77940Y-45858D01*
X77929Y-45639D01*
X77910Y-45595D01*
X78832Y-45595D01*
X79050Y-45813D01*
X79050Y-48941D01*
X79050Y-48941D01*
G37*
G54D27*
X79050Y-48941D02*
X78953Y-48876D01*
X78838Y-48853D01*
X77700Y-48853D01*
X77700Y-46162D01*
X77385Y-45847D01*
X77070Y-46162D01*
X77097Y-46257D01*
X77303Y-46331D01*
X77522Y-46320D01*
X77673Y-46257D01*
X77700Y-46162D01*
X77700Y-48853D01*
X76806Y-48853D01*
X76881Y-48778D01*
X76949Y-48613D01*
X76950Y-48434D01*
X76881Y-48269D01*
X76755Y-48142D01*
X76589Y-48073D01*
X76410Y-48073D01*
X76245Y-48141D01*
X76233Y-48153D01*
X74934Y-48153D01*
X74798Y-48153D01*
X74811Y-48140D01*
X74765Y-48095D01*
X74861Y-48067D01*
X74934Y-47861D01*
X74923Y-47643D01*
X74861Y-47492D01*
X74765Y-47464D01*
X74450Y-47780D01*
X74456Y-47785D01*
X74385Y-47856D01*
X74380Y-47850D01*
X74374Y-47856D01*
X74303Y-47785D01*
X74309Y-47780D01*
X73994Y-47464D01*
X73898Y-47492D01*
X73879Y-47547D01*
X73846Y-47468D01*
X73691Y-47314D01*
X73610Y-47280D01*
X73691Y-47246D01*
X73830Y-47107D01*
X73830Y-47129D01*
X73868Y-47221D01*
X73938Y-47291D01*
X74030Y-47330D01*
X74083Y-47330D01*
X74064Y-47394D01*
X74380Y-47709D01*
X74695Y-47394D01*
X74676Y-47330D01*
X74729Y-47330D01*
X74821Y-47291D01*
X74891Y-47221D01*
X74930Y-47129D01*
X74930Y-47030D01*
X74930Y-46892D01*
X74867Y-46830D01*
X74430Y-46830D01*
X74430Y-46837D01*
X74330Y-46837D01*
X74330Y-46830D01*
X74322Y-46830D01*
X74322Y-46730D01*
X74330Y-46730D01*
X74330Y-46722D01*
X74430Y-46722D01*
X74430Y-46730D01*
X74867Y-46730D01*
X74930Y-46667D01*
X74930Y-46529D01*
X74930Y-46430D01*
X74891Y-46338D01*
X74821Y-46268D01*
X74729Y-46230D01*
X74709Y-46230D01*
X74851Y-46088D01*
X74885Y-46006D01*
X74918Y-46087D01*
X75073Y-46242D01*
X75275Y-46326D01*
X75494Y-46326D01*
X75696Y-46242D01*
X75851Y-46088D01*
X75885Y-46006D01*
X75918Y-46087D01*
X76073Y-46242D01*
X76275Y-46326D01*
X76494Y-46326D01*
X76696Y-46242D01*
X76851Y-46088D01*
X76882Y-46012D01*
X76904Y-46064D01*
X76999Y-46091D01*
X77314Y-45776D01*
X77309Y-45770D01*
X77379Y-45700D01*
X77385Y-45705D01*
X77391Y-45700D01*
X77461Y-45770D01*
X77456Y-45776D01*
X77771Y-46091D01*
X77866Y-46064D01*
X77940Y-45858D01*
X77929Y-45639D01*
X77910Y-45595D01*
X78832Y-45595D01*
X79050Y-45813D01*
X79050Y-48941D01*
G54D10*
G36*
X79450Y-45364D02*
X79168Y-45083D01*
X79071Y-45018D01*
X78956Y-44995D01*
X77890Y-44995D01*
X77935Y-44886D01*
X77935Y-44667D01*
X77852Y-44465D01*
X77697Y-44310D01*
X77495Y-44226D01*
X77276Y-44226D01*
X77074Y-44309D01*
X76919Y-44464D01*
X76885Y-44546D01*
X76852Y-44465D01*
X76697Y-44310D01*
X76495Y-44226D01*
X76276Y-44226D01*
X76074Y-44309D01*
X75919Y-44464D01*
X75885Y-44546D01*
X75852Y-44465D01*
X75697Y-44310D01*
X75495Y-44226D01*
X75276Y-44226D01*
X75074Y-44309D01*
X74919Y-44464D01*
X74888Y-44540D01*
X74866Y-44488D01*
X74771Y-44461D01*
X74700Y-44531D01*
X74700Y-44390D01*
X74673Y-44295D01*
X74467Y-44221D01*
X74248Y-44232D01*
X74097Y-44295D01*
X74070Y-44390D01*
X74385Y-44705D01*
X74700Y-44390D01*
X74700Y-44531D01*
X74456Y-44776D01*
X74461Y-44781D01*
X74391Y-44852D01*
X74385Y-44847D01*
X74379Y-44852D01*
X74309Y-44781D01*
X74314Y-44776D01*
X73999Y-44461D01*
X73904Y-44488D01*
X73884Y-44543D01*
X73852Y-44465D01*
X73697Y-44310D01*
X73495Y-44226D01*
X73276Y-44226D01*
X73074Y-44309D01*
X72919Y-44464D01*
X72885Y-44546D01*
X72852Y-44465D01*
X72697Y-44310D01*
X72495Y-44226D01*
X72276Y-44226D01*
X72074Y-44309D01*
X71919Y-44464D01*
X71888Y-44540D01*
X71866Y-44488D01*
X71771Y-44461D01*
X71700Y-44531D01*
X71700Y-44390D01*
X71673Y-44295D01*
X71467Y-44221D01*
X71248Y-44232D01*
X71097Y-44295D01*
X71070Y-44390D01*
X71385Y-44705D01*
X71700Y-44390D01*
X71700Y-44531D01*
X71456Y-44776D01*
X71461Y-44781D01*
X71391Y-44852D01*
X71385Y-44847D01*
X71379Y-44852D01*
X71309Y-44781D01*
X71314Y-44776D01*
X70999Y-44461D01*
X70904Y-44488D01*
X70884Y-44543D01*
X70852Y-44465D01*
X70697Y-44310D01*
X70495Y-44226D01*
X70276Y-44226D01*
X70074Y-44309D01*
X69919Y-44464D01*
X69885Y-44546D01*
X69852Y-44465D01*
X69697Y-44310D01*
X69495Y-44226D01*
X69276Y-44226D01*
X69074Y-44309D01*
X68919Y-44464D01*
X68885Y-44546D01*
X68852Y-44465D01*
X68697Y-44310D01*
X68495Y-44226D01*
X68276Y-44226D01*
X68074Y-44309D01*
X67919Y-44464D01*
X67888Y-44540D01*
X67866Y-44488D01*
X67771Y-44461D01*
X67700Y-44531D01*
X67700Y-44390D01*
X67673Y-44295D01*
X67467Y-44221D01*
X67248Y-44232D01*
X67097Y-44295D01*
X67070Y-44390D01*
X67385Y-44705D01*
X67700Y-44390D01*
X67700Y-44531D01*
X67456Y-44776D01*
X67771Y-45091D01*
X67866Y-45064D01*
X67886Y-45008D01*
X67918Y-45087D01*
X68073Y-45242D01*
X68155Y-45276D01*
X68074Y-45309D01*
X67919Y-45464D01*
X67885Y-45546D01*
X67852Y-45465D01*
X67697Y-45310D01*
X67621Y-45278D01*
X67673Y-45257D01*
X67700Y-45162D01*
X67385Y-44847D01*
X67070Y-45162D01*
X67097Y-45257D01*
X67152Y-45277D01*
X67074Y-45309D01*
X66919Y-45464D01*
X66885Y-45546D01*
X66852Y-45465D01*
X66697Y-45310D01*
X66615Y-45276D01*
X66696Y-45242D01*
X66851Y-45088D01*
X66882Y-45012D01*
X66904Y-45064D01*
X66999Y-45091D01*
X67314Y-44776D01*
X66999Y-44461D01*
X66904Y-44488D01*
X66884Y-44543D01*
X66852Y-44465D01*
X66697Y-44310D01*
X66495Y-44226D01*
X66276Y-44226D01*
X66074Y-44309D01*
X65919Y-44464D01*
X65885Y-44546D01*
X65852Y-44465D01*
X65697Y-44310D01*
X65495Y-44226D01*
X65276Y-44226D01*
X65074Y-44309D01*
X64919Y-44464D01*
X64835Y-44666D01*
X64835Y-44885D01*
X64918Y-45087D01*
X65057Y-45226D01*
X65035Y-45226D01*
X64943Y-45264D01*
X64873Y-45334D01*
X64835Y-45426D01*
X64835Y-45526D01*
X64835Y-46126D01*
X64873Y-46217D01*
X64943Y-46288D01*
X65035Y-46326D01*
X65057Y-46326D01*
X64919Y-46463D01*
X64835Y-46665D01*
X64835Y-46884D01*
X64919Y-47086D01*
X65073Y-47241D01*
X65155Y-47275D01*
X65074Y-47309D01*
X64919Y-47463D01*
X64835Y-47665D01*
X64835Y-47884D01*
X64919Y-48086D01*
X65073Y-48241D01*
X65275Y-48325D01*
X65494Y-48325D01*
X65570Y-48294D01*
X65570Y-48468D01*
X65592Y-48583D01*
X65657Y-48680D01*
X65920Y-48943D01*
X65920Y-49881D01*
X65943Y-49996D01*
X66008Y-50094D01*
X68817Y-52902D01*
X68780Y-52902D01*
X68391Y-52513D01*
X68271Y-52433D01*
X68129Y-52405D01*
X67165Y-52405D01*
X67023Y-52433D01*
X66903Y-52513D01*
X66823Y-52633D01*
X66795Y-52775D01*
X66820Y-52902D01*
X64779Y-52902D01*
X64779Y-44422D01*
X64807Y-44244D01*
X64884Y-44119D01*
X65003Y-44033D01*
X65167Y-43994D01*
X79193Y-43994D01*
X79307Y-44015D01*
X79379Y-44062D01*
X79427Y-44133D01*
X79450Y-44243D01*
X79450Y-45364D01*
X79450Y-45364D01*
G37*
G54D27*
X79450Y-45364D02*
X79168Y-45083D01*
X79071Y-45018D01*
X78956Y-44995D01*
X77890Y-44995D01*
X77935Y-44886D01*
X77935Y-44667D01*
X77852Y-44465D01*
X77697Y-44310D01*
X77495Y-44226D01*
X77276Y-44226D01*
X77074Y-44309D01*
X76919Y-44464D01*
X76885Y-44546D01*
X76852Y-44465D01*
X76697Y-44310D01*
X76495Y-44226D01*
X76276Y-44226D01*
X76074Y-44309D01*
X75919Y-44464D01*
X75885Y-44546D01*
X75852Y-44465D01*
X75697Y-44310D01*
X75495Y-44226D01*
X75276Y-44226D01*
X75074Y-44309D01*
X74919Y-44464D01*
X74888Y-44540D01*
X74866Y-44488D01*
X74771Y-44461D01*
X74700Y-44531D01*
X74700Y-44390D01*
X74673Y-44295D01*
X74467Y-44221D01*
X74248Y-44232D01*
X74097Y-44295D01*
X74070Y-44390D01*
X74385Y-44705D01*
X74700Y-44390D01*
X74700Y-44531D01*
X74456Y-44776D01*
X74461Y-44781D01*
X74391Y-44852D01*
X74385Y-44847D01*
X74379Y-44852D01*
X74309Y-44781D01*
X74314Y-44776D01*
X73999Y-44461D01*
X73904Y-44488D01*
X73884Y-44543D01*
X73852Y-44465D01*
X73697Y-44310D01*
X73495Y-44226D01*
X73276Y-44226D01*
X73074Y-44309D01*
X72919Y-44464D01*
X72885Y-44546D01*
X72852Y-44465D01*
X72697Y-44310D01*
X72495Y-44226D01*
X72276Y-44226D01*
X72074Y-44309D01*
X71919Y-44464D01*
X71888Y-44540D01*
X71866Y-44488D01*
X71771Y-44461D01*
X71700Y-44531D01*
X71700Y-44390D01*
X71673Y-44295D01*
X71467Y-44221D01*
X71248Y-44232D01*
X71097Y-44295D01*
X71070Y-44390D01*
X71385Y-44705D01*
X71700Y-44390D01*
X71700Y-44531D01*
X71456Y-44776D01*
X71461Y-44781D01*
X71391Y-44852D01*
X71385Y-44847D01*
X71379Y-44852D01*
X71309Y-44781D01*
X71314Y-44776D01*
X70999Y-44461D01*
X70904Y-44488D01*
X70884Y-44543D01*
X70852Y-44465D01*
X70697Y-44310D01*
X70495Y-44226D01*
X70276Y-44226D01*
X70074Y-44309D01*
X69919Y-44464D01*
X69885Y-44546D01*
X69852Y-44465D01*
X69697Y-44310D01*
X69495Y-44226D01*
X69276Y-44226D01*
X69074Y-44309D01*
X68919Y-44464D01*
X68885Y-44546D01*
X68852Y-44465D01*
X68697Y-44310D01*
X68495Y-44226D01*
X68276Y-44226D01*
X68074Y-44309D01*
X67919Y-44464D01*
X67888Y-44540D01*
X67866Y-44488D01*
X67771Y-44461D01*
X67700Y-44531D01*
X67700Y-44390D01*
X67673Y-44295D01*
X67467Y-44221D01*
X67248Y-44232D01*
X67097Y-44295D01*
X67070Y-44390D01*
X67385Y-44705D01*
X67700Y-44390D01*
X67700Y-44531D01*
X67456Y-44776D01*
X67771Y-45091D01*
X67866Y-45064D01*
X67886Y-45008D01*
X67918Y-45087D01*
X68073Y-45242D01*
X68155Y-45276D01*
X68074Y-45309D01*
X67919Y-45464D01*
X67885Y-45546D01*
X67852Y-45465D01*
X67697Y-45310D01*
X67621Y-45278D01*
X67673Y-45257D01*
X67700Y-45162D01*
X67385Y-44847D01*
X67070Y-45162D01*
X67097Y-45257D01*
X67152Y-45277D01*
X67074Y-45309D01*
X66919Y-45464D01*
X66885Y-45546D01*
X66852Y-45465D01*
X66697Y-45310D01*
X66615Y-45276D01*
X66696Y-45242D01*
X66851Y-45088D01*
X66882Y-45012D01*
X66904Y-45064D01*
X66999Y-45091D01*
X67314Y-44776D01*
X66999Y-44461D01*
X66904Y-44488D01*
X66884Y-44543D01*
X66852Y-44465D01*
X66697Y-44310D01*
X66495Y-44226D01*
X66276Y-44226D01*
X66074Y-44309D01*
X65919Y-44464D01*
X65885Y-44546D01*
X65852Y-44465D01*
X65697Y-44310D01*
X65495Y-44226D01*
X65276Y-44226D01*
X65074Y-44309D01*
X64919Y-44464D01*
X64835Y-44666D01*
X64835Y-44885D01*
X64918Y-45087D01*
X65057Y-45226D01*
X65035Y-45226D01*
X64943Y-45264D01*
X64873Y-45334D01*
X64835Y-45426D01*
X64835Y-45526D01*
X64835Y-46126D01*
X64873Y-46217D01*
X64943Y-46288D01*
X65035Y-46326D01*
X65057Y-46326D01*
X64919Y-46463D01*
X64835Y-46665D01*
X64835Y-46884D01*
X64919Y-47086D01*
X65073Y-47241D01*
X65155Y-47275D01*
X65074Y-47309D01*
X64919Y-47463D01*
X64835Y-47665D01*
X64835Y-47884D01*
X64919Y-48086D01*
X65073Y-48241D01*
X65275Y-48325D01*
X65494Y-48325D01*
X65570Y-48294D01*
X65570Y-48468D01*
X65592Y-48583D01*
X65657Y-48680D01*
X65920Y-48943D01*
X65920Y-49881D01*
X65943Y-49996D01*
X66008Y-50094D01*
X68817Y-52902D01*
X68780Y-52902D01*
X68391Y-52513D01*
X68271Y-52433D01*
X68129Y-52405D01*
X67165Y-52405D01*
X67023Y-52433D01*
X66903Y-52513D01*
X66823Y-52633D01*
X66795Y-52775D01*
X66820Y-52902D01*
X64779Y-52902D01*
X64779Y-44422D01*
X64807Y-44244D01*
X64884Y-44119D01*
X65003Y-44033D01*
X65167Y-43994D01*
X79193Y-43994D01*
X79307Y-44015D01*
X79379Y-44062D01*
X79427Y-44133D01*
X79450Y-44243D01*
X79450Y-45364D01*
G54D10*
G36*
X84445Y-52881D02*
X82654Y-52881D01*
X82654Y-52753D01*
X82591Y-52602D01*
X82476Y-52487D01*
X82326Y-52424D01*
X82162Y-52424D01*
X82012Y-52486D01*
X81964Y-52534D01*
X77575Y-52534D01*
X77575Y-52418D01*
X77513Y-52268D01*
X77489Y-52244D01*
X77512Y-52220D01*
X77575Y-52070D01*
X77575Y-51906D01*
X77566Y-51886D01*
X77628Y-51886D01*
X77779Y-51824D01*
X77894Y-51708D01*
X77957Y-51558D01*
X77957Y-51395D01*
X77895Y-51244D01*
X77880Y-51230D01*
X77937Y-51173D01*
X78000Y-51022D01*
X78000Y-50859D01*
X77938Y-50709D01*
X77823Y-50593D01*
X77672Y-50531D01*
X77604Y-50530D01*
X77420Y-50346D01*
X77323Y-50281D01*
X77208Y-50259D01*
X74502Y-50259D01*
X74464Y-50220D01*
X74366Y-50155D01*
X74251Y-50133D01*
X74177Y-50133D01*
X74130Y-50085D01*
X73979Y-50023D01*
X73843Y-50023D01*
X73843Y-49881D01*
X73820Y-49767D01*
X73820Y-49767D01*
X73815Y-49759D01*
X73815Y-49662D01*
X73753Y-49512D01*
X73694Y-49453D01*
X78714Y-49453D01*
X80161Y-50901D01*
X80259Y-50966D01*
X80259Y-50966D01*
X80374Y-50988D01*
X83163Y-50988D01*
X84050Y-51876D01*
X84050Y-52362D01*
X84073Y-52477D01*
X84138Y-52574D01*
X84445Y-52881D01*
X84445Y-52881D01*
G37*
G54D27*
X84445Y-52881D02*
X82654Y-52881D01*
X82654Y-52753D01*
X82591Y-52602D01*
X82476Y-52487D01*
X82326Y-52424D01*
X82162Y-52424D01*
X82012Y-52486D01*
X81964Y-52534D01*
X77575Y-52534D01*
X77575Y-52418D01*
X77513Y-52268D01*
X77489Y-52244D01*
X77512Y-52220D01*
X77575Y-52070D01*
X77575Y-51906D01*
X77566Y-51886D01*
X77628Y-51886D01*
X77779Y-51824D01*
X77894Y-51708D01*
X77957Y-51558D01*
X77957Y-51395D01*
X77895Y-51244D01*
X77880Y-51230D01*
X77937Y-51173D01*
X78000Y-51022D01*
X78000Y-50859D01*
X77938Y-50709D01*
X77823Y-50593D01*
X77672Y-50531D01*
X77604Y-50530D01*
X77420Y-50346D01*
X77323Y-50281D01*
X77208Y-50259D01*
X74502Y-50259D01*
X74464Y-50220D01*
X74366Y-50155D01*
X74251Y-50133D01*
X74177Y-50133D01*
X74130Y-50085D01*
X73979Y-50023D01*
X73843Y-50023D01*
X73843Y-49881D01*
X73820Y-49767D01*
X73820Y-49767D01*
X73815Y-49759D01*
X73815Y-49662D01*
X73753Y-49512D01*
X73694Y-49453D01*
X78714Y-49453D01*
X80161Y-50901D01*
X80259Y-50966D01*
X80259Y-50966D01*
X80374Y-50988D01*
X83163Y-50988D01*
X84050Y-51876D01*
X84050Y-52362D01*
X84073Y-52477D01*
X84138Y-52574D01*
X84445Y-52881D01*
M02*
