G04 (created by PCBNEW (2013-08-20 BZR 4294)-product) date 9/16/2013 9:24:49 PM*
%MOIN*%
G04 Gerber Fmt 3.4, Leading zero omitted, Abs format*
%FSLAX34Y34*%
G01*
G70*
G90*
G04 APERTURE LIST*
%ADD10C,0.001000*%
%ADD11C,0.009843*%
%ADD12C,0.005906*%
%ADD13C,0.005900*%
%ADD14C,0.008000*%
%ADD15C,0.005000*%
%ADD16C,0.011800*%
%ADD17C,0.010000*%
%ADD18C,0.003900*%
%ADD19C,0.012000*%
%ADD20C,0.007800*%
%ADD21C,0.006000*%
%ADD22C,0.015000*%
%ADD23C,0.004300*%
%ADD24C,0.007900*%
%ADD25C,0.002400*%
G04 APERTURE END LIST*
G54D10*
G54D11*
X82487Y-50355D02*
X82487Y-49961D01*
X82656Y-49999D02*
X82675Y-49980D01*
X82712Y-49961D01*
X82806Y-49961D01*
X82844Y-49980D01*
X82862Y-49999D01*
X82881Y-50036D01*
X82881Y-50074D01*
X82862Y-50130D01*
X82637Y-50355D01*
X82881Y-50355D01*
X83275Y-50317D02*
X83256Y-50336D01*
X83200Y-50355D01*
X83162Y-50355D01*
X83106Y-50336D01*
X83068Y-50299D01*
X83050Y-50261D01*
X83031Y-50186D01*
X83031Y-50130D01*
X83050Y-50055D01*
X83068Y-50017D01*
X83106Y-49980D01*
X83162Y-49961D01*
X83200Y-49961D01*
X83256Y-49980D01*
X83275Y-49999D01*
X83425Y-50336D02*
X83481Y-50355D01*
X83575Y-50355D01*
X83612Y-50336D01*
X83631Y-50317D01*
X83650Y-50280D01*
X83650Y-50242D01*
X83631Y-50205D01*
X83612Y-50186D01*
X83575Y-50167D01*
X83500Y-50149D01*
X83462Y-50130D01*
X83443Y-50111D01*
X83425Y-50074D01*
X83425Y-50036D01*
X83443Y-49999D01*
X83462Y-49980D01*
X83500Y-49961D01*
X83593Y-49961D01*
X83650Y-49980D01*
X83818Y-50355D02*
X83818Y-49961D01*
X83912Y-49961D01*
X83968Y-49980D01*
X84006Y-50017D01*
X84025Y-50055D01*
X84043Y-50130D01*
X84043Y-50186D01*
X84025Y-50261D01*
X84006Y-50299D01*
X83968Y-50336D01*
X83912Y-50355D01*
X83818Y-50355D01*
X84193Y-50242D02*
X84381Y-50242D01*
X84156Y-50355D02*
X84287Y-49961D01*
X84418Y-50355D01*
X82940Y-51359D02*
X82940Y-50965D01*
X83109Y-51002D02*
X83128Y-50984D01*
X83165Y-50965D01*
X83259Y-50965D01*
X83296Y-50984D01*
X83315Y-51002D01*
X83334Y-51040D01*
X83334Y-51077D01*
X83315Y-51134D01*
X83090Y-51359D01*
X83334Y-51359D01*
X83727Y-51321D02*
X83709Y-51340D01*
X83652Y-51359D01*
X83615Y-51359D01*
X83559Y-51340D01*
X83521Y-51302D01*
X83502Y-51265D01*
X83484Y-51190D01*
X83484Y-51134D01*
X83502Y-51059D01*
X83521Y-51021D01*
X83559Y-50984D01*
X83615Y-50965D01*
X83652Y-50965D01*
X83709Y-50984D01*
X83727Y-51002D01*
X84084Y-51359D02*
X83896Y-51359D01*
X83896Y-50965D01*
X84215Y-51359D02*
X84215Y-50965D01*
X84440Y-51359D02*
X84271Y-51134D01*
X84440Y-50965D02*
X84215Y-51190D01*
X83809Y-52171D02*
X83940Y-52171D01*
X83996Y-52378D02*
X83809Y-52378D01*
X83809Y-51984D01*
X83996Y-51984D01*
X84165Y-52378D02*
X84165Y-51984D01*
X84390Y-52378D01*
X84390Y-51984D01*
X83035Y-54371D02*
X83035Y-53977D01*
X83128Y-53977D01*
X83185Y-53996D01*
X83222Y-54033D01*
X83241Y-54071D01*
X83260Y-54146D01*
X83260Y-54202D01*
X83241Y-54277D01*
X83222Y-54314D01*
X83185Y-54352D01*
X83128Y-54371D01*
X83035Y-54371D01*
X83503Y-53977D02*
X83578Y-53977D01*
X83616Y-53996D01*
X83653Y-54033D01*
X83672Y-54108D01*
X83672Y-54239D01*
X83653Y-54314D01*
X83616Y-54352D01*
X83578Y-54371D01*
X83503Y-54371D01*
X83466Y-54352D01*
X83428Y-54314D01*
X83410Y-54239D01*
X83410Y-54108D01*
X83428Y-54033D01*
X83466Y-53996D01*
X83503Y-53977D01*
X83841Y-53977D02*
X83841Y-54296D01*
X83860Y-54333D01*
X83878Y-54352D01*
X83916Y-54371D01*
X83991Y-54371D01*
X84028Y-54352D01*
X84047Y-54333D01*
X84066Y-54296D01*
X84066Y-53977D01*
X84197Y-53977D02*
X84422Y-53977D01*
X84310Y-54371D02*
X84310Y-53977D01*
X83761Y-56380D02*
X83742Y-56399D01*
X83686Y-56418D01*
X83649Y-56418D01*
X83592Y-56399D01*
X83555Y-56362D01*
X83536Y-56324D01*
X83517Y-56249D01*
X83517Y-56193D01*
X83536Y-56118D01*
X83555Y-56080D01*
X83592Y-56043D01*
X83649Y-56024D01*
X83686Y-56024D01*
X83742Y-56043D01*
X83761Y-56062D01*
X84117Y-56418D02*
X83930Y-56418D01*
X83930Y-56024D01*
X84249Y-56418D02*
X84249Y-56024D01*
X84474Y-56418D02*
X84305Y-56193D01*
X84474Y-56024D02*
X84249Y-56249D01*
X83968Y-55171D02*
X83837Y-55171D01*
X83837Y-55378D02*
X83837Y-54984D01*
X84025Y-54984D01*
X84156Y-55359D02*
X84212Y-55378D01*
X84306Y-55378D01*
X84343Y-55359D01*
X84362Y-55340D01*
X84381Y-55303D01*
X84381Y-55265D01*
X84362Y-55228D01*
X84343Y-55209D01*
X84306Y-55190D01*
X84231Y-55171D01*
X84193Y-55153D01*
X84174Y-55134D01*
X84156Y-55096D01*
X84156Y-55059D01*
X84174Y-55021D01*
X84193Y-55003D01*
X84231Y-54984D01*
X84324Y-54984D01*
X84381Y-55003D01*
X83612Y-53406D02*
X83612Y-53012D01*
X83706Y-53012D01*
X83762Y-53031D01*
X83800Y-53068D01*
X83818Y-53106D01*
X83837Y-53181D01*
X83837Y-53237D01*
X83818Y-53312D01*
X83800Y-53350D01*
X83762Y-53387D01*
X83706Y-53406D01*
X83612Y-53406D01*
X84006Y-53406D02*
X84006Y-53012D01*
X84193Y-53406D02*
X84193Y-53012D01*
X84418Y-53406D01*
X84418Y-53012D01*
X92668Y-57542D02*
X93062Y-57542D01*
X92724Y-57542D02*
X92696Y-57514D01*
X92668Y-57457D01*
X92668Y-57373D01*
X92696Y-57317D01*
X92753Y-57289D01*
X93062Y-57289D01*
X93062Y-56923D02*
X93034Y-56979D01*
X93006Y-57007D01*
X92949Y-57035D01*
X92781Y-57035D01*
X92724Y-57007D01*
X92696Y-56979D01*
X92668Y-56923D01*
X92668Y-56839D01*
X92696Y-56782D01*
X92724Y-56754D01*
X92781Y-56726D01*
X92949Y-56726D01*
X93006Y-56754D01*
X93034Y-56782D01*
X93062Y-56839D01*
X93062Y-56923D01*
X93062Y-56473D02*
X92668Y-56473D01*
X92471Y-56473D02*
X92500Y-56501D01*
X92528Y-56473D01*
X92500Y-56445D01*
X92471Y-56473D01*
X92528Y-56473D01*
X93034Y-56220D02*
X93062Y-56164D01*
X93062Y-56051D01*
X93034Y-55995D01*
X92978Y-55967D01*
X92949Y-55967D01*
X92893Y-55995D01*
X92865Y-56051D01*
X92865Y-56136D01*
X92837Y-56192D01*
X92781Y-56220D01*
X92753Y-56220D01*
X92696Y-56192D01*
X92668Y-56136D01*
X92668Y-56051D01*
X92696Y-55995D01*
X93034Y-55489D02*
X93062Y-55545D01*
X93062Y-55658D01*
X93034Y-55714D01*
X92978Y-55742D01*
X92753Y-55742D01*
X92696Y-55714D01*
X92668Y-55658D01*
X92668Y-55545D01*
X92696Y-55489D01*
X92753Y-55461D01*
X92809Y-55461D01*
X92865Y-55742D01*
X93062Y-55208D02*
X92668Y-55208D01*
X92471Y-55208D02*
X92500Y-55236D01*
X92528Y-55208D01*
X92500Y-55179D01*
X92471Y-55208D01*
X92528Y-55208D01*
X93034Y-54955D02*
X93062Y-54898D01*
X93062Y-54786D01*
X93034Y-54730D01*
X92978Y-54701D01*
X92949Y-54701D01*
X92893Y-54730D01*
X92865Y-54786D01*
X92865Y-54870D01*
X92837Y-54926D01*
X92781Y-54955D01*
X92753Y-54955D01*
X92696Y-54926D01*
X92668Y-54870D01*
X92668Y-54786D01*
X92696Y-54730D01*
X92668Y-54195D02*
X93146Y-54195D01*
X93203Y-54223D01*
X93231Y-54251D01*
X93259Y-54308D01*
X93259Y-54392D01*
X93231Y-54448D01*
X93034Y-54195D02*
X93062Y-54251D01*
X93062Y-54364D01*
X93034Y-54420D01*
X93006Y-54448D01*
X92949Y-54476D01*
X92781Y-54476D01*
X92724Y-54448D01*
X92696Y-54420D01*
X92668Y-54364D01*
X92668Y-54251D01*
X92696Y-54195D01*
X93062Y-53830D02*
X93034Y-53886D01*
X93006Y-53914D01*
X92949Y-53942D01*
X92781Y-53942D01*
X92724Y-53914D01*
X92696Y-53886D01*
X92668Y-53830D01*
X92668Y-53745D01*
X92696Y-53689D01*
X92724Y-53661D01*
X92781Y-53633D01*
X92949Y-53633D01*
X93006Y-53661D01*
X93034Y-53689D01*
X93062Y-53745D01*
X93062Y-53830D01*
X93062Y-53295D02*
X93034Y-53352D01*
X93006Y-53380D01*
X92949Y-53408D01*
X92781Y-53408D01*
X92724Y-53380D01*
X92696Y-53352D01*
X92668Y-53295D01*
X92668Y-53211D01*
X92696Y-53155D01*
X92724Y-53127D01*
X92781Y-53098D01*
X92949Y-53098D01*
X93006Y-53127D01*
X93034Y-53155D01*
X93062Y-53211D01*
X93062Y-53295D01*
X93062Y-52592D02*
X92471Y-52592D01*
X93034Y-52592D02*
X93062Y-52649D01*
X93062Y-52761D01*
X93034Y-52817D01*
X93006Y-52845D01*
X92949Y-52874D01*
X92781Y-52874D01*
X92724Y-52845D01*
X92696Y-52817D01*
X92668Y-52761D01*
X92668Y-52649D01*
X92696Y-52592D01*
X93006Y-52311D02*
X93034Y-52283D01*
X93062Y-52311D01*
X93034Y-52339D01*
X93006Y-52311D01*
X93062Y-52311D01*
X93034Y-51777D02*
X93062Y-51833D01*
X93062Y-51946D01*
X93034Y-52002D01*
X93006Y-52030D01*
X92949Y-52058D01*
X92781Y-52058D01*
X92724Y-52030D01*
X92696Y-52002D01*
X92668Y-51946D01*
X92668Y-51833D01*
X92696Y-51777D01*
X93062Y-51439D02*
X93034Y-51496D01*
X93006Y-51524D01*
X92949Y-51552D01*
X92781Y-51552D01*
X92724Y-51524D01*
X92696Y-51496D01*
X92668Y-51439D01*
X92668Y-51355D01*
X92696Y-51299D01*
X92724Y-51271D01*
X92781Y-51242D01*
X92949Y-51242D01*
X93006Y-51271D01*
X93034Y-51299D01*
X93062Y-51355D01*
X93062Y-51439D01*
X93006Y-50989D02*
X93034Y-50961D01*
X93062Y-50989D01*
X93034Y-51017D01*
X93006Y-50989D01*
X93062Y-50989D01*
X92668Y-50708D02*
X93062Y-50708D01*
X92724Y-50708D02*
X92696Y-50680D01*
X92668Y-50624D01*
X92668Y-50539D01*
X92696Y-50483D01*
X92753Y-50455D01*
X93062Y-50455D01*
X92668Y-50230D02*
X92668Y-49921D01*
X93062Y-50230D01*
X93062Y-49921D01*
X90857Y-57278D02*
X90261Y-57278D01*
X90431Y-57278D02*
X90346Y-57236D01*
X90303Y-57193D01*
X90261Y-57108D01*
X90261Y-57023D01*
X90857Y-56725D02*
X89963Y-56725D01*
X89963Y-56385D01*
X90005Y-56299D01*
X90048Y-56257D01*
X90133Y-56214D01*
X90261Y-56214D01*
X90346Y-56257D01*
X90388Y-56299D01*
X90431Y-56385D01*
X90431Y-56725D01*
X90857Y-55831D02*
X90261Y-55831D01*
X89963Y-55831D02*
X90005Y-55874D01*
X90048Y-55831D01*
X90005Y-55789D01*
X89963Y-55831D01*
X90048Y-55831D01*
X90942Y-55619D02*
X90942Y-54938D01*
X90857Y-54342D02*
X90388Y-54342D01*
X90303Y-54384D01*
X90261Y-54470D01*
X90261Y-54640D01*
X90303Y-54725D01*
X90814Y-54342D02*
X90857Y-54427D01*
X90857Y-54640D01*
X90814Y-54725D01*
X90729Y-54767D01*
X90644Y-54767D01*
X90559Y-54725D01*
X90516Y-54640D01*
X90516Y-54427D01*
X90474Y-54342D01*
X90857Y-53916D02*
X89963Y-53916D01*
X90303Y-53916D02*
X90261Y-53831D01*
X90261Y-53661D01*
X90303Y-53576D01*
X90346Y-53533D01*
X90431Y-53491D01*
X90686Y-53491D01*
X90771Y-53533D01*
X90814Y-53576D01*
X90857Y-53661D01*
X90857Y-53831D01*
X90814Y-53916D01*
X90942Y-53320D02*
X90942Y-52640D01*
X90261Y-52512D02*
X90857Y-52299D01*
X90261Y-52086D01*
X89963Y-51576D02*
X89963Y-51491D01*
X90005Y-51405D01*
X90048Y-51363D01*
X90133Y-51320D01*
X90303Y-51278D01*
X90516Y-51278D01*
X90686Y-51320D01*
X90771Y-51363D01*
X90814Y-51405D01*
X90857Y-51491D01*
X90857Y-51576D01*
X90814Y-51661D01*
X90771Y-51703D01*
X90686Y-51746D01*
X90516Y-51788D01*
X90303Y-51788D01*
X90133Y-51746D01*
X90048Y-51703D01*
X90005Y-51661D01*
X89963Y-51576D01*
X90771Y-50895D02*
X90814Y-50852D01*
X90857Y-50895D01*
X90814Y-50937D01*
X90771Y-50895D01*
X90857Y-50895D01*
X89963Y-50086D02*
X89963Y-50256D01*
X90005Y-50341D01*
X90048Y-50384D01*
X90176Y-50469D01*
X90346Y-50512D01*
X90686Y-50512D01*
X90771Y-50469D01*
X90814Y-50427D01*
X90857Y-50341D01*
X90857Y-50171D01*
X90814Y-50086D01*
X90771Y-50044D01*
X90686Y-50001D01*
X90474Y-50001D01*
X90388Y-50044D01*
X90346Y-50086D01*
X90303Y-50171D01*
X90303Y-50341D01*
X90346Y-50427D01*
X90388Y-50469D01*
X90474Y-50512D01*
X92164Y-57342D02*
X92206Y-57214D01*
X92206Y-57002D01*
X92164Y-56917D01*
X92121Y-56874D01*
X92036Y-56831D01*
X91951Y-56831D01*
X91866Y-56874D01*
X91823Y-56917D01*
X91781Y-57002D01*
X91738Y-57172D01*
X91695Y-57257D01*
X91653Y-57300D01*
X91568Y-57342D01*
X91483Y-57342D01*
X91398Y-57300D01*
X91355Y-57257D01*
X91312Y-57172D01*
X91312Y-56959D01*
X91355Y-56831D01*
X92164Y-56108D02*
X92206Y-56193D01*
X92206Y-56363D01*
X92164Y-56448D01*
X92078Y-56491D01*
X91738Y-56491D01*
X91653Y-56448D01*
X91610Y-56363D01*
X91610Y-56193D01*
X91653Y-56108D01*
X91738Y-56065D01*
X91823Y-56065D01*
X91908Y-56491D01*
X91610Y-55682D02*
X92504Y-55682D01*
X91653Y-55682D02*
X91610Y-55597D01*
X91610Y-55427D01*
X91653Y-55342D01*
X91695Y-55299D01*
X91781Y-55257D01*
X92036Y-55257D01*
X92121Y-55299D01*
X92164Y-55342D01*
X92206Y-55427D01*
X92206Y-55597D01*
X92164Y-55682D01*
X91610Y-55001D02*
X91610Y-54661D01*
X91312Y-54874D02*
X92078Y-54874D01*
X92164Y-54831D01*
X92206Y-54746D01*
X92206Y-54661D01*
X91398Y-53044D02*
X91355Y-53001D01*
X91312Y-52916D01*
X91312Y-52703D01*
X91355Y-52618D01*
X91398Y-52576D01*
X91483Y-52533D01*
X91568Y-52533D01*
X91695Y-52576D01*
X92206Y-53086D01*
X92206Y-52533D01*
X91312Y-51980D02*
X91312Y-51895D01*
X91355Y-51810D01*
X91398Y-51767D01*
X91483Y-51725D01*
X91653Y-51682D01*
X91866Y-51682D01*
X92036Y-51725D01*
X92121Y-51767D01*
X92164Y-51810D01*
X92206Y-51895D01*
X92206Y-51980D01*
X92164Y-52065D01*
X92121Y-52108D01*
X92036Y-52150D01*
X91866Y-52193D01*
X91653Y-52193D01*
X91483Y-52150D01*
X91398Y-52108D01*
X91355Y-52065D01*
X91312Y-51980D01*
X92206Y-50831D02*
X92206Y-51342D01*
X92206Y-51086D02*
X91312Y-51086D01*
X91440Y-51171D01*
X91525Y-51256D01*
X91568Y-51342D01*
X91312Y-50533D02*
X91312Y-49980D01*
X91653Y-50278D01*
X91653Y-50150D01*
X91695Y-50065D01*
X91738Y-50022D01*
X91823Y-49980D01*
X92036Y-49980D01*
X92121Y-50022D01*
X92164Y-50065D01*
X92206Y-50150D01*
X92206Y-50405D01*
X92164Y-50490D01*
X92121Y-50533D01*
X71424Y-47291D02*
X71724Y-47291D01*
X71574Y-47441D02*
X71574Y-47141D01*
X75453Y-48015D02*
X75059Y-48015D01*
X75341Y-47884D01*
X75059Y-47753D01*
X75453Y-47753D01*
X75059Y-47490D02*
X75059Y-47415D01*
X75078Y-47378D01*
X75116Y-47340D01*
X75191Y-47321D01*
X75322Y-47321D01*
X75397Y-47340D01*
X75434Y-47378D01*
X75453Y-47415D01*
X75453Y-47490D01*
X75434Y-47528D01*
X75397Y-47565D01*
X75322Y-47584D01*
X75191Y-47584D01*
X75116Y-47565D01*
X75078Y-47528D01*
X75059Y-47490D01*
X75453Y-47153D02*
X75059Y-47153D01*
X75059Y-47059D01*
X75078Y-47003D01*
X75116Y-46965D01*
X75153Y-46946D01*
X75228Y-46928D01*
X75284Y-46928D01*
X75359Y-46946D01*
X75397Y-46965D01*
X75434Y-47003D01*
X75453Y-47059D01*
X75453Y-47153D01*
X75247Y-46759D02*
X75247Y-46628D01*
X75453Y-46571D02*
X75453Y-46759D01*
X75059Y-46759D01*
X75059Y-46571D01*
G54D12*
X83523Y-65728D02*
X83523Y-61781D01*
X79586Y-65738D02*
X79586Y-61771D01*
X79586Y-61771D02*
X83523Y-61781D01*
X83523Y-65728D02*
X79586Y-65728D01*
X80511Y-65728D02*
X83218Y-65728D01*
X82637Y-63385D02*
X83435Y-63385D01*
X83435Y-63385D02*
X83435Y-62007D01*
X82637Y-61998D02*
X83444Y-61998D01*
X82637Y-63385D02*
X82637Y-61988D01*
X79694Y-61988D02*
X80492Y-61988D01*
X80492Y-61988D02*
X80492Y-63405D01*
X80492Y-63405D02*
X79665Y-63405D01*
X79665Y-63405D02*
X79665Y-61998D01*
X81062Y-63769D02*
X82047Y-63769D01*
X82135Y-63897D02*
X82135Y-64409D01*
X82057Y-64537D02*
X81072Y-64537D01*
X80974Y-64419D02*
X80974Y-63917D01*
X71996Y-65714D02*
X71996Y-61748D01*
X71996Y-61748D02*
X75933Y-61757D01*
X75933Y-61757D02*
X75933Y-65734D01*
X75933Y-65704D02*
X71996Y-65704D01*
X72921Y-65704D02*
X75627Y-65704D01*
X75047Y-63362D02*
X75844Y-63362D01*
X75844Y-63362D02*
X75844Y-61984D01*
X75047Y-61974D02*
X75854Y-61974D01*
X75047Y-63362D02*
X75047Y-61964D01*
X72104Y-61964D02*
X72901Y-61964D01*
X72901Y-61964D02*
X72901Y-63381D01*
X72901Y-63381D02*
X72074Y-63381D01*
X72074Y-63381D02*
X72074Y-61974D01*
X73472Y-63746D02*
X74456Y-63746D01*
X74545Y-63874D02*
X74545Y-64385D01*
X74466Y-64513D02*
X73482Y-64513D01*
X73383Y-64395D02*
X73383Y-63893D01*
G54D13*
X74315Y-53756D02*
X72503Y-53756D01*
X72503Y-49662D02*
X74315Y-49662D01*
X74315Y-49662D02*
X74315Y-53756D01*
X72503Y-53756D02*
X72503Y-49662D01*
X72917Y-49961D02*
G75*
G03X72917Y-49961I-111J0D01*
G74*
G01*
G54D14*
X64885Y-46276D02*
X77885Y-46276D01*
X77885Y-44276D02*
X64885Y-44276D01*
X64885Y-44276D02*
X64885Y-46276D01*
X77885Y-46276D02*
X77885Y-44276D01*
G54D15*
X77913Y-57255D02*
X78168Y-57000D01*
X77913Y-57195D02*
X78108Y-57000D01*
X78463Y-57965D02*
X78723Y-57965D01*
X78463Y-57215D02*
X78723Y-57215D01*
X77913Y-57590D02*
X77653Y-57590D01*
X77913Y-57965D02*
X77653Y-57965D01*
X77913Y-57215D02*
X77653Y-57215D01*
X78463Y-57000D02*
X78463Y-58180D01*
X78463Y-58180D02*
X77913Y-58180D01*
X77913Y-58180D02*
X77913Y-57000D01*
X77913Y-57000D02*
X78463Y-57000D01*
G54D16*
X79259Y-49614D02*
X77291Y-49614D01*
X77291Y-49614D02*
X77291Y-54180D01*
X77291Y-54180D02*
X79259Y-54180D01*
X79259Y-54180D02*
X79259Y-49614D01*
G54D17*
X78275Y-54097D02*
G75*
G03X79175Y-53197I0J900D01*
G74*
G01*
X77575Y-50597D02*
X77575Y-53197D01*
X78975Y-53197D02*
X78975Y-50597D01*
X77575Y-53197D02*
G75*
G03X78275Y-53897I700J0D01*
G74*
G01*
X78275Y-53897D02*
G75*
G03X78975Y-53197I0J700D01*
G74*
G01*
X78275Y-49897D02*
G75*
G03X77575Y-50597I0J-700D01*
G74*
G01*
X78975Y-50597D02*
G75*
G03X78275Y-49897I-700J0D01*
G74*
G01*
X77375Y-53197D02*
G75*
G03X78275Y-54097I900J0D01*
G74*
G01*
X77375Y-53197D02*
X77375Y-50597D01*
X79175Y-50597D02*
X79175Y-53197D01*
X78275Y-49697D02*
G75*
G03X77375Y-50597I0J-900D01*
G74*
G01*
X79175Y-50597D02*
G75*
G03X78275Y-49697I-900J0D01*
G74*
G01*
G54D18*
X80434Y-61646D02*
G75*
G03X80434Y-61646I-50J0D01*
G74*
G01*
X80384Y-61196D02*
X80384Y-61596D01*
X80384Y-61596D02*
X79784Y-61596D01*
X79784Y-61596D02*
X79784Y-61196D01*
X79784Y-60796D02*
X79784Y-60396D01*
X79784Y-60396D02*
X80384Y-60396D01*
X80384Y-60396D02*
X80384Y-60796D01*
X81290Y-61636D02*
G75*
G03X81290Y-61636I-50J0D01*
G74*
G01*
X81240Y-61186D02*
X81240Y-61586D01*
X81240Y-61586D02*
X80640Y-61586D01*
X80640Y-61586D02*
X80640Y-61186D01*
X80640Y-60786D02*
X80640Y-60386D01*
X80640Y-60386D02*
X81240Y-60386D01*
X81240Y-60386D02*
X81240Y-60786D01*
X85133Y-61998D02*
G75*
G03X85133Y-61998I-50J0D01*
G74*
G01*
X85083Y-61548D02*
X85083Y-61948D01*
X85083Y-61948D02*
X84483Y-61948D01*
X84483Y-61948D02*
X84483Y-61548D01*
X84483Y-61148D02*
X84483Y-60748D01*
X84483Y-60748D02*
X85083Y-60748D01*
X85083Y-60748D02*
X85083Y-61148D01*
X83570Y-61040D02*
G75*
G03X83570Y-61040I-50J0D01*
G74*
G01*
X83070Y-61040D02*
X83470Y-61040D01*
X83470Y-61040D02*
X83470Y-61640D01*
X83470Y-61640D02*
X83070Y-61640D01*
X82670Y-61640D02*
X82270Y-61640D01*
X82270Y-61640D02*
X82270Y-61040D01*
X82270Y-61040D02*
X82670Y-61040D01*
X79558Y-61636D02*
G75*
G03X79558Y-61636I-50J0D01*
G74*
G01*
X79508Y-61186D02*
X79508Y-61586D01*
X79508Y-61586D02*
X78908Y-61586D01*
X78908Y-61586D02*
X78908Y-61186D01*
X78908Y-60786D02*
X78908Y-60386D01*
X78908Y-60386D02*
X79508Y-60386D01*
X79508Y-60386D02*
X79508Y-60786D01*
X77969Y-60981D02*
G75*
G03X77969Y-60981I-50J0D01*
G74*
G01*
X77469Y-60981D02*
X77869Y-60981D01*
X77869Y-60981D02*
X77869Y-61581D01*
X77869Y-61581D02*
X77469Y-61581D01*
X77069Y-61581D02*
X76669Y-61581D01*
X76669Y-61581D02*
X76669Y-60981D01*
X76669Y-60981D02*
X77069Y-60981D01*
X73958Y-61626D02*
G75*
G03X73958Y-61626I-50J0D01*
G74*
G01*
X73908Y-61176D02*
X73908Y-61576D01*
X73908Y-61576D02*
X73308Y-61576D01*
X73308Y-61576D02*
X73308Y-61176D01*
X73308Y-60776D02*
X73308Y-60376D01*
X73308Y-60376D02*
X73908Y-60376D01*
X73908Y-60376D02*
X73908Y-60776D01*
X73151Y-61626D02*
G75*
G03X73151Y-61626I-50J0D01*
G74*
G01*
X73101Y-61176D02*
X73101Y-61576D01*
X73101Y-61576D02*
X72501Y-61576D01*
X72501Y-61576D02*
X72501Y-61176D01*
X72501Y-60776D02*
X72501Y-60376D01*
X72501Y-60376D02*
X73101Y-60376D01*
X73101Y-60376D02*
X73101Y-60776D01*
G54D15*
X65011Y-51361D02*
X65011Y-50141D01*
X65011Y-50141D02*
X65716Y-50141D01*
X65011Y-51361D02*
X65716Y-51361D01*
X67881Y-50006D02*
X67881Y-49686D01*
X67881Y-49686D02*
X67176Y-49686D01*
X67881Y-50006D02*
X67176Y-50006D01*
X67881Y-50911D02*
X67176Y-50911D01*
X67881Y-50591D02*
X67176Y-50591D01*
X67881Y-50911D02*
X67881Y-50591D01*
X67881Y-51816D02*
X67881Y-51496D01*
X67881Y-51496D02*
X67176Y-51496D01*
X67881Y-51816D02*
X67176Y-51816D01*
X67176Y-49431D02*
X67176Y-52071D01*
X67176Y-52071D02*
X65716Y-52071D01*
X65716Y-52071D02*
X65716Y-49431D01*
X65716Y-49431D02*
X67176Y-49431D01*
X88903Y-50970D02*
X88903Y-51470D01*
X88403Y-50970D02*
X88403Y-51460D01*
X88253Y-50970D02*
X89053Y-50970D01*
X89053Y-50970D02*
X89053Y-51470D01*
X89053Y-51470D02*
X88253Y-51470D01*
X88253Y-51470D02*
X88253Y-50970D01*
X88899Y-55100D02*
X88899Y-55600D01*
X88399Y-55100D02*
X88399Y-55590D01*
X88249Y-55100D02*
X89049Y-55100D01*
X89049Y-55100D02*
X89049Y-55600D01*
X89049Y-55600D02*
X88249Y-55600D01*
X88249Y-55600D02*
X88249Y-55100D01*
X72639Y-58340D02*
X72639Y-57840D01*
X73139Y-58340D02*
X73139Y-57850D01*
X73289Y-58340D02*
X72489Y-58340D01*
X72489Y-58340D02*
X72489Y-57840D01*
X72489Y-57840D02*
X73289Y-57840D01*
X73289Y-57840D02*
X73289Y-58340D01*
X88903Y-57218D02*
X88903Y-57718D01*
X88403Y-57218D02*
X88403Y-57708D01*
X88253Y-57218D02*
X89053Y-57218D01*
X89053Y-57218D02*
X89053Y-57718D01*
X89053Y-57718D02*
X88253Y-57718D01*
X88253Y-57718D02*
X88253Y-57218D01*
X88950Y-53050D02*
X88950Y-53550D01*
X88450Y-53050D02*
X88450Y-53540D01*
X88300Y-53050D02*
X89100Y-53050D01*
X89100Y-53050D02*
X89100Y-53550D01*
X89100Y-53550D02*
X88300Y-53550D01*
X88300Y-53550D02*
X88300Y-53050D01*
X76844Y-57769D02*
X76344Y-57769D01*
X76844Y-57269D02*
X76354Y-57269D01*
X76844Y-57119D02*
X76844Y-57919D01*
X76844Y-57919D02*
X76344Y-57919D01*
X76344Y-57919D02*
X76344Y-57119D01*
X76344Y-57119D02*
X76844Y-57119D01*
X74265Y-56872D02*
X74265Y-56372D01*
X74765Y-56872D02*
X74765Y-56382D01*
X74915Y-56872D02*
X74115Y-56872D01*
X74115Y-56872D02*
X74115Y-56372D01*
X74115Y-56372D02*
X74915Y-56372D01*
X74915Y-56372D02*
X74915Y-56872D01*
X68832Y-51647D02*
X68332Y-51647D01*
X68832Y-51147D02*
X68342Y-51147D01*
X68832Y-50997D02*
X68832Y-51797D01*
X68832Y-51797D02*
X68332Y-51797D01*
X68332Y-51797D02*
X68332Y-50997D01*
X68332Y-50997D02*
X68832Y-50997D01*
X78842Y-56374D02*
X78342Y-56374D01*
X78842Y-55874D02*
X78352Y-55874D01*
X78842Y-55724D02*
X78842Y-56524D01*
X78842Y-56524D02*
X78342Y-56524D01*
X78342Y-56524D02*
X78342Y-55724D01*
X78342Y-55724D02*
X78842Y-55724D01*
X68342Y-49700D02*
X68842Y-49700D01*
X68342Y-50200D02*
X68832Y-50200D01*
X68342Y-50350D02*
X68342Y-49550D01*
X68342Y-49550D02*
X68842Y-49550D01*
X68842Y-49550D02*
X68842Y-50350D01*
X68842Y-50350D02*
X68342Y-50350D01*
X74100Y-54592D02*
X74100Y-54092D01*
X74600Y-54592D02*
X74600Y-54102D01*
X74750Y-54592D02*
X73950Y-54592D01*
X73950Y-54592D02*
X73950Y-54092D01*
X73950Y-54092D02*
X74750Y-54092D01*
X74750Y-54092D02*
X74750Y-54592D01*
X79698Y-57789D02*
X79198Y-57789D01*
X79698Y-57289D02*
X79208Y-57289D01*
X79698Y-57139D02*
X79698Y-57939D01*
X79698Y-57939D02*
X79198Y-57939D01*
X79198Y-57939D02*
X79198Y-57139D01*
X79198Y-57139D02*
X79698Y-57139D01*
X73131Y-54088D02*
X73131Y-54588D01*
X72631Y-54088D02*
X72631Y-54578D01*
X72481Y-54088D02*
X73281Y-54088D01*
X73281Y-54088D02*
X73281Y-54588D01*
X73281Y-54588D02*
X72481Y-54588D01*
X72481Y-54588D02*
X72481Y-54088D01*
X80324Y-59818D02*
X79824Y-59818D01*
X80324Y-59318D02*
X79834Y-59318D01*
X80324Y-59168D02*
X80324Y-59968D01*
X80324Y-59968D02*
X79824Y-59968D01*
X79824Y-59968D02*
X79824Y-59168D01*
X79824Y-59168D02*
X80324Y-59168D01*
X81200Y-59799D02*
X80700Y-59799D01*
X81200Y-59299D02*
X80710Y-59299D01*
X81200Y-59149D02*
X81200Y-59949D01*
X81200Y-59949D02*
X80700Y-59949D01*
X80700Y-59949D02*
X80700Y-59149D01*
X80700Y-59149D02*
X81200Y-59149D01*
X73159Y-49360D02*
X73159Y-48860D01*
X73659Y-49360D02*
X73659Y-48870D01*
X73809Y-49360D02*
X73009Y-49360D01*
X73009Y-49360D02*
X73009Y-48860D01*
X73009Y-48860D02*
X73809Y-48860D01*
X73809Y-48860D02*
X73809Y-49360D01*
X79588Y-50860D02*
X80088Y-50860D01*
X79588Y-51360D02*
X80078Y-51360D01*
X79588Y-51510D02*
X79588Y-50710D01*
X79588Y-50710D02*
X80088Y-50710D01*
X80088Y-50710D02*
X80088Y-51510D01*
X80088Y-51510D02*
X79588Y-51510D01*
X76431Y-54175D02*
X76431Y-54675D01*
X75931Y-54175D02*
X75931Y-54665D01*
X75781Y-54175D02*
X76581Y-54175D01*
X76581Y-54175D02*
X76581Y-54675D01*
X76581Y-54675D02*
X75781Y-54675D01*
X75781Y-54675D02*
X75781Y-54175D01*
X76431Y-53364D02*
X76431Y-53864D01*
X75931Y-53364D02*
X75931Y-53854D01*
X75781Y-53364D02*
X76581Y-53364D01*
X76581Y-53364D02*
X76581Y-53864D01*
X76581Y-53864D02*
X75781Y-53864D01*
X75781Y-53864D02*
X75781Y-53364D01*
X80100Y-52879D02*
X79600Y-52879D01*
X80100Y-52379D02*
X79610Y-52379D01*
X80100Y-52229D02*
X80100Y-53029D01*
X80100Y-53029D02*
X79600Y-53029D01*
X79600Y-53029D02*
X79600Y-52229D01*
X79600Y-52229D02*
X80100Y-52229D01*
X74224Y-60007D02*
X74724Y-60007D01*
X74224Y-60507D02*
X74714Y-60507D01*
X74224Y-60657D02*
X74224Y-59857D01*
X74224Y-59857D02*
X74724Y-59857D01*
X74724Y-59857D02*
X74724Y-60657D01*
X74724Y-60657D02*
X74224Y-60657D01*
X75051Y-60017D02*
X75551Y-60017D01*
X75051Y-60517D02*
X75541Y-60517D01*
X75051Y-60667D02*
X75051Y-59867D01*
X75051Y-59867D02*
X75551Y-59867D01*
X75551Y-59867D02*
X75551Y-60667D01*
X75551Y-60667D02*
X75051Y-60667D01*
G54D19*
X84618Y-56681D02*
X85618Y-56681D01*
X84618Y-57681D02*
X84618Y-49681D01*
X84618Y-49681D02*
X85618Y-49681D01*
X85618Y-49681D02*
X85618Y-57681D01*
X85618Y-57681D02*
X84618Y-57681D01*
G54D13*
X72814Y-54775D02*
X72814Y-55563D01*
X72972Y-55563D02*
X72972Y-54775D01*
X73484Y-55563D02*
X72302Y-55563D01*
X72302Y-55563D02*
X72302Y-54775D01*
X72302Y-54775D02*
X73484Y-54775D01*
X73484Y-54775D02*
X73484Y-55563D01*
X76268Y-49843D02*
X76268Y-49055D01*
X76110Y-49055D02*
X76110Y-49843D01*
X75598Y-49055D02*
X76780Y-49055D01*
X76780Y-49055D02*
X76780Y-49843D01*
X76780Y-49843D02*
X75598Y-49843D01*
X75598Y-49843D02*
X75598Y-49055D01*
G54D15*
X77446Y-55874D02*
X77946Y-55874D01*
X77446Y-56374D02*
X77936Y-56374D01*
X77446Y-56524D02*
X77446Y-55724D01*
X77446Y-55724D02*
X77946Y-55724D01*
X77946Y-55724D02*
X77946Y-56524D01*
X77946Y-56524D02*
X77446Y-56524D01*
X76541Y-55874D02*
X77041Y-55874D01*
X76541Y-56374D02*
X77031Y-56374D01*
X76541Y-56524D02*
X76541Y-55724D01*
X76541Y-55724D02*
X77041Y-55724D01*
X77041Y-55724D02*
X77041Y-56524D01*
X77041Y-56524D02*
X76541Y-56524D01*
X70340Y-50033D02*
X70340Y-49533D01*
X70840Y-50033D02*
X70840Y-49543D01*
X70990Y-50033D02*
X70190Y-50033D01*
X70190Y-50033D02*
X70190Y-49533D01*
X70190Y-49533D02*
X70990Y-49533D01*
X70990Y-49533D02*
X70990Y-50033D01*
X70340Y-51608D02*
X70340Y-51108D01*
X70840Y-51608D02*
X70840Y-51118D01*
X70990Y-51608D02*
X70190Y-51608D01*
X70190Y-51608D02*
X70190Y-51108D01*
X70190Y-51108D02*
X70990Y-51108D01*
X70990Y-51108D02*
X70990Y-51608D01*
X70344Y-50805D02*
X70344Y-50305D01*
X70844Y-50805D02*
X70844Y-50315D01*
X70994Y-50805D02*
X70194Y-50805D01*
X70194Y-50805D02*
X70194Y-50305D01*
X70194Y-50305D02*
X70994Y-50305D01*
X70994Y-50305D02*
X70994Y-50805D01*
X70340Y-52415D02*
X70340Y-51915D01*
X70840Y-52415D02*
X70840Y-51925D01*
X70990Y-52415D02*
X70190Y-52415D01*
X70190Y-52415D02*
X70190Y-51915D01*
X70190Y-51915D02*
X70990Y-51915D01*
X70990Y-51915D02*
X70990Y-52415D01*
X75942Y-51336D02*
X75942Y-50836D01*
X76442Y-51336D02*
X76442Y-50846D01*
X76592Y-51336D02*
X75792Y-51336D01*
X75792Y-51336D02*
X75792Y-50836D01*
X75792Y-50836D02*
X76592Y-50836D01*
X76592Y-50836D02*
X76592Y-51336D01*
X75935Y-52974D02*
X75935Y-52474D01*
X76435Y-52974D02*
X76435Y-52484D01*
X76585Y-52974D02*
X75785Y-52974D01*
X75785Y-52974D02*
X75785Y-52474D01*
X75785Y-52474D02*
X76585Y-52474D01*
X76585Y-52474D02*
X76585Y-52974D01*
X75942Y-50521D02*
X75942Y-50021D01*
X76442Y-50521D02*
X76442Y-50031D01*
X76592Y-50521D02*
X75792Y-50521D01*
X75792Y-50521D02*
X75792Y-50021D01*
X75792Y-50021D02*
X76592Y-50021D01*
X76592Y-50021D02*
X76592Y-50521D01*
X75942Y-52171D02*
X75942Y-51671D01*
X76442Y-52171D02*
X76442Y-51681D01*
X76592Y-52171D02*
X75792Y-52171D01*
X75792Y-52171D02*
X75792Y-51671D01*
X75792Y-51671D02*
X76592Y-51671D01*
X76592Y-51671D02*
X76592Y-52171D01*
X80847Y-58019D02*
X82407Y-58019D01*
X82407Y-58019D02*
X82407Y-56119D01*
X82407Y-56119D02*
X80847Y-56119D01*
X80847Y-56119D02*
X80847Y-58019D01*
X80847Y-57819D02*
X80417Y-57819D01*
X80847Y-57319D02*
X80417Y-57319D01*
X80847Y-56819D02*
X80417Y-56819D01*
X80417Y-56319D02*
X80847Y-56319D01*
X82407Y-56319D02*
X82837Y-56319D01*
X82837Y-56819D02*
X82407Y-56819D01*
X82837Y-57319D02*
X82407Y-57319D01*
X82837Y-57819D02*
X82407Y-57819D01*
X82303Y-57729D02*
G75*
G03X82303Y-57729I-186J0D01*
G74*
G01*
X76460Y-60804D02*
X78020Y-60804D01*
X78020Y-60804D02*
X78020Y-58904D01*
X78020Y-58904D02*
X76460Y-58904D01*
X76460Y-58904D02*
X76460Y-60804D01*
X76460Y-60604D02*
X76030Y-60604D01*
X76460Y-60104D02*
X76030Y-60104D01*
X76460Y-59604D02*
X76030Y-59604D01*
X76030Y-59104D02*
X76460Y-59104D01*
X78020Y-59104D02*
X78450Y-59104D01*
X78450Y-59604D02*
X78020Y-59604D01*
X78450Y-60104D02*
X78020Y-60104D01*
X78450Y-60604D02*
X78020Y-60604D01*
X77916Y-60514D02*
G75*
G03X77916Y-60514I-186J0D01*
G74*
G01*
X82083Y-60836D02*
X83643Y-60836D01*
X83643Y-60836D02*
X83643Y-58936D01*
X83643Y-58936D02*
X82083Y-58936D01*
X82083Y-58936D02*
X82083Y-60836D01*
X82083Y-60636D02*
X81653Y-60636D01*
X82083Y-60136D02*
X81653Y-60136D01*
X82083Y-59636D02*
X81653Y-59636D01*
X81653Y-59136D02*
X82083Y-59136D01*
X83643Y-59136D02*
X84073Y-59136D01*
X84073Y-59636D02*
X83643Y-59636D01*
X84073Y-60136D02*
X83643Y-60136D01*
X84073Y-60636D02*
X83643Y-60636D01*
X83539Y-60546D02*
G75*
G03X83539Y-60546I-186J0D01*
G74*
G01*
X74157Y-55727D02*
X73902Y-55472D01*
X74097Y-55727D02*
X73902Y-55532D01*
X74867Y-55177D02*
X74867Y-54917D01*
X74117Y-55177D02*
X74117Y-54917D01*
X74492Y-55727D02*
X74492Y-55987D01*
X74867Y-55727D02*
X74867Y-55987D01*
X74117Y-55727D02*
X74117Y-55987D01*
X73902Y-55177D02*
X75082Y-55177D01*
X75082Y-55177D02*
X75082Y-55727D01*
X75082Y-55727D02*
X73902Y-55727D01*
X73902Y-55727D02*
X73902Y-55177D01*
G54D14*
X71880Y-46280D02*
X74880Y-46280D01*
X74880Y-48280D02*
X71880Y-48280D01*
X71880Y-48280D02*
X71880Y-46280D01*
X74880Y-46280D02*
X74880Y-48280D01*
G54D12*
X66885Y-46277D02*
X70891Y-46277D01*
X70901Y-48289D02*
X66890Y-48289D01*
G54D14*
X66888Y-48281D02*
X66888Y-46281D01*
X70890Y-46281D02*
X70890Y-48281D01*
G54D12*
X66885Y-48275D02*
X64885Y-48275D01*
X64885Y-48275D02*
X64885Y-46275D01*
X64885Y-46275D02*
X66885Y-46275D01*
X66885Y-46275D02*
X66885Y-48275D01*
X88724Y-64661D02*
X88724Y-65685D01*
X88724Y-65685D02*
X86362Y-65685D01*
X86362Y-65685D02*
X86362Y-64622D01*
X86165Y-64661D02*
X86165Y-60094D01*
X86165Y-60094D02*
X88960Y-60094D01*
X88960Y-60094D02*
X88960Y-64661D01*
X88960Y-64661D02*
X86165Y-64661D01*
G54D20*
X87625Y-50283D02*
X87625Y-50125D01*
X87547Y-50322D02*
X87547Y-50086D01*
X88177Y-50755D02*
X88177Y-49653D01*
X86995Y-49653D02*
X86995Y-50755D01*
X88058Y-50204D02*
G75*
G03X88058Y-50204I-472J0D01*
G74*
G01*
X87508Y-50007D02*
X87508Y-50401D01*
X87508Y-50401D02*
X87704Y-50204D01*
X87704Y-50204D02*
X87508Y-50007D01*
X87901Y-50755D02*
X88176Y-50480D01*
X88058Y-50755D02*
X88176Y-50637D01*
X88176Y-50676D02*
X88098Y-50755D01*
X87979Y-50755D02*
X88176Y-50558D01*
X86917Y-49653D02*
X86917Y-50755D01*
X86917Y-50755D02*
X88255Y-50755D01*
X88255Y-50755D02*
X88255Y-49653D01*
X88255Y-49654D02*
X86917Y-49654D01*
X87625Y-56492D02*
X87625Y-56334D01*
X87547Y-56531D02*
X87547Y-56295D01*
X88177Y-56964D02*
X88177Y-55862D01*
X86995Y-55862D02*
X86995Y-56964D01*
X88058Y-56413D02*
G75*
G03X88058Y-56413I-472J0D01*
G74*
G01*
X87508Y-56216D02*
X87508Y-56610D01*
X87508Y-56610D02*
X87704Y-56413D01*
X87704Y-56413D02*
X87508Y-56216D01*
X87901Y-56964D02*
X88176Y-56689D01*
X88058Y-56964D02*
X88176Y-56846D01*
X88176Y-56885D02*
X88098Y-56964D01*
X87979Y-56964D02*
X88176Y-56767D01*
X86917Y-55862D02*
X86917Y-56964D01*
X86917Y-56964D02*
X88255Y-56964D01*
X88255Y-56964D02*
X88255Y-55862D01*
X88255Y-55863D02*
X86917Y-55863D01*
X87621Y-54370D02*
X87621Y-54212D01*
X87543Y-54409D02*
X87543Y-54173D01*
X88173Y-54842D02*
X88173Y-53740D01*
X86991Y-53740D02*
X86991Y-54842D01*
X88054Y-54291D02*
G75*
G03X88054Y-54291I-472J0D01*
G74*
G01*
X87504Y-54094D02*
X87504Y-54488D01*
X87504Y-54488D02*
X87700Y-54291D01*
X87700Y-54291D02*
X87504Y-54094D01*
X87897Y-54842D02*
X88172Y-54567D01*
X88054Y-54842D02*
X88172Y-54724D01*
X88172Y-54763D02*
X88094Y-54842D01*
X87975Y-54842D02*
X88172Y-54645D01*
X86913Y-53740D02*
X86913Y-54842D01*
X86913Y-54842D02*
X88251Y-54842D01*
X88251Y-54842D02*
X88251Y-53740D01*
X88251Y-53741D02*
X86913Y-53741D01*
X72834Y-56688D02*
X72992Y-56688D01*
X72795Y-56610D02*
X73031Y-56610D01*
X72362Y-57240D02*
X73464Y-57240D01*
X73464Y-56058D02*
X72362Y-56058D01*
X73385Y-56649D02*
G75*
G03X73385Y-56649I-472J0D01*
G74*
G01*
X73110Y-56571D02*
X72716Y-56571D01*
X72716Y-56571D02*
X72913Y-56767D01*
X72913Y-56767D02*
X73110Y-56571D01*
X72362Y-56964D02*
X72637Y-57239D01*
X72362Y-57121D02*
X72480Y-57239D01*
X72441Y-57239D02*
X72362Y-57161D01*
X72362Y-57042D02*
X72559Y-57239D01*
X73464Y-55980D02*
X72362Y-55980D01*
X72362Y-55980D02*
X72362Y-57318D01*
X72362Y-57318D02*
X73464Y-57318D01*
X73463Y-57318D02*
X73463Y-55980D01*
X87629Y-52319D02*
X87629Y-52161D01*
X87551Y-52358D02*
X87551Y-52122D01*
X88181Y-52791D02*
X88181Y-51689D01*
X86999Y-51689D02*
X86999Y-52791D01*
X88062Y-52240D02*
G75*
G03X88062Y-52240I-472J0D01*
G74*
G01*
X87512Y-52043D02*
X87512Y-52437D01*
X87512Y-52437D02*
X87708Y-52240D01*
X87708Y-52240D02*
X87512Y-52043D01*
X87905Y-52791D02*
X88180Y-52516D01*
X88062Y-52791D02*
X88180Y-52673D01*
X88180Y-52712D02*
X88102Y-52791D01*
X87983Y-52791D02*
X88180Y-52594D01*
X86921Y-51689D02*
X86921Y-52791D01*
X86921Y-52791D02*
X88259Y-52791D01*
X88259Y-52791D02*
X88259Y-51689D01*
X88259Y-51690D02*
X86921Y-51690D01*
G54D21*
X77500Y-65299D02*
X76500Y-65299D01*
X76500Y-65299D02*
X76500Y-62299D01*
X76500Y-62299D02*
X77500Y-62299D01*
X77500Y-62299D02*
X77500Y-65299D01*
X76500Y-64299D02*
X77500Y-64299D01*
X85055Y-65295D02*
X84055Y-65295D01*
X84055Y-65295D02*
X84055Y-62295D01*
X84055Y-62295D02*
X85055Y-62295D01*
X85055Y-62295D02*
X85055Y-65295D01*
X84055Y-64295D02*
X85055Y-64295D01*
G54D22*
X66488Y-54554D02*
X66488Y-58098D01*
X64716Y-54554D02*
X64716Y-58098D01*
X64716Y-58098D02*
X70464Y-58098D01*
X70464Y-58098D02*
X70464Y-54554D01*
X70464Y-54554D02*
X64716Y-54554D01*
G54D10*
X82760Y-62130D02*
X82760Y-63262D01*
X83302Y-63262D01*
X83302Y-62130D01*
X82760Y-62130D01*
X81008Y-63804D02*
X81008Y-64502D01*
X82101Y-64502D01*
X82101Y-63804D01*
X81008Y-63804D01*
X79808Y-62130D02*
X79808Y-63262D01*
X80349Y-63262D01*
X80349Y-62130D01*
X79808Y-62130D01*
X75170Y-62107D02*
X75170Y-63239D01*
X75711Y-63239D01*
X75711Y-62107D01*
X75170Y-62107D01*
X73418Y-63780D02*
X73418Y-64479D01*
X74510Y-64479D01*
X74510Y-63780D01*
X73418Y-63780D01*
X72217Y-62107D02*
X72217Y-63239D01*
X72758Y-63239D01*
X72758Y-62107D01*
X72217Y-62107D01*
X65090Y-45481D02*
X65090Y-46071D01*
X65680Y-46071D01*
X65680Y-45481D01*
X65090Y-45481D01*
X65680Y-44776D02*
G75*
G03X65680Y-44776I-295J0D01*
G74*
G01*
X66680Y-45776D02*
G75*
G03X66680Y-45776I-295J0D01*
G74*
G01*
X66680Y-44776D02*
G75*
G03X66680Y-44776I-295J0D01*
G74*
G01*
X67680Y-45776D02*
G75*
G03X67680Y-45776I-295J0D01*
G74*
G01*
X67680Y-44776D02*
G75*
G03X67680Y-44776I-295J0D01*
G74*
G01*
X68680Y-45776D02*
G75*
G03X68680Y-45776I-295J0D01*
G74*
G01*
X68680Y-44776D02*
G75*
G03X68680Y-44776I-295J0D01*
G74*
G01*
X69680Y-45776D02*
G75*
G03X69680Y-45776I-295J0D01*
G74*
G01*
X69680Y-44776D02*
G75*
G03X69680Y-44776I-295J0D01*
G74*
G01*
X70680Y-45776D02*
G75*
G03X70680Y-45776I-295J0D01*
G74*
G01*
X70680Y-44776D02*
G75*
G03X70680Y-44776I-295J0D01*
G74*
G01*
X71680Y-45776D02*
G75*
G03X71680Y-45776I-295J0D01*
G74*
G01*
X71680Y-44776D02*
G75*
G03X71680Y-44776I-295J0D01*
G74*
G01*
X72680Y-45776D02*
G75*
G03X72680Y-45776I-295J0D01*
G74*
G01*
X72680Y-44776D02*
G75*
G03X72680Y-44776I-295J0D01*
G74*
G01*
X73680Y-45776D02*
G75*
G03X73680Y-45776I-295J0D01*
G74*
G01*
X73680Y-44776D02*
G75*
G03X73680Y-44776I-295J0D01*
G74*
G01*
X74680Y-45776D02*
G75*
G03X74680Y-45776I-295J0D01*
G74*
G01*
X74680Y-44776D02*
G75*
G03X74680Y-44776I-295J0D01*
G74*
G01*
X75680Y-45776D02*
G75*
G03X75680Y-45776I-295J0D01*
G74*
G01*
X75680Y-44776D02*
G75*
G03X75680Y-44776I-295J0D01*
G74*
G01*
X76680Y-45776D02*
G75*
G03X76680Y-45776I-295J0D01*
G74*
G01*
X76680Y-44776D02*
G75*
G03X76680Y-44776I-295J0D01*
G74*
G01*
X77680Y-45776D02*
G75*
G03X77680Y-45776I-295J0D01*
G74*
G01*
X77680Y-44776D02*
G75*
G03X77680Y-44776I-295J0D01*
G74*
G01*
X84690Y-56886D02*
X84690Y-57476D01*
X85546Y-57476D01*
X85546Y-56886D01*
X84690Y-56886D01*
X84985Y-56476D02*
X85251Y-56476D01*
X84985Y-55886D02*
X85251Y-55886D01*
X85251Y-56476D02*
G75*
G03X85251Y-55886I0J295D01*
G74*
G01*
X84985Y-55886D02*
G75*
G03X84985Y-56476I0J-295D01*
G74*
G01*
X84985Y-55476D02*
X85251Y-55476D01*
X84985Y-54886D02*
X85251Y-54886D01*
X85251Y-55476D02*
G75*
G03X85251Y-54886I0J295D01*
G74*
G01*
X84985Y-54886D02*
G75*
G03X84985Y-55476I0J-295D01*
G74*
G01*
X84985Y-54476D02*
X85251Y-54476D01*
X84985Y-53886D02*
X85251Y-53886D01*
X85251Y-54476D02*
G75*
G03X85251Y-53886I0J295D01*
G74*
G01*
X84985Y-53886D02*
G75*
G03X84985Y-54476I0J-295D01*
G74*
G01*
X84985Y-53476D02*
X85251Y-53476D01*
X84985Y-52886D02*
X85251Y-52886D01*
X85251Y-53476D02*
G75*
G03X85251Y-52886I0J295D01*
G74*
G01*
X84985Y-52886D02*
G75*
G03X84985Y-53476I0J-295D01*
G74*
G01*
X84985Y-52476D02*
X85251Y-52476D01*
X84985Y-51886D02*
X85251Y-51886D01*
X85251Y-52476D02*
G75*
G03X85251Y-51886I0J295D01*
G74*
G01*
X84985Y-51886D02*
G75*
G03X84985Y-52476I0J-295D01*
G74*
G01*
X84985Y-51476D02*
X85251Y-51476D01*
X84985Y-50886D02*
X85251Y-50886D01*
X85251Y-51476D02*
G75*
G03X85251Y-50886I0J295D01*
G74*
G01*
X84985Y-50886D02*
G75*
G03X84985Y-51476I0J-295D01*
G74*
G01*
X84985Y-50476D02*
X85251Y-50476D01*
X84985Y-49886D02*
X85251Y-49886D01*
X85251Y-50476D02*
G75*
G03X85251Y-49886I0J295D01*
G74*
G01*
X84985Y-49886D02*
G75*
G03X84985Y-50476I0J-295D01*
G74*
G01*
X74085Y-46485D02*
X74085Y-47075D01*
X74675Y-47075D01*
X74675Y-46485D01*
X74085Y-46485D01*
X74675Y-47780D02*
G75*
G03X74675Y-47780I-295J0D01*
G74*
G01*
X73675Y-46780D02*
G75*
G03X73675Y-46780I-295J0D01*
G74*
G01*
X73675Y-47780D02*
G75*
G03X73675Y-47780I-295J0D01*
G74*
G01*
X72675Y-46780D02*
G75*
G03X72675Y-46780I-295J0D01*
G74*
G01*
X72675Y-47780D02*
G75*
G03X72675Y-47780I-295J0D01*
G74*
G01*
X67093Y-46486D02*
X67093Y-47076D01*
X67683Y-47076D01*
X67683Y-46486D01*
X67093Y-46486D01*
X67683Y-47781D02*
G75*
G03X67683Y-47781I-295J0D01*
G74*
G01*
X68683Y-46781D02*
G75*
G03X68683Y-46781I-295J0D01*
G74*
G01*
X68683Y-47781D02*
G75*
G03X68683Y-47781I-295J0D01*
G74*
G01*
X69683Y-46781D02*
G75*
G03X69683Y-46781I-295J0D01*
G74*
G01*
X69683Y-47781D02*
G75*
G03X69683Y-47781I-295J0D01*
G74*
G01*
X70683Y-46781D02*
G75*
G03X70683Y-46781I-295J0D01*
G74*
G01*
X70683Y-47781D02*
G75*
G03X70683Y-47781I-295J0D01*
G74*
G01*
X66090Y-46480D02*
X66090Y-47070D01*
X66680Y-47070D01*
X66680Y-46480D01*
X66090Y-46480D01*
X66680Y-47775D02*
G75*
G03X66680Y-47775I-295J0D01*
G74*
G01*
X65680Y-46775D02*
G75*
G03X65680Y-46775I-295J0D01*
G74*
G01*
X65680Y-47775D02*
G75*
G03X65680Y-47775I-295J0D01*
G74*
G01*
X76705Y-64504D02*
X76705Y-65094D01*
X77295Y-65094D01*
X77295Y-64504D01*
X76705Y-64504D01*
X77295Y-63799D02*
G75*
G03X77295Y-63799I-295J0D01*
G74*
G01*
X77295Y-62799D02*
G75*
G03X77295Y-62799I-295J0D01*
G74*
G01*
X84260Y-64500D02*
X84260Y-65090D01*
X84850Y-65090D01*
X84850Y-64500D01*
X84260Y-64500D01*
X84850Y-63795D02*
G75*
G03X84850Y-63795I-295J0D01*
G74*
G01*
X84850Y-62795D02*
G75*
G03X84850Y-62795I-295J0D01*
G74*
G01*
X69362Y-58025D02*
X68574Y-58025D01*
X69362Y-58802D02*
X68574Y-58802D01*
X68574Y-58025D02*
G75*
G03X68574Y-58802I0J-388D01*
G74*
G01*
X69362Y-58802D02*
G75*
G03X69362Y-58025I0J388D01*
G74*
G01*
X67300Y-55932D02*
X67300Y-56720D01*
X68077Y-55932D02*
X68077Y-56720D01*
X67300Y-56720D02*
G75*
G03X68077Y-56720I388J0D01*
G74*
G01*
X68077Y-55932D02*
G75*
G03X67300Y-55932I-388J0D01*
G74*
G01*
X69663Y-55834D02*
X69663Y-56819D01*
X70440Y-55834D02*
X70440Y-56819D01*
X69663Y-56819D02*
G75*
G03X70440Y-56819I388J0D01*
G74*
G01*
X70440Y-55834D02*
G75*
G03X69663Y-55834I-388J0D01*
G74*
G01*
G54D12*
X79036Y-65073D02*
X79355Y-65073D01*
X79392Y-65054D01*
X79411Y-65035D01*
X79430Y-64998D01*
X79430Y-64923D01*
X79411Y-64885D01*
X79392Y-64866D01*
X79355Y-64848D01*
X79036Y-64848D01*
X79167Y-64660D02*
X79430Y-64660D01*
X79205Y-64660D02*
X79186Y-64641D01*
X79167Y-64604D01*
X79167Y-64548D01*
X79186Y-64510D01*
X79223Y-64491D01*
X79430Y-64491D01*
X79430Y-64304D02*
X79036Y-64304D01*
X79186Y-64304D02*
X79167Y-64266D01*
X79167Y-64191D01*
X79186Y-64154D01*
X79205Y-64135D01*
X79242Y-64116D01*
X79355Y-64116D01*
X79392Y-64135D01*
X79411Y-64154D01*
X79430Y-64191D01*
X79430Y-64266D01*
X79411Y-64304D01*
X79430Y-63779D02*
X79223Y-63779D01*
X79186Y-63798D01*
X79167Y-63835D01*
X79167Y-63910D01*
X79186Y-63948D01*
X79411Y-63779D02*
X79430Y-63817D01*
X79430Y-63910D01*
X79411Y-63948D01*
X79373Y-63967D01*
X79336Y-63967D01*
X79298Y-63948D01*
X79280Y-63910D01*
X79280Y-63817D01*
X79261Y-63779D01*
X79430Y-63535D02*
X79411Y-63573D01*
X79373Y-63592D01*
X79036Y-63592D01*
X79430Y-62860D02*
X79242Y-62992D01*
X79430Y-63085D02*
X79036Y-63085D01*
X79036Y-62935D01*
X79055Y-62898D01*
X79073Y-62879D01*
X79111Y-62860D01*
X79167Y-62860D01*
X79205Y-62879D01*
X79223Y-62898D01*
X79242Y-62935D01*
X79242Y-63085D01*
X71418Y-64838D02*
X71736Y-64838D01*
X71774Y-64820D01*
X71793Y-64801D01*
X71811Y-64763D01*
X71811Y-64688D01*
X71793Y-64651D01*
X71774Y-64632D01*
X71736Y-64613D01*
X71418Y-64613D01*
X71549Y-64426D02*
X71811Y-64426D01*
X71586Y-64426D02*
X71568Y-64407D01*
X71549Y-64370D01*
X71549Y-64313D01*
X71568Y-64276D01*
X71605Y-64257D01*
X71811Y-64257D01*
X71811Y-64070D02*
X71418Y-64070D01*
X71568Y-64070D02*
X71549Y-64032D01*
X71549Y-63957D01*
X71568Y-63920D01*
X71586Y-63901D01*
X71624Y-63882D01*
X71736Y-63882D01*
X71774Y-63901D01*
X71793Y-63920D01*
X71811Y-63957D01*
X71811Y-64032D01*
X71793Y-64070D01*
X71811Y-63545D02*
X71605Y-63545D01*
X71568Y-63563D01*
X71549Y-63601D01*
X71549Y-63676D01*
X71568Y-63713D01*
X71793Y-63545D02*
X71811Y-63582D01*
X71811Y-63676D01*
X71793Y-63713D01*
X71755Y-63732D01*
X71718Y-63732D01*
X71680Y-63713D01*
X71661Y-63676D01*
X71661Y-63582D01*
X71643Y-63545D01*
X71811Y-63301D02*
X71793Y-63338D01*
X71755Y-63357D01*
X71418Y-63357D01*
X71811Y-62664D02*
X71811Y-62851D01*
X71418Y-62851D01*
G54D13*
X74554Y-49619D02*
X74872Y-49619D01*
X74910Y-49601D01*
X74929Y-49582D01*
X74948Y-49544D01*
X74948Y-49469D01*
X74929Y-49432D01*
X74910Y-49413D01*
X74872Y-49394D01*
X74554Y-49394D01*
X74554Y-49019D02*
X74554Y-49207D01*
X74741Y-49225D01*
X74722Y-49207D01*
X74704Y-49169D01*
X74704Y-49075D01*
X74722Y-49038D01*
X74741Y-49019D01*
X74779Y-49000D01*
X74872Y-49000D01*
X74910Y-49019D01*
X74929Y-49038D01*
X74948Y-49075D01*
X74948Y-49169D01*
X74929Y-49207D01*
X74910Y-49225D01*
G54D18*
X78550Y-58238D02*
X78550Y-58398D01*
X78560Y-58416D01*
X78569Y-58426D01*
X78588Y-58435D01*
X78625Y-58435D01*
X78644Y-58426D01*
X78653Y-58416D01*
X78663Y-58398D01*
X78663Y-58238D01*
X78860Y-58435D02*
X78747Y-58435D01*
X78803Y-58435D02*
X78803Y-58238D01*
X78785Y-58266D01*
X78766Y-58285D01*
X78747Y-58294D01*
G54D21*
X77882Y-47962D02*
X78215Y-48412D01*
X78215Y-47962D02*
X77882Y-48412D01*
X78668Y-48412D02*
X78382Y-48412D01*
X78525Y-48412D02*
X78525Y-47962D01*
X78477Y-48026D01*
X78430Y-48069D01*
X78382Y-48090D01*
X80990Y-53666D02*
X80990Y-53952D01*
X80990Y-53809D02*
X80540Y-53809D01*
X80605Y-53857D01*
X80648Y-53904D01*
X80669Y-53952D01*
X80583Y-53476D02*
X80562Y-53452D01*
X80540Y-53404D01*
X80540Y-53285D01*
X80562Y-53238D01*
X80583Y-53214D01*
X80626Y-53190D01*
X80669Y-53190D01*
X80733Y-53214D01*
X80990Y-53500D01*
X80990Y-53190D01*
X80948Y-52976D02*
X80969Y-52952D01*
X80990Y-52976D01*
X80969Y-53000D01*
X80948Y-52976D01*
X80990Y-52976D01*
X80583Y-52761D02*
X80562Y-52738D01*
X80540Y-52690D01*
X80540Y-52571D01*
X80562Y-52523D01*
X80583Y-52500D01*
X80626Y-52476D01*
X80669Y-52476D01*
X80733Y-52500D01*
X80990Y-52785D01*
X80990Y-52476D01*
X80733Y-52190D02*
X80712Y-52238D01*
X80690Y-52261D01*
X80648Y-52285D01*
X80626Y-52285D01*
X80583Y-52261D01*
X80562Y-52238D01*
X80540Y-52190D01*
X80540Y-52095D01*
X80562Y-52047D01*
X80583Y-52023D01*
X80626Y-52000D01*
X80648Y-52000D01*
X80690Y-52023D01*
X80712Y-52047D01*
X80733Y-52095D01*
X80733Y-52190D01*
X80755Y-52238D01*
X80776Y-52261D01*
X80819Y-52285D01*
X80905Y-52285D01*
X80948Y-52261D01*
X80969Y-52238D01*
X80990Y-52190D01*
X80990Y-52095D01*
X80969Y-52047D01*
X80948Y-52023D01*
X80905Y-52000D01*
X80819Y-52000D01*
X80776Y-52023D01*
X80755Y-52047D01*
X80733Y-52095D01*
X80733Y-51714D02*
X80712Y-51761D01*
X80690Y-51785D01*
X80648Y-51809D01*
X80626Y-51809D01*
X80583Y-51785D01*
X80562Y-51761D01*
X80540Y-51714D01*
X80540Y-51619D01*
X80562Y-51571D01*
X80583Y-51547D01*
X80626Y-51523D01*
X80648Y-51523D01*
X80690Y-51547D01*
X80712Y-51571D01*
X80733Y-51619D01*
X80733Y-51714D01*
X80755Y-51761D01*
X80776Y-51785D01*
X80819Y-51809D01*
X80905Y-51809D01*
X80948Y-51785D01*
X80969Y-51761D01*
X80990Y-51714D01*
X80990Y-51619D01*
X80969Y-51571D01*
X80948Y-51547D01*
X80905Y-51523D01*
X80819Y-51523D01*
X80776Y-51547D01*
X80755Y-51571D01*
X80733Y-51619D01*
X80990Y-51309D02*
X80540Y-51309D01*
X80862Y-51142D01*
X80540Y-50976D01*
X80990Y-50976D01*
X80990Y-50738D02*
X80540Y-50738D01*
X80755Y-50738D02*
X80755Y-50452D01*
X80990Y-50452D02*
X80540Y-50452D01*
X80690Y-50261D02*
X80690Y-50000D01*
X80990Y-50261D01*
X80990Y-50000D01*
G54D23*
G54D24*
X64896Y-49469D02*
X64896Y-49788D01*
X64915Y-49825D01*
X64934Y-49844D01*
X64971Y-49863D01*
X65046Y-49863D01*
X65084Y-49844D01*
X65103Y-49825D01*
X65121Y-49788D01*
X65121Y-49469D01*
X65290Y-49506D02*
X65309Y-49488D01*
X65346Y-49469D01*
X65440Y-49469D01*
X65478Y-49488D01*
X65497Y-49506D01*
X65515Y-49544D01*
X65515Y-49581D01*
X65497Y-49638D01*
X65271Y-49863D01*
X65515Y-49863D01*
G54D25*
X89580Y-51276D02*
X89524Y-51315D01*
X89580Y-51344D02*
X89462Y-51344D01*
X89462Y-51299D01*
X89468Y-51287D01*
X89474Y-51282D01*
X89485Y-51276D01*
X89502Y-51276D01*
X89513Y-51282D01*
X89519Y-51287D01*
X89524Y-51299D01*
X89524Y-51344D01*
X89580Y-51164D02*
X89580Y-51231D01*
X89580Y-51197D02*
X89462Y-51197D01*
X89479Y-51209D01*
X89491Y-51220D01*
X89496Y-51231D01*
X89462Y-51124D02*
X89462Y-51051D01*
X89507Y-51091D01*
X89507Y-51074D01*
X89513Y-51063D01*
X89519Y-51057D01*
X89530Y-51051D01*
X89558Y-51051D01*
X89569Y-51057D01*
X89575Y-51063D01*
X89580Y-51074D01*
X89580Y-51108D01*
X89575Y-51119D01*
X89569Y-51124D01*
X87710Y-51344D02*
X87710Y-51271D01*
X87755Y-51310D01*
X87755Y-51293D01*
X87761Y-51282D01*
X87767Y-51276D01*
X87778Y-51271D01*
X87806Y-51271D01*
X87817Y-51276D01*
X87823Y-51282D01*
X87828Y-51293D01*
X87828Y-51327D01*
X87823Y-51338D01*
X87817Y-51344D01*
X87828Y-51220D02*
X87710Y-51220D01*
X87784Y-51209D02*
X87828Y-51175D01*
X87750Y-51175D02*
X87795Y-51220D01*
X87710Y-51074D02*
X87710Y-51096D01*
X87716Y-51108D01*
X87722Y-51113D01*
X87739Y-51124D01*
X87761Y-51130D01*
X87806Y-51130D01*
X87817Y-51124D01*
X87823Y-51119D01*
X87828Y-51108D01*
X87828Y-51085D01*
X87823Y-51074D01*
X87817Y-51068D01*
X87806Y-51063D01*
X87778Y-51063D01*
X87767Y-51068D01*
X87761Y-51074D01*
X87755Y-51085D01*
X87755Y-51108D01*
X87761Y-51119D01*
X87767Y-51124D01*
X87778Y-51130D01*
X89537Y-55434D02*
X89481Y-55473D01*
X89537Y-55501D02*
X89419Y-55501D01*
X89419Y-55456D01*
X89425Y-55445D01*
X89430Y-55439D01*
X89442Y-55434D01*
X89458Y-55434D01*
X89470Y-55439D01*
X89475Y-55445D01*
X89481Y-55456D01*
X89481Y-55501D01*
X89537Y-55321D02*
X89537Y-55389D01*
X89537Y-55355D02*
X89419Y-55355D01*
X89436Y-55366D01*
X89447Y-55377D01*
X89453Y-55389D01*
X89458Y-55220D02*
X89537Y-55220D01*
X89414Y-55248D02*
X89498Y-55276D01*
X89498Y-55203D01*
X87836Y-55456D02*
X87836Y-55523D01*
X87836Y-55489D02*
X87718Y-55489D01*
X87735Y-55501D01*
X87746Y-55512D01*
X87752Y-55523D01*
X87836Y-55405D02*
X87718Y-55405D01*
X87791Y-55394D02*
X87836Y-55360D01*
X87758Y-55360D02*
X87803Y-55405D01*
X87718Y-55259D02*
X87718Y-55281D01*
X87724Y-55293D01*
X87730Y-55298D01*
X87746Y-55309D01*
X87769Y-55315D01*
X87814Y-55315D01*
X87825Y-55309D01*
X87831Y-55304D01*
X87836Y-55293D01*
X87836Y-55270D01*
X87831Y-55259D01*
X87825Y-55253D01*
X87814Y-55248D01*
X87786Y-55248D01*
X87775Y-55253D01*
X87769Y-55259D01*
X87763Y-55270D01*
X87763Y-55293D01*
X87769Y-55304D01*
X87775Y-55309D01*
X87786Y-55315D01*
X73781Y-58158D02*
X73725Y-58197D01*
X73781Y-58225D02*
X73663Y-58225D01*
X73663Y-58181D01*
X73669Y-58169D01*
X73674Y-58164D01*
X73686Y-58158D01*
X73703Y-58158D01*
X73714Y-58164D01*
X73719Y-58169D01*
X73725Y-58181D01*
X73725Y-58225D01*
X73781Y-58046D02*
X73781Y-58113D01*
X73781Y-58079D02*
X73663Y-58079D01*
X73680Y-58091D01*
X73691Y-58102D01*
X73697Y-58113D01*
X73663Y-57939D02*
X73663Y-57995D01*
X73719Y-58001D01*
X73714Y-57995D01*
X73708Y-57984D01*
X73708Y-57956D01*
X73714Y-57945D01*
X73719Y-57939D01*
X73731Y-57933D01*
X73759Y-57933D01*
X73770Y-57939D01*
X73776Y-57945D01*
X73781Y-57956D01*
X73781Y-57984D01*
X73776Y-57995D01*
X73770Y-58001D01*
X71962Y-58246D02*
X71962Y-58167D01*
X72080Y-58218D01*
X71962Y-58066D02*
X71962Y-58122D01*
X72019Y-58128D01*
X72013Y-58122D01*
X72007Y-58111D01*
X72007Y-58083D01*
X72013Y-58072D01*
X72019Y-58066D01*
X72030Y-58060D01*
X72058Y-58060D01*
X72069Y-58066D01*
X72075Y-58072D01*
X72080Y-58083D01*
X72080Y-58111D01*
X72075Y-58122D01*
X72069Y-58128D01*
X71962Y-57987D02*
X71962Y-57976D01*
X71968Y-57965D01*
X71974Y-57959D01*
X71985Y-57954D01*
X72007Y-57948D01*
X72035Y-57948D01*
X72058Y-57954D01*
X72069Y-57959D01*
X72075Y-57965D01*
X72080Y-57976D01*
X72080Y-57987D01*
X72075Y-57998D01*
X72069Y-58004D01*
X72058Y-58010D01*
X72035Y-58015D01*
X72007Y-58015D01*
X71985Y-58010D01*
X71974Y-58004D01*
X71968Y-57998D01*
X71962Y-57987D01*
X89545Y-57544D02*
X89489Y-57583D01*
X89545Y-57611D02*
X89427Y-57611D01*
X89427Y-57566D01*
X89433Y-57555D01*
X89438Y-57549D01*
X89449Y-57544D01*
X89466Y-57544D01*
X89478Y-57549D01*
X89483Y-57555D01*
X89489Y-57566D01*
X89489Y-57611D01*
X89545Y-57431D02*
X89545Y-57499D01*
X89545Y-57465D02*
X89427Y-57465D01*
X89444Y-57476D01*
X89455Y-57488D01*
X89461Y-57499D01*
X89427Y-57330D02*
X89427Y-57353D01*
X89433Y-57364D01*
X89438Y-57370D01*
X89455Y-57381D01*
X89478Y-57387D01*
X89523Y-57387D01*
X89534Y-57381D01*
X89539Y-57375D01*
X89545Y-57364D01*
X89545Y-57342D01*
X89539Y-57330D01*
X89534Y-57325D01*
X89523Y-57319D01*
X89494Y-57319D01*
X89483Y-57325D01*
X89478Y-57330D01*
X89472Y-57342D01*
X89472Y-57364D01*
X89478Y-57375D01*
X89483Y-57381D01*
X89494Y-57387D01*
X87734Y-57631D02*
X87734Y-57558D01*
X87779Y-57597D01*
X87779Y-57580D01*
X87785Y-57569D01*
X87790Y-57564D01*
X87802Y-57558D01*
X87830Y-57558D01*
X87841Y-57564D01*
X87846Y-57569D01*
X87852Y-57580D01*
X87852Y-57614D01*
X87846Y-57625D01*
X87841Y-57631D01*
X87852Y-57507D02*
X87734Y-57507D01*
X87807Y-57496D02*
X87852Y-57462D01*
X87773Y-57462D02*
X87818Y-57507D01*
X87852Y-57406D02*
X87852Y-57384D01*
X87846Y-57372D01*
X87841Y-57367D01*
X87824Y-57356D01*
X87802Y-57350D01*
X87757Y-57350D01*
X87745Y-57356D01*
X87740Y-57361D01*
X87734Y-57372D01*
X87734Y-57395D01*
X87740Y-57406D01*
X87745Y-57412D01*
X87757Y-57417D01*
X87785Y-57417D01*
X87796Y-57412D01*
X87802Y-57406D01*
X87807Y-57395D01*
X87807Y-57372D01*
X87802Y-57361D01*
X87796Y-57356D01*
X87785Y-57350D01*
X89580Y-53367D02*
X89523Y-53407D01*
X89580Y-53435D02*
X89462Y-53435D01*
X89462Y-53390D01*
X89467Y-53379D01*
X89473Y-53373D01*
X89484Y-53367D01*
X89501Y-53367D01*
X89512Y-53373D01*
X89518Y-53379D01*
X89523Y-53390D01*
X89523Y-53435D01*
X89580Y-53255D02*
X89580Y-53323D01*
X89580Y-53289D02*
X89462Y-53289D01*
X89479Y-53300D01*
X89490Y-53311D01*
X89495Y-53323D01*
X89462Y-53216D02*
X89462Y-53137D01*
X89580Y-53188D01*
X87753Y-53424D02*
X87753Y-53345D01*
X87871Y-53396D01*
X87753Y-53244D02*
X87753Y-53300D01*
X87809Y-53306D01*
X87804Y-53300D01*
X87798Y-53289D01*
X87798Y-53261D01*
X87804Y-53249D01*
X87809Y-53244D01*
X87820Y-53238D01*
X87849Y-53238D01*
X87860Y-53244D01*
X87865Y-53249D01*
X87871Y-53261D01*
X87871Y-53289D01*
X87865Y-53300D01*
X87860Y-53306D01*
X87753Y-53165D02*
X87753Y-53154D01*
X87759Y-53143D01*
X87764Y-53137D01*
X87775Y-53131D01*
X87798Y-53126D01*
X87826Y-53126D01*
X87849Y-53131D01*
X87860Y-53137D01*
X87865Y-53143D01*
X87871Y-53154D01*
X87871Y-53165D01*
X87865Y-53176D01*
X87860Y-53182D01*
X87849Y-53188D01*
X87826Y-53193D01*
X87798Y-53193D01*
X87775Y-53188D01*
X87764Y-53182D01*
X87759Y-53176D01*
X87753Y-53165D01*
X77026Y-57539D02*
X77032Y-57544D01*
X77037Y-57561D01*
X77037Y-57573D01*
X77032Y-57589D01*
X77021Y-57601D01*
X77009Y-57606D01*
X76987Y-57612D01*
X76970Y-57612D01*
X76947Y-57606D01*
X76936Y-57601D01*
X76925Y-57589D01*
X76919Y-57573D01*
X76919Y-57561D01*
X76925Y-57544D01*
X76931Y-57539D01*
X77037Y-57426D02*
X77037Y-57494D01*
X77037Y-57460D02*
X76919Y-57460D01*
X76936Y-57471D01*
X76947Y-57483D01*
X76953Y-57494D01*
X76257Y-57674D02*
X76257Y-57741D01*
X76257Y-57707D02*
X76139Y-57707D01*
X76156Y-57719D01*
X76167Y-57730D01*
X76173Y-57741D01*
X76246Y-57623D02*
X76252Y-57618D01*
X76257Y-57623D01*
X76252Y-57629D01*
X76246Y-57623D01*
X76257Y-57623D01*
X76139Y-57544D02*
X76139Y-57533D01*
X76145Y-57522D01*
X76151Y-57516D01*
X76162Y-57511D01*
X76184Y-57505D01*
X76212Y-57505D01*
X76235Y-57511D01*
X76246Y-57516D01*
X76252Y-57522D01*
X76257Y-57533D01*
X76257Y-57544D01*
X76252Y-57556D01*
X76246Y-57561D01*
X76235Y-57567D01*
X76212Y-57573D01*
X76184Y-57573D01*
X76162Y-57567D01*
X76151Y-57561D01*
X76145Y-57556D01*
X76139Y-57544D01*
X76179Y-57404D02*
X76257Y-57404D01*
X76179Y-57455D02*
X76241Y-57455D01*
X76252Y-57449D01*
X76257Y-57438D01*
X76257Y-57421D01*
X76252Y-57410D01*
X76246Y-57404D01*
X76196Y-57308D02*
X76196Y-57348D01*
X76257Y-57348D02*
X76139Y-57348D01*
X76139Y-57292D01*
X74496Y-57054D02*
X74490Y-57059D01*
X74473Y-57065D01*
X74462Y-57065D01*
X74445Y-57059D01*
X74434Y-57048D01*
X74428Y-57037D01*
X74423Y-57014D01*
X74423Y-56997D01*
X74428Y-56975D01*
X74434Y-56964D01*
X74445Y-56953D01*
X74462Y-56947D01*
X74473Y-56947D01*
X74490Y-56953D01*
X74496Y-56958D01*
X74541Y-56958D02*
X74546Y-56953D01*
X74557Y-56947D01*
X74585Y-56947D01*
X74597Y-56953D01*
X74602Y-56958D01*
X74608Y-56969D01*
X74608Y-56981D01*
X74602Y-56997D01*
X74535Y-57065D01*
X74608Y-57065D01*
X68191Y-51436D02*
X68197Y-51442D01*
X68202Y-51459D01*
X68202Y-51470D01*
X68197Y-51487D01*
X68186Y-51498D01*
X68174Y-51504D01*
X68152Y-51510D01*
X68135Y-51510D01*
X68113Y-51504D01*
X68101Y-51498D01*
X68090Y-51487D01*
X68084Y-51470D01*
X68084Y-51459D01*
X68090Y-51442D01*
X68096Y-51436D01*
X68084Y-51397D02*
X68084Y-51324D01*
X68129Y-51363D01*
X68129Y-51347D01*
X68135Y-51335D01*
X68141Y-51330D01*
X68152Y-51324D01*
X68180Y-51324D01*
X68191Y-51330D01*
X68197Y-51335D01*
X68202Y-51347D01*
X68202Y-51380D01*
X68197Y-51392D01*
X68191Y-51397D01*
X69069Y-51571D02*
X69069Y-51639D01*
X69069Y-51605D02*
X68951Y-51605D01*
X68967Y-51616D01*
X68979Y-51628D01*
X68984Y-51639D01*
X69057Y-51521D02*
X69063Y-51515D01*
X69069Y-51521D01*
X69063Y-51526D01*
X69057Y-51521D01*
X69069Y-51521D01*
X68951Y-51442D02*
X68951Y-51431D01*
X68956Y-51420D01*
X68962Y-51414D01*
X68973Y-51408D01*
X68996Y-51403D01*
X69024Y-51403D01*
X69046Y-51408D01*
X69057Y-51414D01*
X69063Y-51420D01*
X69069Y-51431D01*
X69069Y-51442D01*
X69063Y-51453D01*
X69057Y-51459D01*
X69046Y-51465D01*
X69024Y-51470D01*
X68996Y-51470D01*
X68973Y-51465D01*
X68962Y-51459D01*
X68956Y-51453D01*
X68951Y-51442D01*
X68990Y-51302D02*
X69069Y-51302D01*
X68990Y-51352D02*
X69052Y-51352D01*
X69063Y-51347D01*
X69069Y-51335D01*
X69069Y-51318D01*
X69063Y-51307D01*
X69057Y-51302D01*
X69007Y-51206D02*
X69007Y-51245D01*
X69069Y-51245D02*
X68951Y-51245D01*
X68951Y-51189D01*
X79057Y-56476D02*
X79063Y-56481D01*
X79069Y-56498D01*
X79069Y-56510D01*
X79063Y-56526D01*
X79052Y-56538D01*
X79041Y-56543D01*
X79018Y-56549D01*
X79001Y-56549D01*
X78979Y-56543D01*
X78967Y-56538D01*
X78956Y-56526D01*
X78951Y-56510D01*
X78951Y-56498D01*
X78956Y-56481D01*
X78962Y-56476D01*
X78990Y-56375D02*
X79069Y-56375D01*
X78945Y-56403D02*
X79029Y-56431D01*
X79029Y-56358D01*
X78990Y-56138D02*
X79069Y-56138D01*
X78945Y-56166D02*
X79029Y-56194D01*
X79029Y-56121D01*
X78951Y-56088D02*
X78951Y-56009D01*
X79069Y-56060D01*
X78951Y-55942D02*
X78951Y-55930D01*
X78956Y-55919D01*
X78962Y-55913D01*
X78973Y-55908D01*
X78996Y-55902D01*
X79024Y-55902D01*
X79046Y-55908D01*
X79057Y-55913D01*
X79063Y-55919D01*
X79069Y-55930D01*
X79069Y-55942D01*
X79063Y-55953D01*
X79057Y-55958D01*
X79046Y-55964D01*
X79024Y-55970D01*
X78996Y-55970D01*
X78973Y-55964D01*
X78962Y-55958D01*
X78956Y-55953D01*
X78951Y-55942D01*
X78990Y-55852D02*
X79108Y-55852D01*
X78996Y-55852D02*
X78990Y-55840D01*
X78990Y-55818D01*
X78996Y-55807D01*
X79001Y-55801D01*
X79012Y-55795D01*
X79046Y-55795D01*
X79057Y-55801D01*
X79063Y-55807D01*
X79069Y-55818D01*
X79069Y-55840D01*
X79063Y-55852D01*
X79007Y-55706D02*
X79007Y-55745D01*
X79069Y-55745D02*
X78951Y-55745D01*
X78951Y-55689D01*
X68244Y-49970D02*
X68250Y-49976D01*
X68255Y-49992D01*
X68255Y-50004D01*
X68250Y-50021D01*
X68239Y-50032D01*
X68227Y-50037D01*
X68205Y-50043D01*
X68188Y-50043D01*
X68165Y-50037D01*
X68154Y-50032D01*
X68143Y-50021D01*
X68137Y-50004D01*
X68137Y-49992D01*
X68143Y-49976D01*
X68149Y-49970D01*
X68137Y-49863D02*
X68137Y-49919D01*
X68194Y-49925D01*
X68188Y-49919D01*
X68182Y-49908D01*
X68182Y-49880D01*
X68188Y-49869D01*
X68194Y-49863D01*
X68205Y-49858D01*
X68233Y-49858D01*
X68244Y-49863D01*
X68250Y-49869D01*
X68255Y-49880D01*
X68255Y-49908D01*
X68250Y-49919D01*
X68244Y-49925D01*
X69035Y-50077D02*
X69035Y-50144D01*
X69035Y-50110D02*
X68917Y-50110D01*
X68934Y-50122D01*
X68945Y-50133D01*
X68951Y-50144D01*
X68917Y-50004D02*
X68917Y-49992D01*
X68923Y-49981D01*
X68929Y-49976D01*
X68940Y-49970D01*
X68962Y-49964D01*
X68990Y-49964D01*
X69013Y-49970D01*
X69024Y-49976D01*
X69030Y-49981D01*
X69035Y-49992D01*
X69035Y-50004D01*
X69030Y-50015D01*
X69024Y-50021D01*
X69013Y-50026D01*
X68990Y-50032D01*
X68962Y-50032D01*
X68940Y-50026D01*
X68929Y-50021D01*
X68923Y-50015D01*
X68917Y-50004D01*
X68957Y-49863D02*
X69035Y-49863D01*
X68957Y-49914D02*
X69019Y-49914D01*
X69030Y-49908D01*
X69035Y-49897D01*
X69035Y-49880D01*
X69030Y-49869D01*
X69024Y-49863D01*
X68974Y-49768D02*
X68974Y-49807D01*
X69035Y-49807D02*
X68917Y-49807D01*
X68917Y-49751D01*
X73877Y-53959D02*
X73872Y-53965D01*
X73855Y-53970D01*
X73844Y-53970D01*
X73827Y-53965D01*
X73816Y-53953D01*
X73810Y-53942D01*
X73804Y-53920D01*
X73804Y-53903D01*
X73810Y-53880D01*
X73816Y-53869D01*
X73827Y-53858D01*
X73844Y-53852D01*
X73855Y-53852D01*
X73872Y-53858D01*
X73877Y-53863D01*
X73979Y-53852D02*
X73956Y-53852D01*
X73945Y-53858D01*
X73939Y-53863D01*
X73928Y-53880D01*
X73922Y-53903D01*
X73922Y-53948D01*
X73928Y-53959D01*
X73934Y-53965D01*
X73945Y-53970D01*
X73967Y-53970D01*
X73979Y-53965D01*
X73984Y-53959D01*
X73990Y-53948D01*
X73990Y-53920D01*
X73984Y-53908D01*
X73979Y-53903D01*
X73967Y-53897D01*
X73945Y-53897D01*
X73934Y-53903D01*
X73928Y-53908D01*
X73922Y-53920D01*
X74285Y-53844D02*
X74291Y-53838D01*
X74302Y-53833D01*
X74330Y-53833D01*
X74342Y-53838D01*
X74347Y-53844D01*
X74353Y-53855D01*
X74353Y-53866D01*
X74347Y-53883D01*
X74280Y-53951D01*
X74353Y-53951D01*
X74403Y-53939D02*
X74409Y-53945D01*
X74403Y-53951D01*
X74398Y-53945D01*
X74403Y-53939D01*
X74403Y-53951D01*
X74454Y-53844D02*
X74460Y-53838D01*
X74471Y-53833D01*
X74499Y-53833D01*
X74510Y-53838D01*
X74516Y-53844D01*
X74521Y-53855D01*
X74521Y-53866D01*
X74516Y-53883D01*
X74448Y-53951D01*
X74521Y-53951D01*
X74623Y-53872D02*
X74623Y-53951D01*
X74572Y-53872D02*
X74572Y-53934D01*
X74578Y-53945D01*
X74589Y-53951D01*
X74606Y-53951D01*
X74617Y-53945D01*
X74623Y-53939D01*
X74718Y-53889D02*
X74679Y-53889D01*
X74679Y-53951D02*
X74679Y-53833D01*
X74735Y-53833D01*
X79880Y-57559D02*
X79886Y-57564D01*
X79892Y-57581D01*
X79892Y-57592D01*
X79886Y-57609D01*
X79875Y-57620D01*
X79864Y-57626D01*
X79841Y-57632D01*
X79824Y-57632D01*
X79802Y-57626D01*
X79791Y-57620D01*
X79779Y-57609D01*
X79774Y-57592D01*
X79774Y-57581D01*
X79779Y-57564D01*
X79785Y-57559D01*
X79774Y-57519D02*
X79774Y-57441D01*
X79892Y-57491D01*
X79112Y-57693D02*
X79112Y-57761D01*
X79112Y-57727D02*
X78994Y-57727D01*
X79011Y-57738D01*
X79022Y-57750D01*
X79027Y-57761D01*
X79100Y-57643D02*
X79106Y-57637D01*
X79112Y-57643D01*
X79106Y-57648D01*
X79100Y-57643D01*
X79112Y-57643D01*
X78994Y-57564D02*
X78994Y-57553D01*
X78999Y-57542D01*
X79005Y-57536D01*
X79016Y-57530D01*
X79039Y-57525D01*
X79067Y-57525D01*
X79089Y-57530D01*
X79100Y-57536D01*
X79106Y-57542D01*
X79112Y-57553D01*
X79112Y-57564D01*
X79106Y-57575D01*
X79100Y-57581D01*
X79089Y-57587D01*
X79067Y-57592D01*
X79039Y-57592D01*
X79016Y-57587D01*
X79005Y-57581D01*
X78999Y-57575D01*
X78994Y-57564D01*
X79033Y-57424D02*
X79112Y-57424D01*
X79033Y-57474D02*
X79095Y-57474D01*
X79106Y-57469D01*
X79112Y-57457D01*
X79112Y-57441D01*
X79106Y-57429D01*
X79100Y-57424D01*
X79050Y-57328D02*
X79050Y-57367D01*
X79112Y-57367D02*
X78994Y-57367D01*
X78994Y-57311D01*
X72483Y-53939D02*
X72477Y-53945D01*
X72460Y-53951D01*
X72449Y-53951D01*
X72432Y-53945D01*
X72421Y-53934D01*
X72415Y-53922D01*
X72410Y-53900D01*
X72410Y-53883D01*
X72415Y-53861D01*
X72421Y-53849D01*
X72432Y-53838D01*
X72449Y-53833D01*
X72460Y-53833D01*
X72477Y-53838D01*
X72483Y-53844D01*
X72595Y-53951D02*
X72528Y-53951D01*
X72561Y-53951D02*
X72561Y-53833D01*
X72550Y-53849D01*
X72539Y-53861D01*
X72528Y-53866D01*
X72668Y-53833D02*
X72679Y-53833D01*
X72691Y-53838D01*
X72696Y-53844D01*
X72702Y-53855D01*
X72707Y-53877D01*
X72707Y-53906D01*
X72702Y-53928D01*
X72696Y-53939D01*
X72691Y-53945D01*
X72679Y-53951D01*
X72668Y-53951D01*
X72657Y-53945D01*
X72651Y-53939D01*
X72646Y-53928D01*
X72640Y-53906D01*
X72640Y-53877D01*
X72646Y-53855D01*
X72651Y-53844D01*
X72657Y-53838D01*
X72668Y-53833D01*
X73115Y-53951D02*
X73048Y-53951D01*
X73082Y-53951D02*
X73082Y-53833D01*
X73071Y-53849D01*
X73059Y-53861D01*
X73048Y-53866D01*
X73189Y-53833D02*
X73200Y-53833D01*
X73211Y-53838D01*
X73217Y-53844D01*
X73222Y-53855D01*
X73228Y-53877D01*
X73228Y-53906D01*
X73222Y-53928D01*
X73217Y-53939D01*
X73211Y-53945D01*
X73200Y-53951D01*
X73189Y-53951D01*
X73177Y-53945D01*
X73172Y-53939D01*
X73166Y-53928D01*
X73160Y-53906D01*
X73160Y-53877D01*
X73166Y-53855D01*
X73172Y-53844D01*
X73177Y-53838D01*
X73189Y-53833D01*
X73301Y-53833D02*
X73312Y-53833D01*
X73323Y-53838D01*
X73329Y-53844D01*
X73335Y-53855D01*
X73340Y-53877D01*
X73340Y-53906D01*
X73335Y-53928D01*
X73329Y-53939D01*
X73323Y-53945D01*
X73312Y-53951D01*
X73301Y-53951D01*
X73290Y-53945D01*
X73284Y-53939D01*
X73278Y-53928D01*
X73273Y-53906D01*
X73273Y-53877D01*
X73278Y-53855D01*
X73284Y-53844D01*
X73290Y-53838D01*
X73301Y-53833D01*
X73391Y-53872D02*
X73391Y-53951D01*
X73391Y-53883D02*
X73396Y-53877D01*
X73408Y-53872D01*
X73425Y-53872D01*
X73436Y-53877D01*
X73441Y-53889D01*
X73441Y-53951D01*
X80002Y-58841D02*
X79997Y-58846D01*
X79980Y-58852D01*
X79969Y-58852D01*
X79952Y-58846D01*
X79941Y-58835D01*
X79935Y-58824D01*
X79929Y-58802D01*
X79929Y-58785D01*
X79935Y-58762D01*
X79941Y-58751D01*
X79952Y-58740D01*
X79969Y-58734D01*
X79980Y-58734D01*
X79997Y-58740D01*
X80002Y-58745D01*
X80115Y-58852D02*
X80047Y-58852D01*
X80081Y-58852D02*
X80081Y-58734D01*
X80070Y-58751D01*
X80059Y-58762D01*
X80047Y-58768D01*
X80227Y-58852D02*
X80160Y-58852D01*
X80193Y-58852D02*
X80193Y-58734D01*
X80182Y-58751D01*
X80171Y-58762D01*
X80160Y-58768D01*
X79738Y-59751D02*
X79738Y-59818D01*
X79738Y-59785D02*
X79620Y-59785D01*
X79637Y-59796D01*
X79648Y-59807D01*
X79653Y-59818D01*
X79620Y-59678D02*
X79620Y-59667D01*
X79625Y-59655D01*
X79631Y-59650D01*
X79642Y-59644D01*
X79665Y-59639D01*
X79693Y-59639D01*
X79715Y-59644D01*
X79726Y-59650D01*
X79732Y-59655D01*
X79738Y-59667D01*
X79738Y-59678D01*
X79732Y-59689D01*
X79726Y-59695D01*
X79715Y-59700D01*
X79693Y-59706D01*
X79665Y-59706D01*
X79642Y-59700D01*
X79631Y-59695D01*
X79625Y-59689D01*
X79620Y-59678D01*
X79620Y-59566D02*
X79620Y-59554D01*
X79625Y-59543D01*
X79631Y-59537D01*
X79642Y-59532D01*
X79665Y-59526D01*
X79693Y-59526D01*
X79715Y-59532D01*
X79726Y-59537D01*
X79732Y-59543D01*
X79738Y-59554D01*
X79738Y-59566D01*
X79732Y-59577D01*
X79726Y-59582D01*
X79715Y-59588D01*
X79693Y-59594D01*
X79665Y-59594D01*
X79642Y-59588D01*
X79631Y-59582D01*
X79625Y-59577D01*
X79620Y-59566D01*
X79659Y-59476D02*
X79738Y-59476D01*
X79670Y-59476D02*
X79665Y-59470D01*
X79659Y-59459D01*
X79659Y-59442D01*
X79665Y-59431D01*
X79676Y-59425D01*
X79738Y-59425D01*
X79676Y-59330D02*
X79676Y-59369D01*
X79738Y-59369D02*
X79620Y-59369D01*
X79620Y-59313D01*
X80888Y-58801D02*
X80883Y-58807D01*
X80866Y-58813D01*
X80854Y-58813D01*
X80838Y-58807D01*
X80826Y-58796D01*
X80821Y-58785D01*
X80815Y-58762D01*
X80815Y-58745D01*
X80821Y-58723D01*
X80826Y-58712D01*
X80838Y-58700D01*
X80854Y-58695D01*
X80866Y-58695D01*
X80883Y-58700D01*
X80888Y-58706D01*
X81001Y-58813D02*
X80933Y-58813D01*
X80967Y-58813D02*
X80967Y-58695D01*
X80956Y-58712D01*
X80944Y-58723D01*
X80933Y-58728D01*
X81046Y-58706D02*
X81051Y-58700D01*
X81062Y-58695D01*
X81090Y-58695D01*
X81102Y-58700D01*
X81107Y-58706D01*
X81113Y-58717D01*
X81113Y-58728D01*
X81107Y-58745D01*
X81040Y-58813D01*
X81113Y-58813D01*
X80614Y-59675D02*
X80614Y-59743D01*
X80614Y-59709D02*
X80496Y-59709D01*
X80513Y-59720D01*
X80524Y-59731D01*
X80529Y-59743D01*
X80496Y-59602D02*
X80496Y-59591D01*
X80501Y-59580D01*
X80507Y-59574D01*
X80518Y-59568D01*
X80541Y-59563D01*
X80569Y-59563D01*
X80591Y-59568D01*
X80602Y-59574D01*
X80608Y-59580D01*
X80614Y-59591D01*
X80614Y-59602D01*
X80608Y-59613D01*
X80602Y-59619D01*
X80591Y-59625D01*
X80569Y-59630D01*
X80541Y-59630D01*
X80518Y-59625D01*
X80507Y-59619D01*
X80501Y-59613D01*
X80496Y-59602D01*
X80535Y-59462D02*
X80614Y-59462D01*
X80535Y-59512D02*
X80597Y-59512D01*
X80608Y-59507D01*
X80614Y-59495D01*
X80614Y-59478D01*
X80608Y-59467D01*
X80602Y-59462D01*
X80552Y-59366D02*
X80552Y-59405D01*
X80614Y-59405D02*
X80496Y-59405D01*
X80496Y-59349D01*
X73349Y-48703D02*
X73343Y-48709D01*
X73326Y-48714D01*
X73315Y-48714D01*
X73298Y-48709D01*
X73287Y-48697D01*
X73281Y-48686D01*
X73276Y-48664D01*
X73276Y-48647D01*
X73281Y-48624D01*
X73287Y-48613D01*
X73298Y-48602D01*
X73315Y-48596D01*
X73326Y-48596D01*
X73343Y-48602D01*
X73349Y-48608D01*
X73461Y-48714D02*
X73394Y-48714D01*
X73428Y-48714D02*
X73428Y-48596D01*
X73416Y-48613D01*
X73405Y-48624D01*
X73394Y-48630D01*
X73501Y-48596D02*
X73574Y-48596D01*
X73534Y-48641D01*
X73551Y-48641D01*
X73562Y-48647D01*
X73568Y-48652D01*
X73574Y-48664D01*
X73574Y-48692D01*
X73568Y-48703D01*
X73562Y-48709D01*
X73551Y-48714D01*
X73517Y-48714D01*
X73506Y-48709D01*
X73501Y-48703D01*
X73273Y-49541D02*
X73206Y-49541D01*
X73239Y-49541D02*
X73239Y-49423D01*
X73228Y-49440D01*
X73217Y-49451D01*
X73206Y-49457D01*
X73346Y-49423D02*
X73357Y-49423D01*
X73368Y-49429D01*
X73374Y-49434D01*
X73380Y-49446D01*
X73385Y-49468D01*
X73385Y-49496D01*
X73380Y-49519D01*
X73374Y-49530D01*
X73368Y-49535D01*
X73357Y-49541D01*
X73346Y-49541D01*
X73335Y-49535D01*
X73329Y-49530D01*
X73324Y-49519D01*
X73318Y-49496D01*
X73318Y-49468D01*
X73324Y-49446D01*
X73329Y-49434D01*
X73335Y-49429D01*
X73346Y-49423D01*
X73458Y-49423D02*
X73470Y-49423D01*
X73481Y-49429D01*
X73486Y-49434D01*
X73492Y-49446D01*
X73498Y-49468D01*
X73498Y-49496D01*
X73492Y-49519D01*
X73486Y-49530D01*
X73481Y-49535D01*
X73470Y-49541D01*
X73458Y-49541D01*
X73447Y-49535D01*
X73442Y-49530D01*
X73436Y-49519D01*
X73430Y-49496D01*
X73430Y-49468D01*
X73436Y-49446D01*
X73442Y-49434D01*
X73447Y-49429D01*
X73458Y-49423D01*
X73548Y-49462D02*
X73548Y-49541D01*
X73548Y-49474D02*
X73554Y-49468D01*
X73565Y-49462D01*
X73582Y-49462D01*
X73593Y-49468D01*
X73599Y-49479D01*
X73599Y-49541D01*
X79490Y-51186D02*
X79496Y-51191D01*
X79501Y-51208D01*
X79501Y-51219D01*
X79496Y-51236D01*
X79485Y-51247D01*
X79473Y-51253D01*
X79451Y-51259D01*
X79434Y-51259D01*
X79412Y-51253D01*
X79400Y-51247D01*
X79389Y-51236D01*
X79383Y-51219D01*
X79383Y-51208D01*
X79389Y-51191D01*
X79395Y-51186D01*
X79501Y-51073D02*
X79501Y-51141D01*
X79501Y-51107D02*
X79383Y-51107D01*
X79400Y-51118D01*
X79412Y-51129D01*
X79417Y-51141D01*
X79423Y-50972D02*
X79501Y-50972D01*
X79378Y-51000D02*
X79462Y-51028D01*
X79462Y-50955D01*
X80368Y-51268D02*
X80368Y-51335D01*
X80368Y-51301D02*
X80250Y-51301D01*
X80267Y-51313D01*
X80278Y-51324D01*
X80284Y-51335D01*
X80300Y-51200D02*
X80295Y-51211D01*
X80289Y-51217D01*
X80278Y-51223D01*
X80272Y-51223D01*
X80261Y-51217D01*
X80255Y-51211D01*
X80250Y-51200D01*
X80250Y-51178D01*
X80255Y-51167D01*
X80261Y-51161D01*
X80272Y-51155D01*
X80278Y-51155D01*
X80289Y-51161D01*
X80295Y-51167D01*
X80300Y-51178D01*
X80300Y-51200D01*
X80306Y-51211D01*
X80312Y-51217D01*
X80323Y-51223D01*
X80345Y-51223D01*
X80357Y-51217D01*
X80362Y-51211D01*
X80368Y-51200D01*
X80368Y-51178D01*
X80362Y-51167D01*
X80357Y-51161D01*
X80345Y-51155D01*
X80323Y-51155D01*
X80312Y-51161D01*
X80306Y-51167D01*
X80300Y-51178D01*
X80289Y-51105D02*
X80407Y-51105D01*
X80295Y-51105D02*
X80289Y-51093D01*
X80289Y-51071D01*
X80295Y-51060D01*
X80300Y-51054D01*
X80312Y-51049D01*
X80345Y-51049D01*
X80357Y-51054D01*
X80362Y-51060D01*
X80368Y-51071D01*
X80368Y-51093D01*
X80362Y-51105D01*
X80306Y-50959D02*
X80306Y-50998D01*
X80368Y-50998D02*
X80250Y-50998D01*
X80250Y-50942D01*
X77050Y-54524D02*
X77055Y-54530D01*
X77061Y-54547D01*
X77061Y-54558D01*
X77055Y-54575D01*
X77044Y-54586D01*
X77033Y-54592D01*
X77010Y-54597D01*
X76993Y-54597D01*
X76971Y-54592D01*
X76960Y-54586D01*
X76948Y-54575D01*
X76943Y-54558D01*
X76943Y-54547D01*
X76948Y-54530D01*
X76954Y-54524D01*
X77061Y-54412D02*
X77061Y-54479D01*
X77061Y-54446D02*
X76943Y-54446D01*
X76960Y-54457D01*
X76971Y-54468D01*
X76976Y-54479D01*
X76943Y-54305D02*
X76943Y-54361D01*
X76999Y-54367D01*
X76993Y-54361D01*
X76988Y-54350D01*
X76988Y-54322D01*
X76993Y-54311D01*
X76999Y-54305D01*
X77010Y-54299D01*
X77038Y-54299D01*
X77050Y-54305D01*
X77055Y-54311D01*
X77061Y-54322D01*
X77061Y-54350D01*
X77055Y-54361D01*
X77050Y-54367D01*
X75447Y-54516D02*
X75447Y-54583D01*
X75447Y-54549D02*
X75329Y-54549D01*
X75345Y-54561D01*
X75357Y-54572D01*
X75362Y-54583D01*
X75329Y-54443D02*
X75329Y-54431D01*
X75334Y-54420D01*
X75340Y-54415D01*
X75351Y-54409D01*
X75374Y-54403D01*
X75402Y-54403D01*
X75424Y-54409D01*
X75435Y-54415D01*
X75441Y-54420D01*
X75447Y-54431D01*
X75447Y-54443D01*
X75441Y-54454D01*
X75435Y-54460D01*
X75424Y-54465D01*
X75402Y-54471D01*
X75374Y-54471D01*
X75351Y-54465D01*
X75340Y-54460D01*
X75334Y-54454D01*
X75329Y-54443D01*
X75368Y-54302D02*
X75447Y-54302D01*
X75368Y-54353D02*
X75430Y-54353D01*
X75441Y-54347D01*
X75447Y-54336D01*
X75447Y-54319D01*
X75441Y-54308D01*
X75435Y-54302D01*
X75385Y-54207D02*
X75385Y-54246D01*
X75447Y-54246D02*
X75329Y-54246D01*
X75329Y-54190D01*
X77050Y-53697D02*
X77055Y-53703D01*
X77061Y-53720D01*
X77061Y-53731D01*
X77055Y-53748D01*
X77044Y-53759D01*
X77033Y-53765D01*
X77010Y-53770D01*
X76993Y-53770D01*
X76971Y-53765D01*
X76960Y-53759D01*
X76948Y-53748D01*
X76943Y-53731D01*
X76943Y-53720D01*
X76948Y-53703D01*
X76954Y-53697D01*
X77061Y-53585D02*
X77061Y-53652D01*
X77061Y-53619D02*
X76943Y-53619D01*
X76960Y-53630D01*
X76971Y-53641D01*
X76976Y-53652D01*
X76943Y-53484D02*
X76943Y-53506D01*
X76948Y-53518D01*
X76954Y-53523D01*
X76971Y-53534D01*
X76993Y-53540D01*
X77038Y-53540D01*
X77050Y-53534D01*
X77055Y-53529D01*
X77061Y-53518D01*
X77061Y-53495D01*
X77055Y-53484D01*
X77050Y-53478D01*
X77038Y-53473D01*
X77010Y-53473D01*
X76999Y-53478D01*
X76993Y-53484D01*
X76988Y-53495D01*
X76988Y-53518D01*
X76993Y-53529D01*
X76999Y-53534D01*
X77010Y-53540D01*
X75427Y-53734D02*
X75427Y-53801D01*
X75427Y-53768D02*
X75309Y-53768D01*
X75326Y-53779D01*
X75337Y-53790D01*
X75343Y-53801D01*
X75309Y-53661D02*
X75309Y-53650D01*
X75315Y-53638D01*
X75320Y-53633D01*
X75331Y-53627D01*
X75354Y-53622D01*
X75382Y-53622D01*
X75404Y-53627D01*
X75416Y-53633D01*
X75421Y-53638D01*
X75427Y-53650D01*
X75427Y-53661D01*
X75421Y-53672D01*
X75416Y-53678D01*
X75404Y-53683D01*
X75382Y-53689D01*
X75354Y-53689D01*
X75331Y-53683D01*
X75320Y-53678D01*
X75315Y-53672D01*
X75309Y-53661D01*
X75309Y-53548D02*
X75309Y-53537D01*
X75315Y-53526D01*
X75320Y-53520D01*
X75331Y-53515D01*
X75354Y-53509D01*
X75382Y-53509D01*
X75404Y-53515D01*
X75416Y-53520D01*
X75421Y-53526D01*
X75427Y-53537D01*
X75427Y-53548D01*
X75421Y-53560D01*
X75416Y-53565D01*
X75404Y-53571D01*
X75382Y-53577D01*
X75354Y-53577D01*
X75331Y-53571D01*
X75320Y-53565D01*
X75315Y-53560D01*
X75309Y-53548D01*
X75348Y-53459D02*
X75427Y-53459D01*
X75359Y-53459D02*
X75354Y-53453D01*
X75348Y-53442D01*
X75348Y-53425D01*
X75354Y-53414D01*
X75365Y-53408D01*
X75427Y-53408D01*
X79490Y-52733D02*
X79496Y-52738D01*
X79502Y-52755D01*
X79502Y-52767D01*
X79496Y-52783D01*
X79485Y-52795D01*
X79474Y-52800D01*
X79451Y-52806D01*
X79434Y-52806D01*
X79412Y-52800D01*
X79401Y-52795D01*
X79389Y-52783D01*
X79384Y-52767D01*
X79384Y-52755D01*
X79389Y-52738D01*
X79395Y-52733D01*
X79502Y-52620D02*
X79502Y-52688D01*
X79502Y-52654D02*
X79384Y-52654D01*
X79401Y-52665D01*
X79412Y-52677D01*
X79417Y-52688D01*
X79384Y-52581D02*
X79384Y-52502D01*
X79502Y-52553D01*
X80407Y-52783D02*
X80407Y-52851D01*
X80407Y-52817D02*
X80289Y-52817D01*
X80306Y-52828D01*
X80317Y-52840D01*
X80323Y-52851D01*
X80340Y-52716D02*
X80334Y-52727D01*
X80329Y-52733D01*
X80317Y-52738D01*
X80312Y-52738D01*
X80300Y-52733D01*
X80295Y-52727D01*
X80289Y-52716D01*
X80289Y-52694D01*
X80295Y-52682D01*
X80300Y-52677D01*
X80312Y-52671D01*
X80317Y-52671D01*
X80329Y-52677D01*
X80334Y-52682D01*
X80340Y-52694D01*
X80340Y-52716D01*
X80345Y-52727D01*
X80351Y-52733D01*
X80362Y-52738D01*
X80385Y-52738D01*
X80396Y-52733D01*
X80402Y-52727D01*
X80407Y-52716D01*
X80407Y-52694D01*
X80402Y-52682D01*
X80396Y-52677D01*
X80385Y-52671D01*
X80362Y-52671D01*
X80351Y-52677D01*
X80345Y-52682D01*
X80340Y-52694D01*
X80329Y-52620D02*
X80447Y-52620D01*
X80334Y-52620D02*
X80329Y-52609D01*
X80329Y-52587D01*
X80334Y-52576D01*
X80340Y-52570D01*
X80351Y-52564D01*
X80385Y-52564D01*
X80396Y-52570D01*
X80402Y-52576D01*
X80407Y-52587D01*
X80407Y-52609D01*
X80402Y-52620D01*
X80345Y-52474D02*
X80345Y-52514D01*
X80407Y-52514D02*
X80289Y-52514D01*
X80289Y-52458D01*
X74038Y-60253D02*
X74043Y-60258D01*
X74049Y-60275D01*
X74049Y-60286D01*
X74043Y-60303D01*
X74032Y-60314D01*
X74021Y-60320D01*
X73998Y-60326D01*
X73982Y-60326D01*
X73959Y-60320D01*
X73948Y-60314D01*
X73937Y-60303D01*
X73931Y-60286D01*
X73931Y-60275D01*
X73937Y-60258D01*
X73942Y-60253D01*
X74049Y-60140D02*
X74049Y-60208D01*
X74049Y-60174D02*
X73931Y-60174D01*
X73948Y-60185D01*
X73959Y-60196D01*
X73965Y-60208D01*
X73982Y-60073D02*
X73976Y-60084D01*
X73970Y-60090D01*
X73959Y-60095D01*
X73953Y-60095D01*
X73942Y-60090D01*
X73937Y-60084D01*
X73931Y-60073D01*
X73931Y-60050D01*
X73937Y-60039D01*
X73942Y-60033D01*
X73953Y-60028D01*
X73959Y-60028D01*
X73970Y-60033D01*
X73976Y-60039D01*
X73982Y-60050D01*
X73982Y-60073D01*
X73987Y-60084D01*
X73993Y-60090D01*
X74004Y-60095D01*
X74026Y-60095D01*
X74038Y-60090D01*
X74043Y-60084D01*
X74049Y-60073D01*
X74049Y-60050D01*
X74043Y-60039D01*
X74038Y-60033D01*
X74026Y-60028D01*
X74004Y-60028D01*
X73993Y-60033D01*
X73987Y-60039D01*
X73982Y-60050D01*
X74049Y-59847D02*
X74049Y-59915D01*
X74049Y-59881D02*
X73931Y-59881D01*
X73948Y-59892D01*
X73959Y-59904D01*
X73965Y-59915D01*
X73931Y-59774D02*
X73931Y-59763D01*
X73937Y-59752D01*
X73942Y-59746D01*
X73953Y-59741D01*
X73976Y-59735D01*
X74004Y-59735D01*
X74026Y-59741D01*
X74038Y-59746D01*
X74043Y-59752D01*
X74049Y-59763D01*
X74049Y-59774D01*
X74043Y-59786D01*
X74038Y-59791D01*
X74026Y-59797D01*
X74004Y-59803D01*
X73976Y-59803D01*
X73953Y-59797D01*
X73942Y-59791D01*
X73937Y-59786D01*
X73931Y-59774D01*
X73931Y-59662D02*
X73931Y-59651D01*
X73937Y-59640D01*
X73942Y-59634D01*
X73953Y-59628D01*
X73976Y-59623D01*
X74004Y-59623D01*
X74026Y-59628D01*
X74038Y-59634D01*
X74043Y-59640D01*
X74049Y-59651D01*
X74049Y-59662D01*
X74043Y-59673D01*
X74038Y-59679D01*
X74026Y-59685D01*
X74004Y-59690D01*
X73976Y-59690D01*
X73953Y-59685D01*
X73942Y-59679D01*
X73937Y-59673D01*
X73931Y-59662D01*
X73970Y-59572D02*
X74049Y-59572D01*
X73982Y-59572D02*
X73976Y-59567D01*
X73970Y-59555D01*
X73970Y-59538D01*
X73976Y-59527D01*
X73987Y-59522D01*
X74049Y-59522D01*
X73987Y-59426D02*
X73987Y-59465D01*
X74049Y-59465D02*
X73931Y-59465D01*
X73931Y-59409D01*
X74953Y-60343D02*
X74958Y-60349D01*
X74964Y-60366D01*
X74964Y-60377D01*
X74958Y-60394D01*
X74947Y-60405D01*
X74936Y-60411D01*
X74913Y-60416D01*
X74897Y-60416D01*
X74874Y-60411D01*
X74863Y-60405D01*
X74852Y-60394D01*
X74846Y-60377D01*
X74846Y-60366D01*
X74852Y-60349D01*
X74857Y-60343D01*
X74964Y-60231D02*
X74964Y-60298D01*
X74964Y-60264D02*
X74846Y-60264D01*
X74863Y-60276D01*
X74874Y-60287D01*
X74880Y-60298D01*
X74964Y-60175D02*
X74964Y-60152D01*
X74958Y-60141D01*
X74953Y-60135D01*
X74936Y-60124D01*
X74913Y-60118D01*
X74869Y-60118D01*
X74857Y-60124D01*
X74852Y-60130D01*
X74846Y-60141D01*
X74846Y-60163D01*
X74852Y-60175D01*
X74857Y-60180D01*
X74869Y-60186D01*
X74897Y-60186D01*
X74908Y-60180D01*
X74913Y-60175D01*
X74919Y-60163D01*
X74919Y-60141D01*
X74913Y-60130D01*
X74908Y-60124D01*
X74897Y-60118D01*
X75801Y-60382D02*
X75801Y-60449D01*
X75801Y-60416D02*
X75683Y-60416D01*
X75700Y-60427D01*
X75711Y-60438D01*
X75717Y-60449D01*
X75683Y-60309D02*
X75683Y-60298D01*
X75689Y-60286D01*
X75694Y-60281D01*
X75705Y-60275D01*
X75728Y-60269D01*
X75756Y-60269D01*
X75778Y-60275D01*
X75790Y-60281D01*
X75795Y-60286D01*
X75801Y-60298D01*
X75801Y-60309D01*
X75795Y-60320D01*
X75790Y-60326D01*
X75778Y-60331D01*
X75756Y-60337D01*
X75728Y-60337D01*
X75705Y-60331D01*
X75694Y-60326D01*
X75689Y-60320D01*
X75683Y-60309D01*
X75722Y-60168D02*
X75801Y-60168D01*
X75722Y-60219D02*
X75784Y-60219D01*
X75795Y-60213D01*
X75801Y-60202D01*
X75801Y-60185D01*
X75795Y-60174D01*
X75790Y-60168D01*
X75739Y-60073D02*
X75739Y-60112D01*
X75801Y-60112D02*
X75683Y-60112D01*
X75683Y-60056D01*
G54D13*
X71767Y-55206D02*
X71767Y-55347D01*
X71472Y-55347D01*
X71767Y-54953D02*
X71767Y-55122D01*
X71767Y-55038D02*
X71472Y-55038D01*
X71514Y-55066D01*
X71542Y-55094D01*
X71556Y-55122D01*
X72141Y-55580D02*
X72141Y-55748D01*
X72141Y-55664D02*
X71846Y-55664D01*
X71888Y-55692D01*
X71916Y-55720D01*
X71930Y-55748D01*
X71846Y-55397D02*
X71846Y-55369D01*
X71860Y-55341D01*
X71874Y-55327D01*
X71902Y-55313D01*
X71958Y-55299D01*
X72028Y-55299D01*
X72085Y-55313D01*
X72113Y-55327D01*
X72127Y-55341D01*
X72141Y-55369D01*
X72141Y-55397D01*
X72127Y-55425D01*
X72113Y-55439D01*
X72085Y-55453D01*
X72028Y-55468D01*
X71958Y-55468D01*
X71902Y-55453D01*
X71874Y-55439D01*
X71860Y-55425D01*
X71846Y-55397D01*
X71944Y-55046D02*
X72141Y-55046D01*
X71944Y-55173D02*
X72099Y-55173D01*
X72127Y-55158D01*
X72141Y-55130D01*
X72141Y-55088D01*
X72127Y-55060D01*
X72113Y-55046D01*
X72141Y-54906D02*
X71846Y-54906D01*
X71986Y-54906D02*
X71986Y-54737D01*
X72141Y-54737D02*
X71846Y-54737D01*
X75679Y-48912D02*
X75538Y-48912D01*
X75538Y-48617D01*
X75763Y-48646D02*
X75777Y-48632D01*
X75805Y-48617D01*
X75875Y-48617D01*
X75903Y-48632D01*
X75917Y-48646D01*
X75932Y-48674D01*
X75932Y-48702D01*
X75917Y-48744D01*
X75749Y-48912D01*
X75932Y-48912D01*
X76329Y-48893D02*
X76160Y-48893D01*
X76244Y-48893D02*
X76244Y-48598D01*
X76216Y-48640D01*
X76188Y-48668D01*
X76160Y-48682D01*
X76511Y-48598D02*
X76539Y-48598D01*
X76567Y-48612D01*
X76581Y-48626D01*
X76595Y-48654D01*
X76610Y-48710D01*
X76610Y-48780D01*
X76595Y-48837D01*
X76581Y-48865D01*
X76567Y-48879D01*
X76539Y-48893D01*
X76511Y-48893D01*
X76483Y-48879D01*
X76469Y-48865D01*
X76455Y-48837D01*
X76441Y-48780D01*
X76441Y-48710D01*
X76455Y-48654D01*
X76469Y-48626D01*
X76483Y-48612D01*
X76511Y-48598D01*
X76862Y-48696D02*
X76862Y-48893D01*
X76736Y-48696D02*
X76736Y-48851D01*
X76750Y-48879D01*
X76778Y-48893D01*
X76820Y-48893D01*
X76848Y-48879D01*
X76862Y-48865D01*
X77003Y-48893D02*
X77003Y-48598D01*
X77003Y-48738D02*
X77171Y-48738D01*
X77171Y-48893D02*
X77171Y-48598D01*
G54D25*
X77336Y-55846D02*
X77280Y-55885D01*
X77336Y-55913D02*
X77218Y-55913D01*
X77218Y-55868D01*
X77224Y-55857D01*
X77230Y-55852D01*
X77241Y-55846D01*
X77258Y-55846D01*
X77269Y-55852D01*
X77275Y-55857D01*
X77280Y-55868D01*
X77280Y-55913D01*
X77336Y-55734D02*
X77336Y-55801D01*
X77336Y-55767D02*
X77218Y-55767D01*
X77235Y-55779D01*
X77246Y-55790D01*
X77252Y-55801D01*
X77356Y-56611D02*
X77356Y-56678D01*
X77356Y-56644D02*
X77238Y-56644D01*
X77255Y-56656D01*
X77266Y-56667D01*
X77272Y-56678D01*
X77238Y-56510D02*
X77238Y-56532D01*
X77244Y-56543D01*
X77249Y-56549D01*
X77266Y-56560D01*
X77289Y-56566D01*
X77334Y-56566D01*
X77345Y-56560D01*
X77350Y-56555D01*
X77356Y-56543D01*
X77356Y-56521D01*
X77350Y-56510D01*
X77345Y-56504D01*
X77334Y-56498D01*
X77305Y-56498D01*
X77294Y-56504D01*
X77289Y-56510D01*
X77283Y-56521D01*
X77283Y-56543D01*
X77289Y-56555D01*
X77294Y-56560D01*
X77305Y-56566D01*
X77238Y-56425D02*
X77238Y-56414D01*
X77244Y-56403D01*
X77249Y-56397D01*
X77261Y-56392D01*
X77283Y-56386D01*
X77311Y-56386D01*
X77334Y-56392D01*
X77345Y-56397D01*
X77350Y-56403D01*
X77356Y-56414D01*
X77356Y-56425D01*
X77350Y-56437D01*
X77345Y-56442D01*
X77334Y-56448D01*
X77311Y-56453D01*
X77283Y-56453D01*
X77261Y-56448D01*
X77249Y-56442D01*
X77244Y-56437D01*
X77238Y-56425D01*
X77238Y-56313D02*
X77238Y-56302D01*
X77244Y-56290D01*
X77249Y-56285D01*
X77261Y-56279D01*
X77283Y-56274D01*
X77311Y-56274D01*
X77334Y-56279D01*
X77345Y-56285D01*
X77350Y-56290D01*
X77356Y-56302D01*
X77356Y-56313D01*
X77350Y-56324D01*
X77345Y-56330D01*
X77334Y-56335D01*
X77311Y-56341D01*
X77283Y-56341D01*
X77261Y-56335D01*
X77249Y-56330D01*
X77244Y-56324D01*
X77238Y-56313D01*
X76411Y-55866D02*
X76355Y-55905D01*
X76411Y-55933D02*
X76293Y-55933D01*
X76293Y-55888D01*
X76299Y-55877D01*
X76304Y-55871D01*
X76316Y-55866D01*
X76332Y-55866D01*
X76344Y-55871D01*
X76349Y-55877D01*
X76355Y-55888D01*
X76355Y-55933D01*
X76304Y-55821D02*
X76299Y-55815D01*
X76293Y-55804D01*
X76293Y-55776D01*
X76299Y-55764D01*
X76304Y-55759D01*
X76316Y-55753D01*
X76327Y-55753D01*
X76344Y-55759D01*
X76411Y-55826D01*
X76411Y-55753D01*
X76431Y-56605D02*
X76431Y-56673D01*
X76431Y-56639D02*
X76313Y-56639D01*
X76330Y-56650D01*
X76341Y-56661D01*
X76347Y-56673D01*
X76313Y-56532D02*
X76313Y-56521D01*
X76318Y-56510D01*
X76324Y-56504D01*
X76335Y-56498D01*
X76358Y-56493D01*
X76386Y-56493D01*
X76408Y-56498D01*
X76420Y-56504D01*
X76425Y-56510D01*
X76431Y-56521D01*
X76431Y-56532D01*
X76425Y-56543D01*
X76420Y-56549D01*
X76408Y-56555D01*
X76386Y-56560D01*
X76358Y-56560D01*
X76335Y-56555D01*
X76324Y-56549D01*
X76318Y-56543D01*
X76313Y-56532D01*
X76431Y-56442D02*
X76313Y-56442D01*
X76386Y-56431D02*
X76431Y-56397D01*
X76352Y-56397D02*
X76397Y-56442D01*
X70570Y-50226D02*
X70531Y-50170D01*
X70503Y-50226D02*
X70503Y-50108D01*
X70548Y-50108D01*
X70559Y-50114D01*
X70565Y-50120D01*
X70570Y-50131D01*
X70570Y-50148D01*
X70565Y-50159D01*
X70559Y-50165D01*
X70548Y-50170D01*
X70503Y-50170D01*
X70677Y-50108D02*
X70621Y-50108D01*
X70615Y-50165D01*
X70621Y-50159D01*
X70632Y-50153D01*
X70660Y-50153D01*
X70672Y-50159D01*
X70677Y-50165D01*
X70683Y-50176D01*
X70683Y-50204D01*
X70677Y-50215D01*
X70672Y-50221D01*
X70660Y-50226D01*
X70632Y-50226D01*
X70621Y-50221D01*
X70615Y-50215D01*
X71324Y-49949D02*
X71318Y-49943D01*
X71313Y-49932D01*
X71313Y-49904D01*
X71318Y-49893D01*
X71324Y-49887D01*
X71335Y-49881D01*
X71347Y-49881D01*
X71363Y-49887D01*
X71431Y-49954D01*
X71431Y-49881D01*
X71324Y-49836D02*
X71318Y-49831D01*
X71313Y-49820D01*
X71313Y-49791D01*
X71318Y-49780D01*
X71324Y-49775D01*
X71335Y-49769D01*
X71347Y-49769D01*
X71363Y-49775D01*
X71431Y-49842D01*
X71431Y-49769D01*
X71313Y-49696D02*
X71313Y-49685D01*
X71318Y-49673D01*
X71324Y-49668D01*
X71335Y-49662D01*
X71358Y-49657D01*
X71386Y-49657D01*
X71408Y-49662D01*
X71420Y-49668D01*
X71425Y-49673D01*
X71431Y-49685D01*
X71431Y-49696D01*
X71425Y-49707D01*
X71420Y-49713D01*
X71408Y-49718D01*
X71386Y-49724D01*
X71358Y-49724D01*
X71335Y-49718D01*
X71324Y-49713D01*
X71318Y-49707D01*
X71313Y-49696D01*
X70570Y-51825D02*
X70531Y-51768D01*
X70503Y-51825D02*
X70503Y-51707D01*
X70548Y-51707D01*
X70559Y-51712D01*
X70565Y-51718D01*
X70570Y-51729D01*
X70570Y-51746D01*
X70565Y-51757D01*
X70559Y-51763D01*
X70548Y-51768D01*
X70503Y-51768D01*
X70672Y-51707D02*
X70649Y-51707D01*
X70638Y-51712D01*
X70632Y-51718D01*
X70621Y-51735D01*
X70615Y-51757D01*
X70615Y-51802D01*
X70621Y-51813D01*
X70627Y-51819D01*
X70638Y-51825D01*
X70660Y-51825D01*
X70672Y-51819D01*
X70677Y-51813D01*
X70683Y-51802D01*
X70683Y-51774D01*
X70677Y-51763D01*
X70672Y-51757D01*
X70660Y-51751D01*
X70638Y-51751D01*
X70627Y-51757D01*
X70621Y-51763D01*
X70615Y-51774D01*
X71304Y-51524D02*
X71299Y-51518D01*
X71293Y-51507D01*
X71293Y-51479D01*
X71299Y-51467D01*
X71304Y-51462D01*
X71316Y-51456D01*
X71327Y-51456D01*
X71344Y-51462D01*
X71411Y-51529D01*
X71411Y-51456D01*
X71304Y-51411D02*
X71299Y-51406D01*
X71293Y-51394D01*
X71293Y-51366D01*
X71299Y-51355D01*
X71304Y-51349D01*
X71316Y-51344D01*
X71327Y-51344D01*
X71344Y-51349D01*
X71411Y-51417D01*
X71411Y-51344D01*
X71293Y-51271D02*
X71293Y-51259D01*
X71299Y-51248D01*
X71304Y-51243D01*
X71316Y-51237D01*
X71338Y-51231D01*
X71366Y-51231D01*
X71389Y-51237D01*
X71400Y-51243D01*
X71406Y-51248D01*
X71411Y-51259D01*
X71411Y-51271D01*
X71406Y-51282D01*
X71400Y-51288D01*
X71389Y-51293D01*
X71366Y-51299D01*
X71338Y-51299D01*
X71316Y-51293D01*
X71304Y-51288D01*
X71299Y-51282D01*
X71293Y-51271D01*
X70574Y-50998D02*
X70535Y-50942D01*
X70507Y-50998D02*
X70507Y-50880D01*
X70552Y-50880D01*
X70563Y-50886D01*
X70569Y-50891D01*
X70574Y-50902D01*
X70574Y-50919D01*
X70569Y-50931D01*
X70563Y-50936D01*
X70552Y-50942D01*
X70507Y-50942D01*
X70614Y-50880D02*
X70692Y-50880D01*
X70642Y-50998D01*
X71324Y-50697D02*
X71318Y-50691D01*
X71313Y-50680D01*
X71313Y-50652D01*
X71318Y-50641D01*
X71324Y-50635D01*
X71335Y-50629D01*
X71347Y-50629D01*
X71363Y-50635D01*
X71431Y-50702D01*
X71431Y-50629D01*
X71324Y-50584D02*
X71318Y-50579D01*
X71313Y-50568D01*
X71313Y-50539D01*
X71318Y-50528D01*
X71324Y-50523D01*
X71335Y-50517D01*
X71347Y-50517D01*
X71363Y-50523D01*
X71431Y-50590D01*
X71431Y-50517D01*
X71313Y-50444D02*
X71313Y-50433D01*
X71318Y-50421D01*
X71324Y-50416D01*
X71335Y-50410D01*
X71358Y-50405D01*
X71386Y-50405D01*
X71408Y-50410D01*
X71420Y-50416D01*
X71425Y-50421D01*
X71431Y-50433D01*
X71431Y-50444D01*
X71425Y-50455D01*
X71420Y-50461D01*
X71408Y-50466D01*
X71386Y-50472D01*
X71358Y-50472D01*
X71335Y-50466D01*
X71324Y-50461D01*
X71318Y-50455D01*
X71313Y-50444D01*
X70570Y-52710D02*
X70531Y-52654D01*
X70503Y-52710D02*
X70503Y-52592D01*
X70548Y-52592D01*
X70559Y-52598D01*
X70565Y-52604D01*
X70570Y-52615D01*
X70570Y-52632D01*
X70565Y-52643D01*
X70559Y-52649D01*
X70548Y-52654D01*
X70503Y-52654D01*
X70638Y-52643D02*
X70627Y-52637D01*
X70621Y-52632D01*
X70615Y-52620D01*
X70615Y-52615D01*
X70621Y-52604D01*
X70627Y-52598D01*
X70638Y-52592D01*
X70660Y-52592D01*
X70672Y-52598D01*
X70677Y-52604D01*
X70683Y-52615D01*
X70683Y-52620D01*
X70677Y-52632D01*
X70672Y-52637D01*
X70660Y-52643D01*
X70638Y-52643D01*
X70627Y-52649D01*
X70621Y-52654D01*
X70615Y-52665D01*
X70615Y-52688D01*
X70621Y-52699D01*
X70627Y-52705D01*
X70638Y-52710D01*
X70660Y-52710D01*
X70672Y-52705D01*
X70677Y-52699D01*
X70683Y-52688D01*
X70683Y-52665D01*
X70677Y-52654D01*
X70672Y-52649D01*
X70660Y-52643D01*
X71363Y-52291D02*
X71358Y-52286D01*
X71352Y-52274D01*
X71352Y-52246D01*
X71358Y-52235D01*
X71363Y-52229D01*
X71375Y-52224D01*
X71386Y-52224D01*
X71403Y-52229D01*
X71470Y-52297D01*
X71470Y-52224D01*
X71363Y-52179D02*
X71358Y-52173D01*
X71352Y-52162D01*
X71352Y-52134D01*
X71358Y-52123D01*
X71363Y-52117D01*
X71375Y-52111D01*
X71386Y-52111D01*
X71403Y-52117D01*
X71470Y-52185D01*
X71470Y-52111D01*
X71352Y-52038D02*
X71352Y-52027D01*
X71358Y-52016D01*
X71363Y-52010D01*
X71375Y-52005D01*
X71397Y-51999D01*
X71425Y-51999D01*
X71448Y-52005D01*
X71459Y-52010D01*
X71465Y-52016D01*
X71470Y-52027D01*
X71470Y-52038D01*
X71465Y-52050D01*
X71459Y-52055D01*
X71448Y-52061D01*
X71425Y-52067D01*
X71397Y-52067D01*
X71375Y-52061D01*
X71363Y-52055D01*
X71358Y-52050D01*
X71352Y-52038D01*
X77047Y-51017D02*
X77007Y-50961D01*
X76979Y-51017D02*
X76979Y-50899D01*
X77024Y-50899D01*
X77036Y-50905D01*
X77041Y-50911D01*
X77047Y-50922D01*
X77047Y-50939D01*
X77041Y-50950D01*
X77036Y-50956D01*
X77024Y-50961D01*
X76979Y-50961D01*
X77103Y-51017D02*
X77125Y-51017D01*
X77137Y-51012D01*
X77142Y-51006D01*
X77154Y-50989D01*
X77159Y-50967D01*
X77159Y-50922D01*
X77154Y-50911D01*
X77148Y-50905D01*
X77137Y-50899D01*
X77114Y-50899D01*
X77103Y-50905D01*
X77097Y-50911D01*
X77092Y-50922D01*
X77092Y-50950D01*
X77097Y-50961D01*
X77103Y-50967D01*
X77114Y-50972D01*
X77137Y-50972D01*
X77148Y-50967D01*
X77154Y-50961D01*
X77159Y-50950D01*
X76940Y-51108D02*
X76946Y-51102D01*
X76957Y-51096D01*
X76985Y-51096D01*
X76996Y-51102D01*
X77002Y-51108D01*
X77007Y-51119D01*
X77007Y-51130D01*
X77002Y-51147D01*
X76934Y-51214D01*
X77007Y-51214D01*
X77052Y-51108D02*
X77058Y-51102D01*
X77069Y-51096D01*
X77097Y-51096D01*
X77109Y-51102D01*
X77114Y-51108D01*
X77120Y-51119D01*
X77120Y-51130D01*
X77114Y-51147D01*
X77047Y-51214D01*
X77120Y-51214D01*
X77193Y-51096D02*
X77204Y-51096D01*
X77215Y-51102D01*
X77221Y-51108D01*
X77227Y-51119D01*
X77232Y-51141D01*
X77232Y-51169D01*
X77227Y-51192D01*
X77221Y-51203D01*
X77215Y-51209D01*
X77204Y-51214D01*
X77193Y-51214D01*
X77182Y-51209D01*
X77176Y-51203D01*
X77170Y-51192D01*
X77165Y-51169D01*
X77165Y-51141D01*
X77170Y-51119D01*
X77176Y-51108D01*
X77182Y-51102D01*
X77193Y-51096D01*
X76991Y-52710D02*
X76951Y-52654D01*
X76923Y-52710D02*
X76923Y-52592D01*
X76968Y-52592D01*
X76979Y-52598D01*
X76985Y-52604D01*
X76991Y-52615D01*
X76991Y-52632D01*
X76985Y-52643D01*
X76979Y-52649D01*
X76968Y-52654D01*
X76923Y-52654D01*
X77103Y-52710D02*
X77036Y-52710D01*
X77069Y-52710D02*
X77069Y-52592D01*
X77058Y-52609D01*
X77047Y-52620D01*
X77036Y-52626D01*
X77176Y-52592D02*
X77187Y-52592D01*
X77198Y-52598D01*
X77204Y-52604D01*
X77210Y-52615D01*
X77215Y-52637D01*
X77215Y-52665D01*
X77210Y-52688D01*
X77204Y-52699D01*
X77198Y-52705D01*
X77187Y-52710D01*
X77176Y-52710D01*
X77165Y-52705D01*
X77159Y-52699D01*
X77154Y-52688D01*
X77148Y-52665D01*
X77148Y-52637D01*
X77154Y-52615D01*
X77159Y-52604D01*
X77165Y-52598D01*
X77176Y-52592D01*
X76996Y-52927D02*
X76929Y-52927D01*
X76962Y-52927D02*
X76962Y-52809D01*
X76951Y-52826D01*
X76940Y-52837D01*
X76929Y-52843D01*
X77069Y-52809D02*
X77080Y-52809D01*
X77092Y-52815D01*
X77097Y-52820D01*
X77103Y-52831D01*
X77109Y-52854D01*
X77109Y-52882D01*
X77103Y-52904D01*
X77097Y-52916D01*
X77092Y-52921D01*
X77080Y-52927D01*
X77069Y-52927D01*
X77058Y-52921D01*
X77052Y-52916D01*
X77047Y-52904D01*
X77041Y-52882D01*
X77041Y-52854D01*
X77047Y-52831D01*
X77052Y-52820D01*
X77058Y-52815D01*
X77069Y-52809D01*
X77159Y-52927D02*
X77159Y-52809D01*
X77170Y-52882D02*
X77204Y-52927D01*
X77204Y-52848D02*
X77159Y-52893D01*
X77010Y-50210D02*
X76971Y-50154D01*
X76943Y-50210D02*
X76943Y-50092D01*
X76988Y-50092D01*
X76999Y-50098D01*
X77005Y-50104D01*
X77010Y-50115D01*
X77010Y-50132D01*
X77005Y-50143D01*
X76999Y-50149D01*
X76988Y-50154D01*
X76943Y-50154D01*
X77123Y-50210D02*
X77055Y-50210D01*
X77089Y-50210D02*
X77089Y-50092D01*
X77078Y-50109D01*
X77066Y-50120D01*
X77055Y-50126D01*
X77235Y-50210D02*
X77168Y-50210D01*
X77201Y-50210D02*
X77201Y-50092D01*
X77190Y-50109D01*
X77179Y-50120D01*
X77168Y-50126D01*
X76940Y-50320D02*
X76946Y-50315D01*
X76957Y-50309D01*
X76985Y-50309D01*
X76996Y-50315D01*
X77002Y-50320D01*
X77007Y-50331D01*
X77007Y-50343D01*
X77002Y-50359D01*
X76934Y-50427D01*
X77007Y-50427D01*
X77052Y-50320D02*
X77058Y-50315D01*
X77069Y-50309D01*
X77097Y-50309D01*
X77109Y-50315D01*
X77114Y-50320D01*
X77120Y-50331D01*
X77120Y-50343D01*
X77114Y-50359D01*
X77047Y-50427D01*
X77120Y-50427D01*
X77193Y-50309D02*
X77204Y-50309D01*
X77215Y-50315D01*
X77221Y-50320D01*
X77227Y-50331D01*
X77232Y-50354D01*
X77232Y-50382D01*
X77227Y-50404D01*
X77221Y-50416D01*
X77215Y-50421D01*
X77204Y-50427D01*
X77193Y-50427D01*
X77182Y-50421D01*
X77176Y-50416D01*
X77170Y-50404D01*
X77165Y-50382D01*
X77165Y-50354D01*
X77170Y-50331D01*
X77176Y-50320D01*
X77182Y-50315D01*
X77193Y-50309D01*
X77010Y-51765D02*
X76971Y-51709D01*
X76943Y-51765D02*
X76943Y-51647D01*
X76988Y-51647D01*
X76999Y-51653D01*
X77005Y-51659D01*
X77010Y-51670D01*
X77010Y-51687D01*
X77005Y-51698D01*
X76999Y-51704D01*
X76988Y-51709D01*
X76943Y-51709D01*
X77123Y-51765D02*
X77055Y-51765D01*
X77089Y-51765D02*
X77089Y-51647D01*
X77078Y-51664D01*
X77066Y-51676D01*
X77055Y-51681D01*
X77168Y-51659D02*
X77173Y-51653D01*
X77184Y-51647D01*
X77213Y-51647D01*
X77224Y-51653D01*
X77229Y-51659D01*
X77235Y-51670D01*
X77235Y-51681D01*
X77229Y-51698D01*
X77162Y-51765D01*
X77235Y-51765D01*
X77016Y-52199D02*
X76948Y-52199D01*
X76982Y-52199D02*
X76982Y-52081D01*
X76971Y-52097D01*
X76960Y-52109D01*
X76948Y-52114D01*
X77089Y-52081D02*
X77100Y-52081D01*
X77111Y-52086D01*
X77117Y-52092D01*
X77123Y-52103D01*
X77128Y-52126D01*
X77128Y-52154D01*
X77123Y-52176D01*
X77117Y-52187D01*
X77111Y-52193D01*
X77100Y-52199D01*
X77089Y-52199D01*
X77078Y-52193D01*
X77072Y-52187D01*
X77066Y-52176D01*
X77061Y-52154D01*
X77061Y-52126D01*
X77066Y-52103D01*
X77072Y-52092D01*
X77078Y-52086D01*
X77089Y-52081D01*
X77179Y-52199D02*
X77179Y-52081D01*
X77190Y-52154D02*
X77224Y-52199D01*
X77224Y-52120D02*
X77179Y-52165D01*
G54D13*
X80857Y-55212D02*
X80857Y-55451D01*
X80871Y-55479D01*
X80886Y-55493D01*
X80914Y-55507D01*
X80970Y-55507D01*
X80998Y-55493D01*
X81012Y-55479D01*
X81026Y-55451D01*
X81026Y-55212D01*
X81293Y-55310D02*
X81293Y-55507D01*
X81223Y-55198D02*
X81152Y-55409D01*
X81335Y-55409D01*
X80793Y-55684D02*
X80962Y-55684D01*
X80878Y-55979D02*
X80878Y-55684D01*
X81201Y-55979D02*
X81060Y-55979D01*
X81060Y-55684D01*
X81299Y-55825D02*
X81397Y-55825D01*
X81440Y-55979D02*
X81299Y-55979D01*
X81299Y-55684D01*
X81440Y-55684D01*
X81552Y-55713D02*
X81566Y-55698D01*
X81594Y-55684D01*
X81664Y-55684D01*
X81692Y-55698D01*
X81706Y-55713D01*
X81721Y-55741D01*
X81721Y-55769D01*
X81706Y-55811D01*
X81538Y-55979D01*
X81721Y-55979D01*
X81973Y-55783D02*
X81973Y-55979D01*
X81903Y-55670D02*
X81833Y-55881D01*
X82016Y-55881D01*
X82114Y-55713D02*
X82128Y-55698D01*
X82156Y-55684D01*
X82226Y-55684D01*
X82254Y-55698D01*
X82268Y-55713D01*
X82282Y-55741D01*
X82282Y-55769D01*
X82268Y-55811D01*
X82100Y-55979D01*
X82282Y-55979D01*
X82535Y-55684D02*
X82479Y-55684D01*
X82451Y-55698D01*
X82437Y-55713D01*
X82409Y-55755D01*
X82395Y-55811D01*
X82395Y-55923D01*
X82409Y-55951D01*
X82423Y-55965D01*
X82451Y-55979D01*
X82507Y-55979D01*
X82535Y-55965D01*
X82549Y-55951D01*
X82563Y-55923D01*
X82563Y-55853D01*
X82549Y-55825D01*
X82535Y-55811D01*
X82507Y-55797D01*
X82451Y-55797D01*
X82423Y-55811D01*
X82409Y-55825D01*
X82395Y-55853D01*
X76389Y-58480D02*
X76389Y-58718D01*
X76403Y-58747D01*
X76417Y-58761D01*
X76445Y-58775D01*
X76501Y-58775D01*
X76529Y-58761D01*
X76543Y-58747D01*
X76557Y-58718D01*
X76557Y-58480D01*
X76824Y-58480D02*
X76768Y-58480D01*
X76740Y-58494D01*
X76726Y-58508D01*
X76698Y-58550D01*
X76684Y-58606D01*
X76684Y-58718D01*
X76698Y-58747D01*
X76712Y-58761D01*
X76740Y-58775D01*
X76796Y-58775D01*
X76824Y-58761D01*
X76838Y-58747D01*
X76852Y-58718D01*
X76852Y-58648D01*
X76838Y-58620D01*
X76824Y-58606D01*
X76796Y-58592D01*
X76740Y-58592D01*
X76712Y-58606D01*
X76698Y-58620D01*
X76684Y-58648D01*
X77432Y-60676D02*
X77137Y-60676D01*
X77137Y-60605D01*
X77151Y-60563D01*
X77179Y-60535D01*
X77207Y-60521D01*
X77264Y-60507D01*
X77306Y-60507D01*
X77362Y-60521D01*
X77390Y-60535D01*
X77418Y-60563D01*
X77432Y-60605D01*
X77432Y-60676D01*
X77432Y-60212D02*
X77292Y-60310D01*
X77432Y-60381D02*
X77137Y-60381D01*
X77137Y-60268D01*
X77151Y-60240D01*
X77165Y-60226D01*
X77193Y-60212D01*
X77235Y-60212D01*
X77264Y-60226D01*
X77278Y-60240D01*
X77292Y-60268D01*
X77292Y-60381D01*
X77137Y-60128D02*
X77432Y-60029D01*
X77137Y-59931D01*
X77432Y-59678D02*
X77432Y-59847D01*
X77432Y-59763D02*
X77137Y-59763D01*
X77179Y-59791D01*
X77207Y-59819D01*
X77221Y-59847D01*
X77137Y-59580D02*
X77137Y-59397D01*
X77250Y-59496D01*
X77250Y-59454D01*
X77264Y-59425D01*
X77278Y-59411D01*
X77306Y-59397D01*
X77376Y-59397D01*
X77404Y-59411D01*
X77418Y-59425D01*
X77432Y-59454D01*
X77432Y-59538D01*
X77418Y-59566D01*
X77404Y-59580D01*
X77137Y-59130D02*
X77137Y-59271D01*
X77278Y-59285D01*
X77264Y-59271D01*
X77250Y-59243D01*
X77250Y-59173D01*
X77264Y-59144D01*
X77278Y-59130D01*
X77306Y-59116D01*
X77376Y-59116D01*
X77404Y-59130D01*
X77418Y-59144D01*
X77432Y-59173D01*
X77432Y-59243D01*
X77418Y-59271D01*
X77404Y-59285D01*
X82098Y-58499D02*
X82098Y-58738D01*
X82112Y-58766D01*
X82126Y-58780D01*
X82154Y-58794D01*
X82210Y-58794D01*
X82238Y-58780D01*
X82252Y-58766D01*
X82266Y-58738D01*
X82266Y-58499D01*
X82379Y-58499D02*
X82575Y-58499D01*
X82449Y-58794D01*
X83396Y-60658D02*
X83101Y-60658D01*
X83101Y-60588D01*
X83116Y-60546D01*
X83144Y-60518D01*
X83172Y-60504D01*
X83228Y-60490D01*
X83270Y-60490D01*
X83326Y-60504D01*
X83354Y-60518D01*
X83382Y-60546D01*
X83396Y-60588D01*
X83396Y-60658D01*
X83396Y-60195D02*
X83256Y-60293D01*
X83396Y-60363D02*
X83101Y-60363D01*
X83101Y-60251D01*
X83116Y-60223D01*
X83130Y-60209D01*
X83158Y-60195D01*
X83200Y-60195D01*
X83228Y-60209D01*
X83242Y-60223D01*
X83256Y-60251D01*
X83256Y-60363D01*
X83101Y-60110D02*
X83396Y-60012D01*
X83101Y-59914D01*
X83396Y-59661D02*
X83396Y-59830D01*
X83396Y-59745D02*
X83101Y-59745D01*
X83144Y-59773D01*
X83172Y-59801D01*
X83186Y-59830D01*
X83101Y-59563D02*
X83101Y-59380D01*
X83214Y-59478D01*
X83214Y-59436D01*
X83228Y-59408D01*
X83242Y-59394D01*
X83270Y-59380D01*
X83340Y-59380D01*
X83368Y-59394D01*
X83382Y-59408D01*
X83396Y-59436D01*
X83396Y-59520D01*
X83382Y-59549D01*
X83368Y-59563D01*
X83101Y-59113D02*
X83101Y-59254D01*
X83242Y-59268D01*
X83228Y-59254D01*
X83214Y-59225D01*
X83214Y-59155D01*
X83228Y-59127D01*
X83242Y-59113D01*
X83270Y-59099D01*
X83340Y-59099D01*
X83368Y-59113D01*
X83382Y-59127D01*
X83396Y-59155D01*
X83396Y-59225D01*
X83382Y-59254D01*
X83368Y-59268D01*
G54D18*
X75263Y-55325D02*
X75263Y-55484D01*
X75272Y-55503D01*
X75282Y-55512D01*
X75300Y-55522D01*
X75338Y-55522D01*
X75357Y-55512D01*
X75366Y-55503D01*
X75375Y-55484D01*
X75375Y-55325D01*
X75450Y-55325D02*
X75572Y-55325D01*
X75507Y-55400D01*
X75535Y-55400D01*
X75554Y-55409D01*
X75563Y-55418D01*
X75572Y-55437D01*
X75572Y-55484D01*
X75563Y-55503D01*
X75554Y-55512D01*
X75535Y-55522D01*
X75479Y-55522D01*
X75460Y-55512D01*
X75450Y-55503D01*
G54D14*
X65160Y-48402D02*
X64970Y-48402D01*
X64951Y-48593D01*
X64970Y-48574D01*
X65008Y-48555D01*
X65103Y-48555D01*
X65141Y-48574D01*
X65160Y-48593D01*
X65179Y-48631D01*
X65179Y-48726D01*
X65160Y-48764D01*
X65141Y-48783D01*
X65103Y-48802D01*
X65008Y-48802D01*
X64970Y-48783D01*
X64951Y-48764D01*
X65922Y-48402D02*
X66170Y-48402D01*
X66036Y-48555D01*
X66094Y-48555D01*
X66132Y-48574D01*
X66151Y-48593D01*
X66170Y-48631D01*
X66170Y-48726D01*
X66151Y-48764D01*
X66132Y-48783D01*
X66094Y-48802D01*
X65979Y-48802D01*
X65941Y-48783D01*
X65922Y-48764D01*
X66341Y-48764D02*
X66360Y-48783D01*
X66341Y-48802D01*
X66322Y-48783D01*
X66341Y-48764D01*
X66341Y-48802D01*
X66494Y-48402D02*
X66741Y-48402D01*
X66608Y-48555D01*
X66665Y-48555D01*
X66703Y-48574D01*
X66722Y-48593D01*
X66741Y-48631D01*
X66741Y-48726D01*
X66722Y-48764D01*
X66703Y-48783D01*
X66665Y-48802D01*
X66551Y-48802D01*
X66513Y-48783D01*
X66494Y-48764D01*
G54D12*
X86987Y-59961D02*
X86799Y-59961D01*
X86799Y-59567D01*
X87118Y-59961D02*
X87118Y-59699D01*
X87118Y-59567D02*
X87099Y-59586D01*
X87118Y-59605D01*
X87137Y-59586D01*
X87118Y-59567D01*
X87118Y-59605D01*
X87305Y-59699D02*
X87305Y-59961D01*
X87305Y-59736D02*
X87324Y-59717D01*
X87362Y-59699D01*
X87418Y-59699D01*
X87455Y-59717D01*
X87474Y-59755D01*
X87474Y-59961D01*
X87812Y-59942D02*
X87774Y-59961D01*
X87699Y-59961D01*
X87662Y-59942D01*
X87643Y-59905D01*
X87643Y-59755D01*
X87662Y-59717D01*
X87699Y-59699D01*
X87774Y-59699D01*
X87812Y-59717D01*
X87830Y-59755D01*
X87830Y-59792D01*
X87643Y-59830D01*
X88299Y-59961D02*
X88299Y-59567D01*
X88487Y-59961D02*
X88487Y-59567D01*
X88712Y-59961D01*
X88712Y-59567D01*
G54D13*
X86461Y-50406D02*
X86461Y-50556D01*
X86146Y-50556D01*
X86461Y-50301D02*
X86146Y-50301D01*
X86146Y-50226D01*
X86161Y-50181D01*
X86191Y-50151D01*
X86221Y-50136D01*
X86281Y-50121D01*
X86326Y-50121D01*
X86386Y-50136D01*
X86416Y-50151D01*
X86446Y-50181D01*
X86461Y-50226D01*
X86461Y-50301D01*
X86461Y-49821D02*
X86461Y-50001D01*
X86461Y-49911D02*
X86146Y-49911D01*
X86191Y-49941D01*
X86221Y-49971D01*
X86236Y-50001D01*
X88756Y-50339D02*
X88756Y-50024D01*
X88831Y-50024D01*
X88876Y-50039D01*
X88906Y-50069D01*
X88921Y-50099D01*
X88936Y-50159D01*
X88936Y-50204D01*
X88921Y-50264D01*
X88906Y-50294D01*
X88876Y-50324D01*
X88831Y-50339D01*
X88756Y-50339D01*
X89251Y-50309D02*
X89236Y-50324D01*
X89191Y-50339D01*
X89161Y-50339D01*
X89116Y-50324D01*
X89086Y-50294D01*
X89071Y-50264D01*
X89056Y-50204D01*
X89056Y-50159D01*
X89071Y-50099D01*
X89086Y-50069D01*
X89116Y-50039D01*
X89161Y-50024D01*
X89191Y-50024D01*
X89236Y-50039D01*
X89251Y-50054D01*
X86422Y-56627D02*
X86422Y-56777D01*
X86107Y-56777D01*
X86422Y-56522D02*
X86107Y-56522D01*
X86107Y-56447D01*
X86122Y-56402D01*
X86152Y-56372D01*
X86182Y-56357D01*
X86242Y-56342D01*
X86287Y-56342D01*
X86347Y-56357D01*
X86377Y-56372D01*
X86407Y-56402D01*
X86422Y-56447D01*
X86422Y-56522D01*
X86137Y-56222D02*
X86122Y-56207D01*
X86107Y-56177D01*
X86107Y-56102D01*
X86122Y-56072D01*
X86137Y-56057D01*
X86167Y-56042D01*
X86197Y-56042D01*
X86242Y-56057D01*
X86422Y-56237D01*
X86422Y-56042D01*
X88820Y-56579D02*
X88880Y-56579D01*
X88910Y-56564D01*
X88925Y-56549D01*
X88955Y-56504D01*
X88970Y-56444D01*
X88970Y-56324D01*
X88955Y-56294D01*
X88940Y-56279D01*
X88910Y-56264D01*
X88850Y-56264D01*
X88820Y-56279D01*
X88805Y-56294D01*
X88790Y-56324D01*
X88790Y-56399D01*
X88805Y-56429D01*
X88820Y-56444D01*
X88850Y-56459D01*
X88910Y-56459D01*
X88940Y-56444D01*
X88955Y-56429D01*
X88970Y-56399D01*
X89060Y-56264D02*
X89165Y-56579D01*
X89270Y-56264D01*
X86461Y-54442D02*
X86461Y-54592D01*
X86146Y-54592D01*
X86461Y-54337D02*
X86146Y-54337D01*
X86146Y-54262D01*
X86161Y-54217D01*
X86191Y-54187D01*
X86221Y-54172D01*
X86281Y-54157D01*
X86326Y-54157D01*
X86386Y-54172D01*
X86416Y-54187D01*
X86446Y-54217D01*
X86461Y-54262D01*
X86461Y-54337D01*
X86146Y-54052D02*
X86146Y-53857D01*
X86266Y-53962D01*
X86266Y-53917D01*
X86281Y-53887D01*
X86296Y-53872D01*
X86326Y-53857D01*
X86401Y-53857D01*
X86431Y-53872D01*
X86446Y-53887D01*
X86461Y-53917D01*
X86461Y-54007D01*
X86446Y-54037D01*
X86431Y-54052D01*
X88916Y-54099D02*
X88766Y-54099D01*
X88751Y-54249D01*
X88766Y-54234D01*
X88796Y-54219D01*
X88871Y-54219D01*
X88901Y-54234D01*
X88916Y-54249D01*
X88931Y-54279D01*
X88931Y-54354D01*
X88916Y-54384D01*
X88901Y-54399D01*
X88871Y-54414D01*
X88796Y-54414D01*
X88766Y-54399D01*
X88751Y-54384D01*
X89021Y-54099D02*
X89126Y-54414D01*
X89231Y-54099D01*
X73862Y-56863D02*
X73862Y-57013D01*
X73547Y-57013D01*
X73862Y-56758D02*
X73547Y-56758D01*
X73547Y-56683D01*
X73562Y-56638D01*
X73592Y-56608D01*
X73622Y-56593D01*
X73682Y-56578D01*
X73727Y-56578D01*
X73787Y-56593D01*
X73817Y-56608D01*
X73847Y-56638D01*
X73862Y-56683D01*
X73862Y-56758D01*
X73652Y-56308D02*
X73862Y-56308D01*
X73532Y-56383D02*
X73757Y-56458D01*
X73757Y-56263D01*
X72099Y-57198D02*
X72099Y-57048D01*
X72189Y-57228D02*
X71874Y-57123D01*
X72189Y-57018D01*
X71874Y-56958D02*
X72189Y-56853D01*
X71874Y-56748D01*
X72189Y-56643D02*
X71874Y-56643D01*
X71874Y-56568D01*
X71889Y-56523D01*
X71919Y-56493D01*
X71949Y-56478D01*
X72009Y-56463D01*
X72054Y-56463D01*
X72114Y-56478D01*
X72144Y-56493D01*
X72174Y-56523D01*
X72189Y-56568D01*
X72189Y-56643D01*
X72189Y-56328D02*
X71874Y-56328D01*
X71874Y-56253D01*
X71889Y-56208D01*
X71919Y-56178D01*
X71949Y-56163D01*
X72009Y-56148D01*
X72054Y-56148D01*
X72114Y-56163D01*
X72144Y-56178D01*
X72174Y-56208D01*
X72189Y-56253D01*
X72189Y-56328D01*
X86481Y-52473D02*
X86481Y-52623D01*
X86166Y-52623D01*
X86481Y-52368D02*
X86166Y-52368D01*
X86166Y-52293D01*
X86181Y-52248D01*
X86211Y-52218D01*
X86241Y-52203D01*
X86301Y-52188D01*
X86346Y-52188D01*
X86406Y-52203D01*
X86436Y-52218D01*
X86466Y-52248D01*
X86481Y-52293D01*
X86481Y-52368D01*
X86166Y-51903D02*
X86166Y-52053D01*
X86316Y-52068D01*
X86301Y-52053D01*
X86286Y-52023D01*
X86286Y-51948D01*
X86301Y-51918D01*
X86316Y-51903D01*
X86346Y-51888D01*
X86421Y-51888D01*
X86451Y-51903D01*
X86466Y-51918D01*
X86481Y-51948D01*
X86481Y-52023D01*
X86466Y-52053D01*
X86451Y-52068D01*
X88783Y-52260D02*
X88888Y-52260D01*
X88933Y-52425D02*
X88783Y-52425D01*
X88783Y-52110D01*
X88933Y-52110D01*
X89068Y-52425D02*
X89068Y-52110D01*
X89248Y-52425D01*
X89248Y-52110D01*
G54D21*
X77845Y-63858D02*
X77864Y-63801D01*
X77883Y-63782D01*
X77921Y-63763D01*
X77978Y-63763D01*
X78016Y-63782D01*
X78035Y-63801D01*
X78054Y-63839D01*
X78054Y-63992D01*
X77654Y-63992D01*
X77654Y-63858D01*
X77674Y-63820D01*
X77693Y-63801D01*
X77731Y-63782D01*
X77769Y-63782D01*
X77807Y-63801D01*
X77826Y-63820D01*
X77845Y-63858D01*
X77845Y-63992D01*
X78054Y-63420D02*
X77845Y-63420D01*
X77807Y-63439D01*
X77788Y-63477D01*
X77788Y-63554D01*
X77807Y-63592D01*
X78035Y-63420D02*
X78054Y-63458D01*
X78054Y-63554D01*
X78035Y-63592D01*
X77997Y-63611D01*
X77959Y-63611D01*
X77921Y-63592D01*
X77902Y-63554D01*
X77902Y-63458D01*
X77883Y-63420D01*
X78054Y-63173D02*
X78035Y-63211D01*
X77997Y-63230D01*
X77654Y-63230D01*
X78054Y-62525D02*
X78054Y-62715D01*
X77654Y-62715D01*
X85384Y-63798D02*
X85403Y-63741D01*
X85422Y-63722D01*
X85461Y-63703D01*
X85518Y-63703D01*
X85556Y-63722D01*
X85575Y-63741D01*
X85594Y-63779D01*
X85594Y-63931D01*
X85194Y-63931D01*
X85194Y-63798D01*
X85213Y-63760D01*
X85232Y-63741D01*
X85270Y-63722D01*
X85308Y-63722D01*
X85346Y-63741D01*
X85365Y-63760D01*
X85384Y-63798D01*
X85384Y-63931D01*
X85594Y-63360D02*
X85384Y-63360D01*
X85346Y-63379D01*
X85327Y-63417D01*
X85327Y-63493D01*
X85346Y-63531D01*
X85575Y-63360D02*
X85594Y-63398D01*
X85594Y-63493D01*
X85575Y-63531D01*
X85537Y-63550D01*
X85499Y-63550D01*
X85461Y-63531D01*
X85441Y-63493D01*
X85441Y-63398D01*
X85422Y-63360D01*
X85594Y-63112D02*
X85575Y-63150D01*
X85537Y-63169D01*
X85194Y-63169D01*
X85594Y-62427D02*
X85403Y-62560D01*
X85594Y-62655D02*
X85194Y-62655D01*
X85194Y-62503D01*
X85213Y-62465D01*
X85232Y-62446D01*
X85270Y-62427D01*
X85327Y-62427D01*
X85365Y-62446D01*
X85384Y-62465D01*
X85403Y-62503D01*
X85403Y-62655D01*
G54D19*
X65611Y-54346D02*
X65725Y-54346D01*
X65782Y-54317D01*
X65811Y-54289D01*
X65868Y-54203D01*
X65896Y-54089D01*
X65896Y-53860D01*
X65868Y-53803D01*
X65839Y-53774D01*
X65782Y-53746D01*
X65668Y-53746D01*
X65611Y-53774D01*
X65582Y-53803D01*
X65553Y-53860D01*
X65553Y-54003D01*
X65582Y-54060D01*
X65611Y-54089D01*
X65668Y-54117D01*
X65782Y-54117D01*
X65839Y-54089D01*
X65868Y-54060D01*
X65896Y-54003D01*
X66068Y-53746D02*
X66268Y-54346D01*
X66468Y-53746D01*
X67125Y-54346D02*
X67125Y-53746D01*
X67268Y-53746D01*
X67353Y-53774D01*
X67411Y-53831D01*
X67439Y-53889D01*
X67468Y-54003D01*
X67468Y-54089D01*
X67439Y-54203D01*
X67411Y-54260D01*
X67353Y-54317D01*
X67268Y-54346D01*
X67125Y-54346D01*
X68068Y-54289D02*
X68039Y-54317D01*
X67953Y-54346D01*
X67896Y-54346D01*
X67811Y-54317D01*
X67753Y-54260D01*
X67725Y-54203D01*
X67696Y-54089D01*
X67696Y-54003D01*
X67725Y-53889D01*
X67753Y-53831D01*
X67811Y-53774D01*
X67896Y-53746D01*
X67953Y-53746D01*
X68039Y-53774D01*
X68068Y-53803D01*
M02*
