G04 (created by PCBNEW (2013-08-09 BZR 4280)-product) date 8/17/2013 3:52:17 PM*
%MOIN*%
G04 Gerber Fmt 3.4, Leading zero omitted, Abs format*
%FSLAX34Y34*%
G01*
G70*
G90*
G04 APERTURE LIST*
%ADD10C,0.001000*%
%ADD11R,0.118100X0.118100*%
%ADD12C,0.118100*%
%ADD13R,0.060000X0.060000*%
%ADD14C,0.060000*%
%ADD15O,0.078700X0.157500*%
%ADD16O,0.157500X0.078700*%
%ADD17O,0.177200X0.078700*%
%ADD18C,0.040000*%
%ADD19C,0.039370*%
%ADD20C,0.032000*%
%ADD21C,0.024000*%
%ADD22C,0.018000*%
%ADD23C,0.025000*%
%ADD24C,0.010000*%
%ADD25C,0.007874*%
G04 APERTURE END LIST*
G54D10*
G54D11*
X65800Y-63600D03*
G54D12*
X67800Y-63600D03*
X69800Y-63600D03*
G54D13*
X65389Y-46774D03*
G54D14*
X65389Y-47774D03*
X66389Y-46774D03*
X66389Y-47774D03*
X67389Y-46774D03*
X67389Y-47774D03*
X68389Y-46774D03*
X68389Y-47774D03*
G54D13*
X65385Y-45776D03*
G54D14*
X65385Y-44776D03*
X66385Y-45776D03*
X66385Y-44776D03*
X67385Y-45776D03*
X67385Y-44776D03*
X68385Y-45776D03*
X68385Y-44776D03*
X69385Y-45776D03*
X69385Y-44776D03*
X70385Y-45776D03*
X70385Y-44776D03*
X71385Y-45776D03*
X71385Y-44776D03*
X72385Y-45776D03*
X72385Y-44776D03*
X73385Y-45776D03*
X73385Y-44776D03*
X74385Y-45776D03*
X74385Y-44776D03*
X75385Y-45776D03*
X75385Y-44776D03*
X76385Y-45776D03*
X76385Y-44776D03*
X77385Y-45776D03*
X77385Y-44776D03*
G54D15*
X85147Y-61382D03*
G54D16*
X83060Y-62662D03*
G54D17*
X83060Y-60299D03*
G54D11*
X89100Y-63860D03*
G54D12*
X91100Y-63860D03*
X93100Y-63860D03*
G54D11*
X86780Y-45740D03*
G54D12*
X84780Y-45740D03*
X82780Y-45740D03*
G54D13*
X74380Y-46780D03*
G54D14*
X74380Y-47780D03*
X73380Y-46780D03*
X73380Y-47780D03*
X72380Y-46780D03*
X72380Y-47780D03*
G54D11*
X72200Y-63600D03*
G54D12*
X74200Y-63600D03*
X76200Y-63600D03*
G54D18*
X71533Y-60347D03*
X69251Y-60305D03*
X71862Y-59346D03*
X65730Y-56770D03*
X69192Y-56772D03*
X65208Y-52833D03*
X69000Y-52700D03*
X66820Y-55960D03*
X78556Y-47880D03*
X70460Y-53340D03*
G54D19*
X69360Y-47820D03*
G54D20*
X64965Y-52125D03*
X65905Y-44282D03*
X87960Y-61080D03*
X73906Y-54802D03*
X73920Y-52494D03*
X87142Y-61072D03*
X72460Y-51380D03*
X80320Y-51360D03*
X73060Y-51700D03*
X80320Y-52060D03*
X67858Y-55146D03*
X67795Y-54159D03*
X73560Y-52000D03*
X75160Y-51052D03*
X73180Y-55860D03*
X70240Y-50060D03*
G54D21*
X69293Y-60347D02*
X71533Y-60347D01*
X69251Y-60305D02*
X69293Y-60347D01*
X65100Y-56150D02*
X65100Y-52941D01*
X71825Y-59382D02*
X71825Y-59389D01*
X71862Y-59346D02*
X71825Y-59382D01*
X65728Y-56772D02*
X65722Y-56772D01*
X65730Y-56770D02*
X65728Y-56772D01*
X86780Y-45740D02*
X86780Y-58444D01*
X86780Y-58444D02*
X88858Y-60522D01*
X89100Y-63860D02*
X87625Y-63860D01*
X65800Y-63600D02*
X65800Y-64326D01*
X71010Y-64790D02*
X72200Y-63600D01*
X66264Y-64790D02*
X71010Y-64790D01*
X65800Y-64326D02*
X66264Y-64790D01*
X72200Y-63600D02*
X72200Y-63642D01*
X73392Y-64834D02*
X83578Y-64834D01*
X83578Y-64834D02*
X85147Y-63265D01*
X72200Y-63642D02*
X73392Y-64834D01*
X88858Y-60522D02*
X88858Y-61358D01*
X88858Y-61358D02*
X88506Y-61710D01*
X65100Y-56150D02*
X65722Y-56772D01*
X65722Y-56772D02*
X69208Y-56772D01*
X69208Y-56772D02*
X71825Y-59389D01*
X71825Y-59389D02*
X73892Y-61456D01*
X73892Y-61456D02*
X79532Y-61456D01*
X79532Y-61456D02*
X82066Y-63990D01*
X82066Y-63990D02*
X83626Y-63990D01*
X83626Y-63990D02*
X84540Y-63076D01*
X84540Y-63076D02*
X84540Y-61989D01*
G54D22*
X69192Y-56772D02*
X69208Y-56772D01*
X84540Y-63076D02*
X84540Y-61989D01*
X83626Y-63990D02*
X84540Y-63076D01*
X82066Y-63990D02*
X83626Y-63990D01*
X79532Y-61456D02*
X82066Y-63990D01*
X73892Y-61456D02*
X79532Y-61456D01*
X69208Y-56772D02*
X73892Y-61456D01*
X69188Y-56776D02*
X69192Y-56772D01*
X65726Y-56776D02*
X69188Y-56776D01*
X65100Y-56150D02*
X65726Y-56776D01*
G54D21*
X65100Y-52941D02*
X65208Y-52833D01*
G54D22*
X65178Y-52803D02*
X65208Y-52833D01*
G54D21*
X66820Y-55960D02*
X69710Y-55960D01*
X69000Y-55250D02*
X69000Y-52700D01*
X69710Y-55960D02*
X69000Y-55250D01*
G54D23*
X69000Y-52700D02*
X69000Y-53780D01*
X83060Y-62662D02*
X78758Y-58360D01*
X78758Y-58360D02*
X72110Y-58360D01*
X72110Y-58360D02*
X69730Y-55980D01*
X69730Y-55980D02*
X66840Y-55980D01*
X66840Y-55980D02*
X66820Y-55960D01*
G54D22*
X66820Y-55960D02*
X69730Y-55960D01*
X69730Y-55960D02*
X72130Y-58360D01*
G54D21*
X66820Y-55960D02*
X66820Y-55940D01*
X69000Y-53760D02*
X69000Y-52700D01*
X78758Y-58360D02*
X83060Y-62662D01*
X72130Y-58360D02*
X78758Y-58360D01*
X77385Y-46709D02*
X77385Y-45776D01*
X78556Y-47880D02*
X77385Y-46709D01*
G54D22*
X77385Y-45776D02*
X77915Y-45776D01*
X74820Y-44070D02*
X74385Y-44505D01*
X77956Y-44070D02*
X74820Y-44070D01*
X78240Y-44354D02*
X77956Y-44070D01*
X78240Y-45452D02*
X78240Y-44354D01*
X77915Y-45776D02*
X78240Y-45452D01*
X74385Y-44505D02*
X74385Y-44776D01*
X74385Y-44776D02*
X74385Y-44505D01*
X72075Y-44086D02*
X71385Y-44776D01*
X73966Y-44086D02*
X72075Y-44086D01*
X74385Y-44505D02*
X73966Y-44086D01*
X67385Y-44776D02*
X67385Y-44440D01*
X70755Y-44146D02*
X71385Y-44776D01*
X67680Y-44146D02*
X70755Y-44146D01*
X67385Y-44440D02*
X67680Y-44146D01*
G54D21*
X70460Y-53340D02*
X71680Y-54560D01*
X71680Y-54560D02*
X71680Y-56560D01*
X71680Y-56560D02*
X72630Y-57510D01*
X81230Y-57510D02*
X81240Y-57510D01*
X81240Y-57510D02*
X83310Y-59580D01*
X72630Y-57510D02*
X81230Y-57510D01*
X81230Y-57510D02*
X81275Y-57510D01*
X83310Y-59580D02*
X84160Y-59580D01*
X84160Y-59580D02*
X85147Y-60567D01*
X69360Y-47820D02*
X70395Y-46785D01*
X72375Y-46785D02*
X72380Y-46780D01*
X70395Y-46785D02*
X72375Y-46785D01*
X69360Y-47820D02*
X69360Y-47870D01*
X66139Y-48524D02*
X65389Y-47774D01*
X68706Y-48524D02*
X66139Y-48524D01*
X69360Y-47870D02*
X68706Y-48524D01*
X69360Y-47820D02*
X69314Y-47774D01*
X85147Y-60567D02*
X85147Y-61382D01*
X85475Y-61710D02*
X85147Y-61382D01*
X88506Y-61710D02*
X85475Y-61710D01*
X84540Y-61989D02*
X85147Y-61382D01*
X87625Y-63860D02*
X85147Y-61382D01*
X85147Y-63265D02*
X85147Y-61382D01*
G54D22*
X84540Y-61989D02*
X85147Y-61382D01*
G54D24*
X64965Y-52125D02*
X64965Y-51784D01*
X64785Y-44499D02*
X65086Y-44198D01*
X64785Y-51604D02*
X64785Y-44499D01*
X64965Y-51784D02*
X64785Y-51604D01*
X65905Y-44282D02*
X65821Y-44198D01*
X65821Y-44198D02*
X65086Y-44198D01*
X65086Y-44198D02*
X64848Y-44436D01*
G54D22*
X87960Y-60840D02*
X87960Y-61080D01*
X85650Y-58530D02*
X87960Y-60840D01*
X84390Y-58530D02*
X85650Y-58530D01*
X82250Y-56390D02*
X84390Y-58530D01*
X75508Y-56390D02*
X82250Y-56390D01*
X73906Y-54802D02*
X75508Y-56390D01*
X73472Y-52980D02*
X73920Y-52494D01*
X73472Y-55146D02*
X73472Y-52980D01*
X75218Y-56892D02*
X73472Y-55146D01*
X81686Y-56892D02*
X75218Y-56892D01*
X83930Y-59136D02*
X81686Y-56892D01*
X85206Y-59136D02*
X83930Y-59136D01*
X87142Y-61072D02*
X85206Y-59136D01*
G54D25*
X72480Y-51380D02*
X72460Y-51380D01*
X80300Y-51380D02*
X72480Y-51380D01*
X80320Y-51360D02*
X80300Y-51380D01*
X79960Y-51700D02*
X73060Y-51700D01*
X80320Y-52060D02*
X79960Y-51700D01*
G54D22*
X67858Y-54222D02*
X67858Y-55146D01*
X67795Y-54159D02*
X67858Y-54222D01*
G54D24*
X82780Y-45740D02*
X82168Y-45740D01*
X82168Y-45740D02*
X76856Y-51052D01*
X76856Y-51052D02*
X75160Y-51052D01*
X73580Y-52020D02*
X79606Y-52020D01*
X73560Y-52000D02*
X73580Y-52020D01*
X79606Y-52020D02*
X80222Y-52636D01*
X80222Y-52636D02*
X80670Y-52636D01*
X80670Y-52636D02*
X84780Y-48526D01*
X84780Y-48526D02*
X84780Y-45740D01*
X73180Y-52920D02*
X73180Y-55860D01*
X73000Y-52740D02*
X73180Y-52920D01*
X71820Y-52740D02*
X73000Y-52740D01*
X71000Y-51920D02*
X71820Y-52740D01*
X71000Y-50820D02*
X71000Y-51920D01*
X70240Y-50060D02*
X71000Y-50820D01*
M02*
