G04 (created by PCBNEW (2013-08-20 BZR 4294)-product) date 9/16/2013 9:24:49 PM*
%MOIN*%
G04 Gerber Fmt 3.4, Leading zero omitted, Abs format*
%FSLAX34Y34*%
G01*
G70*
G90*
G04 APERTURE LIST*
%ADD10C,0.001000*%
%ADD11R,0.055318X0.114373*%
%ADD12R,0.110436X0.071066*%
%ADD13R,0.065200X0.016200*%
%ADD14R,0.060200X0.060200*%
%ADD15C,0.060200*%
%ADD16R,0.039600X0.023800*%
%ADD17R,0.078900X0.216700*%
%ADD18R,0.055200X0.035200*%
%ADD19R,0.035200X0.055200*%
%ADD20R,0.071100X0.051400*%
%ADD21R,0.071100X0.149800*%
%ADD22R,0.051400X0.059200*%
%ADD23R,0.059200X0.051400*%
%ADD24R,0.086800X0.060200*%
%ADD25O,0.086800X0.060200*%
%ADD26R,0.040200X0.070200*%
%ADD27R,0.050200X0.025200*%
%ADD28R,0.023800X0.039600*%
%ADD29R,0.112405X0.078940*%
%ADD30R,0.070900X0.106400*%
%ADD31R,0.106400X0.070900*%
%ADD32O,0.157700X0.078900*%
%ADD33O,0.078900X0.157700*%
%ADD34O,0.078900X0.177400*%
G04 APERTURE END LIST*
G54D10*
G54D11*
X83031Y-62696D03*
G54D12*
X81555Y-64153D03*
G54D11*
X80078Y-62696D03*
X75440Y-62673D03*
G54D12*
X73964Y-64129D03*
G54D11*
X72488Y-62673D03*
G54D13*
X71992Y-51581D03*
X71992Y-51837D03*
X71992Y-52093D03*
X71992Y-52349D03*
X74826Y-50813D03*
X71992Y-50813D03*
X71992Y-51069D03*
X71992Y-51325D03*
X74826Y-52605D03*
X74826Y-52349D03*
X74826Y-52093D03*
X74826Y-51837D03*
X74826Y-51581D03*
X74826Y-51325D03*
X71992Y-52605D03*
X74826Y-51069D03*
X74826Y-50557D03*
X74826Y-50302D03*
X74826Y-50046D03*
X71992Y-50046D03*
X71992Y-50302D03*
X71992Y-50557D03*
X71992Y-52861D03*
X71992Y-53116D03*
X71992Y-53372D03*
X74826Y-53372D03*
X74826Y-53116D03*
X74826Y-52861D03*
G54D14*
X65385Y-45776D03*
G54D15*
X65385Y-44776D03*
X66385Y-45776D03*
X66385Y-44776D03*
X67385Y-45776D03*
X67385Y-44776D03*
X68385Y-45776D03*
X68385Y-44776D03*
X69385Y-45776D03*
X69385Y-44776D03*
X70385Y-45776D03*
X70385Y-44776D03*
X71385Y-45776D03*
X71385Y-44776D03*
X72385Y-45776D03*
X72385Y-44776D03*
X73385Y-45776D03*
X73385Y-44776D03*
X74385Y-45776D03*
X74385Y-44776D03*
X75385Y-45776D03*
X75385Y-44776D03*
X76385Y-45776D03*
X76385Y-44776D03*
X77385Y-45776D03*
X77385Y-44776D03*
G54D16*
X77772Y-57215D03*
X77772Y-57965D03*
X77772Y-57590D03*
X78604Y-57965D03*
X78604Y-57215D03*
G54D17*
X78275Y-50027D03*
X78275Y-53767D03*
G54D18*
X80084Y-61371D03*
X80084Y-60621D03*
X80940Y-61361D03*
X80940Y-60611D03*
X84783Y-61723D03*
X84783Y-60973D03*
G54D19*
X83245Y-61340D03*
X82495Y-61340D03*
G54D18*
X79208Y-61361D03*
X79208Y-60611D03*
G54D19*
X77644Y-61281D03*
X76894Y-61281D03*
G54D18*
X73608Y-61351D03*
X73608Y-60601D03*
X72801Y-61351D03*
X72801Y-60601D03*
G54D20*
X67627Y-51657D03*
X67627Y-50751D03*
X67627Y-49845D03*
G54D21*
X65265Y-50751D03*
G54D22*
X89028Y-51220D03*
X88278Y-51220D03*
X89024Y-55350D03*
X88274Y-55350D03*
X72514Y-58090D03*
X73264Y-58090D03*
X89028Y-57468D03*
X88278Y-57468D03*
X89075Y-53300D03*
X88325Y-53300D03*
G54D23*
X76594Y-57894D03*
X76594Y-57144D03*
G54D22*
X74140Y-56622D03*
X74890Y-56622D03*
G54D23*
X68582Y-51772D03*
X68582Y-51022D03*
X78592Y-56499D03*
X78592Y-55749D03*
X68592Y-49575D03*
X68592Y-50325D03*
G54D22*
X73975Y-54342D03*
X74725Y-54342D03*
G54D23*
X79448Y-57914D03*
X79448Y-57164D03*
G54D22*
X73256Y-54338D03*
X72506Y-54338D03*
G54D23*
X80074Y-59943D03*
X80074Y-59193D03*
X80950Y-59924D03*
X80950Y-59174D03*
G54D22*
X73034Y-49110D03*
X73784Y-49110D03*
G54D23*
X79838Y-50735D03*
X79838Y-51485D03*
G54D22*
X76556Y-54425D03*
X75806Y-54425D03*
X76556Y-53614D03*
X75806Y-53614D03*
G54D23*
X79850Y-53004D03*
X79850Y-52254D03*
X74474Y-59882D03*
X74474Y-60632D03*
X75301Y-59892D03*
X75301Y-60642D03*
G54D24*
X85118Y-57181D03*
G54D25*
X85118Y-56181D03*
X85118Y-55181D03*
X85118Y-54181D03*
X85118Y-53181D03*
X85118Y-52181D03*
X85118Y-51181D03*
X85118Y-50181D03*
G54D26*
X73243Y-55169D03*
X72543Y-55169D03*
X75839Y-49449D03*
X76539Y-49449D03*
G54D23*
X77696Y-55749D03*
X77696Y-56499D03*
X76791Y-55749D03*
X76791Y-56499D03*
G54D22*
X70215Y-49783D03*
X70965Y-49783D03*
X70215Y-51358D03*
X70965Y-51358D03*
X70219Y-50555D03*
X70969Y-50555D03*
X70215Y-52165D03*
X70965Y-52165D03*
X75817Y-51086D03*
X76567Y-51086D03*
X75810Y-52724D03*
X76560Y-52724D03*
X75817Y-50271D03*
X76567Y-50271D03*
X75817Y-51921D03*
X76567Y-51921D03*
G54D27*
X82727Y-57819D03*
X82727Y-57319D03*
X82727Y-56819D03*
X82727Y-56319D03*
X80527Y-56319D03*
X80527Y-56819D03*
X80527Y-57319D03*
X80527Y-57819D03*
X78340Y-60604D03*
X78340Y-60104D03*
X78340Y-59604D03*
X78340Y-59104D03*
X76140Y-59104D03*
X76140Y-59604D03*
X76140Y-60104D03*
X76140Y-60604D03*
X83963Y-60636D03*
X83963Y-60136D03*
X83963Y-59636D03*
X83963Y-59136D03*
X81763Y-59136D03*
X81763Y-59636D03*
X81763Y-60136D03*
X81763Y-60636D03*
G54D28*
X74117Y-55868D03*
X74867Y-55868D03*
X74492Y-55868D03*
X74867Y-55036D03*
X74117Y-55036D03*
G54D14*
X74380Y-46780D03*
G54D15*
X74380Y-47780D03*
X73380Y-46780D03*
X73380Y-47780D03*
X72380Y-46780D03*
X72380Y-47780D03*
G54D14*
X67388Y-46781D03*
G54D15*
X67388Y-47781D03*
X68388Y-46781D03*
X68388Y-47781D03*
X69388Y-46781D03*
X69388Y-47781D03*
X70388Y-46781D03*
X70388Y-47781D03*
G54D14*
X66385Y-46775D03*
G54D15*
X66385Y-47775D03*
X65385Y-46775D03*
X65385Y-47775D03*
G54D29*
X86244Y-63992D03*
X86244Y-61354D03*
X86244Y-62732D03*
X88881Y-62732D03*
X88881Y-61354D03*
X88881Y-63992D03*
G54D30*
X86996Y-50204D03*
X88176Y-50204D03*
X86996Y-56413D03*
X88176Y-56413D03*
X86992Y-54291D03*
X88172Y-54291D03*
G54D31*
X72913Y-56059D03*
X72913Y-57239D03*
G54D30*
X87000Y-52240D03*
X88180Y-52240D03*
G54D14*
X77000Y-64799D03*
G54D15*
X77000Y-63799D03*
X77000Y-62799D03*
G54D14*
X84555Y-64795D03*
G54D15*
X84555Y-63795D03*
X84555Y-62795D03*
G54D32*
X68968Y-58413D03*
G54D33*
X67688Y-56326D03*
G54D34*
X70051Y-56326D03*
M02*
