G04 (created by PCBNEW (2013-08-20 BZR 4294)-product) date 9/16/2013 9:24:49 PM*
%MOIN*%
G04 Gerber Fmt 3.4, Leading zero omitted, Abs format*
%FSLAX34Y34*%
G01*
G70*
G90*
G04 APERTURE LIST*
%ADD10C,0.001000*%
%ADD11R,0.055318X0.114373*%
%ADD12R,0.110436X0.071066*%
%ADD13R,0.060200X0.060200*%
%ADD14C,0.060200*%
%ADD15R,0.086800X0.060200*%
%ADD16O,0.086800X0.060200*%
%ADD17R,0.051400X0.059200*%
%ADD18R,0.082900X0.067100*%
%ADD19R,0.106200X0.063200*%
%ADD20O,0.157700X0.078900*%
%ADD21O,0.078900X0.157700*%
%ADD22O,0.078900X0.177400*%
G04 APERTURE END LIST*
G54D10*
G54D11*
X83031Y-62696D03*
G54D12*
X81555Y-64153D03*
G54D11*
X80078Y-62696D03*
X75440Y-62673D03*
G54D12*
X73964Y-64129D03*
G54D11*
X72488Y-62673D03*
G54D13*
X65385Y-45776D03*
G54D14*
X65385Y-44776D03*
X66385Y-45776D03*
X66385Y-44776D03*
X67385Y-45776D03*
X67385Y-44776D03*
X68385Y-45776D03*
X68385Y-44776D03*
X69385Y-45776D03*
X69385Y-44776D03*
X70385Y-45776D03*
X70385Y-44776D03*
X71385Y-45776D03*
X71385Y-44776D03*
X72385Y-45776D03*
X72385Y-44776D03*
X73385Y-45776D03*
X73385Y-44776D03*
X74385Y-45776D03*
X74385Y-44776D03*
X75385Y-45776D03*
X75385Y-44776D03*
X76385Y-45776D03*
X76385Y-44776D03*
X77385Y-45776D03*
X77385Y-44776D03*
G54D15*
X85118Y-57181D03*
G54D16*
X85118Y-56181D03*
X85118Y-55181D03*
X85118Y-54181D03*
X85118Y-53181D03*
X85118Y-52181D03*
X85118Y-51181D03*
X85118Y-50181D03*
G54D17*
X85760Y-60584D03*
X86510Y-60584D03*
X88412Y-62000D03*
X89162Y-62000D03*
G54D13*
X74380Y-46780D03*
G54D14*
X74380Y-47780D03*
X73380Y-46780D03*
X73380Y-47780D03*
X72380Y-46780D03*
X72380Y-47780D03*
G54D17*
X86502Y-58352D03*
X85752Y-58352D03*
X89154Y-62763D03*
X88404Y-62763D03*
X85764Y-59805D03*
X86514Y-59805D03*
X88412Y-64303D03*
X89162Y-64303D03*
G54D18*
X65917Y-58870D03*
X67279Y-58870D03*
G54D19*
X65850Y-56450D03*
X65850Y-57550D03*
G54D13*
X67388Y-46781D03*
G54D14*
X67388Y-47781D03*
X68388Y-46781D03*
X68388Y-47781D03*
X69388Y-46781D03*
X69388Y-47781D03*
X70388Y-46781D03*
X70388Y-47781D03*
G54D13*
X66385Y-46775D03*
G54D14*
X66385Y-47775D03*
X65385Y-46775D03*
X65385Y-47775D03*
G54D13*
X77000Y-64799D03*
G54D14*
X77000Y-63799D03*
X77000Y-62799D03*
G54D13*
X84555Y-64795D03*
G54D14*
X84555Y-63795D03*
X84555Y-62795D03*
G54D17*
X86502Y-59104D03*
X85752Y-59104D03*
X89162Y-63531D03*
X88412Y-63531D03*
G54D20*
X68968Y-58413D03*
G54D21*
X67688Y-56326D03*
G54D22*
X70051Y-56326D03*
M02*
