G04 (created by PCBNEW (2013-08-20 BZR 4294)-product) date 9/16/2013 9:24:49 PM*
%MOIN*%
G04 Gerber Fmt 3.4, Leading zero omitted, Abs format*
%FSLAX34Y34*%
G01*
G70*
G90*
G04 APERTURE LIST*
%ADD10C,0.001000*%
%ADD11C,0.005000*%
%ADD12C,0.002400*%
%ADD13C,0.004700*%
G04 APERTURE END LIST*
G54D10*
G54D11*
X85885Y-60334D02*
X85885Y-60834D01*
X86385Y-60334D02*
X86385Y-60824D01*
X86535Y-60334D02*
X85735Y-60334D01*
X85735Y-60334D02*
X85735Y-60834D01*
X85735Y-60834D02*
X86535Y-60834D01*
X86535Y-60834D02*
X86535Y-60334D01*
X88537Y-61750D02*
X88537Y-62250D01*
X89037Y-61750D02*
X89037Y-62240D01*
X89187Y-61750D02*
X88387Y-61750D01*
X88387Y-61750D02*
X88387Y-62250D01*
X88387Y-62250D02*
X89187Y-62250D01*
X89187Y-62250D02*
X89187Y-61750D01*
X86377Y-58602D02*
X86377Y-58102D01*
X85877Y-58602D02*
X85877Y-58112D01*
X85727Y-58602D02*
X86527Y-58602D01*
X86527Y-58602D02*
X86527Y-58102D01*
X86527Y-58102D02*
X85727Y-58102D01*
X85727Y-58102D02*
X85727Y-58602D01*
X89029Y-63013D02*
X89029Y-62513D01*
X88529Y-63013D02*
X88529Y-62523D01*
X88379Y-63013D02*
X89179Y-63013D01*
X89179Y-63013D02*
X89179Y-62513D01*
X89179Y-62513D02*
X88379Y-62513D01*
X88379Y-62513D02*
X88379Y-63013D01*
X85889Y-59555D02*
X85889Y-60055D01*
X86389Y-59555D02*
X86389Y-60045D01*
X86539Y-59555D02*
X85739Y-59555D01*
X85739Y-59555D02*
X85739Y-60055D01*
X85739Y-60055D02*
X86539Y-60055D01*
X86539Y-60055D02*
X86539Y-59555D01*
X88537Y-64053D02*
X88537Y-64553D01*
X89037Y-64053D02*
X89037Y-64543D01*
X89187Y-64053D02*
X88387Y-64053D01*
X88387Y-64053D02*
X88387Y-64553D01*
X88387Y-64553D02*
X89187Y-64553D01*
X89187Y-64553D02*
X89187Y-64053D01*
X65771Y-59421D02*
X65771Y-58319D01*
X65811Y-58319D02*
X65811Y-59421D01*
X65850Y-59421D02*
X65850Y-58319D01*
X65889Y-58319D02*
X65889Y-59421D01*
X65929Y-58319D02*
X65929Y-59421D01*
X65732Y-58319D02*
X67464Y-58319D01*
X67464Y-58319D02*
X67464Y-59421D01*
X67464Y-59421D02*
X65732Y-59421D01*
X65732Y-59421D02*
X65732Y-58319D01*
X66340Y-57630D02*
X65360Y-57630D01*
X65360Y-56370D02*
X66340Y-56370D01*
X66340Y-56550D02*
X65360Y-56550D01*
X65360Y-57450D02*
X66340Y-57450D01*
X65360Y-57630D02*
X65360Y-56370D01*
X66340Y-56370D02*
X66340Y-57630D01*
X86377Y-59354D02*
X86377Y-58854D01*
X85877Y-59354D02*
X85877Y-58864D01*
X85727Y-59354D02*
X86527Y-59354D01*
X86527Y-59354D02*
X86527Y-58854D01*
X86527Y-58854D02*
X85727Y-58854D01*
X85727Y-58854D02*
X85727Y-59354D01*
X89037Y-63781D02*
X89037Y-63281D01*
X88537Y-63781D02*
X88537Y-63291D01*
X88387Y-63781D02*
X89187Y-63781D01*
X89187Y-63781D02*
X89187Y-63281D01*
X89187Y-63281D02*
X88387Y-63281D01*
X88387Y-63281D02*
X88387Y-63781D01*
G54D12*
X87199Y-60570D02*
X87142Y-60531D01*
X87199Y-60503D02*
X87081Y-60503D01*
X87081Y-60548D01*
X87086Y-60559D01*
X87092Y-60565D01*
X87103Y-60570D01*
X87120Y-60570D01*
X87131Y-60565D01*
X87137Y-60559D01*
X87142Y-60548D01*
X87142Y-60503D01*
X87081Y-60610D02*
X87081Y-60683D01*
X87126Y-60643D01*
X87126Y-60660D01*
X87131Y-60672D01*
X87137Y-60677D01*
X87148Y-60683D01*
X87176Y-60683D01*
X87187Y-60677D01*
X87193Y-60672D01*
X87199Y-60660D01*
X87199Y-60627D01*
X87193Y-60615D01*
X87187Y-60610D01*
X86884Y-60534D02*
X86884Y-60478D01*
X86940Y-60472D01*
X86934Y-60478D01*
X86929Y-60489D01*
X86929Y-60517D01*
X86934Y-60528D01*
X86940Y-60534D01*
X86951Y-60539D01*
X86979Y-60539D01*
X86990Y-60534D01*
X86996Y-60528D01*
X87002Y-60517D01*
X87002Y-60489D01*
X86996Y-60478D01*
X86990Y-60472D01*
X87002Y-60590D02*
X86884Y-60590D01*
X86957Y-60601D02*
X87002Y-60635D01*
X86923Y-60635D02*
X86968Y-60590D01*
X86884Y-60736D02*
X86884Y-60714D01*
X86889Y-60702D01*
X86895Y-60697D01*
X86912Y-60686D01*
X86934Y-60680D01*
X86979Y-60680D01*
X86990Y-60686D01*
X86996Y-60691D01*
X87002Y-60702D01*
X87002Y-60725D01*
X86996Y-60736D01*
X86990Y-60742D01*
X86979Y-60747D01*
X86951Y-60747D01*
X86940Y-60742D01*
X86934Y-60736D01*
X86929Y-60725D01*
X86929Y-60702D01*
X86934Y-60691D01*
X86940Y-60686D01*
X86951Y-60680D01*
X88807Y-61663D02*
X88846Y-61607D01*
X88874Y-61663D02*
X88874Y-61545D01*
X88829Y-61545D01*
X88818Y-61551D01*
X88812Y-61556D01*
X88807Y-61567D01*
X88807Y-61584D01*
X88812Y-61595D01*
X88818Y-61601D01*
X88829Y-61607D01*
X88874Y-61607D01*
X88705Y-61584D02*
X88705Y-61663D01*
X88734Y-61539D02*
X88762Y-61624D01*
X88689Y-61624D01*
X87907Y-61971D02*
X87907Y-61915D01*
X87964Y-61909D01*
X87958Y-61915D01*
X87952Y-61926D01*
X87952Y-61954D01*
X87958Y-61965D01*
X87964Y-61971D01*
X87975Y-61977D01*
X88003Y-61977D01*
X88014Y-61971D01*
X88020Y-61965D01*
X88025Y-61954D01*
X88025Y-61926D01*
X88020Y-61915D01*
X88014Y-61909D01*
X88025Y-62027D02*
X87907Y-62027D01*
X87980Y-62038D02*
X88025Y-62072D01*
X87947Y-62072D02*
X87992Y-62027D01*
X87907Y-62173D02*
X87907Y-62151D01*
X87913Y-62139D01*
X87919Y-62134D01*
X87935Y-62123D01*
X87958Y-62117D01*
X88003Y-62117D01*
X88014Y-62123D01*
X88020Y-62128D01*
X88025Y-62139D01*
X88025Y-62162D01*
X88020Y-62173D01*
X88014Y-62179D01*
X88003Y-62184D01*
X87975Y-62184D01*
X87964Y-62179D01*
X87958Y-62173D01*
X87952Y-62162D01*
X87952Y-62139D01*
X87958Y-62128D01*
X87964Y-62123D01*
X87975Y-62117D01*
X86751Y-57955D02*
X86757Y-57961D01*
X86774Y-57966D01*
X86785Y-57966D01*
X86802Y-57961D01*
X86813Y-57949D01*
X86819Y-57938D01*
X86824Y-57916D01*
X86824Y-57899D01*
X86819Y-57876D01*
X86813Y-57865D01*
X86802Y-57854D01*
X86785Y-57848D01*
X86774Y-57848D01*
X86757Y-57854D01*
X86751Y-57860D01*
X86684Y-57899D02*
X86695Y-57893D01*
X86701Y-57888D01*
X86706Y-57876D01*
X86706Y-57871D01*
X86701Y-57860D01*
X86695Y-57854D01*
X86684Y-57848D01*
X86662Y-57848D01*
X86650Y-57854D01*
X86645Y-57860D01*
X86639Y-57871D01*
X86639Y-57876D01*
X86645Y-57888D01*
X86650Y-57893D01*
X86662Y-57899D01*
X86684Y-57899D01*
X86695Y-57904D01*
X86701Y-57910D01*
X86706Y-57921D01*
X86706Y-57944D01*
X86701Y-57955D01*
X86695Y-57961D01*
X86684Y-57966D01*
X86662Y-57966D01*
X86650Y-57961D01*
X86645Y-57955D01*
X86639Y-57944D01*
X86639Y-57921D01*
X86645Y-57910D01*
X86650Y-57904D01*
X86662Y-57899D01*
X86076Y-57840D02*
X86071Y-57834D01*
X86059Y-57829D01*
X86031Y-57829D01*
X86020Y-57834D01*
X86015Y-57840D01*
X86009Y-57851D01*
X86009Y-57862D01*
X86015Y-57879D01*
X86082Y-57947D01*
X86009Y-57947D01*
X85964Y-57840D02*
X85958Y-57834D01*
X85947Y-57829D01*
X85919Y-57829D01*
X85908Y-57834D01*
X85902Y-57840D01*
X85897Y-57851D01*
X85897Y-57862D01*
X85902Y-57879D01*
X85970Y-57947D01*
X85897Y-57947D01*
X85823Y-57829D02*
X85812Y-57829D01*
X85801Y-57834D01*
X85795Y-57840D01*
X85790Y-57851D01*
X85784Y-57874D01*
X85784Y-57902D01*
X85790Y-57924D01*
X85795Y-57935D01*
X85801Y-57941D01*
X85812Y-57947D01*
X85823Y-57947D01*
X85835Y-57941D01*
X85840Y-57935D01*
X85846Y-57924D01*
X85852Y-57902D01*
X85852Y-57874D01*
X85846Y-57851D01*
X85840Y-57840D01*
X85835Y-57834D01*
X85823Y-57829D01*
X85734Y-57868D02*
X85734Y-57986D01*
X85734Y-57874D02*
X85722Y-57868D01*
X85700Y-57868D01*
X85689Y-57874D01*
X85683Y-57879D01*
X85677Y-57890D01*
X85677Y-57924D01*
X85683Y-57935D01*
X85689Y-57941D01*
X85700Y-57947D01*
X85722Y-57947D01*
X85734Y-57941D01*
X85587Y-57885D02*
X85627Y-57885D01*
X85627Y-57947D02*
X85627Y-57829D01*
X85571Y-57829D01*
X87798Y-62716D02*
X87803Y-62710D01*
X87809Y-62694D01*
X87809Y-62682D01*
X87803Y-62665D01*
X87792Y-62654D01*
X87781Y-62649D01*
X87758Y-62643D01*
X87741Y-62643D01*
X87719Y-62649D01*
X87708Y-62654D01*
X87696Y-62665D01*
X87691Y-62682D01*
X87691Y-62694D01*
X87696Y-62710D01*
X87702Y-62716D01*
X87809Y-62772D02*
X87809Y-62795D01*
X87803Y-62806D01*
X87798Y-62812D01*
X87781Y-62823D01*
X87758Y-62828D01*
X87713Y-62828D01*
X87702Y-62823D01*
X87696Y-62817D01*
X87691Y-62806D01*
X87691Y-62783D01*
X87696Y-62772D01*
X87702Y-62767D01*
X87713Y-62761D01*
X87741Y-62761D01*
X87753Y-62767D01*
X87758Y-62772D01*
X87764Y-62783D01*
X87764Y-62806D01*
X87758Y-62817D01*
X87753Y-62823D01*
X87741Y-62828D01*
X87899Y-62505D02*
X87893Y-62511D01*
X87888Y-62522D01*
X87888Y-62550D01*
X87893Y-62562D01*
X87899Y-62567D01*
X87910Y-62573D01*
X87921Y-62573D01*
X87938Y-62567D01*
X88006Y-62500D01*
X88006Y-62573D01*
X87899Y-62618D02*
X87893Y-62623D01*
X87888Y-62635D01*
X87888Y-62663D01*
X87893Y-62674D01*
X87899Y-62680D01*
X87910Y-62685D01*
X87921Y-62685D01*
X87938Y-62680D01*
X88006Y-62612D01*
X88006Y-62685D01*
X87888Y-62758D02*
X87888Y-62769D01*
X87893Y-62781D01*
X87899Y-62786D01*
X87910Y-62792D01*
X87933Y-62798D01*
X87961Y-62798D01*
X87983Y-62792D01*
X87994Y-62786D01*
X88000Y-62781D01*
X88006Y-62769D01*
X88006Y-62758D01*
X88000Y-62747D01*
X87994Y-62741D01*
X87983Y-62736D01*
X87961Y-62730D01*
X87933Y-62730D01*
X87910Y-62736D01*
X87899Y-62741D01*
X87893Y-62747D01*
X87888Y-62758D01*
X87927Y-62848D02*
X88045Y-62848D01*
X87933Y-62848D02*
X87927Y-62859D01*
X87927Y-62882D01*
X87933Y-62893D01*
X87938Y-62899D01*
X87949Y-62904D01*
X87983Y-62904D01*
X87994Y-62899D01*
X88000Y-62893D01*
X88006Y-62882D01*
X88006Y-62859D01*
X88000Y-62848D01*
X87944Y-62994D02*
X87944Y-62955D01*
X88006Y-62955D02*
X87888Y-62955D01*
X87888Y-63011D01*
X87187Y-59707D02*
X87193Y-59701D01*
X87199Y-59685D01*
X87199Y-59673D01*
X87193Y-59657D01*
X87182Y-59645D01*
X87170Y-59640D01*
X87148Y-59634D01*
X87131Y-59634D01*
X87109Y-59640D01*
X87097Y-59645D01*
X87086Y-59657D01*
X87081Y-59673D01*
X87081Y-59685D01*
X87086Y-59701D01*
X87092Y-59707D01*
X87092Y-59752D02*
X87086Y-59758D01*
X87081Y-59769D01*
X87081Y-59797D01*
X87086Y-59808D01*
X87092Y-59814D01*
X87103Y-59819D01*
X87114Y-59819D01*
X87131Y-59814D01*
X87199Y-59746D01*
X87199Y-59819D01*
X87081Y-59893D02*
X87081Y-59904D01*
X87086Y-59915D01*
X87092Y-59921D01*
X87103Y-59926D01*
X87126Y-59932D01*
X87154Y-59932D01*
X87176Y-59926D01*
X87187Y-59921D01*
X87193Y-59915D01*
X87199Y-59904D01*
X87199Y-59893D01*
X87193Y-59881D01*
X87187Y-59876D01*
X87176Y-59870D01*
X87154Y-59864D01*
X87126Y-59864D01*
X87103Y-59870D01*
X87092Y-59876D01*
X87086Y-59881D01*
X87081Y-59893D01*
X87002Y-59713D02*
X87002Y-59645D01*
X87002Y-59679D02*
X86884Y-59679D01*
X86901Y-59668D01*
X86912Y-59657D01*
X86917Y-59645D01*
X86923Y-59814D02*
X87002Y-59814D01*
X86923Y-59763D02*
X86985Y-59763D01*
X86996Y-59769D01*
X87002Y-59780D01*
X87002Y-59797D01*
X86996Y-59808D01*
X86990Y-59814D01*
X86940Y-59909D02*
X86940Y-59870D01*
X87002Y-59870D02*
X86884Y-59870D01*
X86884Y-59926D01*
X89550Y-64176D02*
X89555Y-64170D01*
X89561Y-64153D01*
X89561Y-64142D01*
X89555Y-64125D01*
X89544Y-64114D01*
X89533Y-64108D01*
X89510Y-64103D01*
X89493Y-64103D01*
X89471Y-64108D01*
X89460Y-64114D01*
X89448Y-64125D01*
X89443Y-64142D01*
X89443Y-64153D01*
X89448Y-64170D01*
X89454Y-64176D01*
X89454Y-64221D02*
X89448Y-64226D01*
X89443Y-64237D01*
X89443Y-64266D01*
X89448Y-64277D01*
X89454Y-64282D01*
X89465Y-64288D01*
X89476Y-64288D01*
X89493Y-64282D01*
X89561Y-64215D01*
X89561Y-64288D01*
X89561Y-64400D02*
X89561Y-64333D01*
X89561Y-64367D02*
X89443Y-64367D01*
X89460Y-64355D01*
X89471Y-64344D01*
X89476Y-64333D01*
X88065Y-64260D02*
X88065Y-64193D01*
X88065Y-64226D02*
X87947Y-64226D01*
X87964Y-64215D01*
X87975Y-64204D01*
X87980Y-64193D01*
X87986Y-64361D02*
X88065Y-64361D01*
X87986Y-64311D02*
X88048Y-64311D01*
X88059Y-64316D01*
X88065Y-64327D01*
X88065Y-64344D01*
X88059Y-64355D01*
X88053Y-64361D01*
X88003Y-64457D02*
X88003Y-64417D01*
X88065Y-64417D02*
X87947Y-64417D01*
X87947Y-64473D01*
G54D13*
X66743Y-58184D02*
X66743Y-57987D01*
X66696Y-57987D01*
X66668Y-57996D01*
X66650Y-58015D01*
X66640Y-58034D01*
X66631Y-58071D01*
X66631Y-58099D01*
X66640Y-58137D01*
X66650Y-58156D01*
X66668Y-58174D01*
X66696Y-58184D01*
X66743Y-58184D01*
X66443Y-58184D02*
X66556Y-58184D01*
X66499Y-58184D02*
X66499Y-57987D01*
X66518Y-58015D01*
X66537Y-58034D01*
X66556Y-58043D01*
X66526Y-56934D02*
X66526Y-56868D01*
X66629Y-56868D02*
X66432Y-56868D01*
X66432Y-56962D01*
X66629Y-57140D02*
X66629Y-57028D01*
X66629Y-57084D02*
X66432Y-57084D01*
X66460Y-57065D01*
X66479Y-57046D01*
X66488Y-57028D01*
G54D12*
X87159Y-59058D02*
X87103Y-59018D01*
X87159Y-58990D02*
X87041Y-58990D01*
X87041Y-59035D01*
X87047Y-59046D01*
X87052Y-59052D01*
X87064Y-59058D01*
X87081Y-59058D01*
X87092Y-59052D01*
X87097Y-59046D01*
X87103Y-59035D01*
X87103Y-58990D01*
X87159Y-59170D02*
X87159Y-59102D01*
X87159Y-59136D02*
X87041Y-59136D01*
X87058Y-59125D01*
X87069Y-59114D01*
X87075Y-59102D01*
X87092Y-59237D02*
X87086Y-59226D01*
X87081Y-59220D01*
X87069Y-59215D01*
X87064Y-59215D01*
X87052Y-59220D01*
X87047Y-59226D01*
X87041Y-59237D01*
X87041Y-59260D01*
X87047Y-59271D01*
X87052Y-59277D01*
X87064Y-59282D01*
X87069Y-59282D01*
X87081Y-59277D01*
X87086Y-59271D01*
X87092Y-59260D01*
X87092Y-59237D01*
X87097Y-59226D01*
X87103Y-59220D01*
X87114Y-59215D01*
X87137Y-59215D01*
X87148Y-59220D01*
X87154Y-59226D01*
X87159Y-59237D01*
X87159Y-59260D01*
X87154Y-59271D01*
X87148Y-59277D01*
X87137Y-59282D01*
X87114Y-59282D01*
X87103Y-59277D01*
X87097Y-59271D01*
X87092Y-59260D01*
X86864Y-59058D02*
X86864Y-59001D01*
X86920Y-58996D01*
X86915Y-59001D01*
X86909Y-59013D01*
X86909Y-59041D01*
X86915Y-59052D01*
X86920Y-59058D01*
X86931Y-59063D01*
X86960Y-59063D01*
X86971Y-59058D01*
X86976Y-59052D01*
X86982Y-59041D01*
X86982Y-59013D01*
X86976Y-59001D01*
X86971Y-58996D01*
X86982Y-59114D02*
X86864Y-59114D01*
X86937Y-59125D02*
X86982Y-59159D01*
X86903Y-59159D02*
X86948Y-59114D01*
X86864Y-59260D02*
X86864Y-59237D01*
X86870Y-59226D01*
X86875Y-59220D01*
X86892Y-59209D01*
X86915Y-59204D01*
X86960Y-59204D01*
X86971Y-59209D01*
X86976Y-59215D01*
X86982Y-59226D01*
X86982Y-59249D01*
X86976Y-59260D01*
X86971Y-59265D01*
X86960Y-59271D01*
X86931Y-59271D01*
X86920Y-59265D01*
X86915Y-59260D01*
X86909Y-59249D01*
X86909Y-59226D01*
X86915Y-59215D01*
X86920Y-59209D01*
X86931Y-59204D01*
X88065Y-63211D02*
X88009Y-63172D01*
X88065Y-63144D02*
X87947Y-63144D01*
X87947Y-63189D01*
X87952Y-63200D01*
X87958Y-63205D01*
X87969Y-63211D01*
X87986Y-63211D01*
X87997Y-63205D01*
X88003Y-63200D01*
X88009Y-63189D01*
X88009Y-63144D01*
X88065Y-63323D02*
X88065Y-63256D01*
X88065Y-63290D02*
X87947Y-63290D01*
X87964Y-63278D01*
X87975Y-63267D01*
X87980Y-63256D01*
X88065Y-63380D02*
X88065Y-63402D01*
X88059Y-63413D01*
X88053Y-63419D01*
X88037Y-63430D01*
X88014Y-63436D01*
X87969Y-63436D01*
X87958Y-63430D01*
X87952Y-63425D01*
X87947Y-63413D01*
X87947Y-63391D01*
X87952Y-63380D01*
X87958Y-63374D01*
X87969Y-63368D01*
X87997Y-63368D01*
X88009Y-63374D01*
X88014Y-63380D01*
X88020Y-63391D01*
X88020Y-63413D01*
X88014Y-63425D01*
X88009Y-63430D01*
X87997Y-63436D01*
X89443Y-63487D02*
X89443Y-63430D01*
X89499Y-63425D01*
X89493Y-63430D01*
X89488Y-63442D01*
X89488Y-63470D01*
X89493Y-63481D01*
X89499Y-63487D01*
X89510Y-63492D01*
X89538Y-63492D01*
X89550Y-63487D01*
X89555Y-63481D01*
X89561Y-63470D01*
X89561Y-63442D01*
X89555Y-63430D01*
X89550Y-63425D01*
X89561Y-63543D02*
X89443Y-63543D01*
X89516Y-63554D02*
X89561Y-63588D01*
X89482Y-63588D02*
X89527Y-63543D01*
X89443Y-63689D02*
X89443Y-63666D01*
X89448Y-63655D01*
X89454Y-63650D01*
X89471Y-63638D01*
X89493Y-63633D01*
X89538Y-63633D01*
X89550Y-63638D01*
X89555Y-63644D01*
X89561Y-63655D01*
X89561Y-63678D01*
X89555Y-63689D01*
X89550Y-63695D01*
X89538Y-63700D01*
X89510Y-63700D01*
X89499Y-63695D01*
X89493Y-63689D01*
X89488Y-63678D01*
X89488Y-63655D01*
X89493Y-63644D01*
X89499Y-63638D01*
X89510Y-63633D01*
M02*
