G04 (created by PCBNEW (2013-08-09 BZR 4280)-product) date 8/17/2013 3:52:17 PM*
%MOIN*%
G04 Gerber Fmt 3.4, Leading zero omitted, Abs format*
%FSLAX34Y34*%
G01*
G70*
G90*
G04 APERTURE LIST*
%ADD10C,0.001000*%
%ADD11R,0.118300X0.118300*%
%ADD12C,0.118300*%
%ADD13R,0.060200X0.060200*%
%ADD14C,0.060200*%
%ADD15O,0.078900X0.157700*%
%ADD16O,0.157700X0.078900*%
%ADD17O,0.177400X0.078900*%
G04 APERTURE END LIST*
G54D10*
G54D11*
X65800Y-63600D03*
G54D12*
X67800Y-63600D03*
X69800Y-63600D03*
G54D13*
X65389Y-46774D03*
G54D14*
X65389Y-47774D03*
X66389Y-46774D03*
X66389Y-47774D03*
X67389Y-46774D03*
X67389Y-47774D03*
X68389Y-46774D03*
X68389Y-47774D03*
G54D13*
X65385Y-45776D03*
G54D14*
X65385Y-44776D03*
X66385Y-45776D03*
X66385Y-44776D03*
X67385Y-45776D03*
X67385Y-44776D03*
X68385Y-45776D03*
X68385Y-44776D03*
X69385Y-45776D03*
X69385Y-44776D03*
X70385Y-45776D03*
X70385Y-44776D03*
X71385Y-45776D03*
X71385Y-44776D03*
X72385Y-45776D03*
X72385Y-44776D03*
X73385Y-45776D03*
X73385Y-44776D03*
X74385Y-45776D03*
X74385Y-44776D03*
X75385Y-45776D03*
X75385Y-44776D03*
X76385Y-45776D03*
X76385Y-44776D03*
X77385Y-45776D03*
X77385Y-44776D03*
G54D15*
X85147Y-61382D03*
G54D16*
X83060Y-62662D03*
G54D17*
X83060Y-60299D03*
G54D11*
X89100Y-63860D03*
G54D12*
X91100Y-63860D03*
X93100Y-63860D03*
G54D11*
X86780Y-45740D03*
G54D12*
X84780Y-45740D03*
X82780Y-45740D03*
G54D13*
X74380Y-46780D03*
G54D14*
X74380Y-47780D03*
X73380Y-46780D03*
X73380Y-47780D03*
X72380Y-46780D03*
X72380Y-47780D03*
G54D11*
X72200Y-63600D03*
G54D12*
X74200Y-63600D03*
X76200Y-63600D03*
M02*
